<?xml version="1.0" encoding="utf-8" standalone="no"?>
<!DOCTYPE svg PUBLIC "-//W3C//DTD SVG 1.1//EN"
  "http://www.w3.org/Graphics/SVG/1.1/DTD/svg11.dtd">
<!-- Created with matplotlib (https://matplotlib.org/) -->
<svg height="180pt" version="1.1" viewBox="0 0 720 180" width="720pt" xmlns="http://www.w3.org/2000/svg" xmlns:xlink="http://www.w3.org/1999/xlink">
 <metadata>
  <rdf:RDF xmlns:cc="http://creativecommons.org/ns#" xmlns:dc="http://purl.org/dc/elements/1.1/" xmlns:rdf="http://www.w3.org/1999/02/22-rdf-syntax-ns#">
   <cc:Work>
    <dc:type rdf:resource="http://purl.org/dc/dcmitype/StillImage"/>
    <dc:date>2023-02-25T22:30:54.767541</dc:date>
    <dc:format>image/svg+xml</dc:format>
    <dc:creator>
     <cc:Agent>
      <dc:title>Matplotlib v3.3.4, https://matplotlib.org/</dc:title>
     </cc:Agent>
    </dc:creator>
   </cc:Work>
  </rdf:RDF>
 </metadata>
 <defs>
  <style type="text/css">*{stroke-linecap:butt;stroke-linejoin:round;}</style>
 </defs>
 <g id="figure_1">
  <g id="patch_1">
   <path d="M 0 180 
L 720 180 
L 720 0 
L 0 0 
z
" style="fill:#ffffff;"/>
  </g>
  <g id="axes_1">
   <g id="patch_2">
    <path d="M 90 160.2 
L 343.636364 160.2 
L 343.636364 21.6 
L 90 21.6 
z
" style="fill:#ffffff;"/>
   </g>
   <g id="matplotlib.axis_1">
    <g id="xtick_1">
     <g id="line2d_1">
      <path clip-path="url(#p81d287f682)" d="M 90 160.2 
L 90 21.6 
" style="fill:none;stroke:#b0b0b0;stroke-linecap:square;stroke-width:0.8;"/>
     </g>
     <g id="line2d_2">
      <defs>
       <path d="M 0 0 
L 0 3.5 
" id="m5257db06b0" style="stroke:#000000;stroke-width:0.8;"/>
      </defs>
      <g>
       <use style="stroke:#000000;stroke-width:0.8;" x="90" xlink:href="#m5257db06b0" y="160.2"/>
      </g>
     </g>
     <g id="text_1">
      <!-- 0 Hz -->
      <g transform="translate(78.845313 174.798438)scale(0.1 -0.1)">
       <defs>
        <path d="M 31.78125 66.40625 
Q 24.171875 66.40625 20.328125 58.90625 
Q 16.5 51.421875 16.5 36.375 
Q 16.5 21.390625 20.328125 13.890625 
Q 24.171875 6.390625 31.78125 6.390625 
Q 39.453125 6.390625 43.28125 13.890625 
Q 47.125 21.390625 47.125 36.375 
Q 47.125 51.421875 43.28125 58.90625 
Q 39.453125 66.40625 31.78125 66.40625 
z
M 31.78125 74.21875 
Q 44.046875 74.21875 50.515625 64.515625 
Q 56.984375 54.828125 56.984375 36.375 
Q 56.984375 17.96875 50.515625 8.265625 
Q 44.046875 -1.421875 31.78125 -1.421875 
Q 19.53125 -1.421875 13.0625 8.265625 
Q 6.59375 17.96875 6.59375 36.375 
Q 6.59375 54.828125 13.0625 64.515625 
Q 19.53125 74.21875 31.78125 74.21875 
z
" id="DejaVuSans-48"/>
        <path id="DejaVuSans-32"/>
        <path d="M 9.8125 72.90625 
L 19.671875 72.90625 
L 19.671875 43.015625 
L 55.515625 43.015625 
L 55.515625 72.90625 
L 65.375 72.90625 
L 65.375 0 
L 55.515625 0 
L 55.515625 34.71875 
L 19.671875 34.71875 
L 19.671875 0 
L 9.8125 0 
z
" id="DejaVuSans-72"/>
        <path d="M 5.515625 54.6875 
L 48.1875 54.6875 
L 48.1875 46.484375 
L 14.40625 7.171875 
L 48.1875 7.171875 
L 48.1875 0 
L 4.296875 0 
L 4.296875 8.203125 
L 38.09375 47.515625 
L 5.515625 47.515625 
z
" id="DejaVuSans-122"/>
       </defs>
       <use xlink:href="#DejaVuSans-48"/>
       <use x="63.623047" xlink:href="#DejaVuSans-32"/>
       <use x="95.410156" xlink:href="#DejaVuSans-72"/>
       <use x="170.605469" xlink:href="#DejaVuSans-122"/>
      </g>
     </g>
    </g>
    <g id="xtick_2">
     <g id="line2d_3">
      <path clip-path="url(#p81d287f682)" d="M 142.840909 160.2 
L 142.840909 21.6 
" style="fill:none;stroke:#b0b0b0;stroke-linecap:square;stroke-width:0.8;"/>
     </g>
     <g id="line2d_4">
      <g>
       <use style="stroke:#000000;stroke-width:0.8;" x="142.840909" xlink:href="#m5257db06b0" y="160.2"/>
      </g>
     </g>
     <g id="text_2">
      <!-- 5 kHz -->
      <g transform="translate(128.790909 174.798438)scale(0.1 -0.1)">
       <defs>
        <path d="M 10.796875 72.90625 
L 49.515625 72.90625 
L 49.515625 64.59375 
L 19.828125 64.59375 
L 19.828125 46.734375 
Q 21.96875 47.46875 24.109375 47.828125 
Q 26.265625 48.1875 28.421875 48.1875 
Q 40.625 48.1875 47.75 41.5 
Q 54.890625 34.8125 54.890625 23.390625 
Q 54.890625 11.625 47.5625 5.09375 
Q 40.234375 -1.421875 26.90625 -1.421875 
Q 22.3125 -1.421875 17.546875 -0.640625 
Q 12.796875 0.140625 7.71875 1.703125 
L 7.71875 11.625 
Q 12.109375 9.234375 16.796875 8.0625 
Q 21.484375 6.890625 26.703125 6.890625 
Q 35.15625 6.890625 40.078125 11.328125 
Q 45.015625 15.765625 45.015625 23.390625 
Q 45.015625 31 40.078125 35.4375 
Q 35.15625 39.890625 26.703125 39.890625 
Q 22.75 39.890625 18.8125 39.015625 
Q 14.890625 38.140625 10.796875 36.28125 
z
" id="DejaVuSans-53"/>
        <path d="M 9.078125 75.984375 
L 18.109375 75.984375 
L 18.109375 31.109375 
L 44.921875 54.6875 
L 56.390625 54.6875 
L 27.390625 29.109375 
L 57.625 0 
L 45.90625 0 
L 18.109375 26.703125 
L 18.109375 0 
L 9.078125 0 
z
" id="DejaVuSans-107"/>
       </defs>
       <use xlink:href="#DejaVuSans-53"/>
       <use x="63.623047" xlink:href="#DejaVuSans-32"/>
       <use x="95.410156" xlink:href="#DejaVuSans-107"/>
       <use x="153.320312" xlink:href="#DejaVuSans-72"/>
       <use x="228.515625" xlink:href="#DejaVuSans-122"/>
      </g>
     </g>
    </g>
    <g id="xtick_3">
     <g id="line2d_5">
      <path clip-path="url(#p81d287f682)" d="M 195.681818 160.2 
L 195.681818 21.6 
" style="fill:none;stroke:#b0b0b0;stroke-linecap:square;stroke-width:0.8;"/>
     </g>
     <g id="line2d_6">
      <g>
       <use style="stroke:#000000;stroke-width:0.8;" x="195.681818" xlink:href="#m5257db06b0" y="160.2"/>
      </g>
     </g>
     <g id="text_3">
      <!-- 10 kHz -->
      <g transform="translate(178.450568 174.798438)scale(0.1 -0.1)">
       <defs>
        <path d="M 12.40625 8.296875 
L 28.515625 8.296875 
L 28.515625 63.921875 
L 10.984375 60.40625 
L 10.984375 69.390625 
L 28.421875 72.90625 
L 38.28125 72.90625 
L 38.28125 8.296875 
L 54.390625 8.296875 
L 54.390625 0 
L 12.40625 0 
z
" id="DejaVuSans-49"/>
       </defs>
       <use xlink:href="#DejaVuSans-49"/>
       <use x="63.623047" xlink:href="#DejaVuSans-48"/>
       <use x="127.246094" xlink:href="#DejaVuSans-32"/>
       <use x="159.033203" xlink:href="#DejaVuSans-107"/>
       <use x="216.943359" xlink:href="#DejaVuSans-72"/>
       <use x="292.138672" xlink:href="#DejaVuSans-122"/>
      </g>
     </g>
    </g>
    <g id="xtick_4">
     <g id="line2d_7">
      <path clip-path="url(#p81d287f682)" d="M 248.522727 160.2 
L 248.522727 21.6 
" style="fill:none;stroke:#b0b0b0;stroke-linecap:square;stroke-width:0.8;"/>
     </g>
     <g id="line2d_8">
      <g>
       <use style="stroke:#000000;stroke-width:0.8;" x="248.522727" xlink:href="#m5257db06b0" y="160.2"/>
      </g>
     </g>
     <g id="text_4">
      <!-- 15 kHz -->
      <g transform="translate(231.291477 174.798438)scale(0.1 -0.1)">
       <use xlink:href="#DejaVuSans-49"/>
       <use x="63.623047" xlink:href="#DejaVuSans-53"/>
       <use x="127.246094" xlink:href="#DejaVuSans-32"/>
       <use x="159.033203" xlink:href="#DejaVuSans-107"/>
       <use x="216.943359" xlink:href="#DejaVuSans-72"/>
       <use x="292.138672" xlink:href="#DejaVuSans-122"/>
      </g>
     </g>
    </g>
    <g id="xtick_5">
     <g id="line2d_9">
      <path clip-path="url(#p81d287f682)" d="M 301.363636 160.2 
L 301.363636 21.6 
" style="fill:none;stroke:#b0b0b0;stroke-linecap:square;stroke-width:0.8;"/>
     </g>
     <g id="line2d_10">
      <g>
       <use style="stroke:#000000;stroke-width:0.8;" x="301.363636" xlink:href="#m5257db06b0" y="160.2"/>
      </g>
     </g>
     <g id="text_5">
      <!-- 20 kHz -->
      <g transform="translate(284.132386 174.798438)scale(0.1 -0.1)">
       <defs>
        <path d="M 19.1875 8.296875 
L 53.609375 8.296875 
L 53.609375 0 
L 7.328125 0 
L 7.328125 8.296875 
Q 12.9375 14.109375 22.625 23.890625 
Q 32.328125 33.6875 34.8125 36.53125 
Q 39.546875 41.84375 41.421875 45.53125 
Q 43.3125 49.21875 43.3125 52.78125 
Q 43.3125 58.59375 39.234375 62.25 
Q 35.15625 65.921875 28.609375 65.921875 
Q 23.96875 65.921875 18.8125 64.3125 
Q 13.671875 62.703125 7.8125 59.421875 
L 7.8125 69.390625 
Q 13.765625 71.78125 18.9375 73 
Q 24.125 74.21875 28.421875 74.21875 
Q 39.75 74.21875 46.484375 68.546875 
Q 53.21875 62.890625 53.21875 53.421875 
Q 53.21875 48.921875 51.53125 44.890625 
Q 49.859375 40.875 45.40625 35.40625 
Q 44.1875 33.984375 37.640625 27.21875 
Q 31.109375 20.453125 19.1875 8.296875 
z
" id="DejaVuSans-50"/>
       </defs>
       <use xlink:href="#DejaVuSans-50"/>
       <use x="63.623047" xlink:href="#DejaVuSans-48"/>
       <use x="127.246094" xlink:href="#DejaVuSans-32"/>
       <use x="159.033203" xlink:href="#DejaVuSans-107"/>
       <use x="216.943359" xlink:href="#DejaVuSans-72"/>
       <use x="292.138672" xlink:href="#DejaVuSans-122"/>
      </g>
     </g>
    </g>
    <g id="text_6">
     <!-- Tần số -->
     <g transform="translate(200.278338 188.476562)scale(0.1 -0.1)">
      <defs>
       <path d="M -0.296875 72.90625 
L 61.375 72.90625 
L 61.375 64.59375 
L 35.5 64.59375 
L 35.5 0 
L 25.59375 0 
L 25.59375 64.59375 
L -0.296875 64.59375 
z
" id="DejaVuSans-84"/>
       <path d="M 34.28125 27.484375 
Q 23.390625 27.484375 19.1875 25 
Q 14.984375 22.515625 14.984375 16.5 
Q 14.984375 11.71875 18.140625 8.90625 
Q 21.296875 6.109375 26.703125 6.109375 
Q 34.1875 6.109375 38.703125 11.40625 
Q 43.21875 16.703125 43.21875 25.484375 
L 43.21875 27.484375 
z
M 52.203125 31.203125 
L 52.203125 0 
L 43.21875 0 
L 43.21875 8.296875 
Q 40.140625 3.328125 35.546875 0.953125 
Q 30.953125 -1.421875 24.3125 -1.421875 
Q 15.921875 -1.421875 10.953125 3.296875 
Q 6 8.015625 6 15.921875 
Q 6 25.140625 12.171875 29.828125 
Q 18.359375 34.515625 30.609375 34.515625 
L 43.21875 34.515625 
L 43.21875 35.40625 
Q 43.21875 41.609375 39.140625 45 
Q 35.0625 48.390625 27.6875 48.390625 
Q 23 48.390625 18.546875 47.265625 
Q 14.109375 46.140625 10.015625 43.890625 
L 10.015625 52.203125 
Q 14.9375 54.109375 19.578125 55.046875 
Q 24.21875 56 28.609375 56 
Q 40.484375 56 46.34375 49.84375 
Q 52.203125 43.703125 52.203125 31.203125 
z
M 40.46875 84.515625 
L 50.03125 71.625 
L 42.5625 71.625 
L 31.34375 84.515625 
z
M 24.28125 74.609375 
L 33.46875 74.609375 
L 43.765625 61.625 
L 36.984375 61.625 
L 28.875 70.3125 
L 20.765625 61.625 
L 13.984375 61.625 
z
" id="DejaVuSans-7847"/>
       <path d="M 54.890625 33.015625 
L 54.890625 0 
L 45.90625 0 
L 45.90625 32.71875 
Q 45.90625 40.484375 42.875 44.328125 
Q 39.84375 48.1875 33.796875 48.1875 
Q 26.515625 48.1875 22.3125 43.546875 
Q 18.109375 38.921875 18.109375 30.90625 
L 18.109375 0 
L 9.078125 0 
L 9.078125 54.6875 
L 18.109375 54.6875 
L 18.109375 46.1875 
Q 21.34375 51.125 25.703125 53.5625 
Q 30.078125 56 35.796875 56 
Q 45.21875 56 50.046875 50.171875 
Q 54.890625 44.34375 54.890625 33.015625 
z
" id="DejaVuSans-110"/>
       <path d="M 44.28125 53.078125 
L 44.28125 44.578125 
Q 40.484375 46.53125 36.375 47.5 
Q 32.28125 48.484375 27.875 48.484375 
Q 21.1875 48.484375 17.84375 46.4375 
Q 14.5 44.390625 14.5 40.28125 
Q 14.5 37.15625 16.890625 35.375 
Q 19.28125 33.59375 26.515625 31.984375 
L 29.59375 31.296875 
Q 39.15625 29.25 43.1875 25.515625 
Q 47.21875 21.78125 47.21875 15.09375 
Q 47.21875 7.46875 41.1875 3.015625 
Q 35.15625 -1.421875 24.609375 -1.421875 
Q 20.21875 -1.421875 15.453125 -0.5625 
Q 10.6875 0.296875 5.421875 2 
L 5.421875 11.28125 
Q 10.40625 8.6875 15.234375 7.390625 
Q 20.0625 6.109375 24.8125 6.109375 
Q 31.15625 6.109375 34.5625 8.28125 
Q 37.984375 10.453125 37.984375 14.40625 
Q 37.984375 18.0625 35.515625 20.015625 
Q 33.0625 21.96875 24.703125 23.78125 
L 21.578125 24.515625 
Q 13.234375 26.265625 9.515625 29.90625 
Q 5.8125 33.546875 5.8125 39.890625 
Q 5.8125 47.609375 11.28125 51.796875 
Q 16.75 56 26.8125 56 
Q 31.78125 56 36.171875 55.265625 
Q 40.578125 54.546875 44.28125 53.078125 
z
" id="DejaVuSans-115"/>
       <path d="M 25.90625 74.609375 
L 35.09375 74.609375 
L 45.390625 61.625 
L 38.609375 61.625 
L 30.5 70.3125 
L 22.390625 61.625 
L 15.609375 61.625 
z
M 51.0625 84.515625 
L 60.09375 84.515625 
L 48.96875 71.625 
L 41.484375 71.625 
z
M 30.609375 48.390625 
Q 23.390625 48.390625 19.1875 42.75 
Q 14.984375 37.109375 14.984375 27.296875 
Q 14.984375 17.484375 19.15625 11.84375 
Q 23.34375 6.203125 30.609375 6.203125 
Q 37.796875 6.203125 41.984375 11.859375 
Q 46.1875 17.53125 46.1875 27.296875 
Q 46.1875 37.015625 41.984375 42.703125 
Q 37.796875 48.390625 30.609375 48.390625 
z
M 30.609375 56 
Q 42.328125 56 49.015625 48.375 
Q 55.71875 40.765625 55.71875 27.296875 
Q 55.71875 13.875 49.015625 6.21875 
Q 42.328125 -1.421875 30.609375 -1.421875 
Q 18.84375 -1.421875 12.171875 6.21875 
Q 5.515625 13.875 5.515625 27.296875 
Q 5.515625 40.765625 12.171875 48.375 
Q 18.84375 56 30.609375 56 
z
" id="DejaVuSans-7889"/>
      </defs>
      <use xlink:href="#DejaVuSans-84"/>
      <use x="61.083984" xlink:href="#DejaVuSans-7847"/>
      <use x="122.363281" xlink:href="#DejaVuSans-110"/>
      <use x="185.742188" xlink:href="#DejaVuSans-32"/>
      <use x="217.529297" xlink:href="#DejaVuSans-115"/>
      <use x="269.628906" xlink:href="#DejaVuSans-7889"/>
     </g>
    </g>
   </g>
   <g id="matplotlib.axis_2">
    <g id="ytick_1">
     <g id="line2d_11">
      <path clip-path="url(#p81d287f682)" d="M 90 155.066667 
L 343.636364 155.066667 
" style="fill:none;stroke:#b0b0b0;stroke-linecap:square;stroke-width:0.8;"/>
     </g>
     <g id="line2d_12">
      <defs>
       <path d="M 0 0 
L -3.5 0 
" id="m0e5b219ce0" style="stroke:#000000;stroke-width:0.8;"/>
      </defs>
      <g>
       <use style="stroke:#000000;stroke-width:0.8;" x="90" xlink:href="#m0e5b219ce0" y="155.066667"/>
      </g>
     </g>
     <g id="text_7">
      <!-- −125 -->
      <g transform="translate(55.532812 158.865885)scale(0.1 -0.1)">
       <defs>
        <path d="M 10.59375 35.5 
L 73.1875 35.5 
L 73.1875 27.203125 
L 10.59375 27.203125 
z
" id="DejaVuSans-8722"/>
       </defs>
       <use xlink:href="#DejaVuSans-8722"/>
       <use x="83.789062" xlink:href="#DejaVuSans-49"/>
       <use x="147.412109" xlink:href="#DejaVuSans-50"/>
       <use x="211.035156" xlink:href="#DejaVuSans-53"/>
      </g>
     </g>
    </g>
    <g id="ytick_2">
     <g id="line2d_13">
      <path clip-path="url(#p81d287f682)" d="M 90 129.4 
L 343.636364 129.4 
" style="fill:none;stroke:#b0b0b0;stroke-linecap:square;stroke-width:0.8;"/>
     </g>
     <g id="line2d_14">
      <g>
       <use style="stroke:#000000;stroke-width:0.8;" x="90" xlink:href="#m0e5b219ce0" y="129.4"/>
      </g>
     </g>
     <g id="text_8">
      <!-- −100 -->
      <g transform="translate(55.532812 133.199219)scale(0.1 -0.1)">
       <use xlink:href="#DejaVuSans-8722"/>
       <use x="83.789062" xlink:href="#DejaVuSans-49"/>
       <use x="147.412109" xlink:href="#DejaVuSans-48"/>
       <use x="211.035156" xlink:href="#DejaVuSans-48"/>
      </g>
     </g>
    </g>
    <g id="ytick_3">
     <g id="line2d_15">
      <path clip-path="url(#p81d287f682)" d="M 90 103.733333 
L 343.636364 103.733333 
" style="fill:none;stroke:#b0b0b0;stroke-linecap:square;stroke-width:0.8;"/>
     </g>
     <g id="line2d_16">
      <g>
       <use style="stroke:#000000;stroke-width:0.8;" x="90" xlink:href="#m0e5b219ce0" y="103.733333"/>
      </g>
     </g>
     <g id="text_9">
      <!-- −75 -->
      <g transform="translate(61.895313 107.532552)scale(0.1 -0.1)">
       <defs>
        <path d="M 8.203125 72.90625 
L 55.078125 72.90625 
L 55.078125 68.703125 
L 28.609375 0 
L 18.3125 0 
L 43.21875 64.59375 
L 8.203125 64.59375 
z
" id="DejaVuSans-55"/>
       </defs>
       <use xlink:href="#DejaVuSans-8722"/>
       <use x="83.789062" xlink:href="#DejaVuSans-55"/>
       <use x="147.412109" xlink:href="#DejaVuSans-53"/>
      </g>
     </g>
    </g>
    <g id="ytick_4">
     <g id="line2d_17">
      <path clip-path="url(#p81d287f682)" d="M 90 78.066667 
L 343.636364 78.066667 
" style="fill:none;stroke:#b0b0b0;stroke-linecap:square;stroke-width:0.8;"/>
     </g>
     <g id="line2d_18">
      <g>
       <use style="stroke:#000000;stroke-width:0.8;" x="90" xlink:href="#m0e5b219ce0" y="78.066667"/>
      </g>
     </g>
     <g id="text_10">
      <!-- −50 -->
      <g transform="translate(61.895313 81.865885)scale(0.1 -0.1)">
       <use xlink:href="#DejaVuSans-8722"/>
       <use x="83.789062" xlink:href="#DejaVuSans-53"/>
       <use x="147.412109" xlink:href="#DejaVuSans-48"/>
      </g>
     </g>
    </g>
    <g id="ytick_5">
     <g id="line2d_19">
      <path clip-path="url(#p81d287f682)" d="M 90 52.4 
L 343.636364 52.4 
" style="fill:none;stroke:#b0b0b0;stroke-linecap:square;stroke-width:0.8;"/>
     </g>
     <g id="line2d_20">
      <g>
       <use style="stroke:#000000;stroke-width:0.8;" x="90" xlink:href="#m0e5b219ce0" y="52.4"/>
      </g>
     </g>
     <g id="text_11">
      <!-- −25 -->
      <g transform="translate(61.895313 56.199219)scale(0.1 -0.1)">
       <use xlink:href="#DejaVuSans-8722"/>
       <use x="83.789062" xlink:href="#DejaVuSans-50"/>
       <use x="147.412109" xlink:href="#DejaVuSans-53"/>
      </g>
     </g>
    </g>
    <g id="ytick_6">
     <g id="line2d_21">
      <path clip-path="url(#p81d287f682)" d="M 90 26.733333 
L 343.636364 26.733333 
" style="fill:none;stroke:#b0b0b0;stroke-linecap:square;stroke-width:0.8;"/>
     </g>
     <g id="line2d_22">
      <g>
       <use style="stroke:#000000;stroke-width:0.8;" x="90" xlink:href="#m0e5b219ce0" y="26.733333"/>
      </g>
     </g>
     <g id="text_12">
      <!-- 0 -->
      <g transform="translate(76.6375 30.532552)scale(0.1 -0.1)">
       <use xlink:href="#DejaVuSans-48"/>
      </g>
     </g>
    </g>
    <g id="text_13">
     <!-- Suy hao (dB) -->
     <g transform="translate(49.453125 123.178906)rotate(-90)scale(0.1 -0.1)">
      <defs>
       <path d="M 53.515625 70.515625 
L 53.515625 60.890625 
Q 47.90625 63.578125 42.921875 64.890625 
Q 37.9375 66.21875 33.296875 66.21875 
Q 25.25 66.21875 20.875 63.09375 
Q 16.5 59.96875 16.5 54.203125 
Q 16.5 49.359375 19.40625 46.890625 
Q 22.3125 44.4375 30.421875 42.921875 
L 36.375 41.703125 
Q 47.40625 39.59375 52.65625 34.296875 
Q 57.90625 29 57.90625 20.125 
Q 57.90625 9.515625 50.796875 4.046875 
Q 43.703125 -1.421875 29.984375 -1.421875 
Q 24.8125 -1.421875 18.96875 -0.25 
Q 13.140625 0.921875 6.890625 3.21875 
L 6.890625 13.375 
Q 12.890625 10.015625 18.65625 8.296875 
Q 24.421875 6.59375 29.984375 6.59375 
Q 38.421875 6.59375 43.015625 9.90625 
Q 47.609375 13.234375 47.609375 19.390625 
Q 47.609375 24.75 44.3125 27.78125 
Q 41.015625 30.8125 33.5 32.328125 
L 27.484375 33.5 
Q 16.453125 35.6875 11.515625 40.375 
Q 6.59375 45.0625 6.59375 53.421875 
Q 6.59375 63.09375 13.40625 68.65625 
Q 20.21875 74.21875 32.171875 74.21875 
Q 37.3125 74.21875 42.625 73.28125 
Q 47.953125 72.359375 53.515625 70.515625 
z
" id="DejaVuSans-83"/>
       <path d="M 8.5 21.578125 
L 8.5 54.6875 
L 17.484375 54.6875 
L 17.484375 21.921875 
Q 17.484375 14.15625 20.5 10.265625 
Q 23.53125 6.390625 29.59375 6.390625 
Q 36.859375 6.390625 41.078125 11.03125 
Q 45.3125 15.671875 45.3125 23.6875 
L 45.3125 54.6875 
L 54.296875 54.6875 
L 54.296875 0 
L 45.3125 0 
L 45.3125 8.40625 
Q 42.046875 3.421875 37.71875 1 
Q 33.40625 -1.421875 27.6875 -1.421875 
Q 18.265625 -1.421875 13.375 4.4375 
Q 8.5 10.296875 8.5 21.578125 
z
M 31.109375 56 
z
" id="DejaVuSans-117"/>
       <path d="M 32.171875 -5.078125 
Q 28.375 -14.84375 24.75 -17.8125 
Q 21.140625 -20.796875 15.09375 -20.796875 
L 7.90625 -20.796875 
L 7.90625 -13.28125 
L 13.1875 -13.28125 
Q 16.890625 -13.28125 18.9375 -11.515625 
Q 21 -9.765625 23.484375 -3.21875 
L 25.09375 0.875 
L 2.984375 54.6875 
L 12.5 54.6875 
L 29.59375 11.921875 
L 46.6875 54.6875 
L 56.203125 54.6875 
z
" id="DejaVuSans-121"/>
       <path d="M 54.890625 33.015625 
L 54.890625 0 
L 45.90625 0 
L 45.90625 32.71875 
Q 45.90625 40.484375 42.875 44.328125 
Q 39.84375 48.1875 33.796875 48.1875 
Q 26.515625 48.1875 22.3125 43.546875 
Q 18.109375 38.921875 18.109375 30.90625 
L 18.109375 0 
L 9.078125 0 
L 9.078125 75.984375 
L 18.109375 75.984375 
L 18.109375 46.1875 
Q 21.34375 51.125 25.703125 53.5625 
Q 30.078125 56 35.796875 56 
Q 45.21875 56 50.046875 50.171875 
Q 54.890625 44.34375 54.890625 33.015625 
z
" id="DejaVuSans-104"/>
       <path d="M 34.28125 27.484375 
Q 23.390625 27.484375 19.1875 25 
Q 14.984375 22.515625 14.984375 16.5 
Q 14.984375 11.71875 18.140625 8.90625 
Q 21.296875 6.109375 26.703125 6.109375 
Q 34.1875 6.109375 38.703125 11.40625 
Q 43.21875 16.703125 43.21875 25.484375 
L 43.21875 27.484375 
z
M 52.203125 31.203125 
L 52.203125 0 
L 43.21875 0 
L 43.21875 8.296875 
Q 40.140625 3.328125 35.546875 0.953125 
Q 30.953125 -1.421875 24.3125 -1.421875 
Q 15.921875 -1.421875 10.953125 3.296875 
Q 6 8.015625 6 15.921875 
Q 6 25.140625 12.171875 29.828125 
Q 18.359375 34.515625 30.609375 34.515625 
L 43.21875 34.515625 
L 43.21875 35.40625 
Q 43.21875 41.609375 39.140625 45 
Q 35.0625 48.390625 27.6875 48.390625 
Q 23 48.390625 18.546875 47.265625 
Q 14.109375 46.140625 10.015625 43.890625 
L 10.015625 52.203125 
Q 14.9375 54.109375 19.578125 55.046875 
Q 24.21875 56 28.609375 56 
Q 40.484375 56 46.34375 49.84375 
Q 52.203125 43.703125 52.203125 31.203125 
z
" id="DejaVuSans-97"/>
       <path d="M 30.609375 48.390625 
Q 23.390625 48.390625 19.1875 42.75 
Q 14.984375 37.109375 14.984375 27.296875 
Q 14.984375 17.484375 19.15625 11.84375 
Q 23.34375 6.203125 30.609375 6.203125 
Q 37.796875 6.203125 41.984375 11.859375 
Q 46.1875 17.53125 46.1875 27.296875 
Q 46.1875 37.015625 41.984375 42.703125 
Q 37.796875 48.390625 30.609375 48.390625 
z
M 30.609375 56 
Q 42.328125 56 49.015625 48.375 
Q 55.71875 40.765625 55.71875 27.296875 
Q 55.71875 13.875 49.015625 6.21875 
Q 42.328125 -1.421875 30.609375 -1.421875 
Q 18.84375 -1.421875 12.171875 6.21875 
Q 5.515625 13.875 5.515625 27.296875 
Q 5.515625 40.765625 12.171875 48.375 
Q 18.84375 56 30.609375 56 
z
" id="DejaVuSans-111"/>
       <path d="M 31 75.875 
Q 24.46875 64.65625 21.28125 53.65625 
Q 18.109375 42.671875 18.109375 31.390625 
Q 18.109375 20.125 21.3125 9.0625 
Q 24.515625 -2 31 -13.1875 
L 23.1875 -13.1875 
Q 15.875 -1.703125 12.234375 9.375 
Q 8.59375 20.453125 8.59375 31.390625 
Q 8.59375 42.28125 12.203125 53.3125 
Q 15.828125 64.359375 23.1875 75.875 
z
" id="DejaVuSans-40"/>
       <path d="M 45.40625 46.390625 
L 45.40625 75.984375 
L 54.390625 75.984375 
L 54.390625 0 
L 45.40625 0 
L 45.40625 8.203125 
Q 42.578125 3.328125 38.25 0.953125 
Q 33.9375 -1.421875 27.875 -1.421875 
Q 17.96875 -1.421875 11.734375 6.484375 
Q 5.515625 14.40625 5.515625 27.296875 
Q 5.515625 40.1875 11.734375 48.09375 
Q 17.96875 56 27.875 56 
Q 33.9375 56 38.25 53.625 
Q 42.578125 51.265625 45.40625 46.390625 
z
M 14.796875 27.296875 
Q 14.796875 17.390625 18.875 11.75 
Q 22.953125 6.109375 30.078125 6.109375 
Q 37.203125 6.109375 41.296875 11.75 
Q 45.40625 17.390625 45.40625 27.296875 
Q 45.40625 37.203125 41.296875 42.84375 
Q 37.203125 48.484375 30.078125 48.484375 
Q 22.953125 48.484375 18.875 42.84375 
Q 14.796875 37.203125 14.796875 27.296875 
z
" id="DejaVuSans-100"/>
       <path d="M 19.671875 34.8125 
L 19.671875 8.109375 
L 35.5 8.109375 
Q 43.453125 8.109375 47.28125 11.40625 
Q 51.125 14.703125 51.125 21.484375 
Q 51.125 28.328125 47.28125 31.5625 
Q 43.453125 34.8125 35.5 34.8125 
z
M 19.671875 64.796875 
L 19.671875 42.828125 
L 34.28125 42.828125 
Q 41.5 42.828125 45.03125 45.53125 
Q 48.578125 48.25 48.578125 53.8125 
Q 48.578125 59.328125 45.03125 62.0625 
Q 41.5 64.796875 34.28125 64.796875 
z
M 9.8125 72.90625 
L 35.015625 72.90625 
Q 46.296875 72.90625 52.390625 68.21875 
Q 58.5 63.53125 58.5 54.890625 
Q 58.5 48.1875 55.375 44.234375 
Q 52.25 40.28125 46.1875 39.3125 
Q 53.46875 37.75 57.5 32.78125 
Q 61.53125 27.828125 61.53125 20.40625 
Q 61.53125 10.640625 54.890625 5.3125 
Q 48.25 0 35.984375 0 
L 9.8125 0 
z
" id="DejaVuSans-66"/>
       <path d="M 8.015625 75.875 
L 15.828125 75.875 
Q 23.140625 64.359375 26.78125 53.3125 
Q 30.421875 42.28125 30.421875 31.390625 
Q 30.421875 20.453125 26.78125 9.375 
Q 23.140625 -1.703125 15.828125 -13.1875 
L 8.015625 -13.1875 
Q 14.5 -2 17.703125 9.0625 
Q 20.90625 20.125 20.90625 31.390625 
Q 20.90625 42.671875 17.703125 53.65625 
Q 14.5 64.65625 8.015625 75.875 
z
" id="DejaVuSans-41"/>
      </defs>
      <use xlink:href="#DejaVuSans-83"/>
      <use x="63.476562" xlink:href="#DejaVuSans-117"/>
      <use x="126.855469" xlink:href="#DejaVuSans-121"/>
      <use x="186.035156" xlink:href="#DejaVuSans-32"/>
      <use x="217.822266" xlink:href="#DejaVuSans-104"/>
      <use x="281.201172" xlink:href="#DejaVuSans-97"/>
      <use x="342.480469" xlink:href="#DejaVuSans-111"/>
      <use x="403.662109" xlink:href="#DejaVuSans-32"/>
      <use x="435.449219" xlink:href="#DejaVuSans-40"/>
      <use x="474.462891" xlink:href="#DejaVuSans-100"/>
      <use x="537.939453" xlink:href="#DejaVuSans-66"/>
      <use x="606.542969" xlink:href="#DejaVuSans-41"/>
     </g>
    </g>
   </g>
   <g id="line2d_23">
    <path clip-path="url(#p81d287f682)" d="M 90 26.714353 
L 154.895241 26.819582 
L 157.867543 27.114378 
L 160.34446 27.586503 
L 162.325994 28.155351 
L 164.307528 28.925136 
L 166.289062 29.922873 
L 168.270597 31.174666 
L 170.252131 32.706638 
L 172.233665 34.546123 
L 174.215199 36.723135 
L 176.196733 39.272224 
L 178.178267 42.234947 
L 180.159801 45.663394 
L 182.141335 49.625571 
L 184.122869 54.214268 
L 185.60902 58.144961 
L 187.09517 62.582204 
L 188.581321 67.642507 
L 190.067472 73.506546 
L 191.553622 80.484199 
L 192.544389 86.037294 
L 193.535156 92.7204 
L 194.525923 101.417447 
L 195.021307 107.298062 
L 195.51669 115.799403 
L 196.012074 145.266703 
L 196.507457 122.697741 
L 197.002841 119.8973 
L 197.498224 120.574064 
L 197.993608 123.72272 
L 198.984375 139.924908 
L 199.479759 126.978332 
L 199.975142 122.793471 
L 200.470526 120.847216 
L 200.965909 120.123322 
L 201.461293 120.308302 
L 201.956676 121.342365 
L 202.45206 123.367263 
L 202.947443 126.903097 
L 203.442827 134.026301 
L 203.93821 145.769341 
L 204.433594 130.454325 
L 204.928977 125.514764 
L 205.424361 122.804741 
L 205.919744 121.199846 
L 206.415128 120.321266 
L 206.910511 120.00916 
L 207.405895 120.201075 
L 207.901278 120.898103 
L 208.396662 122.166979 
L 208.892045 124.181028 
L 209.387429 127.366695 
L 209.882812 133.08636 
L 210.378196 157.780404 
L 210.87358 134.352061 
L 211.368963 128.103325 
L 211.864347 124.768806 
L 212.35973 122.677155 
L 212.855114 121.329253 
L 213.350497 120.514321 
L 213.845881 120.13174 
L 214.341264 120.13658 
L 214.836648 120.521108 
L 215.332031 121.312282 
L 215.827415 122.582971 
L 216.322798 124.488022 
L 216.818182 127.37372 
L 217.313565 132.219197 
L 217.808949 144.826593 
L 218.799716 130.173502 
L 219.295099 126.283068 
L 219.790483 123.843586 
L 220.285866 122.208038 
L 220.78125 121.11657 
L 221.276634 120.443699 
L 221.772017 120.125494 
L 222.267401 120.133195 
L 222.762784 120.46361 
L 223.258168 121.138288 
L 223.753551 122.210862 
L 224.248935 123.788446 
L 224.744318 126.089365 
L 225.239702 129.630618 
L 225.735085 136.177781 
L 226.230469 155.510993 
L 226.725852 134.3924 
L 227.221236 128.809498 
L 227.716619 125.615758 
L 228.212003 123.505069 
L 228.707386 122.050141 
L 229.20277 121.060834 
L 229.698153 120.440186 
L 230.193537 120.13725 
L 230.68892 120.128747 
L 231.184304 120.412099 
L 231.679687 121.004799 
L 232.175071 121.949673 
L 232.670455 123.329758 
L 233.165838 125.305916 
L 233.661222 128.225697 
L 234.156605 133.055818 
L 234.651989 145.385472 
L 235.147372 139.148854 
L 235.642756 131.107441 
L 236.138139 127.127723 
L 236.633523 124.592897 
L 237.128906 122.845597 
L 237.62429 121.621262 
L 238.119673 120.790129 
L 238.615057 120.282821 
L 239.11044 120.062717 
L 239.605824 120.114563 
L 240.101207 120.440378 
L 240.596591 121.060029 
L 241.091974 122.016847 
L 241.587358 123.392004 
L 242.082741 125.339861 
L 242.578125 128.188186 
L 243.073509 132.823278 
L 243.568892 143.867107 
L 244.064276 140.394525 
L 244.559659 131.718544 
L 245.055043 127.573046 
L 245.550426 124.949856 
L 246.04581 123.138007 
L 246.541193 121.857024 
L 247.036577 120.970309 
L 247.53196 120.404524 
L 248.027344 120.119943 
L 248.522727 120.098092 
L 249.018111 120.336856 
L 249.513494 120.849984 
L 250.008878 121.670697 
L 250.504261 122.861593 
L 250.999645 124.538179 
L 251.495028 126.930108 
L 251.990412 130.580832 
L 252.485795 137.390118 
L 252.981179 153.00526 
L 253.476562 134.77043 
L 253.971946 129.324499 
L 254.46733 126.144431 
L 254.962713 124.002085 
L 255.458097 122.486398 
L 255.95348 121.411553 
L 256.448864 120.680662 
L 256.944247 120.240289 
L 257.439631 120.062149 
L 257.935014 120.135265 
L 258.430398 120.463286 
L 258.925781 121.065381 
L 259.421165 121.981244 
L 259.916548 123.28328 
L 260.411932 125.105481 
L 260.907315 127.721281 
L 261.402699 131.81694 
L 261.898082 140.215077 
L 262.393466 144.910104 
L 262.888849 133.33286 
L 263.384233 128.607493 
L 263.879616 125.713249 
L 264.375 123.727737 
L 264.870384 122.312881 
L 265.365767 121.309275 
L 265.861151 120.631978 
L 266.356534 120.233814 
L 266.851918 120.090158 
L 267.347301 120.192408 
L 267.842685 120.545938 
L 268.338068 121.171387 
L 268.833452 122.109998 
L 269.328835 123.436302 
L 269.824219 125.288111 
L 270.319602 127.947894 
L 270.814986 132.132701 
L 271.310369 140.897016 
L 271.805753 144.09753 
L 272.301136 133.17473 
L 272.79652 128.554384 
L 273.291903 125.700523 
L 273.787287 123.733835 
L 274.28267 122.327277 
L 274.778054 121.325461 
L 275.273438 120.645139 
L 275.768821 120.239811 
L 276.264205 120.084955 
L 276.759588 120.171619 
L 277.254972 120.504321 
L 277.750355 121.102109 
L 278.245739 122.003351 
L 278.741122 123.277108 
L 279.236506 125.049643 
L 279.731889 127.574413 
L 280.227273 131.469319 
L 281.21804 147.837898 
L 281.713423 134.150325 
L 282.208807 129.121798 
L 282.70419 126.094877 
L 283.199574 124.026518 
L 283.694957 122.548435 
L 284.190341 121.489793 
L 284.685724 120.760034 
L 285.181108 120.308496 
L 285.676491 120.107792 
L 286.171875 120.146535 
L 286.667259 120.426654 
L 287.162642 120.963843 
L 287.658026 121.791381 
L 288.153409 122.96948 
L 288.648793 124.606756 
L 289.144176 126.914592 
L 289.63956 130.37794 
L 290.134943 136.577762 
L 290.630327 167.652882 
L 291.12571 136.053419 
L 291.621094 130.122114 
L 292.116477 126.750816 
L 292.611861 124.490681 
L 293.107244 122.88307 
L 293.602628 121.725271 
L 294.098011 120.912287 
L 294.593395 120.385595 
L 295.088778 120.112713 
L 295.584162 120.078242 
L 296.079545 120.280181 
L 296.574929 120.729489 
L 297.070312 121.452637 
L 297.565696 122.49854 
L 298.06108 123.954296 
L 298.556463 125.983053 
L 299.051847 128.932079 
L 299.54723 133.759157 
L 300.042614 145.916944 
L 300.537997 140.032452 
L 301.033381 131.896218 
L 301.528764 127.861908 
L 302.024148 125.267783 
L 302.519531 123.449425 
L 303.014915 122.139221 
L 303.510298 121.204834 
L 304.005682 120.573829 
L 304.501065 120.205431 
L 304.996449 120.078389 
L 305.491832 120.1857 
L 305.987216 120.533011 
L 306.482599 121.139906 
L 306.977983 122.04472 
L 307.473366 123.315696 
L 307.96875 125.076764 
L 308.464134 127.57504 
L 308.959517 131.406891 
L 309.454901 138.782678 
L 309.950284 149.158604 
L 310.445668 134.501364 
L 310.941051 129.35711 
L 311.436435 126.279293 
L 311.931818 124.177586 
L 312.427202 122.672259 
L 312.922585 121.588158 
L 313.417969 120.832535 
L 313.913352 120.353265 
L 314.408736 120.121685 
L 314.904119 120.124993 
L 315.399503 120.363271 
L 315.894886 120.849504 
L 316.39027 121.612616 
L 316.885653 122.705154 
L 317.381037 124.220677 
L 317.87642 126.336149 
L 318.371804 129.436359 
L 318.867188 134.633188 
L 319.362571 149.769965 
L 319.857955 138.636011 
L 320.353338 131.361696 
L 320.848722 127.559544 
L 321.344105 125.075968 
L 321.839489 123.32371 
L 322.334872 122.058391 
L 322.830256 121.157135 
L 323.325639 120.552132 
L 323.821023 120.205186 
L 324.316406 120.096665 
L 324.81179 120.220712 
L 325.307173 120.58393 
L 325.802557 121.206872 
L 326.29794 122.129098 
L 326.793324 123.420777 
L 327.288707 125.209528 
L 327.784091 127.751258 
L 328.279474 131.671019 
L 329.270241 147.646077 
L 329.765625 134.221737 
L 330.261009 129.220105 
L 330.756392 126.19777 
L 331.251776 124.125479 
L 331.747159 122.638142 
L 332.242543 121.565885 
L 332.737926 120.818326 
L 333.23331 120.344543 
L 333.728693 120.116531 
L 334.224077 120.121853 
L 334.71946 120.360768 
L 335.214844 120.846288 
L 335.710227 121.607195 
L 336.205611 122.695653 
L 336.700994 124.204355 
L 337.196378 126.308215 
L 337.691761 129.386191 
L 338.187145 134.525256 
L 338.682528 149.112236 
L 339.177912 138.855065 
L 339.673295 131.463997 
L 340.168679 127.627708 
L 340.664062 125.126577 
L 341.159446 123.362679 
L 341.65483 122.08834 
L 342.150213 121.179304 
L 342.645597 120.567044 
L 343.14098 120.212916 
L 343.14098 120.212916 
" style="fill:none;stroke:#1f77b4;stroke-linecap:square;stroke-width:1.5;"/>
   </g>
   <g id="line2d_24">
    <path clip-path="url(#p81d287f682)" d="M 153.409091 160.2 
L 153.409091 21.6 
" style="fill:none;stroke:#ff7f0e;stroke-dasharray:3.7,1.6;stroke-dashoffset:0;"/>
   </g>
   <g id="line2d_25">
    <path clip-path="url(#p81d287f682)" d="M 195.681818 160.2 
L 195.681818 21.6 
" style="fill:none;stroke:#2ca02c;stroke-dasharray:3.7,1.6;stroke-dashoffset:0;"/>
   </g>
   <g id="line2d_26">
    <path clip-path="url(#p81d287f682)" d="M 343.636364 160.2 
L 343.636364 21.6 
" style="fill:none;stroke:#d62728;stroke-dasharray:3.7,1.6;stroke-dashoffset:0;"/>
   </g>
   <g id="line2d_27">
    <path clip-path="url(#p81d287f682)" d="M 343.636364 160.2 
L 343.636364 21.6 
" style="fill:none;stroke:#9467bd;stroke-dasharray:3.7,1.6;stroke-dashoffset:0;"/>
   </g>
   <g id="line2d_28">
    <path clip-path="url(#p81d287f682)" d="M 90 119.8973 
L 343.14098 119.8973 
L 343.14098 119.8973 
" style="fill:none;stroke:#ff0000;stroke-dasharray:5.55,2.4;stroke-dashoffset:0;stroke-width:1.5;"/>
   </g>
   <g id="patch_3">
    <path d="M 90 160.2 
L 90 21.6 
" style="fill:none;stroke:#000000;stroke-linecap:square;stroke-linejoin:miter;stroke-width:0.8;"/>
   </g>
   <g id="patch_4">
    <path d="M 343.636364 160.2 
L 343.636364 21.6 
" style="fill:none;stroke:#000000;stroke-linecap:square;stroke-linejoin:miter;stroke-width:0.8;"/>
   </g>
   <g id="patch_5">
    <path d="M 90 160.2 
L 343.636364 160.2 
" style="fill:none;stroke:#000000;stroke-linecap:square;stroke-linejoin:miter;stroke-width:0.8;"/>
   </g>
   <g id="patch_6">
    <path d="M 90 21.6 
L 343.636364 21.6 
" style="fill:none;stroke:#000000;stroke-linecap:square;stroke-linejoin:miter;stroke-width:0.8;"/>
   </g>
   <g id="text_14">
    <!-- -90.744 -->
    <g transform="translate(216.818182 117.843967)scale(0.1 -0.1)">
     <defs>
      <path d="M 4.890625 31.390625 
L 31.203125 31.390625 
L 31.203125 23.390625 
L 4.890625 23.390625 
z
" id="DejaVuSans-45"/>
      <path d="M 10.984375 1.515625 
L 10.984375 10.5 
Q 14.703125 8.734375 18.5 7.8125 
Q 22.3125 6.890625 25.984375 6.890625 
Q 35.75 6.890625 40.890625 13.453125 
Q 46.046875 20.015625 46.78125 33.40625 
Q 43.953125 29.203125 39.59375 26.953125 
Q 35.25 24.703125 29.984375 24.703125 
Q 19.046875 24.703125 12.671875 31.3125 
Q 6.296875 37.9375 6.296875 49.421875 
Q 6.296875 60.640625 12.9375 67.421875 
Q 19.578125 74.21875 30.609375 74.21875 
Q 43.265625 74.21875 49.921875 64.515625 
Q 56.59375 54.828125 56.59375 36.375 
Q 56.59375 19.140625 48.40625 8.859375 
Q 40.234375 -1.421875 26.421875 -1.421875 
Q 22.703125 -1.421875 18.890625 -0.6875 
Q 15.09375 0.046875 10.984375 1.515625 
z
M 30.609375 32.421875 
Q 37.25 32.421875 41.125 36.953125 
Q 45.015625 41.5 45.015625 49.421875 
Q 45.015625 57.28125 41.125 61.84375 
Q 37.25 66.40625 30.609375 66.40625 
Q 23.96875 66.40625 20.09375 61.84375 
Q 16.21875 57.28125 16.21875 49.421875 
Q 16.21875 41.5 20.09375 36.953125 
Q 23.96875 32.421875 30.609375 32.421875 
z
" id="DejaVuSans-57"/>
      <path d="M 10.6875 12.40625 
L 21 12.40625 
L 21 0 
L 10.6875 0 
z
" id="DejaVuSans-46"/>
      <path d="M 37.796875 64.3125 
L 12.890625 25.390625 
L 37.796875 25.390625 
z
M 35.203125 72.90625 
L 47.609375 72.90625 
L 47.609375 25.390625 
L 58.015625 25.390625 
L 58.015625 17.1875 
L 47.609375 17.1875 
L 47.609375 0 
L 37.796875 0 
L 37.796875 17.1875 
L 4.890625 17.1875 
L 4.890625 26.703125 
z
" id="DejaVuSans-52"/>
     </defs>
     <use xlink:href="#DejaVuSans-45"/>
     <use x="36.083984" xlink:href="#DejaVuSans-57"/>
     <use x="99.707031" xlink:href="#DejaVuSans-48"/>
     <use x="163.330078" xlink:href="#DejaVuSans-46"/>
     <use x="195.117188" xlink:href="#DejaVuSans-55"/>
     <use x="258.740234" xlink:href="#DejaVuSans-52"/>
     <use x="322.363281" xlink:href="#DejaVuSans-52"/>
    </g>
   </g>
   <g id="text_15">
    <!-- Bộ lọc FIR - Đáp ứng tần số (truớc) -->
    <g transform="translate(113.132557 15.6)scale(0.12 -0.12)">
     <defs>
      <path d="M 26.03125 -6.890625 
L 35.015625 -6.890625 
L 35.015625 -18.3125 
L 26.03125 -18.3125 
z
M 30.609375 48.390625 
Q 23.390625 48.390625 19.1875 42.75 
Q 14.984375 37.109375 14.984375 27.296875 
Q 14.984375 17.484375 19.15625 11.84375 
Q 23.34375 6.203125 30.609375 6.203125 
Q 37.796875 6.203125 41.984375 11.859375 
Q 46.1875 17.53125 46.1875 27.296875 
Q 46.1875 37.015625 41.984375 42.703125 
Q 37.796875 48.390625 30.609375 48.390625 
z
M 30.609375 56 
Q 42.328125 56 49.015625 48.375 
Q 55.71875 40.765625 55.71875 27.296875 
Q 55.71875 13.875 49.015625 6.21875 
Q 42.328125 -1.421875 30.609375 -1.421875 
Q 18.84375 -1.421875 12.171875 6.21875 
Q 5.515625 13.875 5.515625 27.296875 
Q 5.515625 40.765625 12.171875 48.375 
Q 18.84375 56 30.609375 56 
z
M 26.03125 -6.890625 
L 35.015625 -6.890625 
L 35.015625 -18.3125 
L 26.03125 -18.3125 
z
M 27.015625 79.984375 
L 34.234375 79.984375 
L 46.203125 61.625 
L 39.421875 61.625 
L 30.625 73.578125 
L 21.84375 61.625 
L 15.046875 61.625 
z
" id="DejaVuSans-7897"/>
      <path d="M 9.421875 75.984375 
L 18.40625 75.984375 
L 18.40625 0 
L 9.421875 0 
z
" id="DejaVuSans-108"/>
      <path d="M 30.609375 48.390625 
Q 23.390625 48.390625 19.1875 42.75 
Q 14.984375 37.109375 14.984375 27.296875 
Q 14.984375 17.484375 19.15625 11.84375 
Q 23.34375 6.203125 30.609375 6.203125 
Q 37.796875 6.203125 41.984375 11.859375 
Q 46.1875 17.53125 46.1875 27.296875 
Q 46.1875 37.015625 41.984375 42.703125 
Q 37.796875 48.390625 30.609375 48.390625 
z
M 30.609375 56 
Q 42.328125 56 49.015625 48.375 
Q 55.71875 40.765625 55.71875 27.296875 
Q 55.71875 13.875 49.015625 6.21875 
Q 42.328125 -1.421875 30.609375 -1.421875 
Q 18.84375 -1.421875 12.171875 6.21875 
Q 5.515625 13.875 5.515625 27.296875 
Q 5.515625 40.765625 12.171875 48.375 
Q 18.84375 56 30.609375 56 
z
M 26.03125 -6.890625 
L 35.015625 -6.890625 
L 35.015625 -18.3125 
L 26.03125 -18.3125 
z
" id="DejaVuSans-7885"/>
      <path d="M 48.78125 52.59375 
L 48.78125 44.1875 
Q 44.96875 46.296875 41.140625 47.34375 
Q 37.3125 48.390625 33.40625 48.390625 
Q 24.65625 48.390625 19.8125 42.84375 
Q 14.984375 37.3125 14.984375 27.296875 
Q 14.984375 17.28125 19.8125 11.734375 
Q 24.65625 6.203125 33.40625 6.203125 
Q 37.3125 6.203125 41.140625 7.25 
Q 44.96875 8.296875 48.78125 10.40625 
L 48.78125 2.09375 
Q 45.015625 0.34375 40.984375 -0.53125 
Q 36.96875 -1.421875 32.421875 -1.421875 
Q 20.0625 -1.421875 12.78125 6.34375 
Q 5.515625 14.109375 5.515625 27.296875 
Q 5.515625 40.671875 12.859375 48.328125 
Q 20.21875 56 33.015625 56 
Q 37.15625 56 41.109375 55.140625 
Q 45.0625 54.296875 48.78125 52.59375 
z
" id="DejaVuSans-99"/>
      <path d="M 9.8125 72.90625 
L 51.703125 72.90625 
L 51.703125 64.59375 
L 19.671875 64.59375 
L 19.671875 43.109375 
L 48.578125 43.109375 
L 48.578125 34.8125 
L 19.671875 34.8125 
L 19.671875 0 
L 9.8125 0 
z
" id="DejaVuSans-70"/>
      <path d="M 9.8125 72.90625 
L 19.671875 72.90625 
L 19.671875 0 
L 9.8125 0 
z
" id="DejaVuSans-73"/>
      <path d="M 44.390625 34.1875 
Q 47.5625 33.109375 50.5625 29.59375 
Q 53.5625 26.078125 56.59375 19.921875 
L 66.609375 0 
L 56 0 
L 46.6875 18.703125 
Q 43.0625 26.03125 39.671875 28.421875 
Q 36.28125 30.8125 30.421875 30.8125 
L 19.671875 30.8125 
L 19.671875 0 
L 9.8125 0 
L 9.8125 72.90625 
L 32.078125 72.90625 
Q 44.578125 72.90625 50.734375 67.671875 
Q 56.890625 62.453125 56.890625 51.90625 
Q 56.890625 45.015625 53.6875 40.46875 
Q 50.484375 35.9375 44.390625 34.1875 
z
M 19.671875 64.796875 
L 19.671875 38.921875 
L 32.078125 38.921875 
Q 39.203125 38.921875 42.84375 42.21875 
Q 46.484375 45.515625 46.484375 51.90625 
Q 46.484375 58.296875 42.84375 61.546875 
Q 39.203125 64.796875 32.078125 64.796875 
z
" id="DejaVuSans-82"/>
      <path d="M 10.296875 72.90625 
L 30.609375 72.90625 
Q 51.765625 72.90625 61.671875 64.09375 
Q 71.578125 55.28125 71.578125 36.53125 
Q 71.578125 17.671875 61.640625 8.828125 
Q 51.703125 0 30.609375 0 
L 10.296875 0 
L 10.296875 34.1875 
L 0.484375 34.1875 
L 0.484375 41.21875 
L 10.296875 41.21875 
z
M 20.21875 64.796875 
L 20.21875 41.21875 
L 36.625 41.21875 
L 36.625 34.1875 
L 20.21875 34.1875 
L 20.21875 8.109375 
L 32.078125 8.109375 
Q 47.171875 8.109375 54.171875 14.9375 
Q 61.1875 21.78125 61.1875 36.53125 
Q 61.1875 51.171875 54.171875 57.984375 
Q 47.171875 64.796875 32.078125 64.796875 
z
" id="DejaVuSans-272"/>
      <path d="M 34.28125 27.484375 
Q 23.390625 27.484375 19.1875 25 
Q 14.984375 22.515625 14.984375 16.5 
Q 14.984375 11.71875 18.140625 8.90625 
Q 21.296875 6.109375 26.703125 6.109375 
Q 34.1875 6.109375 38.703125 11.40625 
Q 43.21875 16.703125 43.21875 25.484375 
L 43.21875 27.484375 
z
M 52.203125 31.203125 
L 52.203125 0 
L 43.21875 0 
L 43.21875 8.296875 
Q 40.140625 3.328125 35.546875 0.953125 
Q 30.953125 -1.421875 24.3125 -1.421875 
Q 15.921875 -1.421875 10.953125 3.296875 
Q 6 8.015625 6 15.921875 
Q 6 25.140625 12.171875 29.828125 
Q 18.359375 34.515625 30.609375 34.515625 
L 43.21875 34.515625 
L 43.21875 35.40625 
Q 43.21875 41.609375 39.140625 45 
Q 35.0625 48.390625 27.6875 48.390625 
Q 23 48.390625 18.546875 47.265625 
Q 14.109375 46.140625 10.015625 43.890625 
L 10.015625 52.203125 
Q 14.9375 54.109375 19.578125 55.046875 
Q 24.21875 56 28.609375 56 
Q 40.484375 56 46.34375 49.84375 
Q 52.203125 43.703125 52.203125 31.203125 
z
M 35.78125 79.984375 
L 45.5 79.984375 
L 29.59375 61.625 
L 22.109375 61.625 
z
" id="DejaVuSans-225"/>
      <path d="M 18.109375 8.203125 
L 18.109375 -20.796875 
L 9.078125 -20.796875 
L 9.078125 54.6875 
L 18.109375 54.6875 
L 18.109375 46.390625 
Q 20.953125 51.265625 25.265625 53.625 
Q 29.59375 56 35.59375 56 
Q 45.5625 56 51.78125 48.09375 
Q 58.015625 40.1875 58.015625 27.296875 
Q 58.015625 14.40625 51.78125 6.484375 
Q 45.5625 -1.421875 35.59375 -1.421875 
Q 29.59375 -1.421875 25.265625 0.953125 
Q 20.953125 3.328125 18.109375 8.203125 
z
M 48.6875 27.296875 
Q 48.6875 37.203125 44.609375 42.84375 
Q 40.53125 48.484375 33.40625 48.484375 
Q 26.265625 48.484375 22.1875 42.84375 
Q 18.109375 37.203125 18.109375 27.296875 
Q 18.109375 17.390625 22.1875 11.75 
Q 26.265625 6.109375 33.40625 6.109375 
Q 40.53125 6.109375 44.609375 11.75 
Q 48.6875 17.390625 48.6875 27.296875 
z
" id="DejaVuSans-112"/>
      <path d="M 37.78125 79.984375 
L 47.5 79.984375 
L 31.59375 61.625 
L 24.109375 61.625 
z
M 48.34375 49 
L 48.34375 54.8125 
Q 51.328125 52.609375 53.46875 51.5625 
Q 55.625 50.515625 57.140625 50.515625 
Q 59.375 50.515625 60.5 51.859375 
Q 61.625 53.203125 61.625 55.828125 
Q 61.625 57.390625 61.25 58.90625 
Q 60.890625 60.421875 60.15625 61.9375 
L 66.65625 61.9375 
Q 67.140625 60.078125 67.375 58.421875 
Q 67.625 56.765625 67.625 55.296875 
Q 67.625 49.34375 65.5 46.53125 
Q 63.390625 43.71875 58.84375 43.71875 
Q 56.5 43.71875 53.9375 45.015625 
Q 51.375 46.3125 48.34375 49 
z
M 8.625 21.578125 
L 8.625 54.6875 
L 17.609375 54.6875 
L 17.609375 21.921875 
Q 17.609375 14.15625 20.625 10.265625 
Q 23.65625 6.390625 29.71875 6.390625 
Q 36.984375 6.390625 41.203125 11.03125 
Q 45.4375 15.671875 45.4375 23.6875 
L 45.4375 54.6875 
L 54.421875 54.6875 
L 54.421875 0 
L 45.4375 0 
L 45.4375 8.40625 
Q 42.171875 3.421875 37.84375 1 
Q 33.53125 -1.421875 27.8125 -1.421875 
Q 18.390625 -1.421875 13.5 4.4375 
Q 8.625 10.296875 8.625 21.578125 
z
M 31.234375 56 
z
" id="DejaVuSans-7913"/>
      <path d="M 45.40625 27.984375 
Q 45.40625 37.75 41.375 43.109375 
Q 37.359375 48.484375 30.078125 48.484375 
Q 22.859375 48.484375 18.828125 43.109375 
Q 14.796875 37.75 14.796875 27.984375 
Q 14.796875 18.265625 18.828125 12.890625 
Q 22.859375 7.515625 30.078125 7.515625 
Q 37.359375 7.515625 41.375 12.890625 
Q 45.40625 18.265625 45.40625 27.984375 
z
M 54.390625 6.78125 
Q 54.390625 -7.171875 48.1875 -13.984375 
Q 42 -20.796875 29.203125 -20.796875 
Q 24.46875 -20.796875 20.265625 -20.09375 
Q 16.0625 -19.390625 12.109375 -17.921875 
L 12.109375 -9.1875 
Q 16.0625 -11.328125 19.921875 -12.34375 
Q 23.78125 -13.375 27.78125 -13.375 
Q 36.625 -13.375 41.015625 -8.765625 
Q 45.40625 -4.15625 45.40625 5.171875 
L 45.40625 9.625 
Q 42.625 4.78125 38.28125 2.390625 
Q 33.9375 0 27.875 0 
Q 17.828125 0 11.671875 7.65625 
Q 5.515625 15.328125 5.515625 27.984375 
Q 5.515625 40.671875 11.671875 48.328125 
Q 17.828125 56 27.875 56 
Q 33.9375 56 38.28125 53.609375 
Q 42.625 51.21875 45.40625 46.390625 
L 45.40625 54.6875 
L 54.390625 54.6875 
z
" id="DejaVuSans-103"/>
      <path d="M 18.3125 70.21875 
L 18.3125 54.6875 
L 36.8125 54.6875 
L 36.8125 47.703125 
L 18.3125 47.703125 
L 18.3125 18.015625 
Q 18.3125 11.328125 20.140625 9.421875 
Q 21.96875 7.515625 27.59375 7.515625 
L 36.8125 7.515625 
L 36.8125 0 
L 27.59375 0 
Q 17.1875 0 13.234375 3.875 
Q 9.28125 7.765625 9.28125 18.015625 
L 9.28125 47.703125 
L 2.6875 47.703125 
L 2.6875 54.6875 
L 9.28125 54.6875 
L 9.28125 70.21875 
z
" id="DejaVuSans-116"/>
      <path d="M 41.109375 46.296875 
Q 39.59375 47.171875 37.8125 47.578125 
Q 36.03125 48 33.890625 48 
Q 26.265625 48 22.1875 43.046875 
Q 18.109375 38.09375 18.109375 28.8125 
L 18.109375 0 
L 9.078125 0 
L 9.078125 54.6875 
L 18.109375 54.6875 
L 18.109375 46.1875 
Q 20.953125 51.171875 25.484375 53.578125 
Q 30.03125 56 36.53125 56 
Q 37.453125 56 38.578125 55.875 
Q 39.703125 55.765625 41.0625 55.515625 
z
" id="DejaVuSans-114"/>
      <path d="M 37.40625 79.984375 
L 47.125 79.984375 
L 31.21875 61.625 
L 23.734375 61.625 
z
M 40.96875 49 
L 40.96875 54.8125 
Q 43.953125 52.609375 46.09375 51.5625 
Q 48.25 50.515625 49.765625 50.515625 
Q 52 50.515625 53.125 51.859375 
Q 54.25 53.203125 54.25 55.828125 
Q 54.25 57.390625 53.875 58.90625 
Q 53.515625 60.421875 52.78125 61.9375 
L 59.28125 61.9375 
Q 59.765625 60.078125 60 58.421875 
Q 60.25 56.765625 60.25 55.296875 
Q 60.25 49.34375 58.125 46.53125 
Q 56.015625 43.71875 51.46875 43.71875 
Q 49.125 43.71875 46.5625 45.015625 
Q 44 46.3125 40.96875 49 
z
M 30.859375 48.390625 
Q 23.640625 48.390625 19.4375 42.75 
Q 15.234375 37.109375 15.234375 27.296875 
Q 15.234375 17.484375 19.40625 11.84375 
Q 23.59375 6.203125 30.859375 6.203125 
Q 38.046875 6.203125 42.234375 11.859375 
Q 46.4375 17.53125 46.4375 27.296875 
Q 46.4375 37.015625 42.234375 42.703125 
Q 38.046875 48.390625 30.859375 48.390625 
z
M 30.859375 56 
Q 42.578125 56 49.265625 48.375 
Q 55.96875 40.765625 55.96875 27.296875 
Q 55.96875 13.875 49.265625 6.21875 
Q 42.578125 -1.421875 30.859375 -1.421875 
Q 19.09375 -1.421875 12.421875 6.21875 
Q 5.765625 13.875 5.765625 27.296875 
Q 5.765625 40.765625 12.421875 48.375 
Q 19.09375 56 30.859375 56 
z
" id="DejaVuSans-7899"/>
     </defs>
     <use xlink:href="#DejaVuSans-66"/>
     <use x="68.603516" xlink:href="#DejaVuSans-7897"/>
     <use x="129.785156" xlink:href="#DejaVuSans-32"/>
     <use x="161.572266" xlink:href="#DejaVuSans-108"/>
     <use x="189.355469" xlink:href="#DejaVuSans-7885"/>
     <use x="250.537109" xlink:href="#DejaVuSans-99"/>
     <use x="305.517578" xlink:href="#DejaVuSans-32"/>
     <use x="337.304688" xlink:href="#DejaVuSans-70"/>
     <use x="394.824219" xlink:href="#DejaVuSans-73"/>
     <use x="424.316406" xlink:href="#DejaVuSans-82"/>
     <use x="493.798828" xlink:href="#DejaVuSans-32"/>
     <use x="525.585938" xlink:href="#DejaVuSans-45"/>
     <use x="561.669922" xlink:href="#DejaVuSans-32"/>
     <use x="593.457031" xlink:href="#DejaVuSans-272"/>
     <use x="670.947266" xlink:href="#DejaVuSans-225"/>
     <use x="732.226562" xlink:href="#DejaVuSans-112"/>
     <use x="795.703125" xlink:href="#DejaVuSans-32"/>
     <use x="827.490234" xlink:href="#DejaVuSans-7913"/>
     <use x="890.869141" xlink:href="#DejaVuSans-110"/>
     <use x="954.248047" xlink:href="#DejaVuSans-103"/>
     <use x="1017.724609" xlink:href="#DejaVuSans-32"/>
     <use x="1049.511719" xlink:href="#DejaVuSans-116"/>
     <use x="1088.720703" xlink:href="#DejaVuSans-7847"/>
     <use x="1150" xlink:href="#DejaVuSans-110"/>
     <use x="1213.378906" xlink:href="#DejaVuSans-32"/>
     <use x="1245.166016" xlink:href="#DejaVuSans-115"/>
     <use x="1297.265625" xlink:href="#DejaVuSans-7889"/>
     <use x="1358.447266" xlink:href="#DejaVuSans-32"/>
     <use x="1390.234375" xlink:href="#DejaVuSans-40"/>
     <use x="1429.248047" xlink:href="#DejaVuSans-116"/>
     <use x="1468.457031" xlink:href="#DejaVuSans-114"/>
     <use x="1509.570312" xlink:href="#DejaVuSans-117"/>
     <use x="1572.949219" xlink:href="#DejaVuSans-7899"/>
     <use x="1634.130859" xlink:href="#DejaVuSans-99"/>
     <use x="1689.111328" xlink:href="#DejaVuSans-41"/>
    </g>
   </g>
  </g>
  <g id="axes_2">
   <g id="patch_7">
    <path d="M 394.363636 160.2 
L 648 160.2 
L 648 21.6 
L 394.363636 21.6 
z
" style="fill:#ffffff;"/>
   </g>
   <g id="matplotlib.axis_3">
    <g id="xtick_6">
     <g id="line2d_29">
      <path clip-path="url(#p782bbd028a)" d="M 394.363636 160.2 
L 394.363636 21.6 
" style="fill:none;stroke:#b0b0b0;stroke-linecap:square;stroke-width:0.8;"/>
     </g>
     <g id="line2d_30">
      <g>
       <use style="stroke:#000000;stroke-width:0.8;" x="394.363636" xlink:href="#m5257db06b0" y="160.2"/>
      </g>
     </g>
     <g id="text_16">
      <!-- 0 Hz -->
      <g transform="translate(383.208949 174.798438)scale(0.1 -0.1)">
       <use xlink:href="#DejaVuSans-48"/>
       <use x="63.623047" xlink:href="#DejaVuSans-32"/>
       <use x="95.410156" xlink:href="#DejaVuSans-72"/>
       <use x="170.605469" xlink:href="#DejaVuSans-122"/>
      </g>
     </g>
    </g>
    <g id="xtick_7">
     <g id="line2d_31">
      <path clip-path="url(#p782bbd028a)" d="M 447.204545 160.2 
L 447.204545 21.6 
" style="fill:none;stroke:#b0b0b0;stroke-linecap:square;stroke-width:0.8;"/>
     </g>
     <g id="line2d_32">
      <g>
       <use style="stroke:#000000;stroke-width:0.8;" x="447.204545" xlink:href="#m5257db06b0" y="160.2"/>
      </g>
     </g>
     <g id="text_17">
      <!-- 5 kHz -->
      <g transform="translate(433.154545 174.798438)scale(0.1 -0.1)">
       <use xlink:href="#DejaVuSans-53"/>
       <use x="63.623047" xlink:href="#DejaVuSans-32"/>
       <use x="95.410156" xlink:href="#DejaVuSans-107"/>
       <use x="153.320312" xlink:href="#DejaVuSans-72"/>
       <use x="228.515625" xlink:href="#DejaVuSans-122"/>
      </g>
     </g>
    </g>
    <g id="xtick_8">
     <g id="line2d_33">
      <path clip-path="url(#p782bbd028a)" d="M 500.045455 160.2 
L 500.045455 21.6 
" style="fill:none;stroke:#b0b0b0;stroke-linecap:square;stroke-width:0.8;"/>
     </g>
     <g id="line2d_34">
      <g>
       <use style="stroke:#000000;stroke-width:0.8;" x="500.045455" xlink:href="#m5257db06b0" y="160.2"/>
      </g>
     </g>
     <g id="text_18">
      <!-- 10 kHz -->
      <g transform="translate(482.814205 174.798438)scale(0.1 -0.1)">
       <use xlink:href="#DejaVuSans-49"/>
       <use x="63.623047" xlink:href="#DejaVuSans-48"/>
       <use x="127.246094" xlink:href="#DejaVuSans-32"/>
       <use x="159.033203" xlink:href="#DejaVuSans-107"/>
       <use x="216.943359" xlink:href="#DejaVuSans-72"/>
       <use x="292.138672" xlink:href="#DejaVuSans-122"/>
      </g>
     </g>
    </g>
    <g id="xtick_9">
     <g id="line2d_35">
      <path clip-path="url(#p782bbd028a)" d="M 552.886364 160.2 
L 552.886364 21.6 
" style="fill:none;stroke:#b0b0b0;stroke-linecap:square;stroke-width:0.8;"/>
     </g>
     <g id="line2d_36">
      <g>
       <use style="stroke:#000000;stroke-width:0.8;" x="552.886364" xlink:href="#m5257db06b0" y="160.2"/>
      </g>
     </g>
     <g id="text_19">
      <!-- 15 kHz -->
      <g transform="translate(535.655114 174.798438)scale(0.1 -0.1)">
       <use xlink:href="#DejaVuSans-49"/>
       <use x="63.623047" xlink:href="#DejaVuSans-53"/>
       <use x="127.246094" xlink:href="#DejaVuSans-32"/>
       <use x="159.033203" xlink:href="#DejaVuSans-107"/>
       <use x="216.943359" xlink:href="#DejaVuSans-72"/>
       <use x="292.138672" xlink:href="#DejaVuSans-122"/>
      </g>
     </g>
    </g>
    <g id="xtick_10">
     <g id="line2d_37">
      <path clip-path="url(#p782bbd028a)" d="M 605.727273 160.2 
L 605.727273 21.6 
" style="fill:none;stroke:#b0b0b0;stroke-linecap:square;stroke-width:0.8;"/>
     </g>
     <g id="line2d_38">
      <g>
       <use style="stroke:#000000;stroke-width:0.8;" x="605.727273" xlink:href="#m5257db06b0" y="160.2"/>
      </g>
     </g>
     <g id="text_20">
      <!-- 20 kHz -->
      <g transform="translate(588.496023 174.798438)scale(0.1 -0.1)">
       <use xlink:href="#DejaVuSans-50"/>
       <use x="63.623047" xlink:href="#DejaVuSans-48"/>
       <use x="127.246094" xlink:href="#DejaVuSans-32"/>
       <use x="159.033203" xlink:href="#DejaVuSans-107"/>
       <use x="216.943359" xlink:href="#DejaVuSans-72"/>
       <use x="292.138672" xlink:href="#DejaVuSans-122"/>
      </g>
     </g>
    </g>
    <g id="text_21">
     <!-- Tần số -->
     <g transform="translate(504.641974 188.476562)scale(0.1 -0.1)">
      <use xlink:href="#DejaVuSans-84"/>
      <use x="61.083984" xlink:href="#DejaVuSans-7847"/>
      <use x="122.363281" xlink:href="#DejaVuSans-110"/>
      <use x="185.742188" xlink:href="#DejaVuSans-32"/>
      <use x="217.529297" xlink:href="#DejaVuSans-115"/>
      <use x="269.628906" xlink:href="#DejaVuSans-7889"/>
     </g>
    </g>
   </g>
   <g id="matplotlib.axis_4">
    <g id="ytick_7">
     <g id="line2d_39">
      <path clip-path="url(#p782bbd028a)" d="M 394.363636 155.066667 
L 648 155.066667 
" style="fill:none;stroke:#b0b0b0;stroke-linecap:square;stroke-width:0.8;"/>
     </g>
     <g id="line2d_40">
      <g>
       <use style="stroke:#000000;stroke-width:0.8;" x="394.363636" xlink:href="#m0e5b219ce0" y="155.066667"/>
      </g>
     </g>
     <g id="text_22">
      <!-- −125 -->
      <g transform="translate(359.896449 158.865885)scale(0.1 -0.1)">
       <use xlink:href="#DejaVuSans-8722"/>
       <use x="83.789062" xlink:href="#DejaVuSans-49"/>
       <use x="147.412109" xlink:href="#DejaVuSans-50"/>
       <use x="211.035156" xlink:href="#DejaVuSans-53"/>
      </g>
     </g>
    </g>
    <g id="ytick_8">
     <g id="line2d_41">
      <path clip-path="url(#p782bbd028a)" d="M 394.363636 129.4 
L 648 129.4 
" style="fill:none;stroke:#b0b0b0;stroke-linecap:square;stroke-width:0.8;"/>
     </g>
     <g id="line2d_42">
      <g>
       <use style="stroke:#000000;stroke-width:0.8;" x="394.363636" xlink:href="#m0e5b219ce0" y="129.4"/>
      </g>
     </g>
     <g id="text_23">
      <!-- −100 -->
      <g transform="translate(359.896449 133.199219)scale(0.1 -0.1)">
       <use xlink:href="#DejaVuSans-8722"/>
       <use x="83.789062" xlink:href="#DejaVuSans-49"/>
       <use x="147.412109" xlink:href="#DejaVuSans-48"/>
       <use x="211.035156" xlink:href="#DejaVuSans-48"/>
      </g>
     </g>
    </g>
    <g id="ytick_9">
     <g id="line2d_43">
      <path clip-path="url(#p782bbd028a)" d="M 394.363636 103.733333 
L 648 103.733333 
" style="fill:none;stroke:#b0b0b0;stroke-linecap:square;stroke-width:0.8;"/>
     </g>
     <g id="line2d_44">
      <g>
       <use style="stroke:#000000;stroke-width:0.8;" x="394.363636" xlink:href="#m0e5b219ce0" y="103.733333"/>
      </g>
     </g>
     <g id="text_24">
      <!-- −75 -->
      <g transform="translate(366.258949 107.532552)scale(0.1 -0.1)">
       <use xlink:href="#DejaVuSans-8722"/>
       <use x="83.789062" xlink:href="#DejaVuSans-55"/>
       <use x="147.412109" xlink:href="#DejaVuSans-53"/>
      </g>
     </g>
    </g>
    <g id="ytick_10">
     <g id="line2d_45">
      <path clip-path="url(#p782bbd028a)" d="M 394.363636 78.066667 
L 648 78.066667 
" style="fill:none;stroke:#b0b0b0;stroke-linecap:square;stroke-width:0.8;"/>
     </g>
     <g id="line2d_46">
      <g>
       <use style="stroke:#000000;stroke-width:0.8;" x="394.363636" xlink:href="#m0e5b219ce0" y="78.066667"/>
      </g>
     </g>
     <g id="text_25">
      <!-- −50 -->
      <g transform="translate(366.258949 81.865885)scale(0.1 -0.1)">
       <use xlink:href="#DejaVuSans-8722"/>
       <use x="83.789062" xlink:href="#DejaVuSans-53"/>
       <use x="147.412109" xlink:href="#DejaVuSans-48"/>
      </g>
     </g>
    </g>
    <g id="ytick_11">
     <g id="line2d_47">
      <path clip-path="url(#p782bbd028a)" d="M 394.363636 52.4 
L 648 52.4 
" style="fill:none;stroke:#b0b0b0;stroke-linecap:square;stroke-width:0.8;"/>
     </g>
     <g id="line2d_48">
      <g>
       <use style="stroke:#000000;stroke-width:0.8;" x="394.363636" xlink:href="#m0e5b219ce0" y="52.4"/>
      </g>
     </g>
     <g id="text_26">
      <!-- −25 -->
      <g transform="translate(366.258949 56.199219)scale(0.1 -0.1)">
       <use xlink:href="#DejaVuSans-8722"/>
       <use x="83.789062" xlink:href="#DejaVuSans-50"/>
       <use x="147.412109" xlink:href="#DejaVuSans-53"/>
      </g>
     </g>
    </g>
    <g id="ytick_12">
     <g id="line2d_49">
      <path clip-path="url(#p782bbd028a)" d="M 394.363636 26.733333 
L 648 26.733333 
" style="fill:none;stroke:#b0b0b0;stroke-linecap:square;stroke-width:0.8;"/>
     </g>
     <g id="line2d_50">
      <g>
       <use style="stroke:#000000;stroke-width:0.8;" x="394.363636" xlink:href="#m0e5b219ce0" y="26.733333"/>
      </g>
     </g>
     <g id="text_27">
      <!-- 0 -->
      <g transform="translate(381.001136 30.532552)scale(0.1 -0.1)">
       <use xlink:href="#DejaVuSans-48"/>
      </g>
     </g>
    </g>
    <g id="text_28">
     <!-- Suy hao (dB) -->
     <g transform="translate(353.816761 123.178906)rotate(-90)scale(0.1 -0.1)">
      <use xlink:href="#DejaVuSans-83"/>
      <use x="63.476562" xlink:href="#DejaVuSans-117"/>
      <use x="126.855469" xlink:href="#DejaVuSans-121"/>
      <use x="186.035156" xlink:href="#DejaVuSans-32"/>
      <use x="217.822266" xlink:href="#DejaVuSans-104"/>
      <use x="281.201172" xlink:href="#DejaVuSans-97"/>
      <use x="342.480469" xlink:href="#DejaVuSans-111"/>
      <use x="403.662109" xlink:href="#DejaVuSans-32"/>
      <use x="435.449219" xlink:href="#DejaVuSans-40"/>
      <use x="474.462891" xlink:href="#DejaVuSans-100"/>
      <use x="537.939453" xlink:href="#DejaVuSans-66"/>
      <use x="606.542969" xlink:href="#DejaVuSans-41"/>
     </g>
    </g>
   </g>
   <g id="line2d_51">
    <path clip-path="url(#p782bbd028a)" d="M 394.363636 26.714117 
L 459.258878 26.819569 
L 462.231179 27.114363 
L 464.708097 27.586492 
L 466.689631 28.155345 
L 468.671165 28.925137 
L 470.652699 29.922882 
L 472.634233 31.174687 
L 474.615767 32.706674 
L 476.597301 34.546181 
L 478.578835 36.723222 
L 480.560369 39.272348 
L 482.541903 42.235114 
L 484.523437 45.663596 
L 486.504972 49.625765 
L 488.486506 54.214322 
L 489.972656 58.1447 
L 491.458807 62.581229 
L 492.944957 67.63996 
L 494.431108 73.500457 
L 495.917259 80.469459 
L 496.908026 86.009304 
L 497.898793 92.662126 
L 498.88956 101.2705 
L 499.384943 107.025238 
L 499.880327 115.134624 
L 500.37571 135.43836 
L 500.871094 124.164708 
L 501.366477 120.880622 
L 501.861861 121.568805 
L 502.357244 125.068804 
L 502.852628 134.444071 
L 503.348011 134.980534 
L 503.843395 125.652719 
L 504.338778 122.004223 
L 504.834162 120.254248 
L 505.329545 119.614079 
L 505.824929 119.82316 
L 506.320312 120.831687 
L 506.815696 122.763177 
L 507.31108 126.054496 
L 507.806463 132.287987 
L 508.301847 159.629802 
L 508.79723 131.806463 
L 509.292614 126.269916 
L 509.787997 123.363121 
L 510.283381 121.67317 
L 510.778764 120.759589 
L 511.274148 120.443297 
L 511.769531 120.656698 
L 512.264915 121.404034 
L 512.760298 122.765395 
L 513.255682 124.950357 
L 513.751065 128.500343 
L 514.246449 135.389684 
L 514.741832 149.194569 
L 515.237216 132.299029 
L 515.732599 127.04384 
L 516.227983 124.044933 
L 516.723366 122.118653 
L 517.21875 120.86642 
L 517.714134 120.111081 
L 518.209517 119.766025 
L 518.704901 119.792586 
L 519.200284 120.185284 
L 519.695668 120.97026 
L 520.191051 122.2156 
L 520.686435 124.06322 
L 521.181818 126.822489 
L 521.677202 131.326057 
L 522.172585 141.675234 
L 522.667969 140.046967 
L 523.163352 130.961135 
L 523.658736 126.812848 
L 524.154119 124.276257 
L 524.649503 122.602978 
L 525.144886 121.505216 
L 525.64027 120.847938 
L 526.135653 120.564713 
L 526.631037 120.628402 
L 527.12642 121.041421 
L 527.621804 121.836805 
L 528.117187 123.090983 
L 528.612571 124.960304 
L 529.107955 127.789551 
L 529.603338 132.545779 
L 530.098722 144.855459 
L 530.594105 138.455569 
L 531.089489 130.379157 
L 531.584872 126.355619 
L 532.080256 123.779413 
L 532.575639 121.994055 
L 533.071023 120.734678 
L 533.566406 119.870905 
L 534.06179 119.332578 
L 534.557173 119.082108 
L 535.052557 119.102979 
L 535.54794 119.39544 
L 536.043324 119.976668 
L 536.538707 120.885502 
L 537.034091 122.194793 
L 537.529474 124.041223 
L 538.024858 126.706669 
L 538.520241 130.908594 
L 539.015625 139.708965 
L 539.511009 142.896054 
L 540.006392 132.035624 
L 540.501776 127.471295 
L 540.997159 124.681871 
L 541.492543 122.790234 
L 541.987926 121.470951 
L 542.48331 120.570563 
L 542.978693 120.008432 
L 543.474077 119.741745 
L 543.96946 119.751343 
L 544.464844 120.036353 
L 544.960227 120.613999 
L 545.455611 121.52449 
L 545.950994 122.844222 
L 546.446378 124.71826 
L 546.941761 127.450926 
L 547.437145 131.841629 
L 547.932528 141.648036 
L 548.427912 141.319341 
L 548.923295 131.701896 
L 549.418679 127.328723 
L 549.914062 124.585911 
L 550.409446 122.688527 
L 550.90483 121.334691 
L 551.400213 120.378611 
L 551.895597 119.741562 
L 552.39098 119.379571 
L 552.886364 119.269794 
L 553.381747 119.404648 
L 553.877131 119.790054 
L 554.372514 120.446843 
L 554.867898 121.416069 
L 555.363281 122.771479 
L 555.858665 124.648828 
L 556.354048 127.324913 
L 556.849432 131.496285 
L 557.344815 140.058993 
L 557.840199 144.307738 
L 558.335582 133.006411 
L 558.830966 128.370366 
L 559.326349 125.546908 
L 559.821733 123.628723 
L 560.317116 122.282207 
L 560.8125 121.350308 
L 561.307884 120.749997 
L 561.803267 120.436156 
L 562.298651 120.386779 
L 562.794034 120.596928 
L 563.289418 121.077483 
L 563.784801 121.857939 
L 564.280185 122.994945 
L 564.775568 124.592637 
L 565.270952 126.854319 
L 565.766335 130.243062 
L 566.261719 136.233045 
L 566.757102 172.477156 
L 567.252486 136.569508 
L 567.747869 130.449839 
L 568.243253 127.034595 
L 568.738636 124.77172 
L 569.23402 123.18239 
L 569.729403 122.057869 
L 570.224787 121.291502 
L 570.72017 120.825164 
L 571.215554 120.628268 
L 571.710937 120.688923 
L 572.206321 121.010915 
L 572.701705 121.614687 
L 573.197088 122.542916 
L 573.692472 123.874256 
L 574.187855 125.756594 
L 574.683239 128.499708 
L 575.178622 132.921061 
L 575.674006 142.94207 
L 576.169389 141.914437 
L 576.664773 132.478669 
L 577.160156 128.112127 
L 577.65554 125.345223 
L 578.150923 123.409251 
L 578.646307 122.006361 
L 579.14169 120.991764 
L 579.637074 120.286496 
L 580.132457 119.845523 
L 580.627841 119.644125 
L 581.123224 119.671776 
L 581.618608 119.929833 
L 582.113991 120.43185 
L 582.609375 121.206668 
L 583.104759 122.305923 
L 583.600142 123.820772 
L 584.095526 125.92226 
L 584.590909 128.978171 
L 585.086293 134.028197 
L 585.581676 147.673782 
L 586.572443 131.456759 
L 587.067827 127.57775 
L 587.56321 125.069199 
L 588.058594 123.311178 
L 588.553977 122.049305 
L 589.049361 121.156549 
L 589.544744 120.562971 
L 590.040128 120.229053 
L 590.535511 120.134146 
L 591.030895 120.271391 
L 591.526278 120.646175 
L 592.021662 121.277292 
L 592.517045 122.201429 
L 593.012429 123.483517 
L 593.507812 125.240367 
L 594.003196 127.701418 
L 594.49858 131.405656 
L 594.993963 138.221191 
L 595.489347 154.685772 
L 595.98473 135.91864 
L 596.480114 130.490013 
L 596.975497 127.350567 
L 597.470881 125.254948 
L 597.966264 123.789042 
L 598.461648 122.766758 
L 598.957031 122.091988 
L 599.452415 121.712799 
L 599.947798 121.603209 
L 600.443182 121.755703 
L 600.938565 122.179269 
L 601.433949 122.901764 
L 601.929332 123.978045 
L 602.424716 125.509661 
L 602.920099 127.694879 
L 603.415483 130.982965 
L 603.910866 136.782811 
L 604.40625 164.09865 
L 604.901634 137.549159 
L 605.397017 131.215153 
L 605.892401 127.679 
L 606.387784 125.313385 
L 606.883168 123.623859 
L 607.378551 122.39543 
L 607.873935 121.51746 
L 608.369318 120.928177 
L 608.864702 120.592772 
L 609.360085 120.493762 
L 609.855469 120.626866 
L 610.350852 121.000083 
L 610.846236 121.635516 
L 611.341619 122.574873 
L 611.837003 123.891925 
L 612.332386 125.7215 
L 612.82777 128.33721 
L 613.323153 132.423831 
L 613.818537 140.789425 
L 614.31392 145.575152 
L 614.809304 133.930586 
L 615.304687 129.173383 
L 615.800071 126.246422 
L 616.295455 124.223927 
L 616.790838 122.766538 
L 617.286222 121.713829 
L 617.781605 120.979686 
L 618.276989 120.515382 
L 618.772372 120.294133 
L 619.267756 120.304202 
L 619.763139 120.546231 
L 620.258523 121.033384 
L 620.753906 121.794366 
L 621.24929 122.880951 
L 621.744673 124.384853 
L 622.240057 126.478605 
L 622.73544 129.534313 
L 623.230824 134.609849 
L 623.726207 148.596526 
L 624.716974 131.820891 
L 625.212358 127.950432 
L 625.707741 125.436819 
L 626.203125 123.669065 
L 626.698509 122.395709 
L 627.193892 121.491184 
L 627.689276 120.886614 
L 628.184659 120.543548 
L 628.680043 120.442643 
L 629.175426 120.578866 
L 629.67081 120.960349 
L 630.166193 121.610305 
L 630.661577 122.573029 
L 631.15696 123.92772 
L 631.652344 125.821256 
L 632.147727 128.558711 
L 632.643111 132.937828 
L 633.138494 142.69229 
L 633.633878 142.441353 
L 634.129261 132.750851 
L 634.624645 128.320645 
L 635.120028 125.512877 
L 635.615412 123.539151 
L 636.110795 122.095634 
L 636.606179 121.0345 
L 637.101562 120.274437 
L 637.596946 119.767965 
L 638.09233 119.487332 
L 638.587713 119.417902 
L 639.083097 119.555129 
L 639.57848 119.903653 
L 640.073864 120.478158 
L 640.569247 121.306316 
L 641.064631 122.435262 
L 641.560014 123.94535 
L 642.055398 125.981913 
L 642.550781 128.841583 
L 643.046165 133.285148 
L 643.541548 142.705966 
L 644.036932 144.213026 
L 644.532315 134.156529 
L 645.027699 129.814064 
L 645.523082 127.169257 
L 646.018466 125.396501 
L 646.513849 124.185796 
L 647.009233 123.391518 
L 647.504616 122.939052 
L 647.504616 122.939052 
" style="fill:none;stroke:#1f77b4;stroke-linecap:square;stroke-width:1.5;"/>
   </g>
   <g id="line2d_52">
    <path clip-path="url(#p782bbd028a)" d="M 457.772727 160.2 
L 457.772727 21.6 
" style="fill:none;stroke:#ff7f0e;stroke-dasharray:3.7,1.6;stroke-dashoffset:0;"/>
   </g>
   <g id="line2d_53">
    <path clip-path="url(#p782bbd028a)" d="M 500.045455 160.2 
L 500.045455 21.6 
" style="fill:none;stroke:#2ca02c;stroke-dasharray:3.7,1.6;stroke-dashoffset:0;"/>
   </g>
   <g id="line2d_54">
    <path clip-path="url(#p782bbd028a)" d="M 648 160.2 
L 648 21.6 
" style="fill:none;stroke:#d62728;stroke-dasharray:3.7,1.6;stroke-dashoffset:0;"/>
   </g>
   <g id="line2d_55">
    <path clip-path="url(#p782bbd028a)" d="M 648 160.2 
L 648 21.6 
" style="fill:none;stroke:#9467bd;stroke-dasharray:3.7,1.6;stroke-dashoffset:0;"/>
   </g>
   <g id="line2d_56">
    <path clip-path="url(#p782bbd028a)" d="M 394.363636 119.082108 
L 647.504616 119.082108 
L 647.504616 119.082108 
" style="fill:none;stroke:#ff0000;stroke-dasharray:5.55,2.4;stroke-dashoffset:0;stroke-width:1.5;"/>
   </g>
   <g id="patch_8">
    <path d="M 394.363636 160.2 
L 394.363636 21.6 
" style="fill:none;stroke:#000000;stroke-linecap:square;stroke-linejoin:miter;stroke-width:0.8;"/>
   </g>
   <g id="patch_9">
    <path d="M 648 160.2 
L 648 21.6 
" style="fill:none;stroke:#000000;stroke-linecap:square;stroke-linejoin:miter;stroke-width:0.8;"/>
   </g>
   <g id="patch_10">
    <path d="M 394.363636 160.2 
L 648 160.2 
" style="fill:none;stroke:#000000;stroke-linecap:square;stroke-linejoin:miter;stroke-width:0.8;"/>
   </g>
   <g id="patch_11">
    <path d="M 394.363636 21.6 
L 648 21.6 
" style="fill:none;stroke:#000000;stroke-linecap:square;stroke-linejoin:miter;stroke-width:0.8;"/>
   </g>
   <g id="text_29">
    <!-- -89.95 -->
    <g transform="translate(521.181818 117.028775)scale(0.1 -0.1)">
     <defs>
      <path d="M 31.78125 34.625 
Q 24.75 34.625 20.71875 30.859375 
Q 16.703125 27.09375 16.703125 20.515625 
Q 16.703125 13.921875 20.71875 10.15625 
Q 24.75 6.390625 31.78125 6.390625 
Q 38.8125 6.390625 42.859375 10.171875 
Q 46.921875 13.96875 46.921875 20.515625 
Q 46.921875 27.09375 42.890625 30.859375 
Q 38.875 34.625 31.78125 34.625 
z
M 21.921875 38.8125 
Q 15.578125 40.375 12.03125 44.71875 
Q 8.5 49.078125 8.5 55.328125 
Q 8.5 64.0625 14.71875 69.140625 
Q 20.953125 74.21875 31.78125 74.21875 
Q 42.671875 74.21875 48.875 69.140625 
Q 55.078125 64.0625 55.078125 55.328125 
Q 55.078125 49.078125 51.53125 44.71875 
Q 48 40.375 41.703125 38.8125 
Q 48.828125 37.15625 52.796875 32.3125 
Q 56.78125 27.484375 56.78125 20.515625 
Q 56.78125 9.90625 50.3125 4.234375 
Q 43.84375 -1.421875 31.78125 -1.421875 
Q 19.734375 -1.421875 13.25 4.234375 
Q 6.78125 9.90625 6.78125 20.515625 
Q 6.78125 27.484375 10.78125 32.3125 
Q 14.796875 37.15625 21.921875 38.8125 
z
M 18.3125 54.390625 
Q 18.3125 48.734375 21.84375 45.5625 
Q 25.390625 42.390625 31.78125 42.390625 
Q 38.140625 42.390625 41.71875 45.5625 
Q 45.3125 48.734375 45.3125 54.390625 
Q 45.3125 60.0625 41.71875 63.234375 
Q 38.140625 66.40625 31.78125 66.40625 
Q 25.390625 66.40625 21.84375 63.234375 
Q 18.3125 60.0625 18.3125 54.390625 
z
" id="DejaVuSans-56"/>
     </defs>
     <use xlink:href="#DejaVuSans-45"/>
     <use x="36.083984" xlink:href="#DejaVuSans-56"/>
     <use x="99.707031" xlink:href="#DejaVuSans-57"/>
     <use x="163.330078" xlink:href="#DejaVuSans-46"/>
     <use x="195.117188" xlink:href="#DejaVuSans-57"/>
     <use x="258.740234" xlink:href="#DejaVuSans-53"/>
    </g>
   </g>
   <g id="text_30">
    <!-- Bộ lọc FIR - Đáp ứng tần số (sau) -->
    <g transform="translate(422.482756 15.6)scale(0.12 -0.12)">
     <use xlink:href="#DejaVuSans-66"/>
     <use x="68.603516" xlink:href="#DejaVuSans-7897"/>
     <use x="129.785156" xlink:href="#DejaVuSans-32"/>
     <use x="161.572266" xlink:href="#DejaVuSans-108"/>
     <use x="189.355469" xlink:href="#DejaVuSans-7885"/>
     <use x="250.537109" xlink:href="#DejaVuSans-99"/>
     <use x="305.517578" xlink:href="#DejaVuSans-32"/>
     <use x="337.304688" xlink:href="#DejaVuSans-70"/>
     <use x="394.824219" xlink:href="#DejaVuSans-73"/>
     <use x="424.316406" xlink:href="#DejaVuSans-82"/>
     <use x="493.798828" xlink:href="#DejaVuSans-32"/>
     <use x="525.585938" xlink:href="#DejaVuSans-45"/>
     <use x="561.669922" xlink:href="#DejaVuSans-32"/>
     <use x="593.457031" xlink:href="#DejaVuSans-272"/>
     <use x="670.947266" xlink:href="#DejaVuSans-225"/>
     <use x="732.226562" xlink:href="#DejaVuSans-112"/>
     <use x="795.703125" xlink:href="#DejaVuSans-32"/>
     <use x="827.490234" xlink:href="#DejaVuSans-7913"/>
     <use x="890.869141" xlink:href="#DejaVuSans-110"/>
     <use x="954.248047" xlink:href="#DejaVuSans-103"/>
     <use x="1017.724609" xlink:href="#DejaVuSans-32"/>
     <use x="1049.511719" xlink:href="#DejaVuSans-116"/>
     <use x="1088.720703" xlink:href="#DejaVuSans-7847"/>
     <use x="1150" xlink:href="#DejaVuSans-110"/>
     <use x="1213.378906" xlink:href="#DejaVuSans-32"/>
     <use x="1245.166016" xlink:href="#DejaVuSans-115"/>
     <use x="1297.265625" xlink:href="#DejaVuSans-7889"/>
     <use x="1358.447266" xlink:href="#DejaVuSans-32"/>
     <use x="1390.234375" xlink:href="#DejaVuSans-40"/>
     <use x="1429.248047" xlink:href="#DejaVuSans-115"/>
     <use x="1481.347656" xlink:href="#DejaVuSans-97"/>
     <use x="1542.626953" xlink:href="#DejaVuSans-117"/>
     <use x="1606.005859" xlink:href="#DejaVuSans-41"/>
    </g>
   </g>
  </g>
 </g>
 <defs>
  <clipPath id="p81d287f682">
   <rect height="138.6" width="253.636364" x="90" y="21.6"/>
  </clipPath>
  <clipPath id="p782bbd028a">
   <rect height="138.6" width="253.636364" x="394.363636" y="21.6"/>
  </clipPath>
 </defs>
</svg>
