<?xml version="1.0" encoding="utf-8" standalone="no"?>
<!DOCTYPE svg PUBLIC "-//W3C//DTD SVG 1.1//EN"
  "http://www.w3.org/Graphics/SVG/1.1/DTD/svg11.dtd">
<svg height="216pt" version="1.1" viewBox="0 0 720 216" width="720pt" xmlns="http://www.w3.org/2000/svg" xmlns:xlink="http://www.w3.org/1999/xlink">
 <metadata>
  <rdf:RDF xmlns:cc="http://creativecommons.org/ns#" xmlns:dc="http://purl.org/dc/elements/1.1/" xmlns:rdf="http://www.w3.org/1999/02/22-rdf-syntax-ns#">
   <cc:Work>
    <dc:type rdf:resource="http://purl.org/dc/dcmitype/StillImage"/>
    <dc:date>2023-02-19T17:14:29.298659</dc:date>
    <dc:format>image/svg+xml</dc:format>
    <dc:creator>
     <cc:Agent>
      <dc:title>Matplotlib v3.4.3, https://matplotlib.org/</dc:title>
     </cc:Agent>
    </dc:creator>
   </cc:Work>
  </rdf:RDF>
 </metadata>
 <defs>
  <style type="text/css">*{stroke-linecap:butt;stroke-linejoin:round;}</style>
 </defs>
 <g id="figure_1">
  <g id="patch_1">
   <path d="M 0 216 
L 720 216 
L 720 0 
L 0 0 
z
" style="fill:#ffffff;"/>
  </g>
  <g id="axes_1">
   <g id="patch_2">
    <path d="M 42.01 174.04 
L 709.2 174.04 
L 709.2 27.96 
L 42.01 27.96 
z
" style="fill:#ffffff;"/>
   </g>
   <g id="matplotlib.axis_1">
    <g id="xtick_1">
     <g id="line2d_1">
      <defs>
       <path d="M 0 0 
L 0 3.5 
" id="m3ede165d67" style="stroke:#000000;stroke-width:0.8;"/>
      </defs>
      <g>
       <use style="stroke:#000000;stroke-width:0.8;" x="42.01" xlink:href="#m3ede165d67" y="174.04"/>
      </g>
     </g>
     <g id="text_1">
      <!-- 0 -->
      <g transform="translate(38.82875 188.638438)scale(0.1 -0.1)">
       <defs>
        <path d="M 2034 4250 
Q 1547 4250 1301 3770 
Q 1056 3291 1056 2328 
Q 1056 1369 1301 889 
Q 1547 409 2034 409 
Q 2525 409 2770 889 
Q 3016 1369 3016 2328 
Q 3016 3291 2770 3770 
Q 2525 4250 2034 4250 
z
M 2034 4750 
Q 2819 4750 3233 4129 
Q 3647 3509 3647 2328 
Q 3647 1150 3233 529 
Q 2819 -91 2034 -91 
Q 1250 -91 836 529 
Q 422 1150 422 2328 
Q 422 3509 836 4129 
Q 1250 4750 2034 4750 
z
" id="DejaVuSans-30" transform="scale(0.015625)"/>
       </defs>
       <use xlink:href="#DejaVuSans-30"/>
      </g>
     </g>
    </g>
    <g id="xtick_2">
     <g id="line2d_2">
      <g>
       <use style="stroke:#000000;stroke-width:0.8;" x="131.565705" xlink:href="#m3ede165d67" y="174.04"/>
      </g>
     </g>
     <g id="text_2">
      <!-- 20 -->
      <g transform="translate(125.203205 188.638438)scale(0.1 -0.1)">
       <defs>
        <path d="M 1228 531 
L 3431 531 
L 3431 0 
L 469 0 
L 469 531 
Q 828 903 1448 1529 
Q 2069 2156 2228 2338 
Q 2531 2678 2651 2914 
Q 2772 3150 2772 3378 
Q 2772 3750 2511 3984 
Q 2250 4219 1831 4219 
Q 1534 4219 1204 4116 
Q 875 4013 500 3803 
L 500 4441 
Q 881 4594 1212 4672 
Q 1544 4750 1819 4750 
Q 2544 4750 2975 4387 
Q 3406 4025 3406 3419 
Q 3406 3131 3298 2873 
Q 3191 2616 2906 2266 
Q 2828 2175 2409 1742 
Q 1991 1309 1228 531 
z
" id="DejaVuSans-32" transform="scale(0.015625)"/>
       </defs>
       <use xlink:href="#DejaVuSans-32"/>
       <use x="63.623047" xlink:href="#DejaVuSans-30"/>
      </g>
     </g>
    </g>
    <g id="xtick_3">
     <g id="line2d_3">
      <g>
       <use style="stroke:#000000;stroke-width:0.8;" x="221.121409" xlink:href="#m3ede165d67" y="174.04"/>
      </g>
     </g>
     <g id="text_3">
      <!-- 40 -->
      <g transform="translate(214.758909 188.638438)scale(0.1 -0.1)">
       <defs>
        <path d="M 2419 4116 
L 825 1625 
L 2419 1625 
L 2419 4116 
z
M 2253 4666 
L 3047 4666 
L 3047 1625 
L 3713 1625 
L 3713 1100 
L 3047 1100 
L 3047 0 
L 2419 0 
L 2419 1100 
L 313 1100 
L 313 1709 
L 2253 4666 
z
" id="DejaVuSans-34" transform="scale(0.015625)"/>
       </defs>
       <use xlink:href="#DejaVuSans-34"/>
       <use x="63.623047" xlink:href="#DejaVuSans-30"/>
      </g>
     </g>
    </g>
    <g id="xtick_4">
     <g id="line2d_4">
      <g>
       <use style="stroke:#000000;stroke-width:0.8;" x="310.677114" xlink:href="#m3ede165d67" y="174.04"/>
      </g>
     </g>
     <g id="text_4">
      <!-- 60 -->
      <g transform="translate(304.314614 188.638438)scale(0.1 -0.1)">
       <defs>
        <path d="M 2113 2584 
Q 1688 2584 1439 2293 
Q 1191 2003 1191 1497 
Q 1191 994 1439 701 
Q 1688 409 2113 409 
Q 2538 409 2786 701 
Q 3034 994 3034 1497 
Q 3034 2003 2786 2293 
Q 2538 2584 2113 2584 
z
M 3366 4563 
L 3366 3988 
Q 3128 4100 2886 4159 
Q 2644 4219 2406 4219 
Q 1781 4219 1451 3797 
Q 1122 3375 1075 2522 
Q 1259 2794 1537 2939 
Q 1816 3084 2150 3084 
Q 2853 3084 3261 2657 
Q 3669 2231 3669 1497 
Q 3669 778 3244 343 
Q 2819 -91 2113 -91 
Q 1303 -91 875 529 
Q 447 1150 447 2328 
Q 447 3434 972 4092 
Q 1497 4750 2381 4750 
Q 2619 4750 2861 4703 
Q 3103 4656 3366 4563 
z
" id="DejaVuSans-36" transform="scale(0.015625)"/>
       </defs>
       <use xlink:href="#DejaVuSans-36"/>
       <use x="63.623047" xlink:href="#DejaVuSans-30"/>
      </g>
     </g>
    </g>
    <g id="xtick_5">
     <g id="line2d_5">
      <g>
       <use style="stroke:#000000;stroke-width:0.8;" x="400.232819" xlink:href="#m3ede165d67" y="174.04"/>
      </g>
     </g>
     <g id="text_5">
      <!-- 80 -->
      <g transform="translate(393.870319 188.638438)scale(0.1 -0.1)">
       <defs>
        <path d="M 2034 2216 
Q 1584 2216 1326 1975 
Q 1069 1734 1069 1313 
Q 1069 891 1326 650 
Q 1584 409 2034 409 
Q 2484 409 2743 651 
Q 3003 894 3003 1313 
Q 3003 1734 2745 1975 
Q 2488 2216 2034 2216 
z
M 1403 2484 
Q 997 2584 770 2862 
Q 544 3141 544 3541 
Q 544 4100 942 4425 
Q 1341 4750 2034 4750 
Q 2731 4750 3128 4425 
Q 3525 4100 3525 3541 
Q 3525 3141 3298 2862 
Q 3072 2584 2669 2484 
Q 3125 2378 3379 2068 
Q 3634 1759 3634 1313 
Q 3634 634 3220 271 
Q 2806 -91 2034 -91 
Q 1263 -91 848 271 
Q 434 634 434 1313 
Q 434 1759 690 2068 
Q 947 2378 1403 2484 
z
M 1172 3481 
Q 1172 3119 1398 2916 
Q 1625 2713 2034 2713 
Q 2441 2713 2670 2916 
Q 2900 3119 2900 3481 
Q 2900 3844 2670 4047 
Q 2441 4250 2034 4250 
Q 1625 4250 1398 4047 
Q 1172 3844 1172 3481 
z
" id="DejaVuSans-38" transform="scale(0.015625)"/>
       </defs>
       <use xlink:href="#DejaVuSans-38"/>
       <use x="63.623047" xlink:href="#DejaVuSans-30"/>
      </g>
     </g>
    </g>
    <g id="xtick_6">
     <g id="line2d_6">
      <g>
       <use style="stroke:#000000;stroke-width:0.8;" x="489.788523" xlink:href="#m3ede165d67" y="174.04"/>
      </g>
     </g>
     <g id="text_6">
      <!-- 100 -->
      <g transform="translate(480.244773 188.638438)scale(0.1 -0.1)">
       <defs>
        <path d="M 794 531 
L 1825 531 
L 1825 4091 
L 703 3866 
L 703 4441 
L 1819 4666 
L 2450 4666 
L 2450 531 
L 3481 531 
L 3481 0 
L 794 0 
L 794 531 
z
" id="DejaVuSans-31" transform="scale(0.015625)"/>
       </defs>
       <use xlink:href="#DejaVuSans-31"/>
       <use x="63.623047" xlink:href="#DejaVuSans-30"/>
       <use x="127.246094" xlink:href="#DejaVuSans-30"/>
      </g>
     </g>
    </g>
    <g id="xtick_7">
     <g id="line2d_7">
      <g>
       <use style="stroke:#000000;stroke-width:0.8;" x="579.344228" xlink:href="#m3ede165d67" y="174.04"/>
      </g>
     </g>
     <g id="text_7">
      <!-- 120 -->
      <g transform="translate(569.800478 188.638438)scale(0.1 -0.1)">
       <use xlink:href="#DejaVuSans-31"/>
       <use x="63.623047" xlink:href="#DejaVuSans-32"/>
       <use x="127.246094" xlink:href="#DejaVuSans-30"/>
      </g>
     </g>
    </g>
    <g id="xtick_8">
     <g id="line2d_8">
      <g>
       <use style="stroke:#000000;stroke-width:0.8;" x="668.899933" xlink:href="#m3ede165d67" y="174.04"/>
      </g>
     </g>
     <g id="text_8">
      <!-- 140 -->
      <g transform="translate(659.356183 188.638438)scale(0.1 -0.1)">
       <use xlink:href="#DejaVuSans-31"/>
       <use x="63.623047" xlink:href="#DejaVuSans-34"/>
       <use x="127.246094" xlink:href="#DejaVuSans-30"/>
      </g>
     </g>
    </g>
    <g id="text_9">
     <!-- Số mẫu -->
     <g transform="translate(356.679219 202.316563)scale(0.1 -0.1)">
      <defs>
       <path d="M 3425 4513 
L 3425 3897 
Q 3066 4069 2747 4153 
Q 2428 4238 2131 4238 
Q 1616 4238 1336 4038 
Q 1056 3838 1056 3469 
Q 1056 3159 1242 3001 
Q 1428 2844 1947 2747 
L 2328 2669 
Q 3034 2534 3370 2195 
Q 3706 1856 3706 1288 
Q 3706 609 3251 259 
Q 2797 -91 1919 -91 
Q 1588 -91 1214 -16 
Q 841 59 441 206 
L 441 856 
Q 825 641 1194 531 
Q 1563 422 1919 422 
Q 2459 422 2753 634 
Q 3047 847 3047 1241 
Q 3047 1584 2836 1778 
Q 2625 1972 2144 2069 
L 1759 2144 
Q 1053 2284 737 2584 
Q 422 2884 422 3419 
Q 422 4038 858 4394 
Q 1294 4750 2059 4750 
Q 2388 4750 2728 4690 
Q 3069 4631 3425 4513 
z
" id="DejaVuSans-53" transform="scale(0.015625)"/>
       <path d="M 1658 4775 
L 2246 4775 
L 2905 3944 
L 2471 3944 
L 1952 4500 
L 1433 3944 
L 999 3944 
L 1658 4775 
z
M 3268 5409 
L 3846 5409 
L 3134 4584 
L 2655 4584 
L 3268 5409 
z
M 1959 3097 
Q 1497 3097 1228 2736 
Q 959 2375 959 1747 
Q 959 1119 1226 758 
Q 1494 397 1959 397 
Q 2419 397 2687 759 
Q 2956 1122 2956 1747 
Q 2956 2369 2687 2733 
Q 2419 3097 1959 3097 
z
M 1959 3584 
Q 2709 3584 3137 3096 
Q 3566 2609 3566 1747 
Q 3566 888 3137 398 
Q 2709 -91 1959 -91 
Q 1206 -91 779 398 
Q 353 888 353 1747 
Q 353 2609 779 3096 
Q 1206 3584 1959 3584 
z
" id="DejaVuSans-1ed1" transform="scale(0.015625)"/>
       <path id="DejaVuSans-20" transform="scale(0.015625)"/>
       <path d="M 3328 2828 
Q 3544 3216 3844 3400 
Q 4144 3584 4550 3584 
Q 5097 3584 5394 3201 
Q 5691 2819 5691 2113 
L 5691 0 
L 5113 0 
L 5113 2094 
Q 5113 2597 4934 2840 
Q 4756 3084 4391 3084 
Q 3944 3084 3684 2787 
Q 3425 2491 3425 1978 
L 3425 0 
L 2847 0 
L 2847 2094 
Q 2847 2600 2669 2842 
Q 2491 3084 2119 3084 
Q 1678 3084 1418 2786 
Q 1159 2488 1159 1978 
L 1159 0 
L 581 0 
L 581 3500 
L 1159 3500 
L 1159 2956 
Q 1356 3278 1631 3431 
Q 1906 3584 2284 3584 
Q 2666 3584 2933 3390 
Q 3200 3197 3328 2828 
z
" id="DejaVuSans-6d" transform="scale(0.015625)"/>
       <path d="M 1562 4775 
L 2150 4775 
L 2809 3944 
L 2375 3944 
L 1856 4500 
L 1337 3944 
L 903 3944 
L 1562 4775 
z
M 1860 5074 
L 1681 5177 
Q 1603 5221 1554 5238 
Q 1506 5255 1469 5255 
Q 1356 5255 1293 5177 
Q 1231 5099 1231 4959 
L 1231 4940 
L 841 4940 
Q 841 5255 1002 5439 
Q 1163 5624 1431 5624 
Q 1544 5624 1639 5599 
Q 1735 5574 1885 5490 
L 2063 5396 
Q 2135 5355 2188 5336 
Q 2241 5318 2288 5318 
Q 2388 5318 2450 5397 
Q 2513 5477 2513 5605 
L 2513 5624 
L 2903 5624 
Q 2897 5312 2736 5126 
Q 2575 4940 2313 4940 
Q 2206 4940 2114 4965 
Q 2022 4990 1860 5074 
z
M 2194 1759 
Q 1497 1759 1228 1600 
Q 959 1441 959 1056 
Q 959 750 1161 570 
Q 1363 391 1709 391 
Q 2188 391 2477 730 
Q 2766 1069 2766 1631 
L 2766 1759 
L 2194 1759 
z
M 3341 1997 
L 3341 0 
L 2766 0 
L 2766 531 
Q 2569 213 2275 61 
Q 1981 -91 1556 -91 
Q 1019 -91 701 211 
Q 384 513 384 1019 
Q 384 1609 779 1909 
Q 1175 2209 1959 2209 
L 2766 2209 
L 2766 2266 
Q 2766 2663 2505 2880 
Q 2244 3097 1772 3097 
Q 1472 3097 1187 3025 
Q 903 2953 641 2809 
L 641 3341 
Q 956 3463 1253 3523 
Q 1550 3584 1831 3584 
Q 2591 3584 2966 3190 
Q 3341 2797 3341 1997 
z
" id="DejaVuSans-1eab" transform="scale(0.015625)"/>
       <path d="M 544 1381 
L 544 3500 
L 1119 3500 
L 1119 1403 
Q 1119 906 1312 657 
Q 1506 409 1894 409 
Q 2359 409 2629 706 
Q 2900 1003 2900 1516 
L 2900 3500 
L 3475 3500 
L 3475 0 
L 2900 0 
L 2900 538 
Q 2691 219 2414 64 
Q 2138 -91 1772 -91 
Q 1169 -91 856 284 
Q 544 659 544 1381 
z
M 1991 3584 
L 1991 3584 
z
" id="DejaVuSans-75" transform="scale(0.015625)"/>
      </defs>
      <use xlink:href="#DejaVuSans-53"/>
      <use x="63.476562" xlink:href="#DejaVuSans-1ed1"/>
      <use x="124.658203" xlink:href="#DejaVuSans-20"/>
      <use x="156.445312" xlink:href="#DejaVuSans-6d"/>
      <use x="253.857422" xlink:href="#DejaVuSans-1eab"/>
      <use x="315.136719" xlink:href="#DejaVuSans-75"/>
     </g>
    </g>
   </g>
   <g id="matplotlib.axis_2">
    <g id="ytick_1">
     <g id="line2d_9">
      <defs>
       <path d="M 0 0 
L -3.5 0 
" id="m14666eee56" style="stroke:#000000;stroke-width:0.8;"/>
      </defs>
      <g>
       <use style="stroke:#000000;stroke-width:0.8;" x="42.01" xlink:href="#m14666eee56" y="161.866667"/>
      </g>
     </g>
     <g id="text_10">
      <!-- −1.0 -->
      <g transform="translate(10.727188 165.665885)scale(0.1 -0.1)">
       <defs>
        <path d="M 678 2272 
L 4684 2272 
L 4684 1741 
L 678 1741 
L 678 2272 
z
" id="DejaVuSans-2212" transform="scale(0.015625)"/>
        <path d="M 684 794 
L 1344 794 
L 1344 0 
L 684 0 
L 684 794 
z
" id="DejaVuSans-2e" transform="scale(0.015625)"/>
       </defs>
       <use xlink:href="#DejaVuSans-2212"/>
       <use x="83.789062" xlink:href="#DejaVuSans-31"/>
       <use x="147.412109" xlink:href="#DejaVuSans-2e"/>
       <use x="179.199219" xlink:href="#DejaVuSans-30"/>
      </g>
     </g>
    </g>
    <g id="ytick_2">
     <g id="line2d_10">
      <g>
       <use style="stroke:#000000;stroke-width:0.8;" x="42.01" xlink:href="#m14666eee56" y="131.433333"/>
      </g>
     </g>
     <g id="text_11">
      <!-- −0.5 -->
      <g transform="translate(10.727188 135.232552)scale(0.1 -0.1)">
       <defs>
        <path d="M 691 4666 
L 3169 4666 
L 3169 4134 
L 1269 4134 
L 1269 2991 
Q 1406 3038 1543 3061 
Q 1681 3084 1819 3084 
Q 2600 3084 3056 2656 
Q 3513 2228 3513 1497 
Q 3513 744 3044 326 
Q 2575 -91 1722 -91 
Q 1428 -91 1123 -41 
Q 819 9 494 109 
L 494 744 
Q 775 591 1075 516 
Q 1375 441 1709 441 
Q 2250 441 2565 725 
Q 2881 1009 2881 1497 
Q 2881 1984 2565 2268 
Q 2250 2553 1709 2553 
Q 1456 2553 1204 2497 
Q 953 2441 691 2322 
L 691 4666 
z
" id="DejaVuSans-35" transform="scale(0.015625)"/>
       </defs>
       <use xlink:href="#DejaVuSans-2212"/>
       <use x="83.789062" xlink:href="#DejaVuSans-30"/>
       <use x="147.412109" xlink:href="#DejaVuSans-2e"/>
       <use x="179.199219" xlink:href="#DejaVuSans-35"/>
      </g>
     </g>
    </g>
    <g id="ytick_3">
     <g id="line2d_11">
      <g>
       <use style="stroke:#000000;stroke-width:0.8;" x="42.01" xlink:href="#m14666eee56" y="101"/>
      </g>
     </g>
     <g id="text_12">
      <!-- 0.0 -->
      <g transform="translate(19.106875 104.799219)scale(0.1 -0.1)">
       <use xlink:href="#DejaVuSans-30"/>
       <use x="63.623047" xlink:href="#DejaVuSans-2e"/>
       <use x="95.410156" xlink:href="#DejaVuSans-30"/>
      </g>
     </g>
    </g>
    <g id="ytick_4">
     <g id="line2d_12">
      <g>
       <use style="stroke:#000000;stroke-width:0.8;" x="42.01" xlink:href="#m14666eee56" y="70.566667"/>
      </g>
     </g>
     <g id="text_13">
      <!-- 0.5 -->
      <g transform="translate(19.106875 74.365885)scale(0.1 -0.1)">
       <use xlink:href="#DejaVuSans-30"/>
       <use x="63.623047" xlink:href="#DejaVuSans-2e"/>
       <use x="95.410156" xlink:href="#DejaVuSans-35"/>
      </g>
     </g>
    </g>
    <g id="ytick_5">
     <g id="line2d_13">
      <g>
       <use style="stroke:#000000;stroke-width:0.8;" x="42.01" xlink:href="#m14666eee56" y="40.133333"/>
      </g>
     </g>
     <g id="text_14">
      <!-- 1.0 -->
      <g transform="translate(19.106875 43.932552)scale(0.1 -0.1)">
       <use xlink:href="#DejaVuSans-31"/>
       <use x="63.623047" xlink:href="#DejaVuSans-2e"/>
       <use x="95.410156" xlink:href="#DejaVuSans-30"/>
      </g>
     </g>
    </g>
   </g>
   <g id="line2d_14">
    <path clip-path="url(#p022b277cb1)" d="M 42.01 101 
L 42.01 97.043082 
L 46.487785 97.043082 
L 46.487785 93.15334 
L 50.96557 93.15334 
L 50.96557 89.396812 
L 55.443356 89.396812 
L 55.443356 85.837271 
L 59.921141 85.837271 
L 59.921141 82.535149 
L 64.398926 82.535149 
L 64.398926 79.546506 
L 68.876711 79.546506 
L 68.876711 76.92208 
L 73.354497 76.92208 
L 73.354497 74.706426 
L 77.832282 74.706426 
L 77.832282 72.93716 
L 82.310067 72.93716 
L 82.310067 71.644317 
L 86.787852 71.644317 
L 86.787852 70.849848 
L 91.265638 70.849848 
L 91.265638 70.56724 
L 95.743423 70.56724 
L 95.743423 70.80129 
L 100.221208 70.80129 
L 100.221208 71.548025 
L 104.698993 71.548025 
L 104.698993 72.794768 
L 109.176779 72.794768 
L 109.176779 74.520353 
L 113.654564 74.520353 
L 113.654564 76.695484 
L 118.132349 76.695484 
L 118.132349 79.283234 
L 122.610134 79.283234 
L 122.610134 82.239671 
L 127.087919 82.239671 
L 127.087919 85.514603 
L 131.565705 85.514603 
L 131.565705 89.052431 
L 136.04349 89.052431 
L 136.04349 92.793094 
L 140.521275 92.793094 
L 140.521275 96.673086 
L 144.99906 96.673086 
L 144.99906 100.626536 
L 149.476846 100.626536 
L 149.476846 104.586327 
L 153.954631 104.586327 
L 153.954631 108.485232 
L 158.432416 108.485232 
L 158.432416 112.25706 
L 162.910201 112.25706 
L 162.910201 115.837777 
L 167.387987 115.837777 
L 167.387987 119.166591 
L 171.865772 119.166591 
L 171.865772 122.186991 
L 176.343557 122.186991 
L 176.343557 124.847698 
L 180.821342 124.847698 
L 180.821342 127.103541 
L 185.299128 127.103541 
L 185.299128 128.916223 
L 189.776913 128.916223 
L 189.776913 130.254969 
L 194.254698 130.254969 
L 194.254698 131.097053 
L 198.732483 131.097053 
L 198.732483 131.428177 
L 203.210268 131.428177 
L 203.210268 131.242721 
L 207.688054 131.242721 
L 207.688054 130.543832 
L 212.165839 130.543832 
L 212.165839 129.343376 
L 216.643624 129.343376 
L 216.643624 127.661733 
L 221.121409 127.661733 
L 221.121409 125.527453 
L 225.599195 125.527453 
L 225.599195 122.976768 
L 230.07698 122.976768 
L 230.07698 120.052983 
L 234.554765 120.052983 
L 234.554765 116.805734 
L 239.03255 116.805734 
L 239.03255 113.29015 
L 243.510336 113.29015 
L 243.510336 109.565916 
L 247.988121 109.565916 
L 247.988121 105.696258 
L 252.465906 105.696258 
L 252.465906 101.746871 
L 256.943691 101.746871 
L 256.943691 97.784805 
L 261.421477 97.784805 
L 261.421477 93.877323 
L 265.899262 93.877323 
L 265.899262 90.090763 
L 270.377047 90.090763 
L 270.377047 86.48941 
L 274.854832 86.48941 
L 274.854832 83.134404 
L 279.332617 83.134404 
L 279.332617 80.082703 
L 283.810403 80.082703 
L 283.810403 77.386116 
L 288.288188 77.386116 
L 288.288188 75.090424 
L 292.765973 75.090424 
L 292.765973 73.234599 
L 297.243758 73.234599 
L 297.243758 71.850149 
L 301.721544 71.850149 
L 301.721544 70.960578 
L 306.199329 70.960578 
L 306.199329 70.580988 
L 310.677114 70.580988 
L 310.677114 70.717823 
L 315.154899 70.717823 
L 315.154899 71.36876 
L 319.632685 71.36876 
L 319.632685 72.522748 
L 324.11047 72.522748 
L 324.11047 74.160196 
L 328.588255 74.160196 
L 328.588255 76.253305 
L 333.06604 76.253305 
L 333.06604 78.76654 
L 337.543826 78.76654 
L 337.543826 81.657233 
L 342.021611 81.657233 
L 342.021611 84.87631 
L 346.499396 84.87631 
L 346.499396 88.369119 
L 350.977181 88.369119 
L 350.977181 92.076363 
L 355.454966 92.076363 
L 355.454966 95.935105 
L 359.932752 95.935105 
L 359.932752 99.879834 
L 364.410537 99.879834 
L 364.410537 103.843579 
L 368.888322 103.843579 
L 368.888322 107.759049 
L 373.366107 107.759049 
L 373.366107 111.559771 
L 377.843893 111.559771 
L 377.843893 115.181218 
L 382.321678 115.181218 
L 382.321678 118.56191 
L 386.799463 118.56191 
L 386.799463 121.644453 
L 391.277248 121.644453 
L 391.277248 124.376514 
L 395.755034 124.376514 
L 395.755034 126.71171 
L 400.232819 126.71171 
L 400.232819 128.610398 
L 404.710604 128.610398 
L 404.710604 130.040342 
L 409.188389 130.040342 
L 409.188389 130.977266 
L 413.666174 130.977266 
L 413.666174 131.405266 
L 422.621745 131.317073 
L 422.621745 130.714185 
L 427.09953 130.714185 
L 427.09953 129.606839 
L 431.577315 129.606839 
L 431.577315 128.013832 
L 436.055101 128.013832 
L 436.055101 125.962211 
L 440.532886 125.962211 
L 440.532886 123.486804 
L 445.010671 123.486804 
L 445.010671 120.629638 
L 449.488456 120.629638 
L 449.488456 117.439218 
L 453.966242 117.439218 
L 453.966242 113.969709 
L 458.444027 113.969709 
L 458.444027 110.280013 
L 462.921812 110.280013 
L 462.921812 106.432769 
L 467.399597 106.432769 
L 467.399597 102.493293 
L 471.877383 102.493293 
L 471.877383 98.528465 
L 476.355168 98.528465 
L 476.355168 94.605596 
L 480.832953 94.605596 
L 480.832953 90.791286 
L 485.310738 90.791286 
L 485.310738 87.150289 
L 489.788523 87.150289 
L 489.788523 83.74442 
L 494.266309 83.74442 
L 494.266309 80.6315 
L 498.744094 80.6315 
L 498.744094 77.864377 
L 503.221879 77.864377 
L 503.221879 75.490028 
L 507.699664 75.490028 
L 507.699664 73.548764 
L 512.17745 73.548764 
L 512.17745 72.07354 
L 516.655235 72.07354 
L 516.655235 71.089403 
L 521.13302 71.089403 
L 521.13302 70.61306 
L 530.088591 70.652597 
L 530.088591 71.207344 
L 534.566376 71.207344 
L 534.566376 72.267882 
L 539.044161 72.267882 
L 539.044161 73.816207 
L 543.521946 73.816207 
L 543.521946 75.826033 
L 547.999732 75.826033 
L 547.999732 78.263238 
L 552.477517 78.263238 
L 552.477517 81.086447 
L 556.955302 81.086447 
L 556.955302 84.247729 
L 561.433087 84.247729 
L 561.433087 87.693415 
L 565.910872 87.693415 
L 565.910872 91.365008 
L 570.388658 91.365008 
L 570.388658 95.200175 
L 574.866443 95.200175 
L 574.866443 99.133806 
L 579.344228 99.133806 
L 579.344228 103.099119 
L 583.822013 103.099119 
L 583.822013 107.028795 
L 588.299799 107.028795 
L 588.299799 110.85612 
L 592.777584 110.85612 
L 592.777584 114.516117 
L 597.255369 114.516117 
L 597.255369 117.946651 
L 601.733154 117.946651 
L 601.733154 121.08948 
L 606.21094 121.08948 
L 606.21094 123.891249 
L 610.688725 123.891249 
L 610.688725 126.304392 
L 615.16651 126.304392 
L 615.16651 128.287941 
L 619.644295 128.287941 
L 619.644295 129.808221 
L 624.122081 129.808221 
L 624.122081 130.839423 
L 628.599866 130.839423 
L 628.599866 131.364039 
L 637.555436 131.373163 
L 637.555436 130.86664 
L 642.033221 130.86664 
L 642.033221 129.85307 
L 646.511007 129.85307 
L 646.511007 128.34966 
L 650.988792 128.34966 
L 650.988792 126.381933 
L 655.466577 126.381933 
L 655.466577 123.983295 
L 659.944362 123.983295 
L 659.944362 121.194469 
L 664.422148 121.194469 
L 664.422148 118.062801 
L 668.899933 118.062801 
L 668.899933 114.641456 
L 673.377718 114.641456 
L 673.377718 110.98852 
L 677.855503 110.98852 
L 677.855503 107.166008 
L 682.333289 107.166008 
L 682.333289 103.238815 
L 686.811074 103.238815 
L 686.811074 99.273614 
L 691.288859 99.273614 
L 691.288859 95.337722 
L 695.766644 95.337722 
L 695.766644 91.497958 
L 700.24443 91.497958 
L 700.24443 87.819511 
L 704.722215 87.819511 
L 704.722215 84.364831 
L 709.2 84.364831 
L 709.2 84.364831 
" style="fill:none;stroke:#ff0000;stroke-linecap:square;stroke-width:1.5;"/>
   </g>
   <g id="line2d_15">
    <path clip-path="url(#p022b277cb1)" d="M 42.01 40.133333 
L 42.01 161.866667 
L 46.487785 161.866667 
L 46.487785 40.133333 
L 50.96557 40.133333 
L 50.96557 161.866667 
L 55.443356 161.866667 
L 55.443356 40.133333 
L 64.398926 40.133333 
L 64.398926 161.866667 
L 68.876711 161.866667 
L 68.876711 40.133333 
L 77.832282 40.133333 
L 77.832282 161.866667 
L 82.310067 161.866667 
L 82.310067 40.133333 
L 95.743423 40.133333 
L 95.743423 161.866667 
L 100.221208 161.866667 
L 100.221208 40.133333 
L 113.654564 40.133333 
L 113.654564 161.866667 
L 118.132349 161.866667 
L 118.132349 40.133333 
L 127.087919 40.133333 
L 127.087919 161.866667 
L 131.565705 161.866667 
L 131.565705 40.133333 
L 136.04349 40.133333 
L 136.04349 161.866667 
L 140.521275 161.866667 
L 140.521275 40.133333 
L 144.99906 40.133333 
L 144.99906 161.866667 
L 149.476846 161.866667 
L 149.476846 40.133333 
L 153.954631 40.133333 
L 153.954631 161.866667 
L 158.432416 161.866667 
L 158.432416 40.133333 
L 162.910201 40.133333 
L 162.910201 161.866667 
L 171.865772 161.866667 
L 171.865772 40.133333 
L 176.343557 40.133333 
L 176.343557 161.866667 
L 189.776913 161.866667 
L 189.776913 40.133333 
L 194.254698 40.133333 
L 194.254698 161.866667 
L 207.688054 161.866667 
L 207.688054 40.133333 
L 212.165839 40.133333 
L 212.165839 161.866667 
L 221.121409 161.866667 
L 221.121409 40.133333 
L 225.599195 40.133333 
L 225.599195 161.866667 
L 234.554765 161.866667 
L 234.554765 40.133333 
L 239.03255 40.133333 
L 239.03255 161.866667 
L 243.510336 161.866667 
L 243.510336 40.133333 
L 247.988121 40.133333 
L 247.988121 161.866667 
L 256.943691 161.866667 
L 256.943691 40.133333 
L 265.899262 40.133333 
L 265.899262 161.866667 
L 270.377047 161.866667 
L 270.377047 40.133333 
L 279.332617 40.133333 
L 279.332617 161.866667 
L 283.810403 161.866667 
L 283.810403 40.133333 
L 292.765973 40.133333 
L 292.765973 161.866667 
L 297.243758 161.866667 
L 297.243758 40.133333 
L 310.677114 40.133333 
L 310.677114 161.866667 
L 315.154899 161.866667 
L 315.154899 40.133333 
L 328.588255 40.133333 
L 328.588255 161.866667 
L 333.06604 161.866667 
L 333.06604 40.133333 
L 342.021611 40.133333 
L 342.021611 161.866667 
L 346.499396 161.866667 
L 346.499396 40.133333 
L 350.977181 40.133333 
L 350.977181 161.866667 
L 355.454966 161.866667 
L 355.454966 40.133333 
L 359.932752 40.133333 
L 359.932752 161.866667 
L 364.410537 161.866667 
L 364.410537 40.133333 
L 368.888322 40.133333 
L 368.888322 161.866667 
L 373.366107 161.866667 
L 373.366107 40.133333 
L 377.843893 40.133333 
L 377.843893 161.866667 
L 386.799463 161.866667 
L 386.799463 40.133333 
L 391.277248 40.133333 
L 391.277248 161.866667 
L 404.710604 161.866667 
L 404.710604 40.133333 
L 409.188389 40.133333 
L 409.188389 161.866667 
L 422.621745 161.866667 
L 422.621745 40.133333 
L 427.09953 40.133333 
L 427.09953 161.866667 
L 436.055101 161.866667 
L 436.055101 40.133333 
L 440.532886 40.133333 
L 440.532886 161.866667 
L 449.488456 161.866667 
L 449.488456 40.133333 
L 453.966242 40.133333 
L 453.966242 161.866667 
L 458.444027 161.866667 
L 458.444027 40.133333 
L 462.921812 40.133333 
L 462.921812 161.866667 
L 471.877383 161.866667 
L 471.877383 40.133333 
L 480.832953 40.133333 
L 480.832953 161.866667 
L 485.310738 161.866667 
L 485.310738 40.133333 
L 489.788523 40.133333 
L 489.788523 161.866667 
L 494.266309 161.866667 
L 494.266309 40.133333 
L 507.699664 40.133333 
L 507.699664 161.866667 
L 512.17745 161.866667 
L 512.17745 40.133333 
L 525.610805 40.133333 
L 525.610805 161.866667 
L 530.088591 161.866667 
L 530.088591 40.133333 
L 539.044161 40.133333 
L 539.044161 161.866667 
L 543.521946 161.866667 
L 543.521946 40.133333 
L 556.955302 40.133333 
L 556.955302 161.866667 
L 561.433087 161.866667 
L 561.433087 40.133333 
L 565.910872 40.133333 
L 565.910872 161.866667 
L 570.388658 161.866667 
L 570.388658 40.133333 
L 574.866443 40.133333 
L 574.866443 161.866667 
L 579.344228 161.866667 
L 579.344228 40.133333 
L 583.822013 40.133333 
L 583.822013 161.866667 
L 588.299799 161.866667 
L 588.299799 40.133333 
L 592.777584 40.133333 
L 592.777584 161.866667 
L 601.733154 161.866667 
L 601.733154 40.133333 
L 606.21094 40.133333 
L 606.21094 161.866667 
L 615.16651 161.866667 
L 615.16651 40.133333 
L 619.644295 40.133333 
L 619.644295 161.866667 
L 633.077651 161.866667 
L 633.077651 40.133333 
L 637.555436 40.133333 
L 637.555436 161.866667 
L 650.988792 161.866667 
L 650.988792 40.133333 
L 655.466577 40.133333 
L 655.466577 161.866667 
L 664.422148 161.866667 
L 664.422148 40.133333 
L 668.899933 40.133333 
L 668.899933 161.866667 
L 673.377718 161.866667 
L 673.377718 40.133333 
L 677.855503 40.133333 
L 677.855503 161.866667 
L 686.811074 161.866667 
L 686.811074 40.133333 
L 695.766644 40.133333 
L 695.766644 161.866667 
L 700.24443 161.866667 
L 700.24443 40.133333 
L 704.722215 40.133333 
L 704.722215 161.866667 
L 709.2 161.866667 
L 709.2 161.866667 
" style="fill:none;stroke:#0000ff;stroke-linecap:square;stroke-width:1.5;"/>
   </g>
   <g id="patch_3">
    <path d="M 42.01 174.04 
L 42.01 27.96 
" style="fill:none;stroke:#000000;stroke-linecap:square;stroke-linejoin:miter;stroke-width:0.8;"/>
   </g>
   <g id="patch_4">
    <path d="M 709.2 174.04 
L 709.2 27.96 
" style="fill:none;stroke:#000000;stroke-linecap:square;stroke-linejoin:miter;stroke-width:0.8;"/>
   </g>
   <g id="patch_5">
    <path d="M 42.01 174.04 
L 709.2 174.04 
" style="fill:none;stroke:#000000;stroke-linecap:square;stroke-linejoin:miter;stroke-width:0.8;"/>
   </g>
   <g id="patch_6">
    <path d="M 42.01 27.96 
L 709.2 27.96 
" style="fill:none;stroke:#000000;stroke-linecap:square;stroke-linejoin:miter;stroke-width:0.8;"/>
   </g>
   <g id="text_15">
    <!-- Điều chế Sigma-Delta bậc nhất - Tốc độ Oversampling 16x -->
    <g transform="translate(199.14125 21.96)scale(0.12 -0.12)">
     <defs>
      <path d="M 659 4666 
L 1959 4666 
Q 3313 4666 3947 4102 
Q 4581 3538 4581 2338 
Q 4581 1131 3945 565 
Q 3309 0 1959 0 
L 659 0 
L 659 2188 
L 31 2188 
L 31 2638 
L 659 2638 
L 659 4666 
z
M 1294 4147 
L 1294 2638 
L 2344 2638 
L 2344 2188 
L 1294 2188 
L 1294 519 
L 2053 519 
Q 3019 519 3467 956 
Q 3916 1394 3916 2338 
Q 3916 3275 3467 3711 
Q 3019 4147 2053 4147 
L 1294 4147 
z
" id="DejaVuSans-110" transform="scale(0.015625)"/>
      <path d="M 603 3500 
L 1178 3500 
L 1178 0 
L 603 0 
L 603 3500 
z
M 603 4863 
L 1178 4863 
L 1178 4134 
L 603 4134 
L 603 4863 
z
" id="DejaVuSans-69" transform="scale(0.015625)"/>
      <path d="M 2774 5409 
L 3386 4584 
L 2908 4584 
L 2190 5409 
L 2774 5409 
z
M 1738 4775 
L 2326 4775 
L 2985 3944 
L 2551 3944 
L 2032 4500 
L 1513 3944 
L 1079 3944 
L 1738 4775 
z
M 3597 1894 
L 3597 1613 
L 953 1613 
Q 991 1019 1311 708 
Q 1631 397 2203 397 
Q 2534 397 2845 478 
Q 3156 559 3463 722 
L 3463 178 
Q 3153 47 2828 -22 
Q 2503 -91 2169 -91 
Q 1331 -91 842 396 
Q 353 884 353 1716 
Q 353 2575 817 3079 
Q 1281 3584 2069 3584 
Q 2775 3584 3186 3129 
Q 3597 2675 3597 1894 
z
M 3022 2063 
Q 3016 2534 2758 2815 
Q 2500 3097 2075 3097 
Q 1594 3097 1305 2825 
Q 1016 2553 972 2059 
L 3022 2063 
z
" id="DejaVuSans-1ec1" transform="scale(0.015625)"/>
      <path d="M 3122 3366 
L 3122 2828 
Q 2878 2963 2633 3030 
Q 2388 3097 2138 3097 
Q 1578 3097 1268 2742 
Q 959 2388 959 1747 
Q 959 1106 1268 751 
Q 1578 397 2138 397 
Q 2388 397 2633 464 
Q 2878 531 3122 666 
L 3122 134 
Q 2881 22 2623 -34 
Q 2366 -91 2075 -91 
Q 1284 -91 818 406 
Q 353 903 353 1747 
Q 353 2603 823 3093 
Q 1294 3584 2113 3584 
Q 2378 3584 2631 3529 
Q 2884 3475 3122 3366 
z
" id="DejaVuSans-63" transform="scale(0.015625)"/>
      <path d="M 3513 2113 
L 3513 0 
L 2938 0 
L 2938 2094 
Q 2938 2591 2744 2837 
Q 2550 3084 2163 3084 
Q 1697 3084 1428 2787 
Q 1159 2491 1159 1978 
L 1159 0 
L 581 0 
L 581 4863 
L 1159 4863 
L 1159 2956 
Q 1366 3272 1645 3428 
Q 1925 3584 2291 3584 
Q 2894 3584 3203 3211 
Q 3513 2838 3513 2113 
z
" id="DejaVuSans-68" transform="scale(0.015625)"/>
      <path d="M 1738 4775 
L 2326 4775 
L 2985 3944 
L 2551 3944 
L 2032 4500 
L 1513 3944 
L 1079 3944 
L 1738 4775 
z
M 3348 5409 
L 3926 5409 
L 3214 4584 
L 2735 4584 
L 3348 5409 
z
M 3597 1894 
L 3597 1613 
L 953 1613 
Q 991 1019 1311 708 
Q 1631 397 2203 397 
Q 2534 397 2845 478 
Q 3156 559 3463 722 
L 3463 178 
Q 3153 47 2828 -22 
Q 2503 -91 2169 -91 
Q 1331 -91 842 396 
Q 353 884 353 1716 
Q 353 2575 817 3079 
Q 1281 3584 2069 3584 
Q 2775 3584 3186 3129 
Q 3597 2675 3597 1894 
z
M 3022 2063 
Q 3016 2534 2758 2815 
Q 2500 3097 2075 3097 
Q 1594 3097 1305 2825 
Q 1016 2553 972 2059 
L 3022 2063 
z
" id="DejaVuSans-1ebf" transform="scale(0.015625)"/>
      <path d="M 2906 1791 
Q 2906 2416 2648 2759 
Q 2391 3103 1925 3103 
Q 1463 3103 1205 2759 
Q 947 2416 947 1791 
Q 947 1169 1205 825 
Q 1463 481 1925 481 
Q 2391 481 2648 825 
Q 2906 1169 2906 1791 
z
M 3481 434 
Q 3481 -459 3084 -895 
Q 2688 -1331 1869 -1331 
Q 1566 -1331 1297 -1286 
Q 1028 -1241 775 -1147 
L 775 -588 
Q 1028 -725 1275 -790 
Q 1522 -856 1778 -856 
Q 2344 -856 2625 -561 
Q 2906 -266 2906 331 
L 2906 616 
Q 2728 306 2450 153 
Q 2172 0 1784 0 
Q 1141 0 747 490 
Q 353 981 353 1791 
Q 353 2603 747 3093 
Q 1141 3584 1784 3584 
Q 2172 3584 2450 3431 
Q 2728 3278 2906 2969 
L 2906 3500 
L 3481 3500 
L 3481 434 
z
" id="DejaVuSans-67" transform="scale(0.015625)"/>
      <path d="M 2194 1759 
Q 1497 1759 1228 1600 
Q 959 1441 959 1056 
Q 959 750 1161 570 
Q 1363 391 1709 391 
Q 2188 391 2477 730 
Q 2766 1069 2766 1631 
L 2766 1759 
L 2194 1759 
z
M 3341 1997 
L 3341 0 
L 2766 0 
L 2766 531 
Q 2569 213 2275 61 
Q 1981 -91 1556 -91 
Q 1019 -91 701 211 
Q 384 513 384 1019 
Q 384 1609 779 1909 
Q 1175 2209 1959 2209 
L 2766 2209 
L 2766 2266 
Q 2766 2663 2505 2880 
Q 2244 3097 1772 3097 
Q 1472 3097 1187 3025 
Q 903 2953 641 2809 
L 641 3341 
Q 956 3463 1253 3523 
Q 1550 3584 1831 3584 
Q 2591 3584 2966 3190 
Q 3341 2797 3341 1997 
z
" id="DejaVuSans-61" transform="scale(0.015625)"/>
      <path d="M 313 2009 
L 1997 2009 
L 1997 1497 
L 313 1497 
L 313 2009 
z
" id="DejaVuSans-2d" transform="scale(0.015625)"/>
      <path d="M 1259 4147 
L 1259 519 
L 2022 519 
Q 2988 519 3436 956 
Q 3884 1394 3884 2338 
Q 3884 3275 3436 3711 
Q 2988 4147 2022 4147 
L 1259 4147 
z
M 628 4666 
L 1925 4666 
Q 3281 4666 3915 4102 
Q 4550 3538 4550 2338 
Q 4550 1131 3912 565 
Q 3275 0 1925 0 
L 628 0 
L 628 4666 
z
" id="DejaVuSans-44" transform="scale(0.015625)"/>
      <path d="M 3597 1894 
L 3597 1613 
L 953 1613 
Q 991 1019 1311 708 
Q 1631 397 2203 397 
Q 2534 397 2845 478 
Q 3156 559 3463 722 
L 3463 178 
Q 3153 47 2828 -22 
Q 2503 -91 2169 -91 
Q 1331 -91 842 396 
Q 353 884 353 1716 
Q 353 2575 817 3079 
Q 1281 3584 2069 3584 
Q 2775 3584 3186 3129 
Q 3597 2675 3597 1894 
z
M 3022 2063 
Q 3016 2534 2758 2815 
Q 2500 3097 2075 3097 
Q 1594 3097 1305 2825 
Q 1016 2553 972 2059 
L 3022 2063 
z
" id="DejaVuSans-65" transform="scale(0.015625)"/>
      <path d="M 603 4863 
L 1178 4863 
L 1178 0 
L 603 0 
L 603 4863 
z
" id="DejaVuSans-6c" transform="scale(0.015625)"/>
      <path d="M 1172 4494 
L 1172 3500 
L 2356 3500 
L 2356 3053 
L 1172 3053 
L 1172 1153 
Q 1172 725 1289 603 
Q 1406 481 1766 481 
L 2356 481 
L 2356 0 
L 1766 0 
Q 1100 0 847 248 
Q 594 497 594 1153 
L 594 3053 
L 172 3053 
L 172 3500 
L 594 3500 
L 594 4494 
L 1172 4494 
z
" id="DejaVuSans-74" transform="scale(0.015625)"/>
      <path d="M 3116 1747 
Q 3116 2381 2855 2742 
Q 2594 3103 2138 3103 
Q 1681 3103 1420 2742 
Q 1159 2381 1159 1747 
Q 1159 1113 1420 752 
Q 1681 391 2138 391 
Q 2594 391 2855 752 
Q 3116 1113 3116 1747 
z
M 1159 2969 
Q 1341 3281 1617 3432 
Q 1894 3584 2278 3584 
Q 2916 3584 3314 3078 
Q 3713 2572 3713 1747 
Q 3713 922 3314 415 
Q 2916 -91 2278 -91 
Q 1894 -91 1617 61 
Q 1341 213 1159 525 
L 1159 0 
L 581 0 
L 581 4863 
L 1159 4863 
L 1159 2969 
z
" id="DejaVuSans-62" transform="scale(0.015625)"/>
      <path d="M 2194 1759 
Q 1497 1759 1228 1600 
Q 959 1441 959 1056 
Q 959 750 1161 570 
Q 1363 391 1709 391 
Q 2188 391 2477 730 
Q 2766 1069 2766 1631 
L 2766 1759 
L 2194 1759 
z
M 3341 1997 
L 3341 0 
L 2766 0 
L 2766 531 
Q 2569 213 2275 61 
Q 1981 -91 1556 -91 
Q 1019 -91 701 211 
Q 384 513 384 1019 
Q 384 1609 779 1909 
Q 1175 2209 1959 2209 
L 2766 2209 
L 2766 2266 
Q 2766 2663 2505 2880 
Q 2244 3097 1772 3097 
Q 1472 3097 1187 3025 
Q 903 2953 641 2809 
L 641 3341 
Q 956 3463 1253 3523 
Q 1550 3584 1831 3584 
Q 2591 3584 2966 3190 
Q 3341 2797 3341 1997 
z
M 1625 5119 
L 2087 5119 
L 2853 3944 
L 2419 3944 
L 1856 4709 
L 1294 3944 
L 859 3944 
L 1625 5119 
z
M 1410 -441 
L 1985 -441 
L 1985 -1172 
L 1410 -1172 
L 1410 -441 
z
" id="DejaVuSans-1ead" transform="scale(0.015625)"/>
      <path d="M 3513 2113 
L 3513 0 
L 2938 0 
L 2938 2094 
Q 2938 2591 2744 2837 
Q 2550 3084 2163 3084 
Q 1697 3084 1428 2787 
Q 1159 2491 1159 1978 
L 1159 0 
L 581 0 
L 581 3500 
L 1159 3500 
L 1159 2956 
Q 1366 3272 1645 3428 
Q 1925 3584 2291 3584 
Q 2894 3584 3203 3211 
Q 3513 2838 3513 2113 
z
" id="DejaVuSans-6e" transform="scale(0.015625)"/>
      <path d="M 1562 4775 
L 2150 4775 
L 2809 3944 
L 2375 3944 
L 1856 4500 
L 1337 3944 
L 903 3944 
L 1562 4775 
z
M 3172 5409 
L 3750 5409 
L 3038 4584 
L 2559 4584 
L 3172 5409 
z
M 2194 1759 
Q 1497 1759 1228 1600 
Q 959 1441 959 1056 
Q 959 750 1161 570 
Q 1363 391 1709 391 
Q 2188 391 2477 730 
Q 2766 1069 2766 1631 
L 2766 1759 
L 2194 1759 
z
M 3341 1997 
L 3341 0 
L 2766 0 
L 2766 531 
Q 2569 213 2275 61 
Q 1981 -91 1556 -91 
Q 1019 -91 701 211 
Q 384 513 384 1019 
Q 384 1609 779 1909 
Q 1175 2209 1959 2209 
L 2766 2209 
L 2766 2266 
Q 2766 2663 2505 2880 
Q 2244 3097 1772 3097 
Q 1472 3097 1187 3025 
Q 903 2953 641 2809 
L 641 3341 
Q 956 3463 1253 3523 
Q 1550 3584 1831 3584 
Q 2591 3584 2966 3190 
Q 3341 2797 3341 1997 
z
" id="DejaVuSans-1ea5" transform="scale(0.015625)"/>
      <path d="M -19 4666 
L 3928 4666 
L 3928 4134 
L 2272 4134 
L 2272 0 
L 1638 0 
L 1638 4134 
L -19 4134 
L -19 4666 
z
" id="DejaVuSans-54" transform="scale(0.015625)"/>
      <path d="M 2906 2969 
L 2906 4013 
L 1888 4013 
L 1888 4403 
L 2906 4403 
L 2906 4863 
L 3481 4863 
L 3481 4403 
L 3963 4403 
L 3963 4013 
L 3481 4013 
L 3481 0 
L 2906 0 
L 2906 525 
Q 2725 213 2448 61 
Q 2172 -91 1784 -91 
Q 1150 -91 751 415 
Q 353 922 353 1747 
Q 353 2572 751 3078 
Q 1150 3584 1784 3584 
Q 2172 3584 2448 3432 
Q 2725 3281 2906 2969 
z
M 947 1747 
Q 947 1113 1208 752 
Q 1469 391 1925 391 
Q 2381 391 2643 752 
Q 2906 1113 2906 1747 
Q 2906 2381 2643 2742 
Q 2381 3103 1925 3103 
Q 1469 3103 1208 2742 
Q 947 2381 947 1747 
z
" id="DejaVuSans-111" transform="scale(0.015625)"/>
      <path d="M 1666 -441 
L 2241 -441 
L 2241 -1172 
L 1666 -1172 
L 1666 -441 
z
M 1959 3097 
Q 1497 3097 1228 2736 
Q 959 2375 959 1747 
Q 959 1119 1226 758 
Q 1494 397 1959 397 
Q 2419 397 2687 759 
Q 2956 1122 2956 1747 
Q 2956 2369 2687 2733 
Q 2419 3097 1959 3097 
z
M 1959 3584 
Q 2709 3584 3137 3096 
Q 3566 2609 3566 1747 
Q 3566 888 3137 398 
Q 2709 -91 1959 -91 
Q 1206 -91 779 398 
Q 353 888 353 1747 
Q 353 2609 779 3096 
Q 1206 3584 1959 3584 
z
M 1666 -441 
L 2241 -441 
L 2241 -1172 
L 1666 -1172 
L 1666 -441 
z
M 1729 5119 
L 2191 5119 
L 2957 3944 
L 2523 3944 
L 1960 4709 
L 1398 3944 
L 963 3944 
L 1729 5119 
z
" id="DejaVuSans-1ed9" transform="scale(0.015625)"/>
      <path d="M 2522 4238 
Q 1834 4238 1429 3725 
Q 1025 3213 1025 2328 
Q 1025 1447 1429 934 
Q 1834 422 2522 422 
Q 3209 422 3611 934 
Q 4013 1447 4013 2328 
Q 4013 3213 3611 3725 
Q 3209 4238 2522 4238 
z
M 2522 4750 
Q 3503 4750 4090 4092 
Q 4678 3434 4678 2328 
Q 4678 1225 4090 567 
Q 3503 -91 2522 -91 
Q 1538 -91 948 565 
Q 359 1222 359 2328 
Q 359 3434 948 4092 
Q 1538 4750 2522 4750 
z
" id="DejaVuSans-4f" transform="scale(0.015625)"/>
      <path d="M 191 3500 
L 800 3500 
L 1894 563 
L 2988 3500 
L 3597 3500 
L 2284 0 
L 1503 0 
L 191 3500 
z
" id="DejaVuSans-76" transform="scale(0.015625)"/>
      <path d="M 2631 2963 
Q 2534 3019 2420 3045 
Q 2306 3072 2169 3072 
Q 1681 3072 1420 2755 
Q 1159 2438 1159 1844 
L 1159 0 
L 581 0 
L 581 3500 
L 1159 3500 
L 1159 2956 
Q 1341 3275 1631 3429 
Q 1922 3584 2338 3584 
Q 2397 3584 2469 3576 
Q 2541 3569 2628 3553 
L 2631 2963 
z
" id="DejaVuSans-72" transform="scale(0.015625)"/>
      <path d="M 2834 3397 
L 2834 2853 
Q 2591 2978 2328 3040 
Q 2066 3103 1784 3103 
Q 1356 3103 1142 2972 
Q 928 2841 928 2578 
Q 928 2378 1081 2264 
Q 1234 2150 1697 2047 
L 1894 2003 
Q 2506 1872 2764 1633 
Q 3022 1394 3022 966 
Q 3022 478 2636 193 
Q 2250 -91 1575 -91 
Q 1294 -91 989 -36 
Q 684 19 347 128 
L 347 722 
Q 666 556 975 473 
Q 1284 391 1588 391 
Q 1994 391 2212 530 
Q 2431 669 2431 922 
Q 2431 1156 2273 1281 
Q 2116 1406 1581 1522 
L 1381 1569 
Q 847 1681 609 1914 
Q 372 2147 372 2553 
Q 372 3047 722 3315 
Q 1072 3584 1716 3584 
Q 2034 3584 2315 3537 
Q 2597 3491 2834 3397 
z
" id="DejaVuSans-73" transform="scale(0.015625)"/>
      <path d="M 1159 525 
L 1159 -1331 
L 581 -1331 
L 581 3500 
L 1159 3500 
L 1159 2969 
Q 1341 3281 1617 3432 
Q 1894 3584 2278 3584 
Q 2916 3584 3314 3078 
Q 3713 2572 3713 1747 
Q 3713 922 3314 415 
Q 2916 -91 2278 -91 
Q 1894 -91 1617 61 
Q 1341 213 1159 525 
z
M 3116 1747 
Q 3116 2381 2855 2742 
Q 2594 3103 2138 3103 
Q 1681 3103 1420 2742 
Q 1159 2381 1159 1747 
Q 1159 1113 1420 752 
Q 1681 391 2138 391 
Q 2594 391 2855 752 
Q 3116 1113 3116 1747 
z
" id="DejaVuSans-70" transform="scale(0.015625)"/>
      <path d="M 3513 3500 
L 2247 1797 
L 3578 0 
L 2900 0 
L 1881 1375 
L 863 0 
L 184 0 
L 1544 1831 
L 300 3500 
L 978 3500 
L 1906 2253 
L 2834 3500 
L 3513 3500 
z
" id="DejaVuSans-78" transform="scale(0.015625)"/>
     </defs>
     <use xlink:href="#DejaVuSans-110"/>
     <use x="77.490234" xlink:href="#DejaVuSans-69"/>
     <use x="105.273438" xlink:href="#DejaVuSans-1ec1"/>
     <use x="166.796875" xlink:href="#DejaVuSans-75"/>
     <use x="230.175781" xlink:href="#DejaVuSans-20"/>
     <use x="261.962891" xlink:href="#DejaVuSans-63"/>
     <use x="316.943359" xlink:href="#DejaVuSans-68"/>
     <use x="380.322266" xlink:href="#DejaVuSans-1ebf"/>
     <use x="441.845703" xlink:href="#DejaVuSans-20"/>
     <use x="473.632812" xlink:href="#DejaVuSans-53"/>
     <use x="537.109375" xlink:href="#DejaVuSans-69"/>
     <use x="564.892578" xlink:href="#DejaVuSans-67"/>
     <use x="628.369141" xlink:href="#DejaVuSans-6d"/>
     <use x="725.78125" xlink:href="#DejaVuSans-61"/>
     <use x="787.060547" xlink:href="#DejaVuSans-2d"/>
     <use x="823.144531" xlink:href="#DejaVuSans-44"/>
     <use x="900.146484" xlink:href="#DejaVuSans-65"/>
     <use x="961.669922" xlink:href="#DejaVuSans-6c"/>
     <use x="989.453125" xlink:href="#DejaVuSans-74"/>
     <use x="1028.662109" xlink:href="#DejaVuSans-61"/>
     <use x="1089.941406" xlink:href="#DejaVuSans-20"/>
     <use x="1121.728516" xlink:href="#DejaVuSans-62"/>
     <use x="1185.205078" xlink:href="#DejaVuSans-1ead"/>
     <use x="1246.484375" xlink:href="#DejaVuSans-63"/>
     <use x="1301.464844" xlink:href="#DejaVuSans-20"/>
     <use x="1333.251953" xlink:href="#DejaVuSans-6e"/>
     <use x="1396.630859" xlink:href="#DejaVuSans-68"/>
     <use x="1460.009766" xlink:href="#DejaVuSans-1ea5"/>
     <use x="1521.289062" xlink:href="#DejaVuSans-74"/>
     <use x="1560.498047" xlink:href="#DejaVuSans-20"/>
     <use x="1592.285156" xlink:href="#DejaVuSans-2d"/>
     <use x="1628.369141" xlink:href="#DejaVuSans-20"/>
     <use x="1660.15625" xlink:href="#DejaVuSans-54"/>
     <use x="1721.240234" xlink:href="#DejaVuSans-1ed1"/>
     <use x="1782.421875" xlink:href="#DejaVuSans-63"/>
     <use x="1837.402344" xlink:href="#DejaVuSans-20"/>
     <use x="1869.189453" xlink:href="#DejaVuSans-111"/>
     <use x="1932.666016" xlink:href="#DejaVuSans-1ed9"/>
     <use x="1993.847656" xlink:href="#DejaVuSans-20"/>
     <use x="2025.634766" xlink:href="#DejaVuSans-4f"/>
     <use x="2104.345703" xlink:href="#DejaVuSans-76"/>
     <use x="2163.525391" xlink:href="#DejaVuSans-65"/>
     <use x="2225.048828" xlink:href="#DejaVuSans-72"/>
     <use x="2266.162109" xlink:href="#DejaVuSans-73"/>
     <use x="2318.261719" xlink:href="#DejaVuSans-61"/>
     <use x="2379.541016" xlink:href="#DejaVuSans-6d"/>
     <use x="2476.953125" xlink:href="#DejaVuSans-70"/>
     <use x="2540.429688" xlink:href="#DejaVuSans-6c"/>
     <use x="2568.212891" xlink:href="#DejaVuSans-69"/>
     <use x="2595.996094" xlink:href="#DejaVuSans-6e"/>
     <use x="2659.375" xlink:href="#DejaVuSans-67"/>
     <use x="2722.851562" xlink:href="#DejaVuSans-20"/>
     <use x="2754.638672" xlink:href="#DejaVuSans-31"/>
     <use x="2818.261719" xlink:href="#DejaVuSans-36"/>
     <use x="2881.884766" xlink:href="#DejaVuSans-78"/>
    </g>
   </g>
  </g>
 </g>
 <defs>
  <clipPath id="p022b277cb1">
   <rect height="146.08" width="667.19" x="42.01" y="27.96"/>
  </clipPath>
 </defs>
</svg>
