<?xml version="1.0" encoding="utf-8" standalone="no"?>
<!DOCTYPE svg PUBLIC "-//W3C//DTD SVG 1.1//EN"
  "http://www.w3.org/Graphics/SVG/1.1/DTD/svg11.dtd">
<svg height="216pt" version="1.1" viewBox="0 0 720 216" width="720pt" xmlns="http://www.w3.org/2000/svg" xmlns:xlink="http://www.w3.org/1999/xlink">
 <metadata>
  <rdf:RDF xmlns:cc="http://creativecommons.org/ns#" xmlns:dc="http://purl.org/dc/elements/1.1/" xmlns:rdf="http://www.w3.org/1999/02/22-rdf-syntax-ns#">
   <cc:Work>
    <dc:type rdf:resource="http://purl.org/dc/dcmitype/StillImage"/>
    <dc:date>2023-02-24T17:34:21.892225</dc:date>
    <dc:format>image/svg+xml</dc:format>
    <dc:creator>
     <cc:Agent>
      <dc:title>Matplotlib v3.4.3, https://matplotlib.org/</dc:title>
     </cc:Agent>
    </dc:creator>
   </cc:Work>
  </rdf:RDF>
 </metadata>
 <defs>
  <style type="text/css">*{stroke-linecap:butt;stroke-linejoin:round;}</style>
 </defs>
 <g id="figure_1">
  <g id="patch_1">
   <path d="M 0 216 
L 720 216 
L 720 0 
L 0 0 
z
" style="fill:#ffffff;"/>
  </g>
  <g id="axes_1">
   <g id="patch_2">
    <path d="M 59.24 174.04 
L 364.25 174.04 
L 364.25 27.96 
L 59.24 27.96 
z
" style="fill:#ffffff;"/>
   </g>
   <g id="matplotlib.axis_1">
    <g id="xtick_1">
     <g id="line2d_1">
      <path clip-path="url(#pbe7eaee376)" d="M 59.24 174.04 
L 59.24 27.96 
" style="fill:none;stroke:#b0b0b0;stroke-linecap:square;stroke-width:0.8;"/>
     </g>
     <g id="line2d_2">
      <defs>
       <path d="M 0 0 
L 0 3.5 
" id="m54d5c93cde" style="stroke:#000000;stroke-width:0.8;"/>
      </defs>
      <g>
       <use style="stroke:#000000;stroke-width:0.8;" x="59.24" xlink:href="#m54d5c93cde" y="174.04"/>
      </g>
     </g>
     <g id="text_1">
      <!-- 0 Hz -->
      <g transform="translate(48.085313 188.638438)scale(0.1 -0.1)">
       <defs>
        <path d="M 2034 4250 
Q 1547 4250 1301 3770 
Q 1056 3291 1056 2328 
Q 1056 1369 1301 889 
Q 1547 409 2034 409 
Q 2525 409 2770 889 
Q 3016 1369 3016 2328 
Q 3016 3291 2770 3770 
Q 2525 4250 2034 4250 
z
M 2034 4750 
Q 2819 4750 3233 4129 
Q 3647 3509 3647 2328 
Q 3647 1150 3233 529 
Q 2819 -91 2034 -91 
Q 1250 -91 836 529 
Q 422 1150 422 2328 
Q 422 3509 836 4129 
Q 1250 4750 2034 4750 
z
" id="DejaVuSans-30" transform="scale(0.015625)"/>
        <path id="DejaVuSans-20" transform="scale(0.015625)"/>
        <path d="M 628 4666 
L 1259 4666 
L 1259 2753 
L 3553 2753 
L 3553 4666 
L 4184 4666 
L 4184 0 
L 3553 0 
L 3553 2222 
L 1259 2222 
L 1259 0 
L 628 0 
L 628 4666 
z
" id="DejaVuSans-48" transform="scale(0.015625)"/>
        <path d="M 353 3500 
L 3084 3500 
L 3084 2975 
L 922 459 
L 3084 459 
L 3084 0 
L 275 0 
L 275 525 
L 2438 3041 
L 353 3041 
L 353 3500 
z
" id="DejaVuSans-7a" transform="scale(0.015625)"/>
       </defs>
       <use xlink:href="#DejaVuSans-30"/>
       <use x="63.623047" xlink:href="#DejaVuSans-20"/>
       <use x="95.410156" xlink:href="#DejaVuSans-48"/>
       <use x="170.605469" xlink:href="#DejaVuSans-7a"/>
      </g>
     </g>
    </g>
    <g id="xtick_2">
     <g id="line2d_3">
      <path clip-path="url(#pbe7eaee376)" d="M 112.193125 174.04 
L 112.193125 27.96 
" style="fill:none;stroke:#b0b0b0;stroke-linecap:square;stroke-width:0.8;"/>
     </g>
     <g id="line2d_4">
      <g>
       <use style="stroke:#000000;stroke-width:0.8;" x="112.193125" xlink:href="#m54d5c93cde" y="174.04"/>
      </g>
     </g>
     <g id="text_2">
      <!-- 200 kHz -->
      <g transform="translate(91.780625 188.638438)scale(0.1 -0.1)">
       <defs>
        <path d="M 1228 531 
L 3431 531 
L 3431 0 
L 469 0 
L 469 531 
Q 828 903 1448 1529 
Q 2069 2156 2228 2338 
Q 2531 2678 2651 2914 
Q 2772 3150 2772 3378 
Q 2772 3750 2511 3984 
Q 2250 4219 1831 4219 
Q 1534 4219 1204 4116 
Q 875 4013 500 3803 
L 500 4441 
Q 881 4594 1212 4672 
Q 1544 4750 1819 4750 
Q 2544 4750 2975 4387 
Q 3406 4025 3406 3419 
Q 3406 3131 3298 2873 
Q 3191 2616 2906 2266 
Q 2828 2175 2409 1742 
Q 1991 1309 1228 531 
z
" id="DejaVuSans-32" transform="scale(0.015625)"/>
        <path d="M 581 4863 
L 1159 4863 
L 1159 1991 
L 2875 3500 
L 3609 3500 
L 1753 1863 
L 3688 0 
L 2938 0 
L 1159 1709 
L 1159 0 
L 581 0 
L 581 4863 
z
" id="DejaVuSans-6b" transform="scale(0.015625)"/>
       </defs>
       <use xlink:href="#DejaVuSans-32"/>
       <use x="63.623047" xlink:href="#DejaVuSans-30"/>
       <use x="127.246094" xlink:href="#DejaVuSans-30"/>
       <use x="190.869141" xlink:href="#DejaVuSans-20"/>
       <use x="222.65625" xlink:href="#DejaVuSans-6b"/>
       <use x="280.566406" xlink:href="#DejaVuSans-48"/>
       <use x="355.761719" xlink:href="#DejaVuSans-7a"/>
      </g>
     </g>
    </g>
    <g id="xtick_3">
     <g id="line2d_5">
      <path clip-path="url(#pbe7eaee376)" d="M 165.14625 174.04 
L 165.14625 27.96 
" style="fill:none;stroke:#b0b0b0;stroke-linecap:square;stroke-width:0.8;"/>
     </g>
     <g id="line2d_6">
      <g>
       <use style="stroke:#000000;stroke-width:0.8;" x="165.14625" xlink:href="#m54d5c93cde" y="174.04"/>
      </g>
     </g>
     <g id="text_3">
      <!-- 400 kHz -->
      <g transform="translate(144.73375 188.638438)scale(0.1 -0.1)">
       <defs>
        <path d="M 2419 4116 
L 825 1625 
L 2419 1625 
L 2419 4116 
z
M 2253 4666 
L 3047 4666 
L 3047 1625 
L 3713 1625 
L 3713 1100 
L 3047 1100 
L 3047 0 
L 2419 0 
L 2419 1100 
L 313 1100 
L 313 1709 
L 2253 4666 
z
" id="DejaVuSans-34" transform="scale(0.015625)"/>
       </defs>
       <use xlink:href="#DejaVuSans-34"/>
       <use x="63.623047" xlink:href="#DejaVuSans-30"/>
       <use x="127.246094" xlink:href="#DejaVuSans-30"/>
       <use x="190.869141" xlink:href="#DejaVuSans-20"/>
       <use x="222.65625" xlink:href="#DejaVuSans-6b"/>
       <use x="280.566406" xlink:href="#DejaVuSans-48"/>
       <use x="355.761719" xlink:href="#DejaVuSans-7a"/>
      </g>
     </g>
    </g>
    <g id="xtick_4">
     <g id="line2d_7">
      <path clip-path="url(#pbe7eaee376)" d="M 218.099375 174.04 
L 218.099375 27.96 
" style="fill:none;stroke:#b0b0b0;stroke-linecap:square;stroke-width:0.8;"/>
     </g>
     <g id="line2d_8">
      <g>
       <use style="stroke:#000000;stroke-width:0.8;" x="218.099375" xlink:href="#m54d5c93cde" y="174.04"/>
      </g>
     </g>
     <g id="text_4">
      <!-- 600 kHz -->
      <g transform="translate(197.686875 188.638438)scale(0.1 -0.1)">
       <defs>
        <path d="M 2113 2584 
Q 1688 2584 1439 2293 
Q 1191 2003 1191 1497 
Q 1191 994 1439 701 
Q 1688 409 2113 409 
Q 2538 409 2786 701 
Q 3034 994 3034 1497 
Q 3034 2003 2786 2293 
Q 2538 2584 2113 2584 
z
M 3366 4563 
L 3366 3988 
Q 3128 4100 2886 4159 
Q 2644 4219 2406 4219 
Q 1781 4219 1451 3797 
Q 1122 3375 1075 2522 
Q 1259 2794 1537 2939 
Q 1816 3084 2150 3084 
Q 2853 3084 3261 2657 
Q 3669 2231 3669 1497 
Q 3669 778 3244 343 
Q 2819 -91 2113 -91 
Q 1303 -91 875 529 
Q 447 1150 447 2328 
Q 447 3434 972 4092 
Q 1497 4750 2381 4750 
Q 2619 4750 2861 4703 
Q 3103 4656 3366 4563 
z
" id="DejaVuSans-36" transform="scale(0.015625)"/>
       </defs>
       <use xlink:href="#DejaVuSans-36"/>
       <use x="63.623047" xlink:href="#DejaVuSans-30"/>
       <use x="127.246094" xlink:href="#DejaVuSans-30"/>
       <use x="190.869141" xlink:href="#DejaVuSans-20"/>
       <use x="222.65625" xlink:href="#DejaVuSans-6b"/>
       <use x="280.566406" xlink:href="#DejaVuSans-48"/>
       <use x="355.761719" xlink:href="#DejaVuSans-7a"/>
      </g>
     </g>
    </g>
    <g id="xtick_5">
     <g id="line2d_9">
      <path clip-path="url(#pbe7eaee376)" d="M 271.0525 174.04 
L 271.0525 27.96 
" style="fill:none;stroke:#b0b0b0;stroke-linecap:square;stroke-width:0.8;"/>
     </g>
     <g id="line2d_10">
      <g>
       <use style="stroke:#000000;stroke-width:0.8;" x="271.0525" xlink:href="#m54d5c93cde" y="174.04"/>
      </g>
     </g>
     <g id="text_5">
      <!-- 800 kHz -->
      <g transform="translate(250.64 188.638438)scale(0.1 -0.1)">
       <defs>
        <path d="M 2034 2216 
Q 1584 2216 1326 1975 
Q 1069 1734 1069 1313 
Q 1069 891 1326 650 
Q 1584 409 2034 409 
Q 2484 409 2743 651 
Q 3003 894 3003 1313 
Q 3003 1734 2745 1975 
Q 2488 2216 2034 2216 
z
M 1403 2484 
Q 997 2584 770 2862 
Q 544 3141 544 3541 
Q 544 4100 942 4425 
Q 1341 4750 2034 4750 
Q 2731 4750 3128 4425 
Q 3525 4100 3525 3541 
Q 3525 3141 3298 2862 
Q 3072 2584 2669 2484 
Q 3125 2378 3379 2068 
Q 3634 1759 3634 1313 
Q 3634 634 3220 271 
Q 2806 -91 2034 -91 
Q 1263 -91 848 271 
Q 434 634 434 1313 
Q 434 1759 690 2068 
Q 947 2378 1403 2484 
z
M 1172 3481 
Q 1172 3119 1398 2916 
Q 1625 2713 2034 2713 
Q 2441 2713 2670 2916 
Q 2900 3119 2900 3481 
Q 2900 3844 2670 4047 
Q 2441 4250 2034 4250 
Q 1625 4250 1398 4047 
Q 1172 3844 1172 3481 
z
" id="DejaVuSans-38" transform="scale(0.015625)"/>
       </defs>
       <use xlink:href="#DejaVuSans-38"/>
       <use x="63.623047" xlink:href="#DejaVuSans-30"/>
       <use x="127.246094" xlink:href="#DejaVuSans-30"/>
       <use x="190.869141" xlink:href="#DejaVuSans-20"/>
       <use x="222.65625" xlink:href="#DejaVuSans-6b"/>
       <use x="280.566406" xlink:href="#DejaVuSans-48"/>
       <use x="355.761719" xlink:href="#DejaVuSans-7a"/>
      </g>
     </g>
    </g>
    <g id="xtick_6">
     <g id="line2d_11">
      <path clip-path="url(#pbe7eaee376)" d="M 324.005625 174.04 
L 324.005625 27.96 
" style="fill:none;stroke:#b0b0b0;stroke-linecap:square;stroke-width:0.8;"/>
     </g>
     <g id="line2d_12">
      <g>
       <use style="stroke:#000000;stroke-width:0.8;" x="324.005625" xlink:href="#m54d5c93cde" y="174.04"/>
      </g>
     </g>
     <g id="text_6">
      <!-- 1 MHz -->
      <g transform="translate(308.536875 188.638438)scale(0.1 -0.1)">
       <defs>
        <path d="M 794 531 
L 1825 531 
L 1825 4091 
L 703 3866 
L 703 4441 
L 1819 4666 
L 2450 4666 
L 2450 531 
L 3481 531 
L 3481 0 
L 794 0 
L 794 531 
z
" id="DejaVuSans-31" transform="scale(0.015625)"/>
        <path d="M 628 4666 
L 1569 4666 
L 2759 1491 
L 3956 4666 
L 4897 4666 
L 4897 0 
L 4281 0 
L 4281 4097 
L 3078 897 
L 2444 897 
L 1241 4097 
L 1241 0 
L 628 0 
L 628 4666 
z
" id="DejaVuSans-4d" transform="scale(0.015625)"/>
       </defs>
       <use xlink:href="#DejaVuSans-31"/>
       <use x="63.623047" xlink:href="#DejaVuSans-20"/>
       <use x="95.410156" xlink:href="#DejaVuSans-4d"/>
       <use x="181.689453" xlink:href="#DejaVuSans-48"/>
       <use x="256.884766" xlink:href="#DejaVuSans-7a"/>
      </g>
     </g>
    </g>
    <g id="text_7">
     <!-- Tần số -->
     <g transform="translate(195.205156 202.316563)scale(0.1 -0.1)">
      <defs>
       <path d="M -19 4666 
L 3928 4666 
L 3928 4134 
L 2272 4134 
L 2272 0 
L 1638 0 
L 1638 4134 
L -19 4134 
L -19 4666 
z
" id="DejaVuSans-54" transform="scale(0.015625)"/>
       <path d="M 2194 1759 
Q 1497 1759 1228 1600 
Q 959 1441 959 1056 
Q 959 750 1161 570 
Q 1363 391 1709 391 
Q 2188 391 2477 730 
Q 2766 1069 2766 1631 
L 2766 1759 
L 2194 1759 
z
M 3341 1997 
L 3341 0 
L 2766 0 
L 2766 531 
Q 2569 213 2275 61 
Q 1981 -91 1556 -91 
Q 1019 -91 701 211 
Q 384 513 384 1019 
Q 384 1609 779 1909 
Q 1175 2209 1959 2209 
L 2766 2209 
L 2766 2266 
Q 2766 2663 2505 2880 
Q 2244 3097 1772 3097 
Q 1472 3097 1187 3025 
Q 903 2953 641 2809 
L 641 3341 
Q 956 3463 1253 3523 
Q 1550 3584 1831 3584 
Q 2591 3584 2966 3190 
Q 3341 2797 3341 1997 
z
M 2590 5409 
L 3202 4584 
L 2724 4584 
L 2006 5409 
L 2590 5409 
z
M 1554 4775 
L 2142 4775 
L 2801 3944 
L 2367 3944 
L 1848 4500 
L 1329 3944 
L 895 3944 
L 1554 4775 
z
" id="DejaVuSans-1ea7" transform="scale(0.015625)"/>
       <path d="M 3513 2113 
L 3513 0 
L 2938 0 
L 2938 2094 
Q 2938 2591 2744 2837 
Q 2550 3084 2163 3084 
Q 1697 3084 1428 2787 
Q 1159 2491 1159 1978 
L 1159 0 
L 581 0 
L 581 3500 
L 1159 3500 
L 1159 2956 
Q 1366 3272 1645 3428 
Q 1925 3584 2291 3584 
Q 2894 3584 3203 3211 
Q 3513 2838 3513 2113 
z
" id="DejaVuSans-6e" transform="scale(0.015625)"/>
       <path d="M 2834 3397 
L 2834 2853 
Q 2591 2978 2328 3040 
Q 2066 3103 1784 3103 
Q 1356 3103 1142 2972 
Q 928 2841 928 2578 
Q 928 2378 1081 2264 
Q 1234 2150 1697 2047 
L 1894 2003 
Q 2506 1872 2764 1633 
Q 3022 1394 3022 966 
Q 3022 478 2636 193 
Q 2250 -91 1575 -91 
Q 1294 -91 989 -36 
Q 684 19 347 128 
L 347 722 
Q 666 556 975 473 
Q 1284 391 1588 391 
Q 1994 391 2212 530 
Q 2431 669 2431 922 
Q 2431 1156 2273 1281 
Q 2116 1406 1581 1522 
L 1381 1569 
Q 847 1681 609 1914 
Q 372 2147 372 2553 
Q 372 3047 722 3315 
Q 1072 3584 1716 3584 
Q 2034 3584 2315 3537 
Q 2597 3491 2834 3397 
z
" id="DejaVuSans-73" transform="scale(0.015625)"/>
       <path d="M 1658 4775 
L 2246 4775 
L 2905 3944 
L 2471 3944 
L 1952 4500 
L 1433 3944 
L 999 3944 
L 1658 4775 
z
M 3268 5409 
L 3846 5409 
L 3134 4584 
L 2655 4584 
L 3268 5409 
z
M 1959 3097 
Q 1497 3097 1228 2736 
Q 959 2375 959 1747 
Q 959 1119 1226 758 
Q 1494 397 1959 397 
Q 2419 397 2687 759 
Q 2956 1122 2956 1747 
Q 2956 2369 2687 2733 
Q 2419 3097 1959 3097 
z
M 1959 3584 
Q 2709 3584 3137 3096 
Q 3566 2609 3566 1747 
Q 3566 888 3137 398 
Q 2709 -91 1959 -91 
Q 1206 -91 779 398 
Q 353 888 353 1747 
Q 353 2609 779 3096 
Q 1206 3584 1959 3584 
z
" id="DejaVuSans-1ed1" transform="scale(0.015625)"/>
      </defs>
      <use xlink:href="#DejaVuSans-54"/>
      <use x="61.083984" xlink:href="#DejaVuSans-1ea7"/>
      <use x="122.363281" xlink:href="#DejaVuSans-6e"/>
      <use x="185.742188" xlink:href="#DejaVuSans-20"/>
      <use x="217.529297" xlink:href="#DejaVuSans-73"/>
      <use x="269.628906" xlink:href="#DejaVuSans-1ed1"/>
     </g>
    </g>
   </g>
   <g id="matplotlib.axis_2">
    <g id="ytick_1">
     <g id="line2d_13">
      <path clip-path="url(#pbe7eaee376)" d="M 59.24 163.219259 
L 364.25 163.219259 
" style="fill:none;stroke:#b0b0b0;stroke-linecap:square;stroke-width:0.8;"/>
     </g>
     <g id="line2d_14">
      <defs>
       <path d="M 0 0 
L -3.5 0 
" id="mf5270b416d" style="stroke:#000000;stroke-width:0.8;"/>
      </defs>
      <g>
       <use style="stroke:#000000;stroke-width:0.8;" x="59.24" xlink:href="#mf5270b416d" y="163.219259"/>
      </g>
     </g>
     <g id="text_8">
      <!-- −120 -->
      <g transform="translate(24.772813 167.018478)scale(0.1 -0.1)">
       <defs>
        <path d="M 678 2272 
L 4684 2272 
L 4684 1741 
L 678 1741 
L 678 2272 
z
" id="DejaVuSans-2212" transform="scale(0.015625)"/>
       </defs>
       <use xlink:href="#DejaVuSans-2212"/>
       <use x="83.789062" xlink:href="#DejaVuSans-31"/>
       <use x="147.412109" xlink:href="#DejaVuSans-32"/>
       <use x="211.035156" xlink:href="#DejaVuSans-30"/>
      </g>
     </g>
    </g>
    <g id="ytick_2">
     <g id="line2d_15">
      <path clip-path="url(#pbe7eaee376)" d="M 59.24 141.577778 
L 364.25 141.577778 
" style="fill:none;stroke:#b0b0b0;stroke-linecap:square;stroke-width:0.8;"/>
     </g>
     <g id="line2d_16">
      <g>
       <use style="stroke:#000000;stroke-width:0.8;" x="59.24" xlink:href="#mf5270b416d" y="141.577778"/>
      </g>
     </g>
     <g id="text_9">
      <!-- −100 -->
      <g transform="translate(24.772813 145.376997)scale(0.1 -0.1)">
       <use xlink:href="#DejaVuSans-2212"/>
       <use x="83.789062" xlink:href="#DejaVuSans-31"/>
       <use x="147.412109" xlink:href="#DejaVuSans-30"/>
       <use x="211.035156" xlink:href="#DejaVuSans-30"/>
      </g>
     </g>
    </g>
    <g id="ytick_3">
     <g id="line2d_17">
      <path clip-path="url(#pbe7eaee376)" d="M 59.24 119.936296 
L 364.25 119.936296 
" style="fill:none;stroke:#b0b0b0;stroke-linecap:square;stroke-width:0.8;"/>
     </g>
     <g id="line2d_18">
      <g>
       <use style="stroke:#000000;stroke-width:0.8;" x="59.24" xlink:href="#mf5270b416d" y="119.936296"/>
      </g>
     </g>
     <g id="text_10">
      <!-- −80 -->
      <g transform="translate(31.135313 123.735515)scale(0.1 -0.1)">
       <use xlink:href="#DejaVuSans-2212"/>
       <use x="83.789062" xlink:href="#DejaVuSans-38"/>
       <use x="147.412109" xlink:href="#DejaVuSans-30"/>
      </g>
     </g>
    </g>
    <g id="ytick_4">
     <g id="line2d_19">
      <path clip-path="url(#pbe7eaee376)" d="M 59.24 98.294815 
L 364.25 98.294815 
" style="fill:none;stroke:#b0b0b0;stroke-linecap:square;stroke-width:0.8;"/>
     </g>
     <g id="line2d_20">
      <g>
       <use style="stroke:#000000;stroke-width:0.8;" x="59.24" xlink:href="#mf5270b416d" y="98.294815"/>
      </g>
     </g>
     <g id="text_11">
      <!-- −60 -->
      <g transform="translate(31.135313 102.094034)scale(0.1 -0.1)">
       <use xlink:href="#DejaVuSans-2212"/>
       <use x="83.789062" xlink:href="#DejaVuSans-36"/>
       <use x="147.412109" xlink:href="#DejaVuSans-30"/>
      </g>
     </g>
    </g>
    <g id="ytick_5">
     <g id="line2d_21">
      <path clip-path="url(#pbe7eaee376)" d="M 59.24 76.653333 
L 364.25 76.653333 
" style="fill:none;stroke:#b0b0b0;stroke-linecap:square;stroke-width:0.8;"/>
     </g>
     <g id="line2d_22">
      <g>
       <use style="stroke:#000000;stroke-width:0.8;" x="59.24" xlink:href="#mf5270b416d" y="76.653333"/>
      </g>
     </g>
     <g id="text_12">
      <!-- −40 -->
      <g transform="translate(31.135313 80.452552)scale(0.1 -0.1)">
       <use xlink:href="#DejaVuSans-2212"/>
       <use x="83.789062" xlink:href="#DejaVuSans-34"/>
       <use x="147.412109" xlink:href="#DejaVuSans-30"/>
      </g>
     </g>
    </g>
    <g id="ytick_6">
     <g id="line2d_23">
      <path clip-path="url(#pbe7eaee376)" d="M 59.24 55.011852 
L 364.25 55.011852 
" style="fill:none;stroke:#b0b0b0;stroke-linecap:square;stroke-width:0.8;"/>
     </g>
     <g id="line2d_24">
      <g>
       <use style="stroke:#000000;stroke-width:0.8;" x="59.24" xlink:href="#mf5270b416d" y="55.011852"/>
      </g>
     </g>
     <g id="text_13">
      <!-- −20 -->
      <g transform="translate(31.135313 58.811071)scale(0.1 -0.1)">
       <use xlink:href="#DejaVuSans-2212"/>
       <use x="83.789062" xlink:href="#DejaVuSans-32"/>
       <use x="147.412109" xlink:href="#DejaVuSans-30"/>
      </g>
     </g>
    </g>
    <g id="ytick_7">
     <g id="line2d_25">
      <path clip-path="url(#pbe7eaee376)" d="M 59.24 33.37037 
L 364.25 33.37037 
" style="fill:none;stroke:#b0b0b0;stroke-linecap:square;stroke-width:0.8;"/>
     </g>
     <g id="line2d_26">
      <g>
       <use style="stroke:#000000;stroke-width:0.8;" x="59.24" xlink:href="#mf5270b416d" y="33.37037"/>
      </g>
     </g>
     <g id="text_14">
      <!-- 0 -->
      <g transform="translate(45.8775 37.169589)scale(0.1 -0.1)">
       <use xlink:href="#DejaVuSans-30"/>
      </g>
     </g>
    </g>
    <g id="text_15">
     <!-- Suy hao (dB) -->
     <g transform="translate(18.693125 133.278906)rotate(-90)scale(0.1 -0.1)">
      <defs>
       <path d="M 3425 4513 
L 3425 3897 
Q 3066 4069 2747 4153 
Q 2428 4238 2131 4238 
Q 1616 4238 1336 4038 
Q 1056 3838 1056 3469 
Q 1056 3159 1242 3001 
Q 1428 2844 1947 2747 
L 2328 2669 
Q 3034 2534 3370 2195 
Q 3706 1856 3706 1288 
Q 3706 609 3251 259 
Q 2797 -91 1919 -91 
Q 1588 -91 1214 -16 
Q 841 59 441 206 
L 441 856 
Q 825 641 1194 531 
Q 1563 422 1919 422 
Q 2459 422 2753 634 
Q 3047 847 3047 1241 
Q 3047 1584 2836 1778 
Q 2625 1972 2144 2069 
L 1759 2144 
Q 1053 2284 737 2584 
Q 422 2884 422 3419 
Q 422 4038 858 4394 
Q 1294 4750 2059 4750 
Q 2388 4750 2728 4690 
Q 3069 4631 3425 4513 
z
" id="DejaVuSans-53" transform="scale(0.015625)"/>
       <path d="M 544 1381 
L 544 3500 
L 1119 3500 
L 1119 1403 
Q 1119 906 1312 657 
Q 1506 409 1894 409 
Q 2359 409 2629 706 
Q 2900 1003 2900 1516 
L 2900 3500 
L 3475 3500 
L 3475 0 
L 2900 0 
L 2900 538 
Q 2691 219 2414 64 
Q 2138 -91 1772 -91 
Q 1169 -91 856 284 
Q 544 659 544 1381 
z
M 1991 3584 
L 1991 3584 
z
" id="DejaVuSans-75" transform="scale(0.015625)"/>
       <path d="M 2059 -325 
Q 1816 -950 1584 -1140 
Q 1353 -1331 966 -1331 
L 506 -1331 
L 506 -850 
L 844 -850 
Q 1081 -850 1212 -737 
Q 1344 -625 1503 -206 
L 1606 56 
L 191 3500 
L 800 3500 
L 1894 763 
L 2988 3500 
L 3597 3500 
L 2059 -325 
z
" id="DejaVuSans-79" transform="scale(0.015625)"/>
       <path d="M 3513 2113 
L 3513 0 
L 2938 0 
L 2938 2094 
Q 2938 2591 2744 2837 
Q 2550 3084 2163 3084 
Q 1697 3084 1428 2787 
Q 1159 2491 1159 1978 
L 1159 0 
L 581 0 
L 581 4863 
L 1159 4863 
L 1159 2956 
Q 1366 3272 1645 3428 
Q 1925 3584 2291 3584 
Q 2894 3584 3203 3211 
Q 3513 2838 3513 2113 
z
" id="DejaVuSans-68" transform="scale(0.015625)"/>
       <path d="M 2194 1759 
Q 1497 1759 1228 1600 
Q 959 1441 959 1056 
Q 959 750 1161 570 
Q 1363 391 1709 391 
Q 2188 391 2477 730 
Q 2766 1069 2766 1631 
L 2766 1759 
L 2194 1759 
z
M 3341 1997 
L 3341 0 
L 2766 0 
L 2766 531 
Q 2569 213 2275 61 
Q 1981 -91 1556 -91 
Q 1019 -91 701 211 
Q 384 513 384 1019 
Q 384 1609 779 1909 
Q 1175 2209 1959 2209 
L 2766 2209 
L 2766 2266 
Q 2766 2663 2505 2880 
Q 2244 3097 1772 3097 
Q 1472 3097 1187 3025 
Q 903 2953 641 2809 
L 641 3341 
Q 956 3463 1253 3523 
Q 1550 3584 1831 3584 
Q 2591 3584 2966 3190 
Q 3341 2797 3341 1997 
z
" id="DejaVuSans-61" transform="scale(0.015625)"/>
       <path d="M 1959 3097 
Q 1497 3097 1228 2736 
Q 959 2375 959 1747 
Q 959 1119 1226 758 
Q 1494 397 1959 397 
Q 2419 397 2687 759 
Q 2956 1122 2956 1747 
Q 2956 2369 2687 2733 
Q 2419 3097 1959 3097 
z
M 1959 3584 
Q 2709 3584 3137 3096 
Q 3566 2609 3566 1747 
Q 3566 888 3137 398 
Q 2709 -91 1959 -91 
Q 1206 -91 779 398 
Q 353 888 353 1747 
Q 353 2609 779 3096 
Q 1206 3584 1959 3584 
z
" id="DejaVuSans-6f" transform="scale(0.015625)"/>
       <path d="M 1984 4856 
Q 1566 4138 1362 3434 
Q 1159 2731 1159 2009 
Q 1159 1288 1364 580 
Q 1569 -128 1984 -844 
L 1484 -844 
Q 1016 -109 783 600 
Q 550 1309 550 2009 
Q 550 2706 781 3412 
Q 1013 4119 1484 4856 
L 1984 4856 
z
" id="DejaVuSans-28" transform="scale(0.015625)"/>
       <path d="M 2906 2969 
L 2906 4863 
L 3481 4863 
L 3481 0 
L 2906 0 
L 2906 525 
Q 2725 213 2448 61 
Q 2172 -91 1784 -91 
Q 1150 -91 751 415 
Q 353 922 353 1747 
Q 353 2572 751 3078 
Q 1150 3584 1784 3584 
Q 2172 3584 2448 3432 
Q 2725 3281 2906 2969 
z
M 947 1747 
Q 947 1113 1208 752 
Q 1469 391 1925 391 
Q 2381 391 2643 752 
Q 2906 1113 2906 1747 
Q 2906 2381 2643 2742 
Q 2381 3103 1925 3103 
Q 1469 3103 1208 2742 
Q 947 2381 947 1747 
z
" id="DejaVuSans-64" transform="scale(0.015625)"/>
       <path d="M 1259 2228 
L 1259 519 
L 2272 519 
Q 2781 519 3026 730 
Q 3272 941 3272 1375 
Q 3272 1813 3026 2020 
Q 2781 2228 2272 2228 
L 1259 2228 
z
M 1259 4147 
L 1259 2741 
L 2194 2741 
Q 2656 2741 2882 2914 
Q 3109 3088 3109 3444 
Q 3109 3797 2882 3972 
Q 2656 4147 2194 4147 
L 1259 4147 
z
M 628 4666 
L 2241 4666 
Q 2963 4666 3353 4366 
Q 3744 4066 3744 3513 
Q 3744 3084 3544 2831 
Q 3344 2578 2956 2516 
Q 3422 2416 3680 2098 
Q 3938 1781 3938 1306 
Q 3938 681 3513 340 
Q 3088 0 2303 0 
L 628 0 
L 628 4666 
z
" id="DejaVuSans-42" transform="scale(0.015625)"/>
       <path d="M 513 4856 
L 1013 4856 
Q 1481 4119 1714 3412 
Q 1947 2706 1947 2009 
Q 1947 1309 1714 600 
Q 1481 -109 1013 -844 
L 513 -844 
Q 928 -128 1133 580 
Q 1338 1288 1338 2009 
Q 1338 2731 1133 3434 
Q 928 4138 513 4856 
z
" id="DejaVuSans-29" transform="scale(0.015625)"/>
      </defs>
      <use xlink:href="#DejaVuSans-53"/>
      <use x="63.476562" xlink:href="#DejaVuSans-75"/>
      <use x="126.855469" xlink:href="#DejaVuSans-79"/>
      <use x="186.035156" xlink:href="#DejaVuSans-20"/>
      <use x="217.822266" xlink:href="#DejaVuSans-68"/>
      <use x="281.201172" xlink:href="#DejaVuSans-61"/>
      <use x="342.480469" xlink:href="#DejaVuSans-6f"/>
      <use x="403.662109" xlink:href="#DejaVuSans-20"/>
      <use x="435.449219" xlink:href="#DejaVuSans-28"/>
      <use x="474.462891" xlink:href="#DejaVuSans-64"/>
      <use x="537.939453" xlink:href="#DejaVuSans-42"/>
      <use x="606.542969" xlink:href="#DejaVuSans-29"/>
     </g>
    </g>
   </g>
   <g id="line2d_27">
    <path clip-path="url(#pbe7eaee376)" d="M 59.24 33.37037 
L 61.401606 33.481477 
L 63.563211 33.815601 
L 65.724817 34.375176 
L 67.886422 35.164357 
L 70.048028 36.189165 
L 72.246902 37.481781 
L 74.445777 39.037728 
L 76.644652 40.871185 
L 78.843526 43.000081 
L 81.005132 45.402765 
L 83.166738 48.139957 
L 85.291074 51.189277 
L 87.378141 54.572892 
L 89.42794 58.320636 
L 91.440469 62.472634 
L 93.37846 66.990795 
L 95.241913 71.911856 
L 96.993559 77.167914 
L 98.670667 82.91587 
L 100.235968 89.089122 
L 101.689461 95.740445 
L 103.031147 102.942718 
L 104.261026 110.797462 
L 105.341829 119.130281 
L 106.310825 128.311041 
L 107.168013 138.553697 
L 107.913394 150.169446 
L 108.546968 163.629956 
L 109.068735 179.690205 
L 109.478695 199.647244 
L 109.697404 217 
M 110.458316 217 
L 110.820381 192.230969 
L 111.304879 173.770278 
L 111.901184 159.369797 
L 112.609296 147.613954 
L 113.429216 137.750228 
L 114.323673 129.625674 
L 115.292669 122.760378 
L 116.373471 116.680848 
L 117.491543 111.616084 
L 118.684153 107.2137 
L 119.914032 103.493917 
L 121.18118 100.344241 
L 122.485598 97.686905 
L 123.790015 95.522644 
L 125.094432 93.778723 
L 126.398849 92.401798 
L 127.665997 91.37785 
L 128.933145 90.635174 
L 130.163024 90.163581 
L 131.392903 89.923041 
L 132.622782 89.903072 
L 133.88993 90.10556 
L 135.194348 90.545538 
L 136.536034 91.241155 
L 137.914989 92.214461 
L 139.331213 93.492489 
L 140.784707 95.108778 
L 142.275469 97.105558 
L 143.803501 99.537001 
L 145.331532 102.39859 
L 146.859564 105.747012 
L 148.350326 109.558404 
L 149.80382 113.892218 
L 151.220044 118.835278 
L 152.56173 124.349161 
L 153.828878 130.529808 
L 154.984219 137.281937 
L 156.065022 144.958619 
L 157.034018 153.486991 
L 157.891206 163.041328 
L 158.636587 173.865821 
L 159.270161 186.305659 
L 159.791928 200.84772 
L 160.179971 217 
M 161.64956 217 
L 162.10261 199.20009 
L 162.698915 184.19563 
L 163.407027 171.962221 
L 164.226946 161.667348 
L 165.121404 153.140163 
L 166.127669 145.632899 
L 167.208471 139.194643 
L 168.363812 133.605423 
L 169.593691 128.722429 
L 170.898109 124.4499 
L 172.239795 120.814399 
L 173.581481 117.799245 
L 174.960436 115.237184 
L 176.339391 113.139589 
L 177.681078 111.488715 
L 179.022764 110.182176 
L 180.327181 109.213645 
L 181.594329 108.537897 
L 182.861477 108.109321 
L 184.128625 107.917955 
L 185.395773 107.95725 
L 186.662922 108.223721 
L 187.93007 108.716775 
L 189.234487 109.463411 
L 190.576173 110.490465 
L 191.955128 111.830605 
L 193.371353 113.524301 
L 194.824846 115.622718 
L 196.278339 118.12231 
L 197.731833 121.073107 
L 199.185326 124.543992 
L 200.601551 128.518017 
L 201.980506 133.071661 
L 203.284923 138.158677 
L 204.514802 143.853506 
L 205.670143 150.266577 
L 206.750946 157.564822 
L 207.719941 165.660698 
L 208.57713 174.688157 
L 209.322511 184.822182 
L 209.993354 197.077627 
L 210.55239 211.600105 
L 210.711201 217 
M 212.789829 217 
L 213.34757 201.059597 
L 214.018413 188.103179 
L 214.801063 177.228273 
L 215.695521 167.894359 
L 216.664516 160.033357 
L 217.745319 153.049311 
L 218.90066 147.006019 
L 220.130539 141.727678 
L 221.434956 137.098605 
L 222.776642 133.141112 
L 224.155598 129.751776 
L 225.534553 126.928945 
L 226.950777 124.529337 
L 228.329732 122.615905 
L 229.708688 121.073955 
L 231.050374 119.898122 
L 232.354791 119.039535 
L 233.659208 118.445728 
L 234.926356 118.111866 
L 236.193504 118.010677 
L 237.460652 118.138539 
L 238.727801 118.494726 
L 239.994949 119.081363 
L 241.299366 119.93136 
L 242.641052 121.075687 
L 244.020007 122.552343 
L 245.436232 124.408893 
L 246.852456 126.642049 
L 248.26868 129.295653 
L 249.684905 132.429459 
L 251.06386 136.020785 
L 252.405546 140.12935 
L 253.709963 144.841512 
L 254.939842 150.109689 
L 256.132452 156.227723 
L 257.213255 162.946725 
L 258.21952 170.63636 
L 259.113977 179.203739 
L 259.896628 188.80084 
L 260.60474 200.321319 
L 261.201045 213.852115 
L 261.3116 217 
M 263.858155 217 
L 264.443453 202.931071 
L 265.151565 190.97464 
L 265.971485 180.775787 
L 266.903211 171.922407 
L 267.946745 164.146956 
L 269.064817 157.468708 
L 270.257427 151.653667 
L 271.524575 146.551699 
L 272.866261 142.063199 
L 274.245216 138.21601 
L 275.661441 134.917509 
L 277.077665 132.169788 
L 278.493889 129.893748 
L 279.910114 128.032104 
L 281.289069 126.577491 
L 282.630755 125.473606 
L 283.935172 124.676074 
L 285.239589 124.137235 
L 286.506738 123.853073 
L 287.773886 123.799782 
L 289.041034 123.975441 
L 290.308182 124.380982 
L 291.57533 125.020234 
L 292.879747 125.929739 
L 294.221433 127.143302 
L 295.600389 128.702659 
L 296.979344 130.604028 
L 298.395568 132.949471 
L 299.811793 135.74358 
L 301.190748 138.961882 
L 302.569703 142.761995 
L 303.911389 147.139878 
L 305.178537 152.048578 
L 306.371147 157.557997 
L 307.489219 163.771046 
L 308.532753 170.841737 
L 309.464479 178.657633 
L 310.321668 187.756095 
L 311.067049 198.064885 
L 311.700623 209.860884 
L 311.997353 217 
M 314.838286 217 
L 315.464798 203.367803 
L 316.21018 191.830797 
L 317.067368 181.949028 
L 318.036364 173.34109 
L 319.079897 165.993845 
L 320.235238 159.41697 
L 321.465117 153.682113 
L 322.769534 148.646095 
L 324.111221 144.323627 
L 325.527445 140.5054 
L 326.943669 137.310431 
L 328.397163 134.574819 
L 329.813387 132.36627 
L 331.229611 130.556638 
L 332.608567 129.14176 
L 333.950253 128.068982 
L 335.291939 127.278289 
L 336.596356 126.768274 
L 337.863504 126.509953 
L 339.130652 126.481616 
L 340.397801 126.682514 
L 341.664949 127.114749 
L 342.932097 127.783386 
L 344.236514 128.727386 
L 345.5782 129.982719 
L 346.919886 131.54596 
L 348.298842 133.501462 
L 349.677797 135.848972 
L 351.056752 138.640702 
L 352.435707 141.948046 
L 353.777394 145.755584 
L 355.081811 150.140611 
L 356.31169 155.053119 
L 357.5043 160.757166 
L 358.622372 167.242582 
L 359.628636 174.405412 
L 360.560363 182.688112 
L 361.380282 192.009924 
L 362.088394 202.57934 
L 362.721968 215.565164 
L 362.779228 217 
L 362.779228 217 
" style="fill:none;stroke:#008000;stroke-linecap:square;stroke-width:1.5;"/>
   </g>
   <g id="line2d_28">
    <path clip-path="url(#pbe7eaee376)" d="M 60.828594 174.04 
L 60.828594 27.96 
" style="fill:none;stroke:#1f77b4;stroke-dasharray:3.7,1.6;stroke-dashoffset:0;"/>
   </g>
   <g id="line2d_29">
    <path clip-path="url(#pbe7eaee376)" d="M 61.887656 174.04 
L 61.887656 27.96 
" style="fill:none;stroke:#ff7f0e;stroke-dasharray:3.7,1.6;stroke-dashoffset:0;"/>
   </g>
   <g id="line2d_30">
    <path clip-path="url(#pbe7eaee376)" d="M 65.594375 174.04 
L 65.594375 27.96 
" style="fill:none;stroke:#ff0000;stroke-dasharray:3.7,1.6;stroke-dashoffset:0;"/>
   </g>
   <g id="patch_3">
    <path d="M 59.24 174.04 
L 59.24 27.96 
" style="fill:none;stroke:#000000;stroke-linecap:square;stroke-linejoin:miter;stroke-width:0.8;"/>
   </g>
   <g id="patch_4">
    <path d="M 364.25 174.04 
L 364.25 27.96 
" style="fill:none;stroke:#000000;stroke-linecap:square;stroke-linejoin:miter;stroke-width:0.8;"/>
   </g>
   <g id="patch_5">
    <path d="M 59.24 174.04 
L 364.25 174.04 
" style="fill:none;stroke:#000000;stroke-linecap:square;stroke-linejoin:miter;stroke-width:0.8;"/>
   </g>
   <g id="patch_6">
    <path d="M 59.24 27.96 
L 364.25 27.96 
" style="fill:none;stroke:#000000;stroke-linecap:square;stroke-linejoin:miter;stroke-width:0.8;"/>
   </g>
   <g id="text_16">
    <!-- Bộ lọc CIC - Đáp ứng tần số -->
    <g transform="translate(129.480313 21.96)scale(0.12 -0.12)">
     <defs>
      <path d="M 1666 -441 
L 2241 -441 
L 2241 -1172 
L 1666 -1172 
L 1666 -441 
z
M 1959 3097 
Q 1497 3097 1228 2736 
Q 959 2375 959 1747 
Q 959 1119 1226 758 
Q 1494 397 1959 397 
Q 2419 397 2687 759 
Q 2956 1122 2956 1747 
Q 2956 2369 2687 2733 
Q 2419 3097 1959 3097 
z
M 1959 3584 
Q 2709 3584 3137 3096 
Q 3566 2609 3566 1747 
Q 3566 888 3137 398 
Q 2709 -91 1959 -91 
Q 1206 -91 779 398 
Q 353 888 353 1747 
Q 353 2609 779 3096 
Q 1206 3584 1959 3584 
z
M 1666 -441 
L 2241 -441 
L 2241 -1172 
L 1666 -1172 
L 1666 -441 
z
M 1729 5119 
L 2191 5119 
L 2957 3944 
L 2523 3944 
L 1960 4709 
L 1398 3944 
L 963 3944 
L 1729 5119 
z
" id="DejaVuSans-1ed9" transform="scale(0.015625)"/>
      <path d="M 603 4863 
L 1178 4863 
L 1178 0 
L 603 0 
L 603 4863 
z
" id="DejaVuSans-6c" transform="scale(0.015625)"/>
      <path d="M 1959 3097 
Q 1497 3097 1228 2736 
Q 959 2375 959 1747 
Q 959 1119 1226 758 
Q 1494 397 1959 397 
Q 2419 397 2687 759 
Q 2956 1122 2956 1747 
Q 2956 2369 2687 2733 
Q 2419 3097 1959 3097 
z
M 1959 3584 
Q 2709 3584 3137 3096 
Q 3566 2609 3566 1747 
Q 3566 888 3137 398 
Q 2709 -91 1959 -91 
Q 1206 -91 779 398 
Q 353 888 353 1747 
Q 353 2609 779 3096 
Q 1206 3584 1959 3584 
z
M 1666 -441 
L 2241 -441 
L 2241 -1172 
L 1666 -1172 
L 1666 -441 
z
" id="DejaVuSans-1ecd" transform="scale(0.015625)"/>
      <path d="M 3122 3366 
L 3122 2828 
Q 2878 2963 2633 3030 
Q 2388 3097 2138 3097 
Q 1578 3097 1268 2742 
Q 959 2388 959 1747 
Q 959 1106 1268 751 
Q 1578 397 2138 397 
Q 2388 397 2633 464 
Q 2878 531 3122 666 
L 3122 134 
Q 2881 22 2623 -34 
Q 2366 -91 2075 -91 
Q 1284 -91 818 406 
Q 353 903 353 1747 
Q 353 2603 823 3093 
Q 1294 3584 2113 3584 
Q 2378 3584 2631 3529 
Q 2884 3475 3122 3366 
z
" id="DejaVuSans-63" transform="scale(0.015625)"/>
      <path d="M 4122 4306 
L 4122 3641 
Q 3803 3938 3442 4084 
Q 3081 4231 2675 4231 
Q 1875 4231 1450 3742 
Q 1025 3253 1025 2328 
Q 1025 1406 1450 917 
Q 1875 428 2675 428 
Q 3081 428 3442 575 
Q 3803 722 4122 1019 
L 4122 359 
Q 3791 134 3420 21 
Q 3050 -91 2638 -91 
Q 1578 -91 968 557 
Q 359 1206 359 2328 
Q 359 3453 968 4101 
Q 1578 4750 2638 4750 
Q 3056 4750 3426 4639 
Q 3797 4528 4122 4306 
z
" id="DejaVuSans-43" transform="scale(0.015625)"/>
      <path d="M 628 4666 
L 1259 4666 
L 1259 0 
L 628 0 
L 628 4666 
z
" id="DejaVuSans-49" transform="scale(0.015625)"/>
      <path d="M 313 2009 
L 1997 2009 
L 1997 1497 
L 313 1497 
L 313 2009 
z
" id="DejaVuSans-2d" transform="scale(0.015625)"/>
      <path d="M 659 4666 
L 1959 4666 
Q 3313 4666 3947 4102 
Q 4581 3538 4581 2338 
Q 4581 1131 3945 565 
Q 3309 0 1959 0 
L 659 0 
L 659 2188 
L 31 2188 
L 31 2638 
L 659 2638 
L 659 4666 
z
M 1294 4147 
L 1294 2638 
L 2344 2638 
L 2344 2188 
L 1294 2188 
L 1294 519 
L 2053 519 
Q 3019 519 3467 956 
Q 3916 1394 3916 2338 
Q 3916 3275 3467 3711 
Q 3019 4147 2053 4147 
L 1294 4147 
z
" id="DejaVuSans-110" transform="scale(0.015625)"/>
      <path d="M 2194 1759 
Q 1497 1759 1228 1600 
Q 959 1441 959 1056 
Q 959 750 1161 570 
Q 1363 391 1709 391 
Q 2188 391 2477 730 
Q 2766 1069 2766 1631 
L 2766 1759 
L 2194 1759 
z
M 3341 1997 
L 3341 0 
L 2766 0 
L 2766 531 
Q 2569 213 2275 61 
Q 1981 -91 1556 -91 
Q 1019 -91 701 211 
Q 384 513 384 1019 
Q 384 1609 779 1909 
Q 1175 2209 1959 2209 
L 2766 2209 
L 2766 2266 
Q 2766 2663 2505 2880 
Q 2244 3097 1772 3097 
Q 1472 3097 1187 3025 
Q 903 2953 641 2809 
L 641 3341 
Q 956 3463 1253 3523 
Q 1550 3584 1831 3584 
Q 2591 3584 2966 3190 
Q 3341 2797 3341 1997 
z
M 2290 5119 
L 2912 5119 
L 1894 3944 
L 1415 3944 
L 2290 5119 
z
" id="DejaVuSans-e1" transform="scale(0.015625)"/>
      <path d="M 1159 525 
L 1159 -1331 
L 581 -1331 
L 581 3500 
L 1159 3500 
L 1159 2969 
Q 1341 3281 1617 3432 
Q 1894 3584 2278 3584 
Q 2916 3584 3314 3078 
Q 3713 2572 3713 1747 
Q 3713 922 3314 415 
Q 2916 -91 2278 -91 
Q 1894 -91 1617 61 
Q 1341 213 1159 525 
z
M 3116 1747 
Q 3116 2381 2855 2742 
Q 2594 3103 2138 3103 
Q 1681 3103 1420 2742 
Q 1159 2381 1159 1747 
Q 1159 1113 1420 752 
Q 1681 391 2138 391 
Q 2594 391 2855 752 
Q 3116 1113 3116 1747 
z
" id="DejaVuSans-70" transform="scale(0.015625)"/>
      <path d="M 2418 5119 
L 3040 5119 
L 2022 3944 
L 1543 3944 
L 2418 5119 
z
M 3094 3136 
L 3094 3508 
Q 3285 3367 3422 3300 
Q 3560 3233 3657 3233 
Q 3800 3233 3872 3319 
Q 3944 3405 3944 3573 
Q 3944 3673 3920 3770 
Q 3897 3867 3850 3964 
L 4266 3964 
Q 4297 3845 4312 3739 
Q 4328 3633 4328 3539 
Q 4328 3158 4192 2978 
Q 4057 2798 3766 2798 
Q 3616 2798 3452 2881 
Q 3288 2964 3094 3136 
z
M 552 1381 
L 552 3500 
L 1127 3500 
L 1127 1403 
Q 1127 906 1320 657 
Q 1514 409 1902 409 
Q 2367 409 2637 706 
Q 2908 1003 2908 1516 
L 2908 3500 
L 3483 3500 
L 3483 0 
L 2908 0 
L 2908 538 
Q 2699 219 2422 64 
Q 2146 -91 1780 -91 
Q 1177 -91 864 284 
Q 552 659 552 1381 
z
M 1999 3584 
L 1999 3584 
z
" id="DejaVuSans-1ee9" transform="scale(0.015625)"/>
      <path d="M 2906 1791 
Q 2906 2416 2648 2759 
Q 2391 3103 1925 3103 
Q 1463 3103 1205 2759 
Q 947 2416 947 1791 
Q 947 1169 1205 825 
Q 1463 481 1925 481 
Q 2391 481 2648 825 
Q 2906 1169 2906 1791 
z
M 3481 434 
Q 3481 -459 3084 -895 
Q 2688 -1331 1869 -1331 
Q 1566 -1331 1297 -1286 
Q 1028 -1241 775 -1147 
L 775 -588 
Q 1028 -725 1275 -790 
Q 1522 -856 1778 -856 
Q 2344 -856 2625 -561 
Q 2906 -266 2906 331 
L 2906 616 
Q 2728 306 2450 153 
Q 2172 0 1784 0 
Q 1141 0 747 490 
Q 353 981 353 1791 
Q 353 2603 747 3093 
Q 1141 3584 1784 3584 
Q 2172 3584 2450 3431 
Q 2728 3278 2906 2969 
L 2906 3500 
L 3481 3500 
L 3481 434 
z
" id="DejaVuSans-67" transform="scale(0.015625)"/>
      <path d="M 1172 4494 
L 1172 3500 
L 2356 3500 
L 2356 3053 
L 1172 3053 
L 1172 1153 
Q 1172 725 1289 603 
Q 1406 481 1766 481 
L 2356 481 
L 2356 0 
L 1766 0 
Q 1100 0 847 248 
Q 594 497 594 1153 
L 594 3053 
L 172 3053 
L 172 3500 
L 594 3500 
L 594 4494 
L 1172 4494 
z
" id="DejaVuSans-74" transform="scale(0.015625)"/>
     </defs>
     <use xlink:href="#DejaVuSans-42"/>
     <use x="68.603516" xlink:href="#DejaVuSans-1ed9"/>
     <use x="129.785156" xlink:href="#DejaVuSans-20"/>
     <use x="161.572266" xlink:href="#DejaVuSans-6c"/>
     <use x="189.355469" xlink:href="#DejaVuSans-1ecd"/>
     <use x="250.537109" xlink:href="#DejaVuSans-63"/>
     <use x="305.517578" xlink:href="#DejaVuSans-20"/>
     <use x="337.304688" xlink:href="#DejaVuSans-43"/>
     <use x="407.128906" xlink:href="#DejaVuSans-49"/>
     <use x="436.621094" xlink:href="#DejaVuSans-43"/>
     <use x="506.445312" xlink:href="#DejaVuSans-20"/>
     <use x="538.232422" xlink:href="#DejaVuSans-2d"/>
     <use x="574.316406" xlink:href="#DejaVuSans-20"/>
     <use x="606.103516" xlink:href="#DejaVuSans-110"/>
     <use x="683.59375" xlink:href="#DejaVuSans-e1"/>
     <use x="744.873047" xlink:href="#DejaVuSans-70"/>
     <use x="808.349609" xlink:href="#DejaVuSans-20"/>
     <use x="840.136719" xlink:href="#DejaVuSans-1ee9"/>
     <use x="903.515625" xlink:href="#DejaVuSans-6e"/>
     <use x="966.894531" xlink:href="#DejaVuSans-67"/>
     <use x="1030.371094" xlink:href="#DejaVuSans-20"/>
     <use x="1062.158203" xlink:href="#DejaVuSans-74"/>
     <use x="1101.367188" xlink:href="#DejaVuSans-1ea7"/>
     <use x="1162.646484" xlink:href="#DejaVuSans-6e"/>
     <use x="1226.025391" xlink:href="#DejaVuSans-20"/>
     <use x="1257.8125" xlink:href="#DejaVuSans-73"/>
     <use x="1309.912109" xlink:href="#DejaVuSans-1ed1"/>
    </g>
   </g>
   <g id="legend_1">
    <g id="patch_7">
     <path d="M 276.403125 80.9975 
L 357.25 80.9975 
Q 359.25 80.9975 359.25 78.9975 
L 359.25 34.96 
Q 359.25 32.96 357.25 32.96 
L 276.403125 32.96 
Q 274.403125 32.96 274.403125 34.96 
L 274.403125 78.9975 
Q 274.403125 80.9975 276.403125 80.9975 
z
" style="fill:#ffffff;opacity:0.8;stroke:#cccccc;stroke-linejoin:miter;"/>
    </g>
    <g id="line2d_31">
     <path d="M 278.403125 41.56 
L 298.403125 41.56 
" style="fill:none;stroke:#1f77b4;stroke-dasharray:3.7,1.6;stroke-dashoffset:0;"/>
    </g>
    <g id="line2d_32"/>
    <g id="text_17">
     <!-- Dải thông -->
     <g transform="translate(306.403125 45.06)scale(0.1 -0.1)">
      <defs>
       <path d="M 1259 4147 
L 1259 519 
L 2022 519 
Q 2988 519 3436 956 
Q 3884 1394 3884 2338 
Q 3884 3275 3436 3711 
Q 2988 4147 2022 4147 
L 1259 4147 
z
M 628 4666 
L 1925 4666 
Q 3281 4666 3915 4102 
Q 4550 3538 4550 2338 
Q 4550 1131 3912 565 
Q 3275 0 1925 0 
L 628 0 
L 628 4666 
z
" id="DejaVuSans-44" transform="scale(0.015625)"/>
       <path d="M 2194 1759 
Q 1497 1759 1228 1600 
Q 959 1441 959 1056 
Q 959 750 1161 570 
Q 1363 391 1709 391 
Q 2188 391 2477 730 
Q 2766 1069 2766 1631 
L 2766 1759 
L 2194 1759 
z
M 3341 1997 
L 3341 0 
L 2766 0 
L 2766 531 
Q 2569 213 2275 61 
Q 1981 -91 1556 -91 
Q 1019 -91 701 211 
Q 384 513 384 1019 
Q 384 1609 779 1909 
Q 1175 2209 1959 2209 
L 2766 2209 
L 2766 2266 
Q 2766 2663 2505 2880 
Q 2244 3097 1772 3097 
Q 1472 3097 1187 3025 
Q 903 2953 641 2809 
L 641 3341 
Q 956 3463 1253 3523 
Q 1550 3584 1831 3584 
Q 2591 3584 2966 3190 
Q 3341 2797 3341 1997 
z
M 1236 5025 
Q 1586 5184 1914 5184 
Q 2239 5184 2437 5051 
Q 2636 4919 2636 4709 
Q 2636 4519 2361 4316 
L 2223 4216 
Q 2114 4134 2102 4106 
Q 2080 4056 2080 3956 
L 1708 3956 
L 1708 3994 
Q 1708 4119 1755 4203 
Q 1802 4288 1961 4403 
L 2102 4509 
Q 2245 4616 2245 4741 
Q 2245 4806 2148 4862 
Q 2052 4919 1830 4919 
Q 1548 4919 1236 4756 
L 1236 5025 
z
" id="DejaVuSans-1ea3" transform="scale(0.015625)"/>
       <path d="M 603 3500 
L 1178 3500 
L 1178 0 
L 603 0 
L 603 3500 
z
M 603 4863 
L 1178 4863 
L 1178 4134 
L 603 4134 
L 603 4863 
z
" id="DejaVuSans-69" transform="scale(0.015625)"/>
       <path d="M 1959 3097 
Q 1497 3097 1228 2736 
Q 959 2375 959 1747 
Q 959 1119 1226 758 
Q 1494 397 1959 397 
Q 2419 397 2687 759 
Q 2956 1122 2956 1747 
Q 2956 2369 2687 2733 
Q 2419 3097 1959 3097 
z
M 1959 3584 
Q 2709 3584 3137 3096 
Q 3566 2609 3566 1747 
Q 3566 888 3137 398 
Q 2709 -91 1959 -91 
Q 1206 -91 779 398 
Q 353 888 353 1747 
Q 353 2609 779 3096 
Q 1206 3584 1959 3584 
z
M 1729 5119 
L 2191 5119 
L 2957 3944 
L 2523 3944 
L 1960 4709 
L 1398 3944 
L 963 3944 
L 1729 5119 
z
" id="DejaVuSans-f4" transform="scale(0.015625)"/>
      </defs>
      <use xlink:href="#DejaVuSans-44"/>
      <use x="77.001953" xlink:href="#DejaVuSans-1ea3"/>
      <use x="138.28125" xlink:href="#DejaVuSans-69"/>
      <use x="166.064453" xlink:href="#DejaVuSans-20"/>
      <use x="197.851562" xlink:href="#DejaVuSans-74"/>
      <use x="237.060547" xlink:href="#DejaVuSans-68"/>
      <use x="300.439453" xlink:href="#DejaVuSans-f4"/>
      <use x="361.621094" xlink:href="#DejaVuSans-6e"/>
      <use x="425" xlink:href="#DejaVuSans-67"/>
     </g>
    </g>
    <g id="line2d_33">
     <path d="M 278.403125 56.739688 
L 298.403125 56.739688 
" style="fill:none;stroke:#ff7f0e;stroke-dasharray:3.7,1.6;stroke-dashoffset:0;"/>
    </g>
    <g id="line2d_34"/>
    <g id="text_18">
     <!-- Dải dừng -->
     <g transform="translate(306.403125 60.239688)scale(0.1 -0.1)">
      <defs>
       <path d="M 1531 5119 
L 2412 3950 
L 1934 3950 
L 915 5119 
L 1531 5119 
z
M 3094 3136 
L 3094 3508 
Q 3285 3367 3422 3300 
Q 3560 3233 3657 3233 
Q 3800 3233 3872 3319 
Q 3944 3405 3944 3573 
Q 3944 3673 3920 3770 
Q 3897 3867 3850 3964 
L 4266 3964 
Q 4297 3845 4312 3739 
Q 4328 3633 4328 3539 
Q 4328 3158 4192 2978 
Q 4057 2798 3766 2798 
Q 3616 2798 3452 2881 
Q 3288 2964 3094 3136 
z
M 552 1381 
L 552 3500 
L 1127 3500 
L 1127 1403 
Q 1127 906 1320 657 
Q 1514 409 1902 409 
Q 2367 409 2637 706 
Q 2908 1003 2908 1516 
L 2908 3500 
L 3483 3500 
L 3483 0 
L 2908 0 
L 2908 538 
Q 2699 219 2422 64 
Q 2146 -91 1780 -91 
Q 1177 -91 864 284 
Q 552 659 552 1381 
z
M 1999 3584 
L 1999 3584 
z
" id="DejaVuSans-1eeb" transform="scale(0.015625)"/>
      </defs>
      <use xlink:href="#DejaVuSans-44"/>
      <use x="77.001953" xlink:href="#DejaVuSans-1ea3"/>
      <use x="138.28125" xlink:href="#DejaVuSans-69"/>
      <use x="166.064453" xlink:href="#DejaVuSans-20"/>
      <use x="197.851562" xlink:href="#DejaVuSans-64"/>
      <use x="261.328125" xlink:href="#DejaVuSans-1eeb"/>
      <use x="324.707031" xlink:href="#DejaVuSans-6e"/>
      <use x="388.085938" xlink:href="#DejaVuSans-67"/>
     </g>
    </g>
    <g id="line2d_35">
     <path d="M 278.403125 71.417812 
L 298.403125 71.417812 
" style="fill:none;stroke:#ff0000;stroke-dasharray:3.7,1.6;stroke-dashoffset:0;"/>
    </g>
    <g id="line2d_36"/>
    <g id="text_19">
     <!-- 24 khz -->
     <g transform="translate(306.403125 74.917812)scale(0.1 -0.1)">
      <use xlink:href="#DejaVuSans-32"/>
      <use x="63.623047" xlink:href="#DejaVuSans-34"/>
      <use x="127.246094" xlink:href="#DejaVuSans-20"/>
      <use x="159.033203" xlink:href="#DejaVuSans-6b"/>
      <use x="216.943359" xlink:href="#DejaVuSans-68"/>
      <use x="280.322266" xlink:href="#DejaVuSans-7a"/>
     </g>
    </g>
   </g>
  </g>
  <g id="axes_2">
   <g id="patch_8">
    <path d="M 404.19 174.04 
L 709.2 174.04 
L 709.2 27.96 
L 404.19 27.96 
z
" style="fill:#ffffff;"/>
   </g>
   <g id="matplotlib.axis_3">
    <g id="xtick_7">
     <g id="line2d_37">
      <path clip-path="url(#p2615da4af8)" d="M 404.19 174.04 
L 404.19 27.96 
" style="fill:none;stroke:#b0b0b0;stroke-linecap:square;stroke-width:0.8;"/>
     </g>
     <g id="line2d_38">
      <g>
       <use style="stroke:#000000;stroke-width:0.8;" x="404.19" xlink:href="#m54d5c93cde" y="174.04"/>
      </g>
     </g>
     <g id="text_20">
      <!-- 0 -->
      <g transform="translate(401.00875 188.638438)scale(0.1 -0.1)">
       <use xlink:href="#DejaVuSans-30"/>
      </g>
     </g>
    </g>
    <g id="xtick_8">
     <g id="line2d_39">
      <path clip-path="url(#p2615da4af8)" d="M 438.850227 174.04 
L 438.850227 27.96 
" style="fill:none;stroke:#b0b0b0;stroke-linecap:square;stroke-width:0.8;"/>
     </g>
     <g id="line2d_40">
      <g>
       <use style="stroke:#000000;stroke-width:0.8;" x="438.850227" xlink:href="#m54d5c93cde" y="174.04"/>
      </g>
     </g>
     <g id="text_21">
      <!-- 5 -->
      <g transform="translate(435.668977 188.638438)scale(0.1 -0.1)">
       <defs>
        <path d="M 691 4666 
L 3169 4666 
L 3169 4134 
L 1269 4134 
L 1269 2991 
Q 1406 3038 1543 3061 
Q 1681 3084 1819 3084 
Q 2600 3084 3056 2656 
Q 3513 2228 3513 1497 
Q 3513 744 3044 326 
Q 2575 -91 1722 -91 
Q 1428 -91 1123 -41 
Q 819 9 494 109 
L 494 744 
Q 775 591 1075 516 
Q 1375 441 1709 441 
Q 2250 441 2565 725 
Q 2881 1009 2881 1497 
Q 2881 1984 2565 2268 
Q 2250 2553 1709 2553 
Q 1456 2553 1204 2497 
Q 953 2441 691 2322 
L 691 4666 
z
" id="DejaVuSans-35" transform="scale(0.015625)"/>
       </defs>
       <use xlink:href="#DejaVuSans-35"/>
      </g>
     </g>
    </g>
    <g id="xtick_9">
     <g id="line2d_41">
      <path clip-path="url(#p2615da4af8)" d="M 473.510455 174.04 
L 473.510455 27.96 
" style="fill:none;stroke:#b0b0b0;stroke-linecap:square;stroke-width:0.8;"/>
     </g>
     <g id="line2d_42">
      <g>
       <use style="stroke:#000000;stroke-width:0.8;" x="473.510455" xlink:href="#m54d5c93cde" y="174.04"/>
      </g>
     </g>
     <g id="text_22">
      <!-- 10 -->
      <g transform="translate(467.147955 188.638438)scale(0.1 -0.1)">
       <use xlink:href="#DejaVuSans-31"/>
       <use x="63.623047" xlink:href="#DejaVuSans-30"/>
      </g>
     </g>
    </g>
    <g id="xtick_10">
     <g id="line2d_43">
      <path clip-path="url(#p2615da4af8)" d="M 508.170682 174.04 
L 508.170682 27.96 
" style="fill:none;stroke:#b0b0b0;stroke-linecap:square;stroke-width:0.8;"/>
     </g>
     <g id="line2d_44">
      <g>
       <use style="stroke:#000000;stroke-width:0.8;" x="508.170682" xlink:href="#m54d5c93cde" y="174.04"/>
      </g>
     </g>
     <g id="text_23">
      <!-- 15 -->
      <g transform="translate(501.808182 188.638438)scale(0.1 -0.1)">
       <use xlink:href="#DejaVuSans-31"/>
       <use x="63.623047" xlink:href="#DejaVuSans-35"/>
      </g>
     </g>
    </g>
    <g id="xtick_11">
     <g id="line2d_45">
      <path clip-path="url(#p2615da4af8)" d="M 542.830909 174.04 
L 542.830909 27.96 
" style="fill:none;stroke:#b0b0b0;stroke-linecap:square;stroke-width:0.8;"/>
     </g>
     <g id="line2d_46">
      <g>
       <use style="stroke:#000000;stroke-width:0.8;" x="542.830909" xlink:href="#m54d5c93cde" y="174.04"/>
      </g>
     </g>
     <g id="text_24">
      <!-- 20 -->
      <g transform="translate(536.468409 188.638438)scale(0.1 -0.1)">
       <use xlink:href="#DejaVuSans-32"/>
       <use x="63.623047" xlink:href="#DejaVuSans-30"/>
      </g>
     </g>
    </g>
    <g id="xtick_12">
     <g id="line2d_47">
      <path clip-path="url(#p2615da4af8)" d="M 577.491136 174.04 
L 577.491136 27.96 
" style="fill:none;stroke:#b0b0b0;stroke-linecap:square;stroke-width:0.8;"/>
     </g>
     <g id="line2d_48">
      <g>
       <use style="stroke:#000000;stroke-width:0.8;" x="577.491136" xlink:href="#m54d5c93cde" y="174.04"/>
      </g>
     </g>
     <g id="text_25">
      <!-- 25 -->
      <g transform="translate(571.128636 188.638438)scale(0.1 -0.1)">
       <use xlink:href="#DejaVuSans-32"/>
       <use x="63.623047" xlink:href="#DejaVuSans-35"/>
      </g>
     </g>
    </g>
    <g id="xtick_13">
     <g id="line2d_49">
      <path clip-path="url(#p2615da4af8)" d="M 612.151364 174.04 
L 612.151364 27.96 
" style="fill:none;stroke:#b0b0b0;stroke-linecap:square;stroke-width:0.8;"/>
     </g>
     <g id="line2d_50">
      <g>
       <use style="stroke:#000000;stroke-width:0.8;" x="612.151364" xlink:href="#m54d5c93cde" y="174.04"/>
      </g>
     </g>
     <g id="text_26">
      <!-- 30 -->
      <g transform="translate(605.788864 188.638438)scale(0.1 -0.1)">
       <defs>
        <path d="M 2597 2516 
Q 3050 2419 3304 2112 
Q 3559 1806 3559 1356 
Q 3559 666 3084 287 
Q 2609 -91 1734 -91 
Q 1441 -91 1130 -33 
Q 819 25 488 141 
L 488 750 
Q 750 597 1062 519 
Q 1375 441 1716 441 
Q 2309 441 2620 675 
Q 2931 909 2931 1356 
Q 2931 1769 2642 2001 
Q 2353 2234 1838 2234 
L 1294 2234 
L 1294 2753 
L 1863 2753 
Q 2328 2753 2575 2939 
Q 2822 3125 2822 3475 
Q 2822 3834 2567 4026 
Q 2313 4219 1838 4219 
Q 1578 4219 1281 4162 
Q 984 4106 628 3988 
L 628 4550 
Q 988 4650 1302 4700 
Q 1616 4750 1894 4750 
Q 2613 4750 3031 4423 
Q 3450 4097 3450 3541 
Q 3450 3153 3228 2886 
Q 3006 2619 2597 2516 
z
" id="DejaVuSans-33" transform="scale(0.015625)"/>
       </defs>
       <use xlink:href="#DejaVuSans-33"/>
       <use x="63.623047" xlink:href="#DejaVuSans-30"/>
      </g>
     </g>
    </g>
    <g id="xtick_14">
     <g id="line2d_51">
      <path clip-path="url(#p2615da4af8)" d="M 646.811591 174.04 
L 646.811591 27.96 
" style="fill:none;stroke:#b0b0b0;stroke-linecap:square;stroke-width:0.8;"/>
     </g>
     <g id="line2d_52">
      <g>
       <use style="stroke:#000000;stroke-width:0.8;" x="646.811591" xlink:href="#m54d5c93cde" y="174.04"/>
      </g>
     </g>
     <g id="text_27">
      <!-- 35 -->
      <g transform="translate(640.449091 188.638438)scale(0.1 -0.1)">
       <use xlink:href="#DejaVuSans-33"/>
       <use x="63.623047" xlink:href="#DejaVuSans-35"/>
      </g>
     </g>
    </g>
    <g id="xtick_15">
     <g id="line2d_53">
      <path clip-path="url(#p2615da4af8)" d="M 681.471818 174.04 
L 681.471818 27.96 
" style="fill:none;stroke:#b0b0b0;stroke-linecap:square;stroke-width:0.8;"/>
     </g>
     <g id="line2d_54">
      <g>
       <use style="stroke:#000000;stroke-width:0.8;" x="681.471818" xlink:href="#m54d5c93cde" y="174.04"/>
      </g>
     </g>
     <g id="text_28">
      <!-- 40 -->
      <g transform="translate(675.109318 188.638438)scale(0.1 -0.1)">
       <use xlink:href="#DejaVuSans-34"/>
       <use x="63.623047" xlink:href="#DejaVuSans-30"/>
      </g>
     </g>
    </g>
    <g id="text_29">
     <!-- n -->
     <g transform="translate(553.52625 202.316563)scale(0.1 -0.1)">
      <use xlink:href="#DejaVuSans-6e"/>
     </g>
    </g>
   </g>
   <g id="matplotlib.axis_4">
    <g id="ytick_8">
     <g id="line2d_55">
      <path clip-path="url(#p2615da4af8)" d="M 404.19 167.4 
L 709.2 167.4 
" style="fill:none;stroke:#b0b0b0;stroke-linecap:square;stroke-width:0.8;"/>
     </g>
     <g id="line2d_56">
      <g>
       <use style="stroke:#000000;stroke-width:0.8;" x="404.19" xlink:href="#mf5270b416d" y="167.4"/>
      </g>
     </g>
     <g id="text_30">
      <!-- 0.00 -->
      <g transform="translate(374.924375 171.199219)scale(0.1 -0.1)">
       <defs>
        <path d="M 684 794 
L 1344 794 
L 1344 0 
L 684 0 
L 684 794 
z
" id="DejaVuSans-2e" transform="scale(0.015625)"/>
       </defs>
       <use xlink:href="#DejaVuSans-30"/>
       <use x="63.623047" xlink:href="#DejaVuSans-2e"/>
       <use x="95.410156" xlink:href="#DejaVuSans-30"/>
       <use x="159.033203" xlink:href="#DejaVuSans-30"/>
      </g>
     </g>
    </g>
    <g id="ytick_9">
     <g id="line2d_57">
      <path clip-path="url(#p2615da4af8)" d="M 404.19 143.578713 
L 709.2 143.578713 
" style="fill:none;stroke:#b0b0b0;stroke-linecap:square;stroke-width:0.8;"/>
     </g>
     <g id="line2d_58">
      <g>
       <use style="stroke:#000000;stroke-width:0.8;" x="404.19" xlink:href="#mf5270b416d" y="143.578713"/>
      </g>
     </g>
     <g id="text_31">
      <!-- 0.01 -->
      <g transform="translate(374.924375 147.377932)scale(0.1 -0.1)">
       <use xlink:href="#DejaVuSans-30"/>
       <use x="63.623047" xlink:href="#DejaVuSans-2e"/>
       <use x="95.410156" xlink:href="#DejaVuSans-30"/>
       <use x="159.033203" xlink:href="#DejaVuSans-31"/>
      </g>
     </g>
    </g>
    <g id="ytick_10">
     <g id="line2d_59">
      <path clip-path="url(#p2615da4af8)" d="M 404.19 119.757426 
L 709.2 119.757426 
" style="fill:none;stroke:#b0b0b0;stroke-linecap:square;stroke-width:0.8;"/>
     </g>
     <g id="line2d_60">
      <g>
       <use style="stroke:#000000;stroke-width:0.8;" x="404.19" xlink:href="#mf5270b416d" y="119.757426"/>
      </g>
     </g>
     <g id="text_32">
      <!-- 0.02 -->
      <g transform="translate(374.924375 123.556644)scale(0.1 -0.1)">
       <use xlink:href="#DejaVuSans-30"/>
       <use x="63.623047" xlink:href="#DejaVuSans-2e"/>
       <use x="95.410156" xlink:href="#DejaVuSans-30"/>
       <use x="159.033203" xlink:href="#DejaVuSans-32"/>
      </g>
     </g>
    </g>
    <g id="ytick_11">
     <g id="line2d_61">
      <path clip-path="url(#p2615da4af8)" d="M 404.19 95.936138 
L 709.2 95.936138 
" style="fill:none;stroke:#b0b0b0;stroke-linecap:square;stroke-width:0.8;"/>
     </g>
     <g id="line2d_62">
      <g>
       <use style="stroke:#000000;stroke-width:0.8;" x="404.19" xlink:href="#mf5270b416d" y="95.936138"/>
      </g>
     </g>
     <g id="text_33">
      <!-- 0.03 -->
      <g transform="translate(374.924375 99.735357)scale(0.1 -0.1)">
       <use xlink:href="#DejaVuSans-30"/>
       <use x="63.623047" xlink:href="#DejaVuSans-2e"/>
       <use x="95.410156" xlink:href="#DejaVuSans-30"/>
       <use x="159.033203" xlink:href="#DejaVuSans-33"/>
      </g>
     </g>
    </g>
    <g id="ytick_12">
     <g id="line2d_63">
      <path clip-path="url(#p2615da4af8)" d="M 404.19 72.114851 
L 709.2 72.114851 
" style="fill:none;stroke:#b0b0b0;stroke-linecap:square;stroke-width:0.8;"/>
     </g>
     <g id="line2d_64">
      <g>
       <use style="stroke:#000000;stroke-width:0.8;" x="404.19" xlink:href="#mf5270b416d" y="72.114851"/>
      </g>
     </g>
     <g id="text_34">
      <!-- 0.04 -->
      <g transform="translate(374.924375 75.91407)scale(0.1 -0.1)">
       <use xlink:href="#DejaVuSans-30"/>
       <use x="63.623047" xlink:href="#DejaVuSans-2e"/>
       <use x="95.410156" xlink:href="#DejaVuSans-30"/>
       <use x="159.033203" xlink:href="#DejaVuSans-34"/>
      </g>
     </g>
    </g>
    <g id="ytick_13">
     <g id="line2d_65">
      <path clip-path="url(#p2615da4af8)" d="M 404.19 48.293564 
L 709.2 48.293564 
" style="fill:none;stroke:#b0b0b0;stroke-linecap:square;stroke-width:0.8;"/>
     </g>
     <g id="line2d_66">
      <g>
       <use style="stroke:#000000;stroke-width:0.8;" x="404.19" xlink:href="#mf5270b416d" y="48.293564"/>
      </g>
     </g>
     <g id="text_35">
      <!-- 0.05 -->
      <g transform="translate(374.924375 52.092783)scale(0.1 -0.1)">
       <use xlink:href="#DejaVuSans-30"/>
       <use x="63.623047" xlink:href="#DejaVuSans-2e"/>
       <use x="95.410156" xlink:href="#DejaVuSans-30"/>
       <use x="159.033203" xlink:href="#DejaVuSans-35"/>
      </g>
     </g>
    </g>
   </g>
   <g id="LineCollection_1">
    <path clip-path="url(#p2615da4af8)" d="M 404.19 167.4 
L 404.19 167.285121 
" style="fill:none;stroke:#1f77b4;stroke-width:1.5;"/>
    <path clip-path="url(#p2615da4af8)" d="M 411.122045 167.4 
L 411.122045 166.940484 
" style="fill:none;stroke:#1f77b4;stroke-width:1.5;"/>
    <path clip-path="url(#p2615da4af8)" d="M 418.054091 167.4 
L 418.054091 166.251211 
" style="fill:none;stroke:#1f77b4;stroke-width:1.5;"/>
    <path clip-path="url(#p2615da4af8)" d="M 424.986136 167.4 
L 424.986136 165.102422 
" style="fill:none;stroke:#1f77b4;stroke-width:1.5;"/>
    <path clip-path="url(#p2615da4af8)" d="M 431.918182 167.4 
L 431.918182 163.379239 
" style="fill:none;stroke:#1f77b4;stroke-width:1.5;"/>
    <path clip-path="url(#p2615da4af8)" d="M 438.850227 167.4 
L 438.850227 160.966782 
" style="fill:none;stroke:#1f77b4;stroke-width:1.5;"/>
    <path clip-path="url(#p2615da4af8)" d="M 445.782273 167.4 
L 445.782273 157.750173 
" style="fill:none;stroke:#1f77b4;stroke-width:1.5;"/>
    <path clip-path="url(#p2615da4af8)" d="M 452.714318 167.4 
L 452.714318 153.614533 
" style="fill:none;stroke:#1f77b4;stroke-width:1.5;"/>
    <path clip-path="url(#p2615da4af8)" d="M 459.646364 167.4 
L 459.646364 148.444983 
" style="fill:none;stroke:#1f77b4;stroke-width:1.5;"/>
    <path clip-path="url(#p2615da4af8)" d="M 466.578409 167.4 
L 466.578409 142.126644 
" style="fill:none;stroke:#1f77b4;stroke-width:1.5;"/>
    <path clip-path="url(#p2615da4af8)" d="M 473.510455 167.4 
L 473.510455 134.544637 
" style="fill:none;stroke:#1f77b4;stroke-width:1.5;"/>
    <path clip-path="url(#p2615da4af8)" d="M 480.4425 167.4 
L 480.4425 125.584083 
" style="fill:none;stroke:#1f77b4;stroke-width:1.5;"/>
    <path clip-path="url(#p2615da4af8)" d="M 487.374545 167.4 
L 487.374545 115.589619 
" style="fill:none;stroke:#1f77b4;stroke-width:1.5;"/>
    <path clip-path="url(#p2615da4af8)" d="M 494.306591 167.4 
L 494.306591 104.905882 
" style="fill:none;stroke:#1f77b4;stroke-width:1.5;"/>
    <path clip-path="url(#p2615da4af8)" d="M 501.238636 167.4 
L 501.238636 93.877509 
" style="fill:none;stroke:#1f77b4;stroke-width:1.5;"/>
    <path clip-path="url(#p2615da4af8)" d="M 508.170682 167.4 
L 508.170682 82.849135 
" style="fill:none;stroke:#1f77b4;stroke-width:1.5;"/>
    <path clip-path="url(#p2615da4af8)" d="M 515.102727 167.4 
L 515.102727 72.165398 
" style="fill:none;stroke:#1f77b4;stroke-width:1.5;"/>
    <path clip-path="url(#p2615da4af8)" d="M 522.034773 167.4 
L 522.034773 62.170934 
" style="fill:none;stroke:#1f77b4;stroke-width:1.5;"/>
    <path clip-path="url(#p2615da4af8)" d="M 528.966818 167.4 
L 528.966818 53.210381 
" style="fill:none;stroke:#1f77b4;stroke-width:1.5;"/>
    <path clip-path="url(#p2615da4af8)" d="M 535.898864 167.4 
L 535.898864 45.628374 
" style="fill:none;stroke:#1f77b4;stroke-width:1.5;"/>
    <path clip-path="url(#p2615da4af8)" d="M 542.830909 167.4 
L 542.830909 39.76955 
" style="fill:none;stroke:#1f77b4;stroke-width:1.5;"/>
    <path clip-path="url(#p2615da4af8)" d="M 549.762955 167.4 
L 549.762955 35.978547 
" style="fill:none;stroke:#1f77b4;stroke-width:1.5;"/>
    <path clip-path="url(#p2615da4af8)" d="M 556.695 167.4 
L 556.695 34.6 
" style="fill:none;stroke:#1f77b4;stroke-width:1.5;"/>
    <path clip-path="url(#p2615da4af8)" d="M 563.627045 167.4 
L 563.627045 35.978547 
" style="fill:none;stroke:#1f77b4;stroke-width:1.5;"/>
    <path clip-path="url(#p2615da4af8)" d="M 570.559091 167.4 
L 570.559091 39.76955 
" style="fill:none;stroke:#1f77b4;stroke-width:1.5;"/>
    <path clip-path="url(#p2615da4af8)" d="M 577.491136 167.4 
L 577.491136 45.628374 
" style="fill:none;stroke:#1f77b4;stroke-width:1.5;"/>
    <path clip-path="url(#p2615da4af8)" d="M 584.423182 167.4 
L 584.423182 53.210381 
" style="fill:none;stroke:#1f77b4;stroke-width:1.5;"/>
    <path clip-path="url(#p2615da4af8)" d="M 591.355227 167.4 
L 591.355227 62.170934 
" style="fill:none;stroke:#1f77b4;stroke-width:1.5;"/>
    <path clip-path="url(#p2615da4af8)" d="M 598.287273 167.4 
L 598.287273 72.165398 
" style="fill:none;stroke:#1f77b4;stroke-width:1.5;"/>
    <path clip-path="url(#p2615da4af8)" d="M 605.219318 167.4 
L 605.219318 82.849135 
" style="fill:none;stroke:#1f77b4;stroke-width:1.5;"/>
    <path clip-path="url(#p2615da4af8)" d="M 612.151364 167.4 
L 612.151364 93.877509 
" style="fill:none;stroke:#1f77b4;stroke-width:1.5;"/>
    <path clip-path="url(#p2615da4af8)" d="M 619.083409 167.4 
L 619.083409 104.905882 
" style="fill:none;stroke:#1f77b4;stroke-width:1.5;"/>
    <path clip-path="url(#p2615da4af8)" d="M 626.015455 167.4 
L 626.015455 115.589619 
" style="fill:none;stroke:#1f77b4;stroke-width:1.5;"/>
    <path clip-path="url(#p2615da4af8)" d="M 632.9475 167.4 
L 632.9475 125.584083 
" style="fill:none;stroke:#1f77b4;stroke-width:1.5;"/>
    <path clip-path="url(#p2615da4af8)" d="M 639.879545 167.4 
L 639.879545 134.544637 
" style="fill:none;stroke:#1f77b4;stroke-width:1.5;"/>
    <path clip-path="url(#p2615da4af8)" d="M 646.811591 167.4 
L 646.811591 142.126644 
" style="fill:none;stroke:#1f77b4;stroke-width:1.5;"/>
    <path clip-path="url(#p2615da4af8)" d="M 653.743636 167.4 
L 653.743636 148.444983 
" style="fill:none;stroke:#1f77b4;stroke-width:1.5;"/>
    <path clip-path="url(#p2615da4af8)" d="M 660.675682 167.4 
L 660.675682 153.614533 
" style="fill:none;stroke:#1f77b4;stroke-width:1.5;"/>
    <path clip-path="url(#p2615da4af8)" d="M 667.607727 167.4 
L 667.607727 157.750173 
" style="fill:none;stroke:#1f77b4;stroke-width:1.5;"/>
    <path clip-path="url(#p2615da4af8)" d="M 674.539773 167.4 
L 674.539773 160.966782 
" style="fill:none;stroke:#1f77b4;stroke-width:1.5;"/>
    <path clip-path="url(#p2615da4af8)" d="M 681.471818 167.4 
L 681.471818 163.379239 
" style="fill:none;stroke:#1f77b4;stroke-width:1.5;"/>
    <path clip-path="url(#p2615da4af8)" d="M 688.403864 167.4 
L 688.403864 165.102422 
" style="fill:none;stroke:#1f77b4;stroke-width:1.5;"/>
    <path clip-path="url(#p2615da4af8)" d="M 695.335909 167.4 
L 695.335909 166.251211 
" style="fill:none;stroke:#1f77b4;stroke-width:1.5;"/>
    <path clip-path="url(#p2615da4af8)" d="M 702.267955 167.4 
L 702.267955 166.940484 
" style="fill:none;stroke:#1f77b4;stroke-width:1.5;"/>
    <path clip-path="url(#p2615da4af8)" d="M 709.2 167.4 
L 709.2 167.285121 
" style="fill:none;stroke:#1f77b4;stroke-width:1.5;"/>
   </g>
   <g id="line2d_67">
    <defs>
     <path d="M 0 3 
C 0.795609 3 1.55874 2.683901 2.12132 2.12132 
C 2.683901 1.55874 3 0.795609 3 0 
C 3 -0.795609 2.683901 -1.55874 2.12132 -2.12132 
C 1.55874 -2.683901 0.795609 -3 0 -3 
C -0.795609 -3 -1.55874 -2.683901 -2.12132 -2.12132 
C -2.683901 -1.55874 -3 -0.795609 -3 0 
C -3 0.795609 -2.683901 1.55874 -2.12132 2.12132 
C -1.55874 2.683901 -0.795609 3 0 3 
z
" id="m8417a5d2a0" style="stroke:#1f77b4;"/>
    </defs>
    <g clip-path="url(#p2615da4af8)">
     <use style="fill:#1f77b4;stroke:#1f77b4;" x="404.19" xlink:href="#m8417a5d2a0" y="167.285121"/>
     <use style="fill:#1f77b4;stroke:#1f77b4;" x="411.122045" xlink:href="#m8417a5d2a0" y="166.940484"/>
     <use style="fill:#1f77b4;stroke:#1f77b4;" x="418.054091" xlink:href="#m8417a5d2a0" y="166.251211"/>
     <use style="fill:#1f77b4;stroke:#1f77b4;" x="424.986136" xlink:href="#m8417a5d2a0" y="165.102422"/>
     <use style="fill:#1f77b4;stroke:#1f77b4;" x="431.918182" xlink:href="#m8417a5d2a0" y="163.379239"/>
     <use style="fill:#1f77b4;stroke:#1f77b4;" x="438.850227" xlink:href="#m8417a5d2a0" y="160.966782"/>
     <use style="fill:#1f77b4;stroke:#1f77b4;" x="445.782273" xlink:href="#m8417a5d2a0" y="157.750173"/>
     <use style="fill:#1f77b4;stroke:#1f77b4;" x="452.714318" xlink:href="#m8417a5d2a0" y="153.614533"/>
     <use style="fill:#1f77b4;stroke:#1f77b4;" x="459.646364" xlink:href="#m8417a5d2a0" y="148.444983"/>
     <use style="fill:#1f77b4;stroke:#1f77b4;" x="466.578409" xlink:href="#m8417a5d2a0" y="142.126644"/>
     <use style="fill:#1f77b4;stroke:#1f77b4;" x="473.510455" xlink:href="#m8417a5d2a0" y="134.544637"/>
     <use style="fill:#1f77b4;stroke:#1f77b4;" x="480.4425" xlink:href="#m8417a5d2a0" y="125.584083"/>
     <use style="fill:#1f77b4;stroke:#1f77b4;" x="487.374545" xlink:href="#m8417a5d2a0" y="115.589619"/>
     <use style="fill:#1f77b4;stroke:#1f77b4;" x="494.306591" xlink:href="#m8417a5d2a0" y="104.905882"/>
     <use style="fill:#1f77b4;stroke:#1f77b4;" x="501.238636" xlink:href="#m8417a5d2a0" y="93.877509"/>
     <use style="fill:#1f77b4;stroke:#1f77b4;" x="508.170682" xlink:href="#m8417a5d2a0" y="82.849135"/>
     <use style="fill:#1f77b4;stroke:#1f77b4;" x="515.102727" xlink:href="#m8417a5d2a0" y="72.165398"/>
     <use style="fill:#1f77b4;stroke:#1f77b4;" x="522.034773" xlink:href="#m8417a5d2a0" y="62.170934"/>
     <use style="fill:#1f77b4;stroke:#1f77b4;" x="528.966818" xlink:href="#m8417a5d2a0" y="53.210381"/>
     <use style="fill:#1f77b4;stroke:#1f77b4;" x="535.898864" xlink:href="#m8417a5d2a0" y="45.628374"/>
     <use style="fill:#1f77b4;stroke:#1f77b4;" x="542.830909" xlink:href="#m8417a5d2a0" y="39.76955"/>
     <use style="fill:#1f77b4;stroke:#1f77b4;" x="549.762955" xlink:href="#m8417a5d2a0" y="35.978547"/>
     <use style="fill:#1f77b4;stroke:#1f77b4;" x="556.695" xlink:href="#m8417a5d2a0" y="34.6"/>
     <use style="fill:#1f77b4;stroke:#1f77b4;" x="563.627045" xlink:href="#m8417a5d2a0" y="35.978547"/>
     <use style="fill:#1f77b4;stroke:#1f77b4;" x="570.559091" xlink:href="#m8417a5d2a0" y="39.76955"/>
     <use style="fill:#1f77b4;stroke:#1f77b4;" x="577.491136" xlink:href="#m8417a5d2a0" y="45.628374"/>
     <use style="fill:#1f77b4;stroke:#1f77b4;" x="584.423182" xlink:href="#m8417a5d2a0" y="53.210381"/>
     <use style="fill:#1f77b4;stroke:#1f77b4;" x="591.355227" xlink:href="#m8417a5d2a0" y="62.170934"/>
     <use style="fill:#1f77b4;stroke:#1f77b4;" x="598.287273" xlink:href="#m8417a5d2a0" y="72.165398"/>
     <use style="fill:#1f77b4;stroke:#1f77b4;" x="605.219318" xlink:href="#m8417a5d2a0" y="82.849135"/>
     <use style="fill:#1f77b4;stroke:#1f77b4;" x="612.151364" xlink:href="#m8417a5d2a0" y="93.877509"/>
     <use style="fill:#1f77b4;stroke:#1f77b4;" x="619.083409" xlink:href="#m8417a5d2a0" y="104.905882"/>
     <use style="fill:#1f77b4;stroke:#1f77b4;" x="626.015455" xlink:href="#m8417a5d2a0" y="115.589619"/>
     <use style="fill:#1f77b4;stroke:#1f77b4;" x="632.9475" xlink:href="#m8417a5d2a0" y="125.584083"/>
     <use style="fill:#1f77b4;stroke:#1f77b4;" x="639.879545" xlink:href="#m8417a5d2a0" y="134.544637"/>
     <use style="fill:#1f77b4;stroke:#1f77b4;" x="646.811591" xlink:href="#m8417a5d2a0" y="142.126644"/>
     <use style="fill:#1f77b4;stroke:#1f77b4;" x="653.743636" xlink:href="#m8417a5d2a0" y="148.444983"/>
     <use style="fill:#1f77b4;stroke:#1f77b4;" x="660.675682" xlink:href="#m8417a5d2a0" y="153.614533"/>
     <use style="fill:#1f77b4;stroke:#1f77b4;" x="667.607727" xlink:href="#m8417a5d2a0" y="157.750173"/>
     <use style="fill:#1f77b4;stroke:#1f77b4;" x="674.539773" xlink:href="#m8417a5d2a0" y="160.966782"/>
     <use style="fill:#1f77b4;stroke:#1f77b4;" x="681.471818" xlink:href="#m8417a5d2a0" y="163.379239"/>
     <use style="fill:#1f77b4;stroke:#1f77b4;" x="688.403864" xlink:href="#m8417a5d2a0" y="165.102422"/>
     <use style="fill:#1f77b4;stroke:#1f77b4;" x="695.335909" xlink:href="#m8417a5d2a0" y="166.251211"/>
     <use style="fill:#1f77b4;stroke:#1f77b4;" x="702.267955" xlink:href="#m8417a5d2a0" y="166.940484"/>
     <use style="fill:#1f77b4;stroke:#1f77b4;" x="709.2" xlink:href="#m8417a5d2a0" y="167.285121"/>
    </g>
   </g>
   <g id="line2d_68">
    <path clip-path="url(#p2615da4af8)" d="M 404.19 167.4 
L 709.2 167.4 
" style="fill:none;stroke:#d62728;stroke-linecap:square;stroke-width:1.5;"/>
   </g>
   <g id="patch_9">
    <path d="M 404.19 174.04 
L 404.19 27.96 
" style="fill:none;stroke:#000000;stroke-linecap:square;stroke-linejoin:miter;stroke-width:0.8;"/>
   </g>
   <g id="patch_10">
    <path d="M 709.2 174.04 
L 709.2 27.96 
" style="fill:none;stroke:#000000;stroke-linecap:square;stroke-linejoin:miter;stroke-width:0.8;"/>
   </g>
   <g id="patch_11">
    <path d="M 404.19 174.04 
L 709.2 174.04 
" style="fill:none;stroke:#000000;stroke-linecap:square;stroke-linejoin:miter;stroke-width:0.8;"/>
   </g>
   <g id="patch_12">
    <path d="M 404.19 27.96 
L 709.2 27.96 
" style="fill:none;stroke:#000000;stroke-linecap:square;stroke-linejoin:miter;stroke-width:0.8;"/>
   </g>
   <g id="text_36">
    <!-- Đáp ứng xung -->
    <g transform="translate(514.366875 21.96)scale(0.12 -0.12)">
     <defs>
      <path d="M 3513 3500 
L 2247 1797 
L 3578 0 
L 2900 0 
L 1881 1375 
L 863 0 
L 184 0 
L 1544 1831 
L 300 3500 
L 978 3500 
L 1906 2253 
L 2834 3500 
L 3513 3500 
z
" id="DejaVuSans-78" transform="scale(0.015625)"/>
     </defs>
     <use xlink:href="#DejaVuSans-110"/>
     <use x="77.490234" xlink:href="#DejaVuSans-e1"/>
     <use x="138.769531" xlink:href="#DejaVuSans-70"/>
     <use x="202.246094" xlink:href="#DejaVuSans-20"/>
     <use x="234.033203" xlink:href="#DejaVuSans-1ee9"/>
     <use x="297.412109" xlink:href="#DejaVuSans-6e"/>
     <use x="360.791016" xlink:href="#DejaVuSans-67"/>
     <use x="424.267578" xlink:href="#DejaVuSans-20"/>
     <use x="456.054688" xlink:href="#DejaVuSans-78"/>
     <use x="515.234375" xlink:href="#DejaVuSans-75"/>
     <use x="578.613281" xlink:href="#DejaVuSans-6e"/>
     <use x="641.992188" xlink:href="#DejaVuSans-67"/>
    </g>
   </g>
  </g>
 </g>
 <defs>
  <clipPath id="pbe7eaee376">
   <rect height="146.08" width="305.01" x="59.24" y="27.96"/>
  </clipPath>
  <clipPath id="p2615da4af8">
   <rect height="146.08" width="305.01" x="404.19" y="27.96"/>
  </clipPath>
 </defs>
</svg>
