<?xml version="1.0" encoding="utf-8" standalone="no"?>
<!DOCTYPE svg PUBLIC "-//W3C//DTD SVG 1.1//EN"
  "http://www.w3.org/Graphics/SVG/1.1/DTD/svg11.dtd">
<svg height="288pt" version="1.1" viewBox="0 0 720 288" width="720pt" xmlns="http://www.w3.org/2000/svg" xmlns:xlink="http://www.w3.org/1999/xlink">
 <metadata>
  <rdf:RDF xmlns:cc="http://creativecommons.org/ns#" xmlns:dc="http://purl.org/dc/elements/1.1/" xmlns:rdf="http://www.w3.org/1999/02/22-rdf-syntax-ns#">
   <cc:Work>
    <dc:type rdf:resource="http://purl.org/dc/dcmitype/StillImage"/>
    <dc:date>2023-02-24T11:31:18.687640</dc:date>
    <dc:format>image/svg+xml</dc:format>
    <dc:creator>
     <cc:Agent>
      <dc:title>Matplotlib v3.4.3, https://matplotlib.org/</dc:title>
     </cc:Agent>
    </dc:creator>
   </cc:Work>
  </rdf:RDF>
 </metadata>
 <defs>
  <style type="text/css">*{stroke-linecap:butt;stroke-linejoin:round;}</style>
 </defs>
 <g id="figure_1">
  <g id="patch_1">
   <path d="M 0 288 
L 720 288 
L 720 0 
L 0 0 
z
" style="fill:#ffffff;"/>
  </g>
  <g id="axes_1">
   <g id="patch_2">
    <path d="M 90 256.32 
L 648 256.32 
L 648 34.56 
L 90 34.56 
z
" style="fill:#ffffff;"/>
   </g>
   <g id="patch_3">
    <path clip-path="url(#pa752776b11)" d="M 92.325 167.616 
L 231.825 167.616 
L 231.825 123.264 
L 92.325 123.264 
z
" style="fill:none;stroke:#000000;stroke-linejoin:miter;"/>
   </g>
   <g id="matplotlib.axis_1">
    <g id="xtick_1">
     <g id="line2d_1">
      <path clip-path="url(#pa752776b11)" d="M 90 256.32 
L 90 34.56 
" style="fill:none;stroke:#b0b0b0;stroke-linecap:square;stroke-width:0.8;"/>
     </g>
     <g id="line2d_2">
      <defs>
       <path d="M 0 0 
L 0 3.5 
" id="m43a7c1f8c3" style="stroke:#000000;stroke-width:0.8;"/>
      </defs>
      <g>
       <use style="stroke:#000000;stroke-width:0.8;" x="90" xlink:href="#m43a7c1f8c3" y="256.32"/>
      </g>
     </g>
     <g id="text_1">
      <!-- 0 Hz -->
      <g transform="translate(78.845313 270.918437)scale(0.1 -0.1)">
       <defs>
        <path d="M 2034 4250 
Q 1547 4250 1301 3770 
Q 1056 3291 1056 2328 
Q 1056 1369 1301 889 
Q 1547 409 2034 409 
Q 2525 409 2770 889 
Q 3016 1369 3016 2328 
Q 3016 3291 2770 3770 
Q 2525 4250 2034 4250 
z
M 2034 4750 
Q 2819 4750 3233 4129 
Q 3647 3509 3647 2328 
Q 3647 1150 3233 529 
Q 2819 -91 2034 -91 
Q 1250 -91 836 529 
Q 422 1150 422 2328 
Q 422 3509 836 4129 
Q 1250 4750 2034 4750 
z
" id="DejaVuSans-30" transform="scale(0.015625)"/>
        <path id="DejaVuSans-20" transform="scale(0.015625)"/>
        <path d="M 628 4666 
L 1259 4666 
L 1259 2753 
L 3553 2753 
L 3553 4666 
L 4184 4666 
L 4184 0 
L 3553 0 
L 3553 2222 
L 1259 2222 
L 1259 0 
L 628 0 
L 628 4666 
z
" id="DejaVuSans-48" transform="scale(0.015625)"/>
        <path d="M 353 3500 
L 3084 3500 
L 3084 2975 
L 922 459 
L 3084 459 
L 3084 0 
L 275 0 
L 275 525 
L 2438 3041 
L 353 3041 
L 353 3500 
z
" id="DejaVuSans-7a" transform="scale(0.015625)"/>
       </defs>
       <use xlink:href="#DejaVuSans-30"/>
       <use x="63.623047" xlink:href="#DejaVuSans-20"/>
       <use x="95.410156" xlink:href="#DejaVuSans-48"/>
       <use x="170.605469" xlink:href="#DejaVuSans-7a"/>
      </g>
     </g>
    </g>
    <g id="xtick_2">
     <g id="line2d_3">
      <path clip-path="url(#pa752776b11)" d="M 206.25 256.32 
L 206.25 34.56 
" style="fill:none;stroke:#b0b0b0;stroke-linecap:square;stroke-width:0.8;"/>
     </g>
     <g id="line2d_4">
      <g>
       <use style="stroke:#000000;stroke-width:0.8;" x="206.25" xlink:href="#m43a7c1f8c3" y="256.32"/>
      </g>
     </g>
     <g id="text_2">
      <!-- 5 kHz -->
      <g transform="translate(192.2 270.918437)scale(0.1 -0.1)">
       <defs>
        <path d="M 691 4666 
L 3169 4666 
L 3169 4134 
L 1269 4134 
L 1269 2991 
Q 1406 3038 1543 3061 
Q 1681 3084 1819 3084 
Q 2600 3084 3056 2656 
Q 3513 2228 3513 1497 
Q 3513 744 3044 326 
Q 2575 -91 1722 -91 
Q 1428 -91 1123 -41 
Q 819 9 494 109 
L 494 744 
Q 775 591 1075 516 
Q 1375 441 1709 441 
Q 2250 441 2565 725 
Q 2881 1009 2881 1497 
Q 2881 1984 2565 2268 
Q 2250 2553 1709 2553 
Q 1456 2553 1204 2497 
Q 953 2441 691 2322 
L 691 4666 
z
" id="DejaVuSans-35" transform="scale(0.015625)"/>
        <path d="M 581 4863 
L 1159 4863 
L 1159 1991 
L 2875 3500 
L 3609 3500 
L 1753 1863 
L 3688 0 
L 2938 0 
L 1159 1709 
L 1159 0 
L 581 0 
L 581 4863 
z
" id="DejaVuSans-6b" transform="scale(0.015625)"/>
       </defs>
       <use xlink:href="#DejaVuSans-35"/>
       <use x="63.623047" xlink:href="#DejaVuSans-20"/>
       <use x="95.410156" xlink:href="#DejaVuSans-6b"/>
       <use x="153.320312" xlink:href="#DejaVuSans-48"/>
       <use x="228.515625" xlink:href="#DejaVuSans-7a"/>
      </g>
     </g>
    </g>
    <g id="xtick_3">
     <g id="line2d_5">
      <path clip-path="url(#pa752776b11)" d="M 322.5 256.32 
L 322.5 34.56 
" style="fill:none;stroke:#b0b0b0;stroke-linecap:square;stroke-width:0.8;"/>
     </g>
     <g id="line2d_6">
      <g>
       <use style="stroke:#000000;stroke-width:0.8;" x="322.5" xlink:href="#m43a7c1f8c3" y="256.32"/>
      </g>
     </g>
     <g id="text_3">
      <!-- 10 kHz -->
      <g transform="translate(305.26875 270.918437)scale(0.1 -0.1)">
       <defs>
        <path d="M 794 531 
L 1825 531 
L 1825 4091 
L 703 3866 
L 703 4441 
L 1819 4666 
L 2450 4666 
L 2450 531 
L 3481 531 
L 3481 0 
L 794 0 
L 794 531 
z
" id="DejaVuSans-31" transform="scale(0.015625)"/>
       </defs>
       <use xlink:href="#DejaVuSans-31"/>
       <use x="63.623047" xlink:href="#DejaVuSans-30"/>
       <use x="127.246094" xlink:href="#DejaVuSans-20"/>
       <use x="159.033203" xlink:href="#DejaVuSans-6b"/>
       <use x="216.943359" xlink:href="#DejaVuSans-48"/>
       <use x="292.138672" xlink:href="#DejaVuSans-7a"/>
      </g>
     </g>
    </g>
    <g id="xtick_4">
     <g id="line2d_7">
      <path clip-path="url(#pa752776b11)" d="M 438.75 256.32 
L 438.75 34.56 
" style="fill:none;stroke:#b0b0b0;stroke-linecap:square;stroke-width:0.8;"/>
     </g>
     <g id="line2d_8">
      <g>
       <use style="stroke:#000000;stroke-width:0.8;" x="438.75" xlink:href="#m43a7c1f8c3" y="256.32"/>
      </g>
     </g>
     <g id="text_4">
      <!-- 15 kHz -->
      <g transform="translate(421.51875 270.918437)scale(0.1 -0.1)">
       <use xlink:href="#DejaVuSans-31"/>
       <use x="63.623047" xlink:href="#DejaVuSans-35"/>
       <use x="127.246094" xlink:href="#DejaVuSans-20"/>
       <use x="159.033203" xlink:href="#DejaVuSans-6b"/>
       <use x="216.943359" xlink:href="#DejaVuSans-48"/>
       <use x="292.138672" xlink:href="#DejaVuSans-7a"/>
      </g>
     </g>
    </g>
    <g id="xtick_5">
     <g id="line2d_9">
      <path clip-path="url(#pa752776b11)" d="M 555 256.32 
L 555 34.56 
" style="fill:none;stroke:#b0b0b0;stroke-linecap:square;stroke-width:0.8;"/>
     </g>
     <g id="line2d_10">
      <g>
       <use style="stroke:#000000;stroke-width:0.8;" x="555" xlink:href="#m43a7c1f8c3" y="256.32"/>
      </g>
     </g>
     <g id="text_5">
      <!-- 20 kHz -->
      <g transform="translate(537.76875 270.918437)scale(0.1 -0.1)">
       <defs>
        <path d="M 1228 531 
L 3431 531 
L 3431 0 
L 469 0 
L 469 531 
Q 828 903 1448 1529 
Q 2069 2156 2228 2338 
Q 2531 2678 2651 2914 
Q 2772 3150 2772 3378 
Q 2772 3750 2511 3984 
Q 2250 4219 1831 4219 
Q 1534 4219 1204 4116 
Q 875 4013 500 3803 
L 500 4441 
Q 881 4594 1212 4672 
Q 1544 4750 1819 4750 
Q 2544 4750 2975 4387 
Q 3406 4025 3406 3419 
Q 3406 3131 3298 2873 
Q 3191 2616 2906 2266 
Q 2828 2175 2409 1742 
Q 1991 1309 1228 531 
z
" id="DejaVuSans-32" transform="scale(0.015625)"/>
       </defs>
       <use xlink:href="#DejaVuSans-32"/>
       <use x="63.623047" xlink:href="#DejaVuSans-30"/>
       <use x="127.246094" xlink:href="#DejaVuSans-20"/>
       <use x="159.033203" xlink:href="#DejaVuSans-6b"/>
       <use x="216.943359" xlink:href="#DejaVuSans-48"/>
       <use x="292.138672" xlink:href="#DejaVuSans-7a"/>
      </g>
     </g>
    </g>
    <g id="text_6">
     <!-- Tần số -->
     <g transform="translate(352.460156 284.596563)scale(0.1 -0.1)">
      <defs>
       <path d="M -19 4666 
L 3928 4666 
L 3928 4134 
L 2272 4134 
L 2272 0 
L 1638 0 
L 1638 4134 
L -19 4134 
L -19 4666 
z
" id="DejaVuSans-54" transform="scale(0.015625)"/>
       <path d="M 2194 1759 
Q 1497 1759 1228 1600 
Q 959 1441 959 1056 
Q 959 750 1161 570 
Q 1363 391 1709 391 
Q 2188 391 2477 730 
Q 2766 1069 2766 1631 
L 2766 1759 
L 2194 1759 
z
M 3341 1997 
L 3341 0 
L 2766 0 
L 2766 531 
Q 2569 213 2275 61 
Q 1981 -91 1556 -91 
Q 1019 -91 701 211 
Q 384 513 384 1019 
Q 384 1609 779 1909 
Q 1175 2209 1959 2209 
L 2766 2209 
L 2766 2266 
Q 2766 2663 2505 2880 
Q 2244 3097 1772 3097 
Q 1472 3097 1187 3025 
Q 903 2953 641 2809 
L 641 3341 
Q 956 3463 1253 3523 
Q 1550 3584 1831 3584 
Q 2591 3584 2966 3190 
Q 3341 2797 3341 1997 
z
M 2590 5409 
L 3202 4584 
L 2724 4584 
L 2006 5409 
L 2590 5409 
z
M 1554 4775 
L 2142 4775 
L 2801 3944 
L 2367 3944 
L 1848 4500 
L 1329 3944 
L 895 3944 
L 1554 4775 
z
" id="DejaVuSans-1ea7" transform="scale(0.015625)"/>
       <path d="M 3513 2113 
L 3513 0 
L 2938 0 
L 2938 2094 
Q 2938 2591 2744 2837 
Q 2550 3084 2163 3084 
Q 1697 3084 1428 2787 
Q 1159 2491 1159 1978 
L 1159 0 
L 581 0 
L 581 3500 
L 1159 3500 
L 1159 2956 
Q 1366 3272 1645 3428 
Q 1925 3584 2291 3584 
Q 2894 3584 3203 3211 
Q 3513 2838 3513 2113 
z
" id="DejaVuSans-6e" transform="scale(0.015625)"/>
       <path d="M 2834 3397 
L 2834 2853 
Q 2591 2978 2328 3040 
Q 2066 3103 1784 3103 
Q 1356 3103 1142 2972 
Q 928 2841 928 2578 
Q 928 2378 1081 2264 
Q 1234 2150 1697 2047 
L 1894 2003 
Q 2506 1872 2764 1633 
Q 3022 1394 3022 966 
Q 3022 478 2636 193 
Q 2250 -91 1575 -91 
Q 1294 -91 989 -36 
Q 684 19 347 128 
L 347 722 
Q 666 556 975 473 
Q 1284 391 1588 391 
Q 1994 391 2212 530 
Q 2431 669 2431 922 
Q 2431 1156 2273 1281 
Q 2116 1406 1581 1522 
L 1381 1569 
Q 847 1681 609 1914 
Q 372 2147 372 2553 
Q 372 3047 722 3315 
Q 1072 3584 1716 3584 
Q 2034 3584 2315 3537 
Q 2597 3491 2834 3397 
z
" id="DejaVuSans-73" transform="scale(0.015625)"/>
       <path d="M 1658 4775 
L 2246 4775 
L 2905 3944 
L 2471 3944 
L 1952 4500 
L 1433 3944 
L 999 3944 
L 1658 4775 
z
M 3268 5409 
L 3846 5409 
L 3134 4584 
L 2655 4584 
L 3268 5409 
z
M 1959 3097 
Q 1497 3097 1228 2736 
Q 959 2375 959 1747 
Q 959 1119 1226 758 
Q 1494 397 1959 397 
Q 2419 397 2687 759 
Q 2956 1122 2956 1747 
Q 2956 2369 2687 2733 
Q 2419 3097 1959 3097 
z
M 1959 3584 
Q 2709 3584 3137 3096 
Q 3566 2609 3566 1747 
Q 3566 888 3137 398 
Q 2709 -91 1959 -91 
Q 1206 -91 779 398 
Q 353 888 353 1747 
Q 353 2609 779 3096 
Q 1206 3584 1959 3584 
z
" id="DejaVuSans-1ed1" transform="scale(0.015625)"/>
      </defs>
      <use xlink:href="#DejaVuSans-54"/>
      <use x="61.083984" xlink:href="#DejaVuSans-1ea7"/>
      <use x="122.363281" xlink:href="#DejaVuSans-6e"/>
      <use x="185.742188" xlink:href="#DejaVuSans-20"/>
      <use x="217.529297" xlink:href="#DejaVuSans-73"/>
      <use x="269.628906" xlink:href="#DejaVuSans-1ed1"/>
     </g>
    </g>
   </g>
   <g id="matplotlib.axis_2">
    <g id="ytick_1">
     <g id="line2d_11">
      <path clip-path="url(#pa752776b11)" d="M 90 234.144 
L 648 234.144 
" style="fill:none;stroke:#b0b0b0;stroke-linecap:square;stroke-width:0.8;"/>
     </g>
     <g id="line2d_12">
      <defs>
       <path d="M 0 0 
L -3.5 0 
" id="m9fb6c58596" style="stroke:#000000;stroke-width:0.8;"/>
      </defs>
      <g>
       <use style="stroke:#000000;stroke-width:0.8;" x="90" xlink:href="#m9fb6c58596" y="234.144"/>
      </g>
     </g>
     <g id="text_7">
      <!-- −0.4 -->
      <g transform="translate(58.717187 237.943219)scale(0.1 -0.1)">
       <defs>
        <path d="M 678 2272 
L 4684 2272 
L 4684 1741 
L 678 1741 
L 678 2272 
z
" id="DejaVuSans-2212" transform="scale(0.015625)"/>
        <path d="M 684 794 
L 1344 794 
L 1344 0 
L 684 0 
L 684 794 
z
" id="DejaVuSans-2e" transform="scale(0.015625)"/>
        <path d="M 2419 4116 
L 825 1625 
L 2419 1625 
L 2419 4116 
z
M 2253 4666 
L 3047 4666 
L 3047 1625 
L 3713 1625 
L 3713 1100 
L 3047 1100 
L 3047 0 
L 2419 0 
L 2419 1100 
L 313 1100 
L 313 1709 
L 2253 4666 
z
" id="DejaVuSans-34" transform="scale(0.015625)"/>
       </defs>
       <use xlink:href="#DejaVuSans-2212"/>
       <use x="83.789062" xlink:href="#DejaVuSans-30"/>
       <use x="147.412109" xlink:href="#DejaVuSans-2e"/>
       <use x="179.199219" xlink:href="#DejaVuSans-34"/>
      </g>
     </g>
    </g>
    <g id="ytick_2">
     <g id="line2d_13">
      <path clip-path="url(#pa752776b11)" d="M 90 189.792 
L 648 189.792 
" style="fill:none;stroke:#b0b0b0;stroke-linecap:square;stroke-width:0.8;"/>
     </g>
     <g id="line2d_14">
      <g>
       <use style="stroke:#000000;stroke-width:0.8;" x="90" xlink:href="#m9fb6c58596" y="189.792"/>
      </g>
     </g>
     <g id="text_8">
      <!-- −0.2 -->
      <g transform="translate(58.717187 193.591219)scale(0.1 -0.1)">
       <use xlink:href="#DejaVuSans-2212"/>
       <use x="83.789062" xlink:href="#DejaVuSans-30"/>
       <use x="147.412109" xlink:href="#DejaVuSans-2e"/>
       <use x="179.199219" xlink:href="#DejaVuSans-32"/>
      </g>
     </g>
    </g>
    <g id="ytick_3">
     <g id="line2d_15">
      <path clip-path="url(#pa752776b11)" d="M 90 145.44 
L 648 145.44 
" style="fill:none;stroke:#b0b0b0;stroke-linecap:square;stroke-width:0.8;"/>
     </g>
     <g id="line2d_16">
      <g>
       <use style="stroke:#000000;stroke-width:0.8;" x="90" xlink:href="#m9fb6c58596" y="145.44"/>
      </g>
     </g>
     <g id="text_9">
      <!-- 0.0 -->
      <g transform="translate(67.096875 149.239219)scale(0.1 -0.1)">
       <use xlink:href="#DejaVuSans-30"/>
       <use x="63.623047" xlink:href="#DejaVuSans-2e"/>
       <use x="95.410156" xlink:href="#DejaVuSans-30"/>
      </g>
     </g>
    </g>
    <g id="ytick_4">
     <g id="line2d_17">
      <path clip-path="url(#pa752776b11)" d="M 90 101.088 
L 648 101.088 
" style="fill:none;stroke:#b0b0b0;stroke-linecap:square;stroke-width:0.8;"/>
     </g>
     <g id="line2d_18">
      <g>
       <use style="stroke:#000000;stroke-width:0.8;" x="90" xlink:href="#m9fb6c58596" y="101.088"/>
      </g>
     </g>
     <g id="text_10">
      <!-- 0.2 -->
      <g transform="translate(67.096875 104.887219)scale(0.1 -0.1)">
       <use xlink:href="#DejaVuSans-30"/>
       <use x="63.623047" xlink:href="#DejaVuSans-2e"/>
       <use x="95.410156" xlink:href="#DejaVuSans-32"/>
      </g>
     </g>
    </g>
    <g id="ytick_5">
     <g id="line2d_19">
      <path clip-path="url(#pa752776b11)" d="M 90 56.736 
L 648 56.736 
" style="fill:none;stroke:#b0b0b0;stroke-linecap:square;stroke-width:0.8;"/>
     </g>
     <g id="line2d_20">
      <g>
       <use style="stroke:#000000;stroke-width:0.8;" x="90" xlink:href="#m9fb6c58596" y="56.736"/>
      </g>
     </g>
     <g id="text_11">
      <!-- 0.4 -->
      <g transform="translate(67.096875 60.535219)scale(0.1 -0.1)">
       <use xlink:href="#DejaVuSans-30"/>
       <use x="63.623047" xlink:href="#DejaVuSans-2e"/>
       <use x="95.410156" xlink:href="#DejaVuSans-34"/>
      </g>
     </g>
    </g>
    <g id="text_12">
     <!-- Suy hao (dB) -->
     <g transform="translate(52.6375 177.718906)rotate(-90)scale(0.1 -0.1)">
      <defs>
       <path d="M 3425 4513 
L 3425 3897 
Q 3066 4069 2747 4153 
Q 2428 4238 2131 4238 
Q 1616 4238 1336 4038 
Q 1056 3838 1056 3469 
Q 1056 3159 1242 3001 
Q 1428 2844 1947 2747 
L 2328 2669 
Q 3034 2534 3370 2195 
Q 3706 1856 3706 1288 
Q 3706 609 3251 259 
Q 2797 -91 1919 -91 
Q 1588 -91 1214 -16 
Q 841 59 441 206 
L 441 856 
Q 825 641 1194 531 
Q 1563 422 1919 422 
Q 2459 422 2753 634 
Q 3047 847 3047 1241 
Q 3047 1584 2836 1778 
Q 2625 1972 2144 2069 
L 1759 2144 
Q 1053 2284 737 2584 
Q 422 2884 422 3419 
Q 422 4038 858 4394 
Q 1294 4750 2059 4750 
Q 2388 4750 2728 4690 
Q 3069 4631 3425 4513 
z
" id="DejaVuSans-53" transform="scale(0.015625)"/>
       <path d="M 544 1381 
L 544 3500 
L 1119 3500 
L 1119 1403 
Q 1119 906 1312 657 
Q 1506 409 1894 409 
Q 2359 409 2629 706 
Q 2900 1003 2900 1516 
L 2900 3500 
L 3475 3500 
L 3475 0 
L 2900 0 
L 2900 538 
Q 2691 219 2414 64 
Q 2138 -91 1772 -91 
Q 1169 -91 856 284 
Q 544 659 544 1381 
z
M 1991 3584 
L 1991 3584 
z
" id="DejaVuSans-75" transform="scale(0.015625)"/>
       <path d="M 2059 -325 
Q 1816 -950 1584 -1140 
Q 1353 -1331 966 -1331 
L 506 -1331 
L 506 -850 
L 844 -850 
Q 1081 -850 1212 -737 
Q 1344 -625 1503 -206 
L 1606 56 
L 191 3500 
L 800 3500 
L 1894 763 
L 2988 3500 
L 3597 3500 
L 2059 -325 
z
" id="DejaVuSans-79" transform="scale(0.015625)"/>
       <path d="M 3513 2113 
L 3513 0 
L 2938 0 
L 2938 2094 
Q 2938 2591 2744 2837 
Q 2550 3084 2163 3084 
Q 1697 3084 1428 2787 
Q 1159 2491 1159 1978 
L 1159 0 
L 581 0 
L 581 4863 
L 1159 4863 
L 1159 2956 
Q 1366 3272 1645 3428 
Q 1925 3584 2291 3584 
Q 2894 3584 3203 3211 
Q 3513 2838 3513 2113 
z
" id="DejaVuSans-68" transform="scale(0.015625)"/>
       <path d="M 2194 1759 
Q 1497 1759 1228 1600 
Q 959 1441 959 1056 
Q 959 750 1161 570 
Q 1363 391 1709 391 
Q 2188 391 2477 730 
Q 2766 1069 2766 1631 
L 2766 1759 
L 2194 1759 
z
M 3341 1997 
L 3341 0 
L 2766 0 
L 2766 531 
Q 2569 213 2275 61 
Q 1981 -91 1556 -91 
Q 1019 -91 701 211 
Q 384 513 384 1019 
Q 384 1609 779 1909 
Q 1175 2209 1959 2209 
L 2766 2209 
L 2766 2266 
Q 2766 2663 2505 2880 
Q 2244 3097 1772 3097 
Q 1472 3097 1187 3025 
Q 903 2953 641 2809 
L 641 3341 
Q 956 3463 1253 3523 
Q 1550 3584 1831 3584 
Q 2591 3584 2966 3190 
Q 3341 2797 3341 1997 
z
" id="DejaVuSans-61" transform="scale(0.015625)"/>
       <path d="M 1959 3097 
Q 1497 3097 1228 2736 
Q 959 2375 959 1747 
Q 959 1119 1226 758 
Q 1494 397 1959 397 
Q 2419 397 2687 759 
Q 2956 1122 2956 1747 
Q 2956 2369 2687 2733 
Q 2419 3097 1959 3097 
z
M 1959 3584 
Q 2709 3584 3137 3096 
Q 3566 2609 3566 1747 
Q 3566 888 3137 398 
Q 2709 -91 1959 -91 
Q 1206 -91 779 398 
Q 353 888 353 1747 
Q 353 2609 779 3096 
Q 1206 3584 1959 3584 
z
" id="DejaVuSans-6f" transform="scale(0.015625)"/>
       <path d="M 1984 4856 
Q 1566 4138 1362 3434 
Q 1159 2731 1159 2009 
Q 1159 1288 1364 580 
Q 1569 -128 1984 -844 
L 1484 -844 
Q 1016 -109 783 600 
Q 550 1309 550 2009 
Q 550 2706 781 3412 
Q 1013 4119 1484 4856 
L 1984 4856 
z
" id="DejaVuSans-28" transform="scale(0.015625)"/>
       <path d="M 2906 2969 
L 2906 4863 
L 3481 4863 
L 3481 0 
L 2906 0 
L 2906 525 
Q 2725 213 2448 61 
Q 2172 -91 1784 -91 
Q 1150 -91 751 415 
Q 353 922 353 1747 
Q 353 2572 751 3078 
Q 1150 3584 1784 3584 
Q 2172 3584 2448 3432 
Q 2725 3281 2906 2969 
z
M 947 1747 
Q 947 1113 1208 752 
Q 1469 391 1925 391 
Q 2381 391 2643 752 
Q 2906 1113 2906 1747 
Q 2906 2381 2643 2742 
Q 2381 3103 1925 3103 
Q 1469 3103 1208 2742 
Q 947 2381 947 1747 
z
" id="DejaVuSans-64" transform="scale(0.015625)"/>
       <path d="M 1259 2228 
L 1259 519 
L 2272 519 
Q 2781 519 3026 730 
Q 3272 941 3272 1375 
Q 3272 1813 3026 2020 
Q 2781 2228 2272 2228 
L 1259 2228 
z
M 1259 4147 
L 1259 2741 
L 2194 2741 
Q 2656 2741 2882 2914 
Q 3109 3088 3109 3444 
Q 3109 3797 2882 3972 
Q 2656 4147 2194 4147 
L 1259 4147 
z
M 628 4666 
L 2241 4666 
Q 2963 4666 3353 4366 
Q 3744 4066 3744 3513 
Q 3744 3084 3544 2831 
Q 3344 2578 2956 2516 
Q 3422 2416 3680 2098 
Q 3938 1781 3938 1306 
Q 3938 681 3513 340 
Q 3088 0 2303 0 
L 628 0 
L 628 4666 
z
" id="DejaVuSans-42" transform="scale(0.015625)"/>
       <path d="M 513 4856 
L 1013 4856 
Q 1481 4119 1714 3412 
Q 1947 2706 1947 2009 
Q 1947 1309 1714 600 
Q 1481 -109 1013 -844 
L 513 -844 
Q 928 -128 1133 580 
Q 1338 1288 1338 2009 
Q 1338 2731 1133 3434 
Q 928 4138 513 4856 
z
" id="DejaVuSans-29" transform="scale(0.015625)"/>
      </defs>
      <use xlink:href="#DejaVuSans-53"/>
      <use x="63.476562" xlink:href="#DejaVuSans-75"/>
      <use x="126.855469" xlink:href="#DejaVuSans-79"/>
      <use x="186.035156" xlink:href="#DejaVuSans-20"/>
      <use x="217.822266" xlink:href="#DejaVuSans-68"/>
      <use x="281.201172" xlink:href="#DejaVuSans-61"/>
      <use x="342.480469" xlink:href="#DejaVuSans-6f"/>
      <use x="403.662109" xlink:href="#DejaVuSans-20"/>
      <use x="435.449219" xlink:href="#DejaVuSans-28"/>
      <use x="474.462891" xlink:href="#DejaVuSans-64"/>
      <use x="537.939453" xlink:href="#DejaVuSans-42"/>
      <use x="606.542969" xlink:href="#DejaVuSans-29"/>
     </g>
    </g>
   </g>
   <g id="line2d_21">
    <path clip-path="url(#pa752776b11)" d="M 90 145.44 
L 171.738281 145.550657 
L 253.476562 145.882633 
L 335.214844 146.435944 
L 416.953125 147.210614 
L 498.691406 148.20668 
L 580.429688 149.424188 
L 649.089844 150.618064 
L 649.089844 150.618064 
" style="fill:none;stroke:#1f77b4;stroke-linecap:square;stroke-width:1.5;"/>
   </g>
   <g id="line2d_22">
    <path clip-path="url(#pa752776b11)" d="M 90 145.44 
L 139.054945 145.546283 
L 188.10989 145.865134 
L 237.164835 146.396564 
L 286.21978 147.140591 
L 335.274725 148.097239 
L 384.32967 149.266541 
L 433.384615 150.648534 
L 482.43956 152.243265 
L 531.494505 154.050787 
L 580.549451 156.071158 
L 629.604396 158.304447 
L 649.226374 159.257396 
L 649.226374 159.257396 
" style="fill:none;stroke:#ff7f0e;stroke-linecap:square;stroke-width:1.5;"/>
   </g>
   <g id="line2d_23">
    <path clip-path="url(#pa752776b11)" d="M 90 145.44 
L 125.964844 145.547116 
L 161.929688 145.868467 
L 197.894531 146.404062 
L 233.859375 147.153919 
L 269.824219 148.118059 
L 305.789062 149.296512 
L 341.753906 150.689313 
L 377.71875 152.296506 
L 413.683594 154.118137 
L 449.648438 156.154263 
L 485.613281 158.404945 
L 521.578125 160.870251 
L 557.542969 163.550257 
L 593.507812 166.445043 
L 629.472656 169.554697 
L 649.089844 171.34147 
L 649.089844 171.34147 
" style="fill:none;stroke:#2ca02c;stroke-linecap:square;stroke-width:1.5;"/>
   </g>
   <g id="line2d_24">
    <path clip-path="url(#pa752776b11)" d="M 90 145.44 
L 112.892308 145.541264 
L 135.784615 145.845057 
L 158.676923 146.351389 
L 181.569231 147.060271 
L 204.461538 147.971725 
L 227.353846 149.085773 
L 250.246154 150.402445 
L 273.138462 151.921778 
L 296.030769 153.64381 
L 318.923077 155.568588 
L 341.815385 157.696165 
L 364.707692 160.026595 
L 387.6 162.559942 
L 410.492308 165.296274 
L 433.384615 168.235664 
L 456.276923 171.37819 
L 479.169231 174.723936 
L 502.061538 178.272993 
L 524.953846 182.025455 
L 547.846154 185.981423 
L 570.738462 190.141003 
L 593.630769 194.504308 
L 616.523077 199.071453 
L 639.415385 203.842562 
L 649.226374 205.949793 
L 649.226374 205.949793 
" style="fill:none;stroke:#d62728;stroke-linecap:square;stroke-width:1.5;"/>
   </g>
   <g id="line2d_25">
    <path clip-path="url(#pa752776b11)" d="M 90 145.44 
L 106.347656 145.532952 
L 122.695312 145.811809 
L 139.042969 146.276579 
L 155.390625 146.927272 
L 171.738281 147.763905 
L 188.085938 148.786496 
L 204.433594 149.995071 
L 220.78125 151.389658 
L 237.128906 152.970292 
L 256.746094 155.112685 
L 276.363281 157.523113 
L 295.980469 160.201659 
L 315.597656 163.148414 
L 335.214844 166.363481 
L 354.832031 169.846971 
L 374.449219 173.599003 
L 394.066406 177.619708 
L 413.683594 181.909224 
L 433.300781 186.467701 
L 452.917969 191.295295 
L 472.535156 196.392174 
L 492.152344 201.758515 
L 511.769531 207.394505 
L 531.386719 213.300338 
L 551.003906 219.47622 
L 570.621094 225.922367 
L 590.238281 232.639002 
L 609.855469 239.62636 
L 629.472656 246.884685 
L 649.089844 254.414231 
L 649.089844 254.414231 
" style="fill:none;stroke:#9467bd;stroke-linecap:square;stroke-width:1.5;"/>
   </g>
   <g id="line2d_26">
    <path clip-path="url(#pa752776b11)" d="M 90 145.44 
L 103.090909 145.575295 
L 116.181818 145.981185 
L 129.272727 146.657684 
L 142.363636 147.604814 
L 155.454545 148.822609 
L 168.545455 150.311109 
L 181.636364 152.070366 
L 194.727273 154.100441 
L 207.818182 156.401401 
L 220.909091 158.973327 
L 234 161.816306 
L 247.090909 164.930436 
L 260.181818 168.315824 
L 273.272727 171.972585 
L 286.363636 175.900846 
L 299.454545 180.10074 
L 312.545455 184.572413 
L 325.636364 189.316018 
L 338.727273 194.331718 
L 351.818182 199.619686 
L 364.909091 205.180105 
L 378 211.013166 
L 391.090909 217.11907 
L 404.181818 223.498029 
L 417.272727 230.150263 
L 430.363636 237.076003 
L 443.454545 244.275488 
L 456.545455 251.748969 
L 469.636364 259.496705 
L 482.727273 267.518965 
L 495.818182 275.81603 
L 508.909091 284.388188 
L 515.782453 289 
L 515.782453 289 
" style="fill:none;stroke:#8c564b;stroke-linecap:square;stroke-width:1.5;"/>
   </g>
   <g id="line2d_27">
    <path clip-path="url(#pa752776b11)" d="M 90 145.44 
L 99.808594 145.575444 
L 109.617188 145.981781 
L 119.425781 146.659024 
L 129.234375 147.607198 
L 139.042969 148.826333 
L 148.851562 150.316471 
L 158.660156 152.077664 
L 168.46875 154.10997 
L 178.277344 156.41346 
L 188.085938 158.988212 
L 197.894531 161.834314 
L 207.703125 164.951861 
L 217.511719 168.340962 
L 227.320312 172.001732 
L 237.128906 175.934295 
L 246.9375 180.138786 
L 256.746094 184.615349 
L 266.554688 189.364137 
L 276.363281 194.385312 
L 286.171875 199.679047 
L 295.980469 205.245523 
L 305.789062 211.084931 
L 315.597656 217.197472 
L 325.40625 223.583356 
L 335.214844 230.242803 
L 345.023438 237.176042 
L 354.832031 244.383312 
L 364.640625 251.864862 
L 374.449219 259.620952 
L 384.257812 267.651848 
L 394.066406 275.957831 
L 403.875 284.539187 
L 408.849006 289 
L 408.849006 289 
" style="fill:none;stroke:#e377c2;stroke-linecap:square;stroke-width:1.5;"/>
   </g>
   <g id="line2d_28">
    <path clip-path="url(#pa752776b11)" d="M 90 145.44 
L 96.545455 145.576005 
L 103.090909 145.984023 
L 109.636364 146.66407 
L 116.181818 147.616167 
L 122.727273 148.840348 
L 129.272727 150.336654 
L 135.818182 152.105136 
L 142.363636 154.145854 
L 148.909091 156.458878 
L 155.454545 159.044286 
L 162 161.902167 
L 168.545455 165.032617 
L 175.090909 168.435745 
L 181.636364 172.111665 
L 188.181818 176.060504 
L 194.727273 180.282396 
L 201.272727 184.777485 
L 207.818182 189.545926 
L 214.363636 194.587881 
L 220.909091 199.903524 
L 227.454545 205.493037 
L 234 211.35661 
L 240.545455 217.494447 
L 247.090909 223.906757 
L 253.636364 230.593762 
L 260.181818 237.555692 
L 266.727273 244.792787 
L 273.272727 252.305296 
L 279.818182 260.09348 
L 286.363636 268.157608 
L 292.909091 276.49796 
L 299.454545 285.114824 
L 302.336344 289 
L 302.336344 289 
" style="fill:none;stroke:#7f7f7f;stroke-linecap:square;stroke-width:1.5;"/>
   </g>
   <g id="line2d_29">
    <path clip-path="url(#pa752776b11)" d="M 90 145.44 
L 93.282353 145.576984 
L 96.564706 145.987942 
L 99.847059 146.672887 
L 103.129412 147.631843 
L 106.411765 148.864842 
L 109.694118 150.371927 
L 112.976471 152.15315 
L 116.258824 154.20857 
L 119.541176 156.538259 
L 122.823529 159.142296 
L 126.105882 162.02077 
L 129.388235 165.173781 
L 132.670588 168.601435 
L 135.952941 172.303851 
L 139.235294 176.281155 
L 142.517647 180.533484 
L 145.8 185.060984 
L 149.082353 189.86381 
L 152.364706 194.942128 
L 155.647059 200.296113 
L 158.929412 205.925949 
L 162.211765 211.831829 
L 165.494118 218.013959 
L 168.776471 224.472551 
L 172.058824 231.207828 
L 175.341176 238.220025 
L 178.623529 245.509383 
L 185.188235 260.920605 
L 191.752941 277.443638 
L 196.089549 289 
L 196.089549 289 
" style="fill:none;stroke:#bcbd22;stroke-linecap:square;stroke-width:1.5;"/>
   </g>
   <g id="patch_4">
    <path d="M 90 256.32 
L 90 34.56 
" style="fill:none;stroke:#000000;stroke-linecap:square;stroke-linejoin:miter;stroke-width:0.8;"/>
   </g>
   <g id="patch_5">
    <path d="M 648 256.32 
L 648 34.56 
" style="fill:none;stroke:#000000;stroke-linecap:square;stroke-linejoin:miter;stroke-width:0.8;"/>
   </g>
   <g id="patch_6">
    <path d="M 90 256.32 
L 648 256.32 
" style="fill:none;stroke:#000000;stroke-linecap:square;stroke-linejoin:miter;stroke-width:0.8;"/>
   </g>
   <g id="patch_7">
    <path d="M 90 34.56 
L 648 34.56 
" style="fill:none;stroke:#000000;stroke-linecap:square;stroke-linejoin:miter;stroke-width:0.8;"/>
   </g>
   <g id="legend_1">
    <g id="patch_8">
     <path d="M 565.592188 179.177188 
L 641 179.177188 
Q 643 179.177188 643 177.177188 
L 643 41.56 
Q 643 39.56 641 39.56 
L 565.592188 39.56 
Q 563.592188 39.56 563.592188 41.56 
L 563.592188 177.177188 
Q 563.592188 179.177188 565.592188 179.177188 
z
" style="fill:#ffffff;opacity:0.8;stroke:#cccccc;stroke-linejoin:miter;"/>
    </g>
    <g id="line2d_30">
     <path d="M 567.592188 48.16 
L 587.592188 48.16 
" style="fill:none;stroke:#1f77b4;stroke-linecap:square;stroke-width:1.5;"/>
    </g>
    <g id="line2d_31"/>
    <g id="text_13">
     <!-- Tỷ lệ: 2 -->
     <g transform="translate(595.592188 51.66)scale(0.1 -0.1)">
      <defs>
       <path d="M 2059 -325 
Q 1816 -950 1584 -1140 
Q 1353 -1331 966 -1331 
L 506 -1331 
L 506 -850 
L 844 -850 
Q 1081 -850 1212 -737 
Q 1344 -625 1503 -206 
L 1606 56 
L 191 3500 
L 800 3500 
L 1894 763 
L 2988 3500 
L 3597 3500 
L 2059 -325 
z
M 1276 5025 
Q 1626 5184 1954 5184 
Q 2279 5184 2477 5051 
Q 2676 4919 2676 4709 
Q 2676 4519 2401 4316 
L 2263 4216 
Q 2154 4134 2142 4106 
Q 2120 4056 2120 3956 
L 1748 3956 
L 1748 3994 
Q 1748 4119 1795 4203 
Q 1842 4288 2001 4403 
L 2142 4509 
Q 2285 4616 2285 4741 
Q 2285 4806 2188 4862 
Q 2092 4919 1870 4919 
Q 1588 4919 1276 4756 
L 1276 5025 
z
" id="DejaVuSans-1ef7" transform="scale(0.015625)"/>
       <path d="M 603 4863 
L 1178 4863 
L 1178 0 
L 603 0 
L 603 4863 
z
" id="DejaVuSans-6c" transform="scale(0.015625)"/>
       <path d="M 1738 -441 
L 2313 -441 
L 2313 -1172 
L 1738 -1172 
L 1738 -441 
z
M 3597 1894 
L 3597 1613 
L 953 1613 
Q 991 1019 1311 708 
Q 1631 397 2203 397 
Q 2534 397 2845 478 
Q 3156 559 3463 722 
L 3463 178 
Q 3153 47 2828 -22 
Q 2503 -91 2169 -91 
Q 1331 -91 842 396 
Q 353 884 353 1716 
Q 353 2575 817 3079 
Q 1281 3584 2069 3584 
Q 2775 3584 3186 3129 
Q 3597 2675 3597 1894 
z
M 3022 2063 
Q 3016 2534 2758 2815 
Q 2500 3097 2075 3097 
Q 1594 3097 1305 2825 
Q 1016 2553 972 2059 
L 3022 2063 
z
M 1738 -441 
L 2313 -441 
L 2313 -1172 
L 1738 -1172 
L 1738 -441 
z
M 1801 5119 
L 2263 5119 
L 3029 3944 
L 2595 3944 
L 2032 4709 
L 1470 3944 
L 1035 3944 
L 1801 5119 
z
" id="DejaVuSans-1ec7" transform="scale(0.015625)"/>
       <path d="M 750 794 
L 1409 794 
L 1409 0 
L 750 0 
L 750 794 
z
M 750 3309 
L 1409 3309 
L 1409 2516 
L 750 2516 
L 750 3309 
z
" id="DejaVuSans-3a" transform="scale(0.015625)"/>
      </defs>
      <use xlink:href="#DejaVuSans-54"/>
      <use x="61.083984" xlink:href="#DejaVuSans-1ef7"/>
      <use x="120.263672" xlink:href="#DejaVuSans-20"/>
      <use x="152.050781" xlink:href="#DejaVuSans-6c"/>
      <use x="179.833984" xlink:href="#DejaVuSans-1ec7"/>
      <use x="241.357422" xlink:href="#DejaVuSans-3a"/>
      <use x="275.048828" xlink:href="#DejaVuSans-20"/>
      <use x="306.835938" xlink:href="#DejaVuSans-32"/>
     </g>
    </g>
    <g id="line2d_32">
     <path d="M 567.592188 63.339688 
L 587.592188 63.339688 
" style="fill:none;stroke:#ff7f0e;stroke-linecap:square;stroke-width:1.5;"/>
    </g>
    <g id="line2d_33"/>
    <g id="text_14">
     <!-- Tỷ lệ: 3 -->
     <g transform="translate(595.592188 66.839688)scale(0.1 -0.1)">
      <defs>
       <path d="M 2597 2516 
Q 3050 2419 3304 2112 
Q 3559 1806 3559 1356 
Q 3559 666 3084 287 
Q 2609 -91 1734 -91 
Q 1441 -91 1130 -33 
Q 819 25 488 141 
L 488 750 
Q 750 597 1062 519 
Q 1375 441 1716 441 
Q 2309 441 2620 675 
Q 2931 909 2931 1356 
Q 2931 1769 2642 2001 
Q 2353 2234 1838 2234 
L 1294 2234 
L 1294 2753 
L 1863 2753 
Q 2328 2753 2575 2939 
Q 2822 3125 2822 3475 
Q 2822 3834 2567 4026 
Q 2313 4219 1838 4219 
Q 1578 4219 1281 4162 
Q 984 4106 628 3988 
L 628 4550 
Q 988 4650 1302 4700 
Q 1616 4750 1894 4750 
Q 2613 4750 3031 4423 
Q 3450 4097 3450 3541 
Q 3450 3153 3228 2886 
Q 3006 2619 2597 2516 
z
" id="DejaVuSans-33" transform="scale(0.015625)"/>
      </defs>
      <use xlink:href="#DejaVuSans-54"/>
      <use x="61.083984" xlink:href="#DejaVuSans-1ef7"/>
      <use x="120.263672" xlink:href="#DejaVuSans-20"/>
      <use x="152.050781" xlink:href="#DejaVuSans-6c"/>
      <use x="179.833984" xlink:href="#DejaVuSans-1ec7"/>
      <use x="241.357422" xlink:href="#DejaVuSans-3a"/>
      <use x="275.048828" xlink:href="#DejaVuSans-20"/>
      <use x="306.835938" xlink:href="#DejaVuSans-33"/>
     </g>
    </g>
    <g id="line2d_34">
     <path d="M 567.592188 78.519375 
L 587.592188 78.519375 
" style="fill:none;stroke:#2ca02c;stroke-linecap:square;stroke-width:1.5;"/>
    </g>
    <g id="line2d_35"/>
    <g id="text_15">
     <!-- Tỷ lệ: 4 -->
     <g transform="translate(595.592188 82.019375)scale(0.1 -0.1)">
      <use xlink:href="#DejaVuSans-54"/>
      <use x="61.083984" xlink:href="#DejaVuSans-1ef7"/>
      <use x="120.263672" xlink:href="#DejaVuSans-20"/>
      <use x="152.050781" xlink:href="#DejaVuSans-6c"/>
      <use x="179.833984" xlink:href="#DejaVuSans-1ec7"/>
      <use x="241.357422" xlink:href="#DejaVuSans-3a"/>
      <use x="275.048828" xlink:href="#DejaVuSans-20"/>
      <use x="306.835938" xlink:href="#DejaVuSans-34"/>
     </g>
    </g>
    <g id="line2d_36">
     <path d="M 567.592188 93.699063 
L 587.592188 93.699063 
" style="fill:none;stroke:#d62728;stroke-linecap:square;stroke-width:1.5;"/>
    </g>
    <g id="line2d_37"/>
    <g id="text_16">
     <!-- Tỷ lệ: 6 -->
     <g transform="translate(595.592188 97.199063)scale(0.1 -0.1)">
      <defs>
       <path d="M 2113 2584 
Q 1688 2584 1439 2293 
Q 1191 2003 1191 1497 
Q 1191 994 1439 701 
Q 1688 409 2113 409 
Q 2538 409 2786 701 
Q 3034 994 3034 1497 
Q 3034 2003 2786 2293 
Q 2538 2584 2113 2584 
z
M 3366 4563 
L 3366 3988 
Q 3128 4100 2886 4159 
Q 2644 4219 2406 4219 
Q 1781 4219 1451 3797 
Q 1122 3375 1075 2522 
Q 1259 2794 1537 2939 
Q 1816 3084 2150 3084 
Q 2853 3084 3261 2657 
Q 3669 2231 3669 1497 
Q 3669 778 3244 343 
Q 2819 -91 2113 -91 
Q 1303 -91 875 529 
Q 447 1150 447 2328 
Q 447 3434 972 4092 
Q 1497 4750 2381 4750 
Q 2619 4750 2861 4703 
Q 3103 4656 3366 4563 
z
" id="DejaVuSans-36" transform="scale(0.015625)"/>
      </defs>
      <use xlink:href="#DejaVuSans-54"/>
      <use x="61.083984" xlink:href="#DejaVuSans-1ef7"/>
      <use x="120.263672" xlink:href="#DejaVuSans-20"/>
      <use x="152.050781" xlink:href="#DejaVuSans-6c"/>
      <use x="179.833984" xlink:href="#DejaVuSans-1ec7"/>
      <use x="241.357422" xlink:href="#DejaVuSans-3a"/>
      <use x="275.048828" xlink:href="#DejaVuSans-20"/>
      <use x="306.835938" xlink:href="#DejaVuSans-36"/>
     </g>
    </g>
    <g id="line2d_38">
     <path d="M 567.592188 108.87875 
L 587.592188 108.87875 
" style="fill:none;stroke:#9467bd;stroke-linecap:square;stroke-width:1.5;"/>
    </g>
    <g id="line2d_39"/>
    <g id="text_17">
     <!-- Tỷ lệ: 8 -->
     <g transform="translate(595.592188 112.37875)scale(0.1 -0.1)">
      <defs>
       <path d="M 2034 2216 
Q 1584 2216 1326 1975 
Q 1069 1734 1069 1313 
Q 1069 891 1326 650 
Q 1584 409 2034 409 
Q 2484 409 2743 651 
Q 3003 894 3003 1313 
Q 3003 1734 2745 1975 
Q 2488 2216 2034 2216 
z
M 1403 2484 
Q 997 2584 770 2862 
Q 544 3141 544 3541 
Q 544 4100 942 4425 
Q 1341 4750 2034 4750 
Q 2731 4750 3128 4425 
Q 3525 4100 3525 3541 
Q 3525 3141 3298 2862 
Q 3072 2584 2669 2484 
Q 3125 2378 3379 2068 
Q 3634 1759 3634 1313 
Q 3634 634 3220 271 
Q 2806 -91 2034 -91 
Q 1263 -91 848 271 
Q 434 634 434 1313 
Q 434 1759 690 2068 
Q 947 2378 1403 2484 
z
M 1172 3481 
Q 1172 3119 1398 2916 
Q 1625 2713 2034 2713 
Q 2441 2713 2670 2916 
Q 2900 3119 2900 3481 
Q 2900 3844 2670 4047 
Q 2441 4250 2034 4250 
Q 1625 4250 1398 4047 
Q 1172 3844 1172 3481 
z
" id="DejaVuSans-38" transform="scale(0.015625)"/>
      </defs>
      <use xlink:href="#DejaVuSans-54"/>
      <use x="61.083984" xlink:href="#DejaVuSans-1ef7"/>
      <use x="120.263672" xlink:href="#DejaVuSans-20"/>
      <use x="152.050781" xlink:href="#DejaVuSans-6c"/>
      <use x="179.833984" xlink:href="#DejaVuSans-1ec7"/>
      <use x="241.357422" xlink:href="#DejaVuSans-3a"/>
      <use x="275.048828" xlink:href="#DejaVuSans-20"/>
      <use x="306.835938" xlink:href="#DejaVuSans-38"/>
     </g>
    </g>
    <g id="line2d_40">
     <path d="M 567.592188 124.058438 
L 587.592188 124.058438 
" style="fill:none;stroke:#8c564b;stroke-linecap:square;stroke-width:1.5;"/>
    </g>
    <g id="line2d_41"/>
    <g id="text_18">
     <!-- Tỷ lệ: 12 -->
     <g transform="translate(595.592188 127.558438)scale(0.1 -0.1)">
      <use xlink:href="#DejaVuSans-54"/>
      <use x="61.083984" xlink:href="#DejaVuSans-1ef7"/>
      <use x="120.263672" xlink:href="#DejaVuSans-20"/>
      <use x="152.050781" xlink:href="#DejaVuSans-6c"/>
      <use x="179.833984" xlink:href="#DejaVuSans-1ec7"/>
      <use x="241.357422" xlink:href="#DejaVuSans-3a"/>
      <use x="275.048828" xlink:href="#DejaVuSans-20"/>
      <use x="306.835938" xlink:href="#DejaVuSans-31"/>
      <use x="370.458984" xlink:href="#DejaVuSans-32"/>
     </g>
    </g>
    <g id="line2d_42">
     <path d="M 567.592188 139.238125 
L 587.592188 139.238125 
" style="fill:none;stroke:#e377c2;stroke-linecap:square;stroke-width:1.5;"/>
    </g>
    <g id="line2d_43"/>
    <g id="text_19">
     <!-- Tỷ lệ: 16 -->
     <g transform="translate(595.592188 142.738125)scale(0.1 -0.1)">
      <use xlink:href="#DejaVuSans-54"/>
      <use x="61.083984" xlink:href="#DejaVuSans-1ef7"/>
      <use x="120.263672" xlink:href="#DejaVuSans-20"/>
      <use x="152.050781" xlink:href="#DejaVuSans-6c"/>
      <use x="179.833984" xlink:href="#DejaVuSans-1ec7"/>
      <use x="241.357422" xlink:href="#DejaVuSans-3a"/>
      <use x="275.048828" xlink:href="#DejaVuSans-20"/>
      <use x="306.835938" xlink:href="#DejaVuSans-31"/>
      <use x="370.458984" xlink:href="#DejaVuSans-36"/>
     </g>
    </g>
    <g id="line2d_44">
     <path d="M 567.592188 154.417813 
L 587.592188 154.417813 
" style="fill:none;stroke:#7f7f7f;stroke-linecap:square;stroke-width:1.5;"/>
    </g>
    <g id="line2d_45"/>
    <g id="text_20">
     <!-- Tỷ lệ: 24 -->
     <g transform="translate(595.592188 157.917813)scale(0.1 -0.1)">
      <use xlink:href="#DejaVuSans-54"/>
      <use x="61.083984" xlink:href="#DejaVuSans-1ef7"/>
      <use x="120.263672" xlink:href="#DejaVuSans-20"/>
      <use x="152.050781" xlink:href="#DejaVuSans-6c"/>
      <use x="179.833984" xlink:href="#DejaVuSans-1ec7"/>
      <use x="241.357422" xlink:href="#DejaVuSans-3a"/>
      <use x="275.048828" xlink:href="#DejaVuSans-20"/>
      <use x="306.835938" xlink:href="#DejaVuSans-32"/>
      <use x="370.458984" xlink:href="#DejaVuSans-34"/>
     </g>
    </g>
    <g id="line2d_46">
     <path d="M 567.592188 169.5975 
L 587.592188 169.5975 
" style="fill:none;stroke:#bcbd22;stroke-linecap:square;stroke-width:1.5;"/>
    </g>
    <g id="line2d_47"/>
    <g id="text_21">
     <!-- Tỷ lệ: 48 -->
     <g transform="translate(595.592188 173.0975)scale(0.1 -0.1)">
      <use xlink:href="#DejaVuSans-54"/>
      <use x="61.083984" xlink:href="#DejaVuSans-1ef7"/>
      <use x="120.263672" xlink:href="#DejaVuSans-20"/>
      <use x="152.050781" xlink:href="#DejaVuSans-6c"/>
      <use x="179.833984" xlink:href="#DejaVuSans-1ec7"/>
      <use x="241.357422" xlink:href="#DejaVuSans-3a"/>
      <use x="275.048828" xlink:href="#DejaVuSans-20"/>
      <use x="306.835938" xlink:href="#DejaVuSans-34"/>
      <use x="370.458984" xlink:href="#DejaVuSans-38"/>
     </g>
    </g>
   </g>
  </g>
 </g>
 <defs>
  <clipPath id="pa752776b11">
   <rect height="221.76" width="558" x="90" y="34.56"/>
  </clipPath>
 </defs>
</svg>
