<?xml version="1.0" encoding="utf-8" standalone="no"?>
<!DOCTYPE svg PUBLIC "-//W3C//DTD SVG 1.1//EN"
  "http://www.w3.org/Graphics/SVG/1.1/DTD/svg11.dtd">
<svg height="288pt" version="1.1" viewBox="0 0 720 288" width="720pt" xmlns="http://www.w3.org/2000/svg" xmlns:xlink="http://www.w3.org/1999/xlink">
 <metadata>
  <rdf:RDF xmlns:cc="http://creativecommons.org/ns#" xmlns:dc="http://purl.org/dc/elements/1.1/" xmlns:rdf="http://www.w3.org/1999/02/22-rdf-syntax-ns#">
   <cc:Work>
    <dc:type rdf:resource="http://purl.org/dc/dcmitype/StillImage"/>
    <dc:date>2023-02-24T09:26:47.762914</dc:date>
    <dc:format>image/svg+xml</dc:format>
    <dc:creator>
     <cc:Agent>
      <dc:title>Matplotlib v3.4.3, https://matplotlib.org/</dc:title>
     </cc:Agent>
    </dc:creator>
   </cc:Work>
  </rdf:RDF>
 </metadata>
 <defs>
  <style type="text/css">*{stroke-linecap:butt;stroke-linejoin:round;}</style>
 </defs>
 <g id="figure_1">
  <g id="patch_1">
   <path d="M 0 288 
L 720 288 
L 720 0 
L 0 0 
z
" style="fill:#ffffff;"/>
  </g>
  <g id="axes_1">
   <g id="patch_2">
    <path d="M 45.16 246.04 
L 709.2 246.04 
L 709.2 10.8 
L 45.16 10.8 
z
" style="fill:#ffffff;"/>
   </g>
   <g id="matplotlib.axis_1">
    <g id="xtick_1">
     <g id="line2d_1">
      <path clip-path="url(#p6cc4f068fc)" d="M 45.16 246.04 
L 45.16 10.8 
" style="fill:none;stroke:#b0b0b0;stroke-linecap:square;stroke-width:0.8;"/>
     </g>
     <g id="line2d_2">
      <defs>
       <path d="M 0 0 
L 0 3.5 
" id="mcb15c36d2f" style="stroke:#000000;stroke-width:0.8;"/>
      </defs>
      <g>
       <use style="stroke:#000000;stroke-width:0.8;" x="45.16" xlink:href="#mcb15c36d2f" y="246.04"/>
      </g>
     </g>
     <g id="text_1">
      <!-- 0.0 -->
      <g transform="translate(37.208437 260.638438)scale(0.1 -0.1)">
       <defs>
        <path d="M 2034 4250 
Q 1547 4250 1301 3770 
Q 1056 3291 1056 2328 
Q 1056 1369 1301 889 
Q 1547 409 2034 409 
Q 2525 409 2770 889 
Q 3016 1369 3016 2328 
Q 3016 3291 2770 3770 
Q 2525 4250 2034 4250 
z
M 2034 4750 
Q 2819 4750 3233 4129 
Q 3647 3509 3647 2328 
Q 3647 1150 3233 529 
Q 2819 -91 2034 -91 
Q 1250 -91 836 529 
Q 422 1150 422 2328 
Q 422 3509 836 4129 
Q 1250 4750 2034 4750 
z
" id="DejaVuSans-30" transform="scale(0.015625)"/>
        <path d="M 684 794 
L 1344 794 
L 1344 0 
L 684 0 
L 684 794 
z
" id="DejaVuSans-2e" transform="scale(0.015625)"/>
       </defs>
       <use xlink:href="#DejaVuSans-30"/>
       <use x="63.623047" xlink:href="#DejaVuSans-2e"/>
       <use x="95.410156" xlink:href="#DejaVuSans-30"/>
      </g>
     </g>
    </g>
    <g id="xtick_2">
     <g id="line2d_3">
      <path clip-path="url(#p6cc4f068fc)" d="M 160.444722 246.04 
L 160.444722 10.8 
" style="fill:none;stroke:#b0b0b0;stroke-linecap:square;stroke-width:0.8;"/>
     </g>
     <g id="line2d_4">
      <g>
       <use style="stroke:#000000;stroke-width:0.8;" x="160.444722" xlink:href="#mcb15c36d2f" y="246.04"/>
      </g>
     </g>
     <g id="text_2">
      <!-- 0.2 -->
      <g transform="translate(152.49316 260.638438)scale(0.1 -0.1)">
       <defs>
        <path d="M 1228 531 
L 3431 531 
L 3431 0 
L 469 0 
L 469 531 
Q 828 903 1448 1529 
Q 2069 2156 2228 2338 
Q 2531 2678 2651 2914 
Q 2772 3150 2772 3378 
Q 2772 3750 2511 3984 
Q 2250 4219 1831 4219 
Q 1534 4219 1204 4116 
Q 875 4013 500 3803 
L 500 4441 
Q 881 4594 1212 4672 
Q 1544 4750 1819 4750 
Q 2544 4750 2975 4387 
Q 3406 4025 3406 3419 
Q 3406 3131 3298 2873 
Q 3191 2616 2906 2266 
Q 2828 2175 2409 1742 
Q 1991 1309 1228 531 
z
" id="DejaVuSans-32" transform="scale(0.015625)"/>
       </defs>
       <use xlink:href="#DejaVuSans-30"/>
       <use x="63.623047" xlink:href="#DejaVuSans-2e"/>
       <use x="95.410156" xlink:href="#DejaVuSans-32"/>
      </g>
     </g>
    </g>
    <g id="xtick_3">
     <g id="line2d_5">
      <path clip-path="url(#p6cc4f068fc)" d="M 275.729444 246.04 
L 275.729444 10.8 
" style="fill:none;stroke:#b0b0b0;stroke-linecap:square;stroke-width:0.8;"/>
     </g>
     <g id="line2d_6">
      <g>
       <use style="stroke:#000000;stroke-width:0.8;" x="275.729444" xlink:href="#mcb15c36d2f" y="246.04"/>
      </g>
     </g>
     <g id="text_3">
      <!-- 0.4 -->
      <g transform="translate(267.777882 260.638438)scale(0.1 -0.1)">
       <defs>
        <path d="M 2419 4116 
L 825 1625 
L 2419 1625 
L 2419 4116 
z
M 2253 4666 
L 3047 4666 
L 3047 1625 
L 3713 1625 
L 3713 1100 
L 3047 1100 
L 3047 0 
L 2419 0 
L 2419 1100 
L 313 1100 
L 313 1709 
L 2253 4666 
z
" id="DejaVuSans-34" transform="scale(0.015625)"/>
       </defs>
       <use xlink:href="#DejaVuSans-30"/>
       <use x="63.623047" xlink:href="#DejaVuSans-2e"/>
       <use x="95.410156" xlink:href="#DejaVuSans-34"/>
      </g>
     </g>
    </g>
    <g id="xtick_4">
     <g id="line2d_7">
      <path clip-path="url(#p6cc4f068fc)" d="M 391.014167 246.04 
L 391.014167 10.8 
" style="fill:none;stroke:#b0b0b0;stroke-linecap:square;stroke-width:0.8;"/>
     </g>
     <g id="line2d_8">
      <g>
       <use style="stroke:#000000;stroke-width:0.8;" x="391.014167" xlink:href="#mcb15c36d2f" y="246.04"/>
      </g>
     </g>
     <g id="text_4">
      <!-- 0.6 -->
      <g transform="translate(383.062604 260.638438)scale(0.1 -0.1)">
       <defs>
        <path d="M 2113 2584 
Q 1688 2584 1439 2293 
Q 1191 2003 1191 1497 
Q 1191 994 1439 701 
Q 1688 409 2113 409 
Q 2538 409 2786 701 
Q 3034 994 3034 1497 
Q 3034 2003 2786 2293 
Q 2538 2584 2113 2584 
z
M 3366 4563 
L 3366 3988 
Q 3128 4100 2886 4159 
Q 2644 4219 2406 4219 
Q 1781 4219 1451 3797 
Q 1122 3375 1075 2522 
Q 1259 2794 1537 2939 
Q 1816 3084 2150 3084 
Q 2853 3084 3261 2657 
Q 3669 2231 3669 1497 
Q 3669 778 3244 343 
Q 2819 -91 2113 -91 
Q 1303 -91 875 529 
Q 447 1150 447 2328 
Q 447 3434 972 4092 
Q 1497 4750 2381 4750 
Q 2619 4750 2861 4703 
Q 3103 4656 3366 4563 
z
" id="DejaVuSans-36" transform="scale(0.015625)"/>
       </defs>
       <use xlink:href="#DejaVuSans-30"/>
       <use x="63.623047" xlink:href="#DejaVuSans-2e"/>
       <use x="95.410156" xlink:href="#DejaVuSans-36"/>
      </g>
     </g>
    </g>
    <g id="xtick_5">
     <g id="line2d_9">
      <path clip-path="url(#p6cc4f068fc)" d="M 506.298889 246.04 
L 506.298889 10.8 
" style="fill:none;stroke:#b0b0b0;stroke-linecap:square;stroke-width:0.8;"/>
     </g>
     <g id="line2d_10">
      <g>
       <use style="stroke:#000000;stroke-width:0.8;" x="506.298889" xlink:href="#mcb15c36d2f" y="246.04"/>
      </g>
     </g>
     <g id="text_5">
      <!-- 0.8 -->
      <g transform="translate(498.347326 260.638438)scale(0.1 -0.1)">
       <defs>
        <path d="M 2034 2216 
Q 1584 2216 1326 1975 
Q 1069 1734 1069 1313 
Q 1069 891 1326 650 
Q 1584 409 2034 409 
Q 2484 409 2743 651 
Q 3003 894 3003 1313 
Q 3003 1734 2745 1975 
Q 2488 2216 2034 2216 
z
M 1403 2484 
Q 997 2584 770 2862 
Q 544 3141 544 3541 
Q 544 4100 942 4425 
Q 1341 4750 2034 4750 
Q 2731 4750 3128 4425 
Q 3525 4100 3525 3541 
Q 3525 3141 3298 2862 
Q 3072 2584 2669 2484 
Q 3125 2378 3379 2068 
Q 3634 1759 3634 1313 
Q 3634 634 3220 271 
Q 2806 -91 2034 -91 
Q 1263 -91 848 271 
Q 434 634 434 1313 
Q 434 1759 690 2068 
Q 947 2378 1403 2484 
z
M 1172 3481 
Q 1172 3119 1398 2916 
Q 1625 2713 2034 2713 
Q 2441 2713 2670 2916 
Q 2900 3119 2900 3481 
Q 2900 3844 2670 4047 
Q 2441 4250 2034 4250 
Q 1625 4250 1398 4047 
Q 1172 3844 1172 3481 
z
" id="DejaVuSans-38" transform="scale(0.015625)"/>
       </defs>
       <use xlink:href="#DejaVuSans-30"/>
       <use x="63.623047" xlink:href="#DejaVuSans-2e"/>
       <use x="95.410156" xlink:href="#DejaVuSans-38"/>
      </g>
     </g>
    </g>
    <g id="xtick_6">
     <g id="line2d_11">
      <path clip-path="url(#p6cc4f068fc)" d="M 621.583611 246.04 
L 621.583611 10.8 
" style="fill:none;stroke:#b0b0b0;stroke-linecap:square;stroke-width:0.8;"/>
     </g>
     <g id="line2d_12">
      <g>
       <use style="stroke:#000000;stroke-width:0.8;" x="621.583611" xlink:href="#mcb15c36d2f" y="246.04"/>
      </g>
     </g>
     <g id="text_6">
      <!-- 1.0 -->
      <g transform="translate(613.632049 260.638438)scale(0.1 -0.1)">
       <defs>
        <path d="M 794 531 
L 1825 531 
L 1825 4091 
L 703 3866 
L 703 4441 
L 1819 4666 
L 2450 4666 
L 2450 531 
L 3481 531 
L 3481 0 
L 794 0 
L 794 531 
z
" id="DejaVuSans-31" transform="scale(0.015625)"/>
       </defs>
       <use xlink:href="#DejaVuSans-31"/>
       <use x="63.623047" xlink:href="#DejaVuSans-2e"/>
       <use x="95.410156" xlink:href="#DejaVuSans-30"/>
      </g>
     </g>
    </g>
    <g id="text_7">
     <!-- Tần số (Hz) -->
     <g transform="translate(348.765156 274.40875)scale(0.1 -0.1)">
      <defs>
       <path d="M -19 4666 
L 3928 4666 
L 3928 4134 
L 2272 4134 
L 2272 0 
L 1638 0 
L 1638 4134 
L -19 4134 
L -19 4666 
z
" id="DejaVuSans-54" transform="scale(0.015625)"/>
       <path d="M 2194 1759 
Q 1497 1759 1228 1600 
Q 959 1441 959 1056 
Q 959 750 1161 570 
Q 1363 391 1709 391 
Q 2188 391 2477 730 
Q 2766 1069 2766 1631 
L 2766 1759 
L 2194 1759 
z
M 3341 1997 
L 3341 0 
L 2766 0 
L 2766 531 
Q 2569 213 2275 61 
Q 1981 -91 1556 -91 
Q 1019 -91 701 211 
Q 384 513 384 1019 
Q 384 1609 779 1909 
Q 1175 2209 1959 2209 
L 2766 2209 
L 2766 2266 
Q 2766 2663 2505 2880 
Q 2244 3097 1772 3097 
Q 1472 3097 1187 3025 
Q 903 2953 641 2809 
L 641 3341 
Q 956 3463 1253 3523 
Q 1550 3584 1831 3584 
Q 2591 3584 2966 3190 
Q 3341 2797 3341 1997 
z
M 2590 5409 
L 3202 4584 
L 2724 4584 
L 2006 5409 
L 2590 5409 
z
M 1554 4775 
L 2142 4775 
L 2801 3944 
L 2367 3944 
L 1848 4500 
L 1329 3944 
L 895 3944 
L 1554 4775 
z
" id="DejaVuSans-1ea7" transform="scale(0.015625)"/>
       <path d="M 3513 2113 
L 3513 0 
L 2938 0 
L 2938 2094 
Q 2938 2591 2744 2837 
Q 2550 3084 2163 3084 
Q 1697 3084 1428 2787 
Q 1159 2491 1159 1978 
L 1159 0 
L 581 0 
L 581 3500 
L 1159 3500 
L 1159 2956 
Q 1366 3272 1645 3428 
Q 1925 3584 2291 3584 
Q 2894 3584 3203 3211 
Q 3513 2838 3513 2113 
z
" id="DejaVuSans-6e" transform="scale(0.015625)"/>
       <path id="DejaVuSans-20" transform="scale(0.015625)"/>
       <path d="M 2834 3397 
L 2834 2853 
Q 2591 2978 2328 3040 
Q 2066 3103 1784 3103 
Q 1356 3103 1142 2972 
Q 928 2841 928 2578 
Q 928 2378 1081 2264 
Q 1234 2150 1697 2047 
L 1894 2003 
Q 2506 1872 2764 1633 
Q 3022 1394 3022 966 
Q 3022 478 2636 193 
Q 2250 -91 1575 -91 
Q 1294 -91 989 -36 
Q 684 19 347 128 
L 347 722 
Q 666 556 975 473 
Q 1284 391 1588 391 
Q 1994 391 2212 530 
Q 2431 669 2431 922 
Q 2431 1156 2273 1281 
Q 2116 1406 1581 1522 
L 1381 1569 
Q 847 1681 609 1914 
Q 372 2147 372 2553 
Q 372 3047 722 3315 
Q 1072 3584 1716 3584 
Q 2034 3584 2315 3537 
Q 2597 3491 2834 3397 
z
" id="DejaVuSans-73" transform="scale(0.015625)"/>
       <path d="M 1658 4775 
L 2246 4775 
L 2905 3944 
L 2471 3944 
L 1952 4500 
L 1433 3944 
L 999 3944 
L 1658 4775 
z
M 3268 5409 
L 3846 5409 
L 3134 4584 
L 2655 4584 
L 3268 5409 
z
M 1959 3097 
Q 1497 3097 1228 2736 
Q 959 2375 959 1747 
Q 959 1119 1226 758 
Q 1494 397 1959 397 
Q 2419 397 2687 759 
Q 2956 1122 2956 1747 
Q 2956 2369 2687 2733 
Q 2419 3097 1959 3097 
z
M 1959 3584 
Q 2709 3584 3137 3096 
Q 3566 2609 3566 1747 
Q 3566 888 3137 398 
Q 2709 -91 1959 -91 
Q 1206 -91 779 398 
Q 353 888 353 1747 
Q 353 2609 779 3096 
Q 1206 3584 1959 3584 
z
" id="DejaVuSans-1ed1" transform="scale(0.015625)"/>
       <path d="M 1984 4856 
Q 1566 4138 1362 3434 
Q 1159 2731 1159 2009 
Q 1159 1288 1364 580 
Q 1569 -128 1984 -844 
L 1484 -844 
Q 1016 -109 783 600 
Q 550 1309 550 2009 
Q 550 2706 781 3412 
Q 1013 4119 1484 4856 
L 1984 4856 
z
" id="DejaVuSans-28" transform="scale(0.015625)"/>
       <path d="M 628 4666 
L 1259 4666 
L 1259 2753 
L 3553 2753 
L 3553 4666 
L 4184 4666 
L 4184 0 
L 3553 0 
L 3553 2222 
L 1259 2222 
L 1259 0 
L 628 0 
L 628 4666 
z
" id="DejaVuSans-48" transform="scale(0.015625)"/>
       <path d="M 353 3500 
L 3084 3500 
L 3084 2975 
L 922 459 
L 3084 459 
L 3084 0 
L 275 0 
L 275 525 
L 2438 3041 
L 353 3041 
L 353 3500 
z
" id="DejaVuSans-7a" transform="scale(0.015625)"/>
       <path d="M 513 4856 
L 1013 4856 
Q 1481 4119 1714 3412 
Q 1947 2706 1947 2009 
Q 1947 1309 1714 600 
Q 1481 -109 1013 -844 
L 513 -844 
Q 928 -128 1133 580 
Q 1338 1288 1338 2009 
Q 1338 2731 1133 3434 
Q 928 4138 513 4856 
z
" id="DejaVuSans-29" transform="scale(0.015625)"/>
      </defs>
      <use xlink:href="#DejaVuSans-54"/>
      <use x="61.083984" xlink:href="#DejaVuSans-1ea7"/>
      <use x="122.363281" xlink:href="#DejaVuSans-6e"/>
      <use x="185.742188" xlink:href="#DejaVuSans-20"/>
      <use x="217.529297" xlink:href="#DejaVuSans-73"/>
      <use x="269.628906" xlink:href="#DejaVuSans-1ed1"/>
      <use x="330.810547" xlink:href="#DejaVuSans-20"/>
      <use x="362.597656" xlink:href="#DejaVuSans-28"/>
      <use x="401.611328" xlink:href="#DejaVuSans-48"/>
      <use x="476.806641" xlink:href="#DejaVuSans-7a"/>
      <use x="529.296875" xlink:href="#DejaVuSans-29"/>
     </g>
    </g>
    <g id="text_8">
     <!-- 1e6 -->
     <g transform="translate(690.321875 273.316562)scale(0.1 -0.1)">
      <defs>
       <path d="M 3597 1894 
L 3597 1613 
L 953 1613 
Q 991 1019 1311 708 
Q 1631 397 2203 397 
Q 2534 397 2845 478 
Q 3156 559 3463 722 
L 3463 178 
Q 3153 47 2828 -22 
Q 2503 -91 2169 -91 
Q 1331 -91 842 396 
Q 353 884 353 1716 
Q 353 2575 817 3079 
Q 1281 3584 2069 3584 
Q 2775 3584 3186 3129 
Q 3597 2675 3597 1894 
z
M 3022 2063 
Q 3016 2534 2758 2815 
Q 2500 3097 2075 3097 
Q 1594 3097 1305 2825 
Q 1016 2553 972 2059 
L 3022 2063 
z
" id="DejaVuSans-65" transform="scale(0.015625)"/>
      </defs>
      <use xlink:href="#DejaVuSans-31"/>
      <use x="63.623047" xlink:href="#DejaVuSans-65"/>
      <use x="125.146484" xlink:href="#DejaVuSans-36"/>
     </g>
    </g>
   </g>
   <g id="matplotlib.axis_2">
    <g id="ytick_1">
     <g id="line2d_13">
      <path clip-path="url(#p6cc4f068fc)" d="M 45.16 246.04 
L 709.2 246.04 
" style="fill:none;stroke:#b0b0b0;stroke-linecap:square;stroke-width:0.8;"/>
     </g>
     <g id="line2d_14">
      <defs>
       <path d="M 0 0 
L -3.5 0 
" id="m86b27158de" style="stroke:#000000;stroke-width:0.8;"/>
      </defs>
      <g>
       <use style="stroke:#000000;stroke-width:0.8;" x="45.16" xlink:href="#m86b27158de" y="246.04"/>
      </g>
     </g>
     <g id="text_9">
      <!-- −120 -->
      <g transform="translate(10.692812 249.839219)scale(0.1 -0.1)">
       <defs>
        <path d="M 678 2272 
L 4684 2272 
L 4684 1741 
L 678 1741 
L 678 2272 
z
" id="DejaVuSans-2212" transform="scale(0.015625)"/>
       </defs>
       <use xlink:href="#DejaVuSans-2212"/>
       <use x="83.789062" xlink:href="#DejaVuSans-31"/>
       <use x="147.412109" xlink:href="#DejaVuSans-32"/>
       <use x="211.035156" xlink:href="#DejaVuSans-30"/>
      </g>
     </g>
    </g>
    <g id="ytick_2">
     <g id="line2d_15">
      <path clip-path="url(#p6cc4f068fc)" d="M 45.16 207.789593 
L 709.2 207.789593 
" style="fill:none;stroke:#b0b0b0;stroke-linecap:square;stroke-width:0.8;"/>
     </g>
     <g id="line2d_16">
      <g>
       <use style="stroke:#000000;stroke-width:0.8;" x="45.16" xlink:href="#m86b27158de" y="207.789593"/>
      </g>
     </g>
     <g id="text_10">
      <!-- −100 -->
      <g transform="translate(10.692812 211.588812)scale(0.1 -0.1)">
       <use xlink:href="#DejaVuSans-2212"/>
       <use x="83.789062" xlink:href="#DejaVuSans-31"/>
       <use x="147.412109" xlink:href="#DejaVuSans-30"/>
       <use x="211.035156" xlink:href="#DejaVuSans-30"/>
      </g>
     </g>
    </g>
    <g id="ytick_3">
     <g id="line2d_17">
      <path clip-path="url(#p6cc4f068fc)" d="M 45.16 169.539187 
L 709.2 169.539187 
" style="fill:none;stroke:#b0b0b0;stroke-linecap:square;stroke-width:0.8;"/>
     </g>
     <g id="line2d_18">
      <g>
       <use style="stroke:#000000;stroke-width:0.8;" x="45.16" xlink:href="#m86b27158de" y="169.539187"/>
      </g>
     </g>
     <g id="text_11">
      <!-- −80 -->
      <g transform="translate(17.055312 173.338406)scale(0.1 -0.1)">
       <use xlink:href="#DejaVuSans-2212"/>
       <use x="83.789062" xlink:href="#DejaVuSans-38"/>
       <use x="147.412109" xlink:href="#DejaVuSans-30"/>
      </g>
     </g>
    </g>
    <g id="ytick_4">
     <g id="line2d_19">
      <path clip-path="url(#p6cc4f068fc)" d="M 45.16 131.28878 
L 709.2 131.28878 
" style="fill:none;stroke:#b0b0b0;stroke-linecap:square;stroke-width:0.8;"/>
     </g>
     <g id="line2d_20">
      <g>
       <use style="stroke:#000000;stroke-width:0.8;" x="45.16" xlink:href="#m86b27158de" y="131.28878"/>
      </g>
     </g>
     <g id="text_12">
      <!-- −60 -->
      <g transform="translate(17.055312 135.087999)scale(0.1 -0.1)">
       <use xlink:href="#DejaVuSans-2212"/>
       <use x="83.789062" xlink:href="#DejaVuSans-36"/>
       <use x="147.412109" xlink:href="#DejaVuSans-30"/>
      </g>
     </g>
    </g>
    <g id="ytick_5">
     <g id="line2d_21">
      <path clip-path="url(#p6cc4f068fc)" d="M 45.16 93.038374 
L 709.2 93.038374 
" style="fill:none;stroke:#b0b0b0;stroke-linecap:square;stroke-width:0.8;"/>
     </g>
     <g id="line2d_22">
      <g>
       <use style="stroke:#000000;stroke-width:0.8;" x="45.16" xlink:href="#m86b27158de" y="93.038374"/>
      </g>
     </g>
     <g id="text_13">
      <!-- −40 -->
      <g transform="translate(17.055312 96.837593)scale(0.1 -0.1)">
       <use xlink:href="#DejaVuSans-2212"/>
       <use x="83.789062" xlink:href="#DejaVuSans-34"/>
       <use x="147.412109" xlink:href="#DejaVuSans-30"/>
      </g>
     </g>
    </g>
    <g id="ytick_6">
     <g id="line2d_23">
      <path clip-path="url(#p6cc4f068fc)" d="M 45.16 54.787967 
L 709.2 54.787967 
" style="fill:none;stroke:#b0b0b0;stroke-linecap:square;stroke-width:0.8;"/>
     </g>
     <g id="line2d_24">
      <g>
       <use style="stroke:#000000;stroke-width:0.8;" x="45.16" xlink:href="#m86b27158de" y="54.787967"/>
      </g>
     </g>
     <g id="text_14">
      <!-- −20 -->
      <g transform="translate(17.055312 58.587186)scale(0.1 -0.1)">
       <use xlink:href="#DejaVuSans-2212"/>
       <use x="83.789062" xlink:href="#DejaVuSans-32"/>
       <use x="147.412109" xlink:href="#DejaVuSans-30"/>
      </g>
     </g>
    </g>
    <g id="ytick_7">
     <g id="line2d_25">
      <path clip-path="url(#p6cc4f068fc)" d="M 45.16 16.537561 
L 709.2 16.537561 
" style="fill:none;stroke:#b0b0b0;stroke-linecap:square;stroke-width:0.8;"/>
     </g>
     <g id="line2d_26">
      <g>
       <use style="stroke:#000000;stroke-width:0.8;" x="45.16" xlink:href="#m86b27158de" y="16.537561"/>
      </g>
     </g>
     <g id="text_15">
      <!-- 0 -->
      <g transform="translate(31.7975 20.33678)scale(0.1 -0.1)">
       <use xlink:href="#DejaVuSans-30"/>
      </g>
     </g>
    </g>
   </g>
   <g id="line2d_27">
    <path clip-path="url(#p6cc4f068fc)" d="M 45.16 16.632214 
L 47.753906 16.593412 
L 49.050859 19.46813 
L 50.347812 74.469222 
L 51.644766 187.82843 
L 52.941719 188.295118 
L 54.238672 194.920059 
L 55.535625 205.667285 
L 56.832578 188.289695 
L 58.129531 187.799125 
L 59.426484 197.857767 
L 60.723438 223.649048 
L 62.020391 193.398894 
L 63.317344 187.294934 
L 64.614297 187.993688 
L 65.91125 195.852491 
L 67.208203 238.292278 
L 68.505156 198.399064 
L 69.802109 188.889267 
L 71.099063 186.877025 
L 72.396016 190.208862 
L 73.692969 202.162763 
L 74.989922 220.19251 
L 76.286875 194.626396 
L 77.583828 187.891285 
L 78.880781 187.065773 
L 80.177734 191.428901 
L 81.474688 205.682122 
L 82.771641 213.377303 
L 84.068594 193.513514 
L 85.365547 187.666645 
L 86.6625 187.284916 
L 87.959453 192.04601 
L 89.256406 207.369384 
L 90.553359 211.410346 
L 91.850313 193.135548 
L 93.147266 187.566982 
L 94.444219 187.289867 
L 95.741172 192.084606 
L 97.038125 207.356214 
L 98.335078 211.621106 
L 99.632031 193.221372 
L 100.928984 187.576796 
L 102.225938 187.188989 
L 103.522891 191.770582 
L 104.819844 206.229571 
L 106.116797 213.387612 
L 107.41375 193.690638 
L 108.710703 187.739199 
L 110.007656 187.118653 
L 111.304609 191.373262 
L 112.601563 204.78901 
L 113.898516 216.176813 
L 115.195469 194.349715 
L 116.492422 187.961678 
L 117.789375 187.034854 
L 119.086328 190.893641 
L 120.383281 203.180885 
L 121.680234 220.339997 
L 122.977187 195.183022 
L 124.274141 188.240398 
L 125.571094 186.951876 
L 126.868047 190.37226 
L 128.165 201.529751 
L 129.461953 226.859017 
L 130.758906 196.199066 
L 132.055859 188.583275 
L 133.352813 186.887069 
L 134.649766 189.843128 
L 135.946719 199.91692 
L 137.243672 239.266046 
L 138.540625 197.412485 
L 139.837578 188.996737 
L 141.134531 186.852625 
L 142.431484 189.329084 
L 143.728438 198.38519 
L 145.025391 267.342747 
L 146.322344 198.848048 
L 147.619297 189.487042 
L 148.91625 186.857208 
L 150.213203 188.844947 
L 151.510156 196.953981 
L 152.807109 233.37483 
L 154.104062 200.544314 
L 155.401016 190.06103 
L 156.697969 186.907275 
L 157.994922 188.400207 
L 159.291875 195.629658 
L 160.588828 222.707409 
L 161.885781 202.560131 
L 163.182734 190.726765 
L 164.479688 187.008007 
L 165.776641 188.000886 
L 167.073594 194.411578 
L 168.370547 216.133515 
L 169.6675 204.987244 
L 170.964453 191.4943 
L 172.261406 187.164009 
L 173.558359 187.650747 
L 174.855313 193.295321 
L 176.152266 211.365077 
L 177.449219 207.976943 
L 178.746172 192.376995 
L 180.043125 187.379981 
L 181.340078 187.351947 
L 182.637031 192.27368 
L 183.933984 207.619312 
L 185.230938 211.807817 
L 186.527891 193.395905 
L 187.824844 187.662472 
L 189.121797 187.105446 
L 190.41875 191.337283 
L 193.012656 217.116817 
L 194.309609 194.610979 
L 195.606563 188.053838 
L 196.903516 186.957106 
L 198.200469 190.537921 
L 199.497422 201.994185 
L 200.794375 224.994332 
L 202.091328 195.984098 
L 203.388281 188.516715 
L 204.685234 186.870263 
L 205.982188 189.834462 
L 207.279141 199.857684 
L 208.576094 240.657318 
L 209.873047 197.548604 
L 211.17 189.055828 
L 212.466953 186.843992 
L 213.763906 189.216438 
L 215.060859 198.01492 
L 216.357813 249.851744 
L 217.654766 199.34835 
L 218.951719 189.677645 
L 220.248672 186.878619 
L 221.545625 188.677795 
L 222.842578 196.406885 
L 224.139531 227.921235 
L 225.436484 201.44302 
L 226.733438 190.389554 
L 228.030391 186.975001 
L 229.327344 188.214 
L 230.624297 194.992604 
L 231.92125 218.800136 
L 233.218203 203.920465 
L 234.515156 191.200548 
L 235.812109 187.134488 
L 237.109063 187.821502 
L 238.406016 193.742218 
L 239.702969 212.971706 
L 240.999922 206.918808 
L 242.296875 192.121836 
L 243.593828 187.358972 
L 244.890781 187.497526 
L 246.187734 192.633267 
L 247.484688 208.699081 
L 248.781641 210.67431 
L 250.078594 193.167625 
L 251.375547 187.650976 
L 252.6725 187.239965 
L 253.969453 191.648443 
L 255.266406 205.3416 
L 256.563359 215.643927 
L 257.860313 194.356265 
L 259.157266 188.013781 
L 260.454219 187.047325 
L 261.751172 190.774159 
L 263.048125 202.590767 
L 264.345078 222.909959 
L 265.642031 195.711973 
L 266.938984 188.45162 
L 268.235938 186.918705 
L 269.532891 189.999575 
L 270.829844 200.273917 
L 272.126797 236.389488 
L 273.42375 197.267636 
L 274.720703 188.969968 
L 276.017656 186.853808 
L 277.314609 189.315891 
L 278.611563 198.28419 
L 279.908516 258.49672 
L 281.205469 199.069682 
L 282.502422 189.576085 
L 283.799375 186.853014 
L 285.096328 188.715856 
L 286.393281 196.549932 
L 287.690234 229.215917 
L 288.987188 201.187758 
L 290.284141 190.280268 
L 291.581094 186.917615 
L 292.878047 188.192123 
L 294.175 195.017043 
L 295.471953 219.100341 
L 296.768906 203.744727 
L 298.065859 191.104619 
L 299.362813 187.061554 
L 300.659766 187.752092 
L 301.956719 193.660583 
L 303.253672 212.793321 
L 304.550625 206.970554 
L 305.847578 192.107922 
L 307.144531 187.321005 
L 308.441484 187.434666 
L 309.738438 192.525777 
L 311.035391 208.4083 
L 312.332344 210.951173 
L 313.629297 193.221199 
L 314.92625 187.647222 
L 316.223203 187.191782 
L 317.520156 191.536476 
L 318.817109 205.02503 
L 320.114063 216.236627 
L 321.411016 194.476271 
L 322.707969 188.044948 
L 324.004922 187.018605 
L 325.301875 190.66964 
L 326.598828 202.28305 
L 327.895781 224.097865 
L 329.192734 195.900043 
L 330.489688 188.518413 
L 331.786641 186.912762 
L 333.083594 189.910445 
L 334.380547 199.992289 
L 335.6775 239.650605 
L 336.974453 197.526739 
L 338.271406 189.072726 
L 339.568359 186.873022 
L 340.865313 189.248021 
L 342.162266 198.039026 
L 343.459219 249.473067 
L 344.756172 199.403088 
L 346.053125 189.714277 
L 347.350078 186.89901 
L 348.647031 188.674053 
L 349.943984 196.349578 
L 351.240937 227.274747 
L 352.537891 201.596088 
L 353.834844 190.451145 
L 355.131797 186.991125 
L 356.42875 188.182072 
L 357.725703 194.873392 
L 359.022656 218.122583 
L 361.616563 191.293665 
L 362.913516 187.150564 
L 364.210469 187.767025 
L 365.507422 193.574181 
L 366.804375 212.283229 
L 368.101328 207.402963 
L 369.398281 192.255226 
L 370.695234 187.379426 
L 371.992188 187.424995 
L 373.289141 192.424864 
L 374.586094 208.000394 
L 375.883047 211.470265 
L 377.18 193.354233 
L 378.476953 187.681053 
L 379.773906 187.152903 
L 381.070859 191.403937 
L 383.664766 217.030675 
L 384.961719 194.617115 
L 386.258672 188.060975 
L 387.555625 186.948133 
L 388.852578 190.491075 
L 390.149531 201.827805 
L 391.446484 225.860278 
L 392.743438 196.117169 
L 394.040391 188.555613 
L 395.337344 186.839533 
L 396.634297 189.70959 
L 397.93125 199.500627 
L 399.228203 246.396697 
L 400.525156 197.869942 
L 401.822109 189.164744 
L 403.119063 186.831964 
L 404.416016 189.069205 
L 405.712969 197.585428 
L 407.009922 240.947495 
L 408.306875 199.869073 
L 409.603828 189.85766 
L 410.900781 186.891681 
L 412.197734 188.523812 
L 413.494688 195.944385 
L 414.791641 224.436449 
L 416.088594 202.200566 
L 417.385547 190.645722 
L 418.6825 187.018517 
L 419.979453 188.063596 
L 421.276406 194.519509 
L 422.573359 216.392306 
L 423.870313 204.979966 
L 425.167266 191.540146 
L 426.464219 187.213306 
L 427.761172 187.68225 
L 429.058125 193.272494 
L 430.355078 211.055196 
L 431.652031 208.393716 
L 432.948984 192.554506 
L 434.245938 187.477761 
L 435.542891 187.375287 
L 436.839844 192.176005 
L 438.136797 207.077145 
L 439.43375 212.779983 
L 440.730703 193.70606 
L 442.027656 187.814508 
L 443.324609 187.13949 
L 444.621563 191.209719 
L 445.918516 203.922683 
L 447.215469 218.861151 
L 448.512422 195.017378 
L 449.809375 188.227175 
L 451.106328 186.97277 
L 452.403281 190.358014 
L 453.700234 201.323606 
L 454.997188 228.712833 
L 456.294141 196.519146 
L 457.591094 188.720921 
L 458.888047 186.873465 
L 460.185 189.608773 
L 461.481953 199.126218 
L 462.778906 256.965151 
L 464.075859 198.253994 
L 465.372813 189.302385 
L 466.669766 186.8415 
L 467.966719 188.951941 
L 469.263672 197.232573 
L 470.560625 236.068686 
L 471.857578 200.286056 
L 473.154531 189.98158 
L 474.451484 186.877363 
L 475.748438 188.37839 
L 477.045391 195.572439 
L 478.342344 222.227768 
L 479.639297 202.729404 
L 480.93625 190.782349 
L 482.233203 186.996148 
L 483.530156 187.895377 
L 484.827109 194.113162 
L 486.124063 214.70382 
L 487.421016 205.795538 
L 488.717969 191.762241 
L 490.014922 187.235139 
L 491.311875 187.543908 
L 492.608828 192.90065 
L 493.905781 209.747421 
L 495.202734 209.528529 
L 496.499688 192.849519 
L 497.796641 187.542008 
L 499.093594 187.271212 
L 500.390547 191.847931 
L 501.6875 206.026955 
L 502.984453 214.386248 
L 504.281406 194.074874 
L 505.578359 187.921057 
L 506.875313 187.071371 
L 508.172266 190.927951 
L 509.469219 203.062032 
L 510.766172 221.336146 
L 512.063125 195.464109 
L 513.360078 188.376235 
L 514.657031 186.941342 
L 515.953984 190.123357 
L 517.250938 200.612681 
L 518.547891 233.597713 
L 519.844844 197.049842 
L 521.141797 188.912424 
L 522.43875 186.879406 
L 523.735703 189.421512 
L 525.032656 198.540521 
L 526.329609 272.730353 
L 527.626562 198.876399 
L 528.923516 189.535828 
L 530.220469 186.884825 
L 531.517422 188.812802 
L 532.814375 196.7582 
L 534.111328 230.705654 
L 535.408281 201.006856 
L 536.705234 190.254367 
L 538.002188 186.957727 
L 539.299141 188.289792 
L 540.596094 195.207019 
L 541.893047 219.888004 
L 543.19 203.536696 
L 544.486953 191.078403 
L 545.783906 187.099139 
L 547.080859 187.846599 
L 548.377813 193.845176 
L 549.674766 213.412415 
L 550.971719 206.618858 
L 552.268672 192.021613 
L 553.565625 187.311138 
L 554.862578 187.4786 
L 556.159531 192.641564 
L 557.456484 208.786758 
L 558.753438 210.526428 
L 560.050391 193.103435 
L 561.347344 187.597414 
L 562.644297 187.181843 
L 563.94125 191.570188 
L 565.238203 205.182204 
L 566.535156 215.839409 
L 567.832109 194.359472 
L 569.129063 187.971566 
L 570.426016 186.963823 
L 571.722969 190.621689 
L 573.019922 202.230433 
L 574.316875 224.128506 
L 575.613828 195.876201 
L 576.910781 188.485723 
L 578.207734 186.87007 
L 579.504688 189.849577 
L 580.801641 199.878721 
L 582.098594 240.73222 
L 583.395547 197.576721 
L 584.6925 189.074305 
L 585.989453 186.846169 
L 587.286406 189.187442 
L 588.583359 197.90359 
L 589.880313 246.608893 
L 591.177266 199.527766 
L 592.474219 189.749485 
L 593.771172 186.890297 
L 595.068125 188.620536 
L 596.365078 196.210588 
L 597.662031 226.251306 
L 598.958984 201.803275 
L 600.255937 190.520343 
L 601.552891 187.002224 
L 602.849844 188.140043 
L 604.146797 194.741428 
L 605.44375 217.436966 
L 608.037656 191.397502 
L 609.334609 187.182705 
L 610.631562 187.739701 
L 611.928516 193.456231 
L 613.225469 211.763386 
L 614.522422 207.826763 
L 615.819375 192.393727 
L 617.116328 187.433566 
L 618.413281 187.414914 
L 619.710234 192.326229 
L 621.007188 207.593149 
L 622.304141 212.063104 
L 623.601094 193.527759 
L 624.898047 187.756975 
L 626.195 187.16226 
L 627.491953 191.329933 
L 630.085859 217.8755 
L 631.382813 194.820703 
L 632.679766 188.157203 
L 633.976719 186.979459 
L 635.273672 190.450795 
L 636.570625 201.620003 
L 637.867578 227.065584 
L 639.164531 196.304277 
L 640.461484 188.639464 
L 641.758438 186.865072 
L 643.055391 189.675488 
L 644.352344 199.348217 
L 645.649297 250.011815 
L 646.94625 198.023978 
L 648.243203 189.211775 
L 649.540156 186.818613 
L 650.837109 188.991997 
L 652.134063 197.385531 
L 653.431016 238.235398 
L 654.727969 200.060116 
L 656.024922 189.894166 
L 657.321875 186.852918 
L 658.618828 188.404036 
L 659.915781 195.673048 
L 661.212734 222.859947 
L 662.509688 202.567498 
L 663.806641 190.744745 
L 665.103594 187.00876 
L 666.400547 187.957108 
L 667.6975 194.255546 
L 668.994453 215.267264 
L 670.291406 205.516637 
L 671.588359 191.690664 
L 672.885313 187.23217 
L 674.182266 187.594882 
L 675.479219 193.028756 
L 676.776172 210.175412 
L 678.073125 209.150252 
L 679.370078 192.757178 
L 680.667031 187.525987 
L 681.963984 187.309555 
L 683.260938 191.956836 
L 684.557891 206.35668 
L 685.854844 213.871747 
L 687.151797 193.964774 
L 688.44875 187.893316 
L 689.745703 187.096895 
L 691.042656 191.016612 
L 692.339609 203.316642 
L 693.636562 220.570243 
L 694.933516 195.33858 
L 696.230469 188.337654 
L 697.527422 186.952501 
L 698.824375 190.186511 
L 700.121328 200.788286 
L 701.418281 232.333384 
L 702.715234 196.94018 
L 704.012188 188.883784 
L 705.309141 186.891492 
L 706.606094 189.464777 
L 707.903047 198.592981 
L 707.903047 198.592981 
" style="fill:none;stroke:#0000ff;stroke-linecap:square;stroke-width:1.5;"/>
   </g>
   <g id="line2d_28">
    <path clip-path="url(#p6cc4f068fc)" d="M 45.16 16.605026 
L 48.618542 16.605026 
" style="fill:none;stroke:#ff0000;stroke-dasharray:3.7,1.6;stroke-dashoffset:0;"/>
   </g>
   <g id="line2d_29">
    <path clip-path="url(#p6cc4f068fc)" d="M 45.16 16.632214 
L 48.618542 16.632214 
" style="fill:none;stroke:#ff0000;stroke-dasharray:3.7,1.6;stroke-dashoffset:0;"/>
   </g>
   <g id="line2d_30">
    <path clip-path="url(#p6cc4f068fc)" d="M 50.924236 186.818613 
L 709.2 186.818613 
" style="fill:none;stroke:#ff0000;stroke-dasharray:3.7,1.6;stroke-dashoffset:0;"/>
   </g>
   <g id="patch_3">
    <path d="M 45.16 246.04 
L 45.16 10.8 
" style="fill:none;stroke:#000000;stroke-linecap:square;stroke-linejoin:miter;stroke-width:0.8;"/>
   </g>
   <g id="patch_4">
    <path d="M 709.2 246.04 
L 709.2 10.8 
" style="fill:none;stroke:#000000;stroke-linecap:square;stroke-linejoin:miter;stroke-width:0.8;"/>
   </g>
   <g id="patch_5">
    <path d="M 45.16 246.04 
L 709.2 246.04 
" style="fill:none;stroke:#000000;stroke-linecap:square;stroke-linejoin:miter;stroke-width:0.8;"/>
   </g>
   <g id="patch_6">
    <path d="M 45.16 10.8 
L 709.2 10.8 
" style="fill:none;stroke:#000000;stroke-linecap:square;stroke-linejoin:miter;stroke-width:0.8;"/>
   </g>
  </g>
 </g>
 <defs>
  <clipPath id="p6cc4f068fc">
   <rect height="235.24" width="664.04" x="45.16" y="10.8"/>
  </clipPath>
 </defs>
</svg>
