<?xml version="1.0" encoding="utf-8" standalone="no"?>
<!DOCTYPE svg PUBLIC "-//W3C//DTD SVG 1.1//EN"
  "http://www.w3.org/Graphics/SVG/1.1/DTD/svg11.dtd">
<svg height="216pt" version="1.1" viewBox="0 0 720 216" width="720pt" xmlns="http://www.w3.org/2000/svg" xmlns:xlink="http://www.w3.org/1999/xlink">
 <metadata>
  <rdf:RDF xmlns:cc="http://creativecommons.org/ns#" xmlns:dc="http://purl.org/dc/elements/1.1/" xmlns:rdf="http://www.w3.org/1999/02/22-rdf-syntax-ns#">
   <cc:Work>
    <dc:type rdf:resource="http://purl.org/dc/dcmitype/StillImage"/>
    <dc:date>2023-02-24T17:34:22.896791</dc:date>
    <dc:format>image/svg+xml</dc:format>
    <dc:creator>
     <cc:Agent>
      <dc:title>Matplotlib v3.4.3, https://matplotlib.org/</dc:title>
     </cc:Agent>
    </dc:creator>
   </cc:Work>
  </rdf:RDF>
 </metadata>
 <defs>
  <style type="text/css">*{stroke-linecap:butt;stroke-linejoin:round;}</style>
 </defs>
 <g id="figure_1">
  <g id="patch_1">
   <path d="M 0 216 
L 720 216 
L 720 0 
L 0 0 
z
" style="fill:#ffffff;"/>
  </g>
  <g id="axes_1">
   <g id="patch_2">
    <path d="M 59.24 174.04 
L 364.25 174.04 
L 364.25 27.96 
L 59.24 27.96 
z
" style="fill:#ffffff;"/>
   </g>
   <g id="matplotlib.axis_1">
    <g id="xtick_1">
     <g id="line2d_1">
      <path clip-path="url(#p6ad6937fde)" d="M 59.24 174.04 
L 59.24 27.96 
" style="fill:none;stroke:#b0b0b0;stroke-linecap:square;stroke-width:0.8;"/>
     </g>
     <g id="line2d_2">
      <defs>
       <path d="M 0 0 
L 0 3.5 
" id="mdf54b62bee" style="stroke:#000000;stroke-width:0.8;"/>
      </defs>
      <g>
       <use style="stroke:#000000;stroke-width:0.8;" x="59.24" xlink:href="#mdf54b62bee" y="174.04"/>
      </g>
     </g>
     <g id="text_1">
      <!-- 0 Hz -->
      <g transform="translate(48.085313 188.638438)scale(0.1 -0.1)">
       <defs>
        <path d="M 2034 4250 
Q 1547 4250 1301 3770 
Q 1056 3291 1056 2328 
Q 1056 1369 1301 889 
Q 1547 409 2034 409 
Q 2525 409 2770 889 
Q 3016 1369 3016 2328 
Q 3016 3291 2770 3770 
Q 2525 4250 2034 4250 
z
M 2034 4750 
Q 2819 4750 3233 4129 
Q 3647 3509 3647 2328 
Q 3647 1150 3233 529 
Q 2819 -91 2034 -91 
Q 1250 -91 836 529 
Q 422 1150 422 2328 
Q 422 3509 836 4129 
Q 1250 4750 2034 4750 
z
" id="DejaVuSans-30" transform="scale(0.015625)"/>
        <path id="DejaVuSans-20" transform="scale(0.015625)"/>
        <path d="M 628 4666 
L 1259 4666 
L 1259 2753 
L 3553 2753 
L 3553 4666 
L 4184 4666 
L 4184 0 
L 3553 0 
L 3553 2222 
L 1259 2222 
L 1259 0 
L 628 0 
L 628 4666 
z
" id="DejaVuSans-48" transform="scale(0.015625)"/>
        <path d="M 353 3500 
L 3084 3500 
L 3084 2975 
L 922 459 
L 3084 459 
L 3084 0 
L 275 0 
L 275 525 
L 2438 3041 
L 353 3041 
L 353 3500 
z
" id="DejaVuSans-7a" transform="scale(0.015625)"/>
       </defs>
       <use xlink:href="#DejaVuSans-30"/>
       <use x="63.623047" xlink:href="#DejaVuSans-20"/>
       <use x="95.410156" xlink:href="#DejaVuSans-48"/>
       <use x="170.605469" xlink:href="#DejaVuSans-7a"/>
      </g>
     </g>
    </g>
    <g id="xtick_2">
     <g id="line2d_3">
      <path clip-path="url(#p6ad6937fde)" d="M 122.78375 174.04 
L 122.78375 27.96 
" style="fill:none;stroke:#b0b0b0;stroke-linecap:square;stroke-width:0.8;"/>
     </g>
     <g id="line2d_4">
      <g>
       <use style="stroke:#000000;stroke-width:0.8;" x="122.78375" xlink:href="#mdf54b62bee" y="174.04"/>
      </g>
     </g>
     <g id="text_2">
      <!-- 20 kHz -->
      <g transform="translate(105.5525 188.638438)scale(0.1 -0.1)">
       <defs>
        <path d="M 1228 531 
L 3431 531 
L 3431 0 
L 469 0 
L 469 531 
Q 828 903 1448 1529 
Q 2069 2156 2228 2338 
Q 2531 2678 2651 2914 
Q 2772 3150 2772 3378 
Q 2772 3750 2511 3984 
Q 2250 4219 1831 4219 
Q 1534 4219 1204 4116 
Q 875 4013 500 3803 
L 500 4441 
Q 881 4594 1212 4672 
Q 1544 4750 1819 4750 
Q 2544 4750 2975 4387 
Q 3406 4025 3406 3419 
Q 3406 3131 3298 2873 
Q 3191 2616 2906 2266 
Q 2828 2175 2409 1742 
Q 1991 1309 1228 531 
z
" id="DejaVuSans-32" transform="scale(0.015625)"/>
        <path d="M 581 4863 
L 1159 4863 
L 1159 1991 
L 2875 3500 
L 3609 3500 
L 1753 1863 
L 3688 0 
L 2938 0 
L 1159 1709 
L 1159 0 
L 581 0 
L 581 4863 
z
" id="DejaVuSans-6b" transform="scale(0.015625)"/>
       </defs>
       <use xlink:href="#DejaVuSans-32"/>
       <use x="63.623047" xlink:href="#DejaVuSans-30"/>
       <use x="127.246094" xlink:href="#DejaVuSans-20"/>
       <use x="159.033203" xlink:href="#DejaVuSans-6b"/>
       <use x="216.943359" xlink:href="#DejaVuSans-48"/>
       <use x="292.138672" xlink:href="#DejaVuSans-7a"/>
      </g>
     </g>
    </g>
    <g id="xtick_3">
     <g id="line2d_5">
      <path clip-path="url(#p6ad6937fde)" d="M 186.3275 174.04 
L 186.3275 27.96 
" style="fill:none;stroke:#b0b0b0;stroke-linecap:square;stroke-width:0.8;"/>
     </g>
     <g id="line2d_6">
      <g>
       <use style="stroke:#000000;stroke-width:0.8;" x="186.3275" xlink:href="#mdf54b62bee" y="174.04"/>
      </g>
     </g>
     <g id="text_3">
      <!-- 40 kHz -->
      <g transform="translate(169.09625 188.638438)scale(0.1 -0.1)">
       <defs>
        <path d="M 2419 4116 
L 825 1625 
L 2419 1625 
L 2419 4116 
z
M 2253 4666 
L 3047 4666 
L 3047 1625 
L 3713 1625 
L 3713 1100 
L 3047 1100 
L 3047 0 
L 2419 0 
L 2419 1100 
L 313 1100 
L 313 1709 
L 2253 4666 
z
" id="DejaVuSans-34" transform="scale(0.015625)"/>
       </defs>
       <use xlink:href="#DejaVuSans-34"/>
       <use x="63.623047" xlink:href="#DejaVuSans-30"/>
       <use x="127.246094" xlink:href="#DejaVuSans-20"/>
       <use x="159.033203" xlink:href="#DejaVuSans-6b"/>
       <use x="216.943359" xlink:href="#DejaVuSans-48"/>
       <use x="292.138672" xlink:href="#DejaVuSans-7a"/>
      </g>
     </g>
    </g>
    <g id="xtick_4">
     <g id="line2d_7">
      <path clip-path="url(#p6ad6937fde)" d="M 249.87125 174.04 
L 249.87125 27.96 
" style="fill:none;stroke:#b0b0b0;stroke-linecap:square;stroke-width:0.8;"/>
     </g>
     <g id="line2d_8">
      <g>
       <use style="stroke:#000000;stroke-width:0.8;" x="249.87125" xlink:href="#mdf54b62bee" y="174.04"/>
      </g>
     </g>
     <g id="text_4">
      <!-- 60 kHz -->
      <g transform="translate(232.64 188.638438)scale(0.1 -0.1)">
       <defs>
        <path d="M 2113 2584 
Q 1688 2584 1439 2293 
Q 1191 2003 1191 1497 
Q 1191 994 1439 701 
Q 1688 409 2113 409 
Q 2538 409 2786 701 
Q 3034 994 3034 1497 
Q 3034 2003 2786 2293 
Q 2538 2584 2113 2584 
z
M 3366 4563 
L 3366 3988 
Q 3128 4100 2886 4159 
Q 2644 4219 2406 4219 
Q 1781 4219 1451 3797 
Q 1122 3375 1075 2522 
Q 1259 2794 1537 2939 
Q 1816 3084 2150 3084 
Q 2853 3084 3261 2657 
Q 3669 2231 3669 1497 
Q 3669 778 3244 343 
Q 2819 -91 2113 -91 
Q 1303 -91 875 529 
Q 447 1150 447 2328 
Q 447 3434 972 4092 
Q 1497 4750 2381 4750 
Q 2619 4750 2861 4703 
Q 3103 4656 3366 4563 
z
" id="DejaVuSans-36" transform="scale(0.015625)"/>
       </defs>
       <use xlink:href="#DejaVuSans-36"/>
       <use x="63.623047" xlink:href="#DejaVuSans-30"/>
       <use x="127.246094" xlink:href="#DejaVuSans-20"/>
       <use x="159.033203" xlink:href="#DejaVuSans-6b"/>
       <use x="216.943359" xlink:href="#DejaVuSans-48"/>
       <use x="292.138672" xlink:href="#DejaVuSans-7a"/>
      </g>
     </g>
    </g>
    <g id="xtick_5">
     <g id="line2d_9">
      <path clip-path="url(#p6ad6937fde)" d="M 313.415 174.04 
L 313.415 27.96 
" style="fill:none;stroke:#b0b0b0;stroke-linecap:square;stroke-width:0.8;"/>
     </g>
     <g id="line2d_10">
      <g>
       <use style="stroke:#000000;stroke-width:0.8;" x="313.415" xlink:href="#mdf54b62bee" y="174.04"/>
      </g>
     </g>
     <g id="text_5">
      <!-- 80 kHz -->
      <g transform="translate(296.18375 188.638438)scale(0.1 -0.1)">
       <defs>
        <path d="M 2034 2216 
Q 1584 2216 1326 1975 
Q 1069 1734 1069 1313 
Q 1069 891 1326 650 
Q 1584 409 2034 409 
Q 2484 409 2743 651 
Q 3003 894 3003 1313 
Q 3003 1734 2745 1975 
Q 2488 2216 2034 2216 
z
M 1403 2484 
Q 997 2584 770 2862 
Q 544 3141 544 3541 
Q 544 4100 942 4425 
Q 1341 4750 2034 4750 
Q 2731 4750 3128 4425 
Q 3525 4100 3525 3541 
Q 3525 3141 3298 2862 
Q 3072 2584 2669 2484 
Q 3125 2378 3379 2068 
Q 3634 1759 3634 1313 
Q 3634 634 3220 271 
Q 2806 -91 2034 -91 
Q 1263 -91 848 271 
Q 434 634 434 1313 
Q 434 1759 690 2068 
Q 947 2378 1403 2484 
z
M 1172 3481 
Q 1172 3119 1398 2916 
Q 1625 2713 2034 2713 
Q 2441 2713 2670 2916 
Q 2900 3119 2900 3481 
Q 2900 3844 2670 4047 
Q 2441 4250 2034 4250 
Q 1625 4250 1398 4047 
Q 1172 3844 1172 3481 
z
" id="DejaVuSans-38" transform="scale(0.015625)"/>
       </defs>
       <use xlink:href="#DejaVuSans-38"/>
       <use x="63.623047" xlink:href="#DejaVuSans-30"/>
       <use x="127.246094" xlink:href="#DejaVuSans-20"/>
       <use x="159.033203" xlink:href="#DejaVuSans-6b"/>
       <use x="216.943359" xlink:href="#DejaVuSans-48"/>
       <use x="292.138672" xlink:href="#DejaVuSans-7a"/>
      </g>
     </g>
    </g>
    <g id="text_6">
     <!-- Tần số -->
     <g transform="translate(195.205156 202.316563)scale(0.1 -0.1)">
      <defs>
       <path d="M -19 4666 
L 3928 4666 
L 3928 4134 
L 2272 4134 
L 2272 0 
L 1638 0 
L 1638 4134 
L -19 4134 
L -19 4666 
z
" id="DejaVuSans-54" transform="scale(0.015625)"/>
       <path d="M 2194 1759 
Q 1497 1759 1228 1600 
Q 959 1441 959 1056 
Q 959 750 1161 570 
Q 1363 391 1709 391 
Q 2188 391 2477 730 
Q 2766 1069 2766 1631 
L 2766 1759 
L 2194 1759 
z
M 3341 1997 
L 3341 0 
L 2766 0 
L 2766 531 
Q 2569 213 2275 61 
Q 1981 -91 1556 -91 
Q 1019 -91 701 211 
Q 384 513 384 1019 
Q 384 1609 779 1909 
Q 1175 2209 1959 2209 
L 2766 2209 
L 2766 2266 
Q 2766 2663 2505 2880 
Q 2244 3097 1772 3097 
Q 1472 3097 1187 3025 
Q 903 2953 641 2809 
L 641 3341 
Q 956 3463 1253 3523 
Q 1550 3584 1831 3584 
Q 2591 3584 2966 3190 
Q 3341 2797 3341 1997 
z
M 2590 5409 
L 3202 4584 
L 2724 4584 
L 2006 5409 
L 2590 5409 
z
M 1554 4775 
L 2142 4775 
L 2801 3944 
L 2367 3944 
L 1848 4500 
L 1329 3944 
L 895 3944 
L 1554 4775 
z
" id="DejaVuSans-1ea7" transform="scale(0.015625)"/>
       <path d="M 3513 2113 
L 3513 0 
L 2938 0 
L 2938 2094 
Q 2938 2591 2744 2837 
Q 2550 3084 2163 3084 
Q 1697 3084 1428 2787 
Q 1159 2491 1159 1978 
L 1159 0 
L 581 0 
L 581 3500 
L 1159 3500 
L 1159 2956 
Q 1366 3272 1645 3428 
Q 1925 3584 2291 3584 
Q 2894 3584 3203 3211 
Q 3513 2838 3513 2113 
z
" id="DejaVuSans-6e" transform="scale(0.015625)"/>
       <path d="M 2834 3397 
L 2834 2853 
Q 2591 2978 2328 3040 
Q 2066 3103 1784 3103 
Q 1356 3103 1142 2972 
Q 928 2841 928 2578 
Q 928 2378 1081 2264 
Q 1234 2150 1697 2047 
L 1894 2003 
Q 2506 1872 2764 1633 
Q 3022 1394 3022 966 
Q 3022 478 2636 193 
Q 2250 -91 1575 -91 
Q 1294 -91 989 -36 
Q 684 19 347 128 
L 347 722 
Q 666 556 975 473 
Q 1284 391 1588 391 
Q 1994 391 2212 530 
Q 2431 669 2431 922 
Q 2431 1156 2273 1281 
Q 2116 1406 1581 1522 
L 1381 1569 
Q 847 1681 609 1914 
Q 372 2147 372 2553 
Q 372 3047 722 3315 
Q 1072 3584 1716 3584 
Q 2034 3584 2315 3537 
Q 2597 3491 2834 3397 
z
" id="DejaVuSans-73" transform="scale(0.015625)"/>
       <path d="M 1658 4775 
L 2246 4775 
L 2905 3944 
L 2471 3944 
L 1952 4500 
L 1433 3944 
L 999 3944 
L 1658 4775 
z
M 3268 5409 
L 3846 5409 
L 3134 4584 
L 2655 4584 
L 3268 5409 
z
M 1959 3097 
Q 1497 3097 1228 2736 
Q 959 2375 959 1747 
Q 959 1119 1226 758 
Q 1494 397 1959 397 
Q 2419 397 2687 759 
Q 2956 1122 2956 1747 
Q 2956 2369 2687 2733 
Q 2419 3097 1959 3097 
z
M 1959 3584 
Q 2709 3584 3137 3096 
Q 3566 2609 3566 1747 
Q 3566 888 3137 398 
Q 2709 -91 1959 -91 
Q 1206 -91 779 398 
Q 353 888 353 1747 
Q 353 2609 779 3096 
Q 1206 3584 1959 3584 
z
" id="DejaVuSans-1ed1" transform="scale(0.015625)"/>
      </defs>
      <use xlink:href="#DejaVuSans-54"/>
      <use x="61.083984" xlink:href="#DejaVuSans-1ea7"/>
      <use x="122.363281" xlink:href="#DejaVuSans-6e"/>
      <use x="185.742188" xlink:href="#DejaVuSans-20"/>
      <use x="217.529297" xlink:href="#DejaVuSans-73"/>
      <use x="269.628906" xlink:href="#DejaVuSans-1ed1"/>
     </g>
    </g>
   </g>
   <g id="matplotlib.axis_2">
    <g id="ytick_1">
     <g id="line2d_11">
      <path clip-path="url(#p6ad6937fde)" d="M 59.24 163.219259 
L 364.25 163.219259 
" style="fill:none;stroke:#b0b0b0;stroke-linecap:square;stroke-width:0.8;"/>
     </g>
     <g id="line2d_12">
      <defs>
       <path d="M 0 0 
L -3.5 0 
" id="mb1f36f924d" style="stroke:#000000;stroke-width:0.8;"/>
      </defs>
      <g>
       <use style="stroke:#000000;stroke-width:0.8;" x="59.24" xlink:href="#mb1f36f924d" y="163.219259"/>
      </g>
     </g>
     <g id="text_7">
      <!-- −120 -->
      <g transform="translate(24.772813 167.018478)scale(0.1 -0.1)">
       <defs>
        <path d="M 678 2272 
L 4684 2272 
L 4684 1741 
L 678 1741 
L 678 2272 
z
" id="DejaVuSans-2212" transform="scale(0.015625)"/>
        <path d="M 794 531 
L 1825 531 
L 1825 4091 
L 703 3866 
L 703 4441 
L 1819 4666 
L 2450 4666 
L 2450 531 
L 3481 531 
L 3481 0 
L 794 0 
L 794 531 
z
" id="DejaVuSans-31" transform="scale(0.015625)"/>
       </defs>
       <use xlink:href="#DejaVuSans-2212"/>
       <use x="83.789062" xlink:href="#DejaVuSans-31"/>
       <use x="147.412109" xlink:href="#DejaVuSans-32"/>
       <use x="211.035156" xlink:href="#DejaVuSans-30"/>
      </g>
     </g>
    </g>
    <g id="ytick_2">
     <g id="line2d_13">
      <path clip-path="url(#p6ad6937fde)" d="M 59.24 141.577778 
L 364.25 141.577778 
" style="fill:none;stroke:#b0b0b0;stroke-linecap:square;stroke-width:0.8;"/>
     </g>
     <g id="line2d_14">
      <g>
       <use style="stroke:#000000;stroke-width:0.8;" x="59.24" xlink:href="#mb1f36f924d" y="141.577778"/>
      </g>
     </g>
     <g id="text_8">
      <!-- −100 -->
      <g transform="translate(24.772813 145.376997)scale(0.1 -0.1)">
       <use xlink:href="#DejaVuSans-2212"/>
       <use x="83.789062" xlink:href="#DejaVuSans-31"/>
       <use x="147.412109" xlink:href="#DejaVuSans-30"/>
       <use x="211.035156" xlink:href="#DejaVuSans-30"/>
      </g>
     </g>
    </g>
    <g id="ytick_3">
     <g id="line2d_15">
      <path clip-path="url(#p6ad6937fde)" d="M 59.24 119.936296 
L 364.25 119.936296 
" style="fill:none;stroke:#b0b0b0;stroke-linecap:square;stroke-width:0.8;"/>
     </g>
     <g id="line2d_16">
      <g>
       <use style="stroke:#000000;stroke-width:0.8;" x="59.24" xlink:href="#mb1f36f924d" y="119.936296"/>
      </g>
     </g>
     <g id="text_9">
      <!-- −80 -->
      <g transform="translate(31.135313 123.735515)scale(0.1 -0.1)">
       <use xlink:href="#DejaVuSans-2212"/>
       <use x="83.789062" xlink:href="#DejaVuSans-38"/>
       <use x="147.412109" xlink:href="#DejaVuSans-30"/>
      </g>
     </g>
    </g>
    <g id="ytick_4">
     <g id="line2d_17">
      <path clip-path="url(#p6ad6937fde)" d="M 59.24 98.294815 
L 364.25 98.294815 
" style="fill:none;stroke:#b0b0b0;stroke-linecap:square;stroke-width:0.8;"/>
     </g>
     <g id="line2d_18">
      <g>
       <use style="stroke:#000000;stroke-width:0.8;" x="59.24" xlink:href="#mb1f36f924d" y="98.294815"/>
      </g>
     </g>
     <g id="text_10">
      <!-- −60 -->
      <g transform="translate(31.135313 102.094034)scale(0.1 -0.1)">
       <use xlink:href="#DejaVuSans-2212"/>
       <use x="83.789062" xlink:href="#DejaVuSans-36"/>
       <use x="147.412109" xlink:href="#DejaVuSans-30"/>
      </g>
     </g>
    </g>
    <g id="ytick_5">
     <g id="line2d_19">
      <path clip-path="url(#p6ad6937fde)" d="M 59.24 76.653333 
L 364.25 76.653333 
" style="fill:none;stroke:#b0b0b0;stroke-linecap:square;stroke-width:0.8;"/>
     </g>
     <g id="line2d_20">
      <g>
       <use style="stroke:#000000;stroke-width:0.8;" x="59.24" xlink:href="#mb1f36f924d" y="76.653333"/>
      </g>
     </g>
     <g id="text_11">
      <!-- −40 -->
      <g transform="translate(31.135313 80.452552)scale(0.1 -0.1)">
       <use xlink:href="#DejaVuSans-2212"/>
       <use x="83.789062" xlink:href="#DejaVuSans-34"/>
       <use x="147.412109" xlink:href="#DejaVuSans-30"/>
      </g>
     </g>
    </g>
    <g id="ytick_6">
     <g id="line2d_21">
      <path clip-path="url(#p6ad6937fde)" d="M 59.24 55.011852 
L 364.25 55.011852 
" style="fill:none;stroke:#b0b0b0;stroke-linecap:square;stroke-width:0.8;"/>
     </g>
     <g id="line2d_22">
      <g>
       <use style="stroke:#000000;stroke-width:0.8;" x="59.24" xlink:href="#mb1f36f924d" y="55.011852"/>
      </g>
     </g>
     <g id="text_12">
      <!-- −20 -->
      <g transform="translate(31.135313 58.811071)scale(0.1 -0.1)">
       <use xlink:href="#DejaVuSans-2212"/>
       <use x="83.789062" xlink:href="#DejaVuSans-32"/>
       <use x="147.412109" xlink:href="#DejaVuSans-30"/>
      </g>
     </g>
    </g>
    <g id="ytick_7">
     <g id="line2d_23">
      <path clip-path="url(#p6ad6937fde)" d="M 59.24 33.37037 
L 364.25 33.37037 
" style="fill:none;stroke:#b0b0b0;stroke-linecap:square;stroke-width:0.8;"/>
     </g>
     <g id="line2d_24">
      <g>
       <use style="stroke:#000000;stroke-width:0.8;" x="59.24" xlink:href="#mb1f36f924d" y="33.37037"/>
      </g>
     </g>
     <g id="text_13">
      <!-- 0 -->
      <g transform="translate(45.8775 37.169589)scale(0.1 -0.1)">
       <use xlink:href="#DejaVuSans-30"/>
      </g>
     </g>
    </g>
    <g id="text_14">
     <!-- Suy hao (dB) -->
     <g transform="translate(18.693125 133.278906)rotate(-90)scale(0.1 -0.1)">
      <defs>
       <path d="M 3425 4513 
L 3425 3897 
Q 3066 4069 2747 4153 
Q 2428 4238 2131 4238 
Q 1616 4238 1336 4038 
Q 1056 3838 1056 3469 
Q 1056 3159 1242 3001 
Q 1428 2844 1947 2747 
L 2328 2669 
Q 3034 2534 3370 2195 
Q 3706 1856 3706 1288 
Q 3706 609 3251 259 
Q 2797 -91 1919 -91 
Q 1588 -91 1214 -16 
Q 841 59 441 206 
L 441 856 
Q 825 641 1194 531 
Q 1563 422 1919 422 
Q 2459 422 2753 634 
Q 3047 847 3047 1241 
Q 3047 1584 2836 1778 
Q 2625 1972 2144 2069 
L 1759 2144 
Q 1053 2284 737 2584 
Q 422 2884 422 3419 
Q 422 4038 858 4394 
Q 1294 4750 2059 4750 
Q 2388 4750 2728 4690 
Q 3069 4631 3425 4513 
z
" id="DejaVuSans-53" transform="scale(0.015625)"/>
       <path d="M 544 1381 
L 544 3500 
L 1119 3500 
L 1119 1403 
Q 1119 906 1312 657 
Q 1506 409 1894 409 
Q 2359 409 2629 706 
Q 2900 1003 2900 1516 
L 2900 3500 
L 3475 3500 
L 3475 0 
L 2900 0 
L 2900 538 
Q 2691 219 2414 64 
Q 2138 -91 1772 -91 
Q 1169 -91 856 284 
Q 544 659 544 1381 
z
M 1991 3584 
L 1991 3584 
z
" id="DejaVuSans-75" transform="scale(0.015625)"/>
       <path d="M 2059 -325 
Q 1816 -950 1584 -1140 
Q 1353 -1331 966 -1331 
L 506 -1331 
L 506 -850 
L 844 -850 
Q 1081 -850 1212 -737 
Q 1344 -625 1503 -206 
L 1606 56 
L 191 3500 
L 800 3500 
L 1894 763 
L 2988 3500 
L 3597 3500 
L 2059 -325 
z
" id="DejaVuSans-79" transform="scale(0.015625)"/>
       <path d="M 3513 2113 
L 3513 0 
L 2938 0 
L 2938 2094 
Q 2938 2591 2744 2837 
Q 2550 3084 2163 3084 
Q 1697 3084 1428 2787 
Q 1159 2491 1159 1978 
L 1159 0 
L 581 0 
L 581 4863 
L 1159 4863 
L 1159 2956 
Q 1366 3272 1645 3428 
Q 1925 3584 2291 3584 
Q 2894 3584 3203 3211 
Q 3513 2838 3513 2113 
z
" id="DejaVuSans-68" transform="scale(0.015625)"/>
       <path d="M 2194 1759 
Q 1497 1759 1228 1600 
Q 959 1441 959 1056 
Q 959 750 1161 570 
Q 1363 391 1709 391 
Q 2188 391 2477 730 
Q 2766 1069 2766 1631 
L 2766 1759 
L 2194 1759 
z
M 3341 1997 
L 3341 0 
L 2766 0 
L 2766 531 
Q 2569 213 2275 61 
Q 1981 -91 1556 -91 
Q 1019 -91 701 211 
Q 384 513 384 1019 
Q 384 1609 779 1909 
Q 1175 2209 1959 2209 
L 2766 2209 
L 2766 2266 
Q 2766 2663 2505 2880 
Q 2244 3097 1772 3097 
Q 1472 3097 1187 3025 
Q 903 2953 641 2809 
L 641 3341 
Q 956 3463 1253 3523 
Q 1550 3584 1831 3584 
Q 2591 3584 2966 3190 
Q 3341 2797 3341 1997 
z
" id="DejaVuSans-61" transform="scale(0.015625)"/>
       <path d="M 1959 3097 
Q 1497 3097 1228 2736 
Q 959 2375 959 1747 
Q 959 1119 1226 758 
Q 1494 397 1959 397 
Q 2419 397 2687 759 
Q 2956 1122 2956 1747 
Q 2956 2369 2687 2733 
Q 2419 3097 1959 3097 
z
M 1959 3584 
Q 2709 3584 3137 3096 
Q 3566 2609 3566 1747 
Q 3566 888 3137 398 
Q 2709 -91 1959 -91 
Q 1206 -91 779 398 
Q 353 888 353 1747 
Q 353 2609 779 3096 
Q 1206 3584 1959 3584 
z
" id="DejaVuSans-6f" transform="scale(0.015625)"/>
       <path d="M 1984 4856 
Q 1566 4138 1362 3434 
Q 1159 2731 1159 2009 
Q 1159 1288 1364 580 
Q 1569 -128 1984 -844 
L 1484 -844 
Q 1016 -109 783 600 
Q 550 1309 550 2009 
Q 550 2706 781 3412 
Q 1013 4119 1484 4856 
L 1984 4856 
z
" id="DejaVuSans-28" transform="scale(0.015625)"/>
       <path d="M 2906 2969 
L 2906 4863 
L 3481 4863 
L 3481 0 
L 2906 0 
L 2906 525 
Q 2725 213 2448 61 
Q 2172 -91 1784 -91 
Q 1150 -91 751 415 
Q 353 922 353 1747 
Q 353 2572 751 3078 
Q 1150 3584 1784 3584 
Q 2172 3584 2448 3432 
Q 2725 3281 2906 2969 
z
M 947 1747 
Q 947 1113 1208 752 
Q 1469 391 1925 391 
Q 2381 391 2643 752 
Q 2906 1113 2906 1747 
Q 2906 2381 2643 2742 
Q 2381 3103 1925 3103 
Q 1469 3103 1208 2742 
Q 947 2381 947 1747 
z
" id="DejaVuSans-64" transform="scale(0.015625)"/>
       <path d="M 1259 2228 
L 1259 519 
L 2272 519 
Q 2781 519 3026 730 
Q 3272 941 3272 1375 
Q 3272 1813 3026 2020 
Q 2781 2228 2272 2228 
L 1259 2228 
z
M 1259 4147 
L 1259 2741 
L 2194 2741 
Q 2656 2741 2882 2914 
Q 3109 3088 3109 3444 
Q 3109 3797 2882 3972 
Q 2656 4147 2194 4147 
L 1259 4147 
z
M 628 4666 
L 2241 4666 
Q 2963 4666 3353 4366 
Q 3744 4066 3744 3513 
Q 3744 3084 3544 2831 
Q 3344 2578 2956 2516 
Q 3422 2416 3680 2098 
Q 3938 1781 3938 1306 
Q 3938 681 3513 340 
Q 3088 0 2303 0 
L 628 0 
L 628 4666 
z
" id="DejaVuSans-42" transform="scale(0.015625)"/>
       <path d="M 513 4856 
L 1013 4856 
Q 1481 4119 1714 3412 
Q 1947 2706 1947 2009 
Q 1947 1309 1714 600 
Q 1481 -109 1013 -844 
L 513 -844 
Q 928 -128 1133 580 
Q 1338 1288 1338 2009 
Q 1338 2731 1133 3434 
Q 928 4138 513 4856 
z
" id="DejaVuSans-29" transform="scale(0.015625)"/>
      </defs>
      <use xlink:href="#DejaVuSans-53"/>
      <use x="63.476562" xlink:href="#DejaVuSans-75"/>
      <use x="126.855469" xlink:href="#DejaVuSans-79"/>
      <use x="186.035156" xlink:href="#DejaVuSans-20"/>
      <use x="217.822266" xlink:href="#DejaVuSans-68"/>
      <use x="281.201172" xlink:href="#DejaVuSans-61"/>
      <use x="342.480469" xlink:href="#DejaVuSans-6f"/>
      <use x="403.662109" xlink:href="#DejaVuSans-20"/>
      <use x="435.449219" xlink:href="#DejaVuSans-28"/>
      <use x="474.462891" xlink:href="#DejaVuSans-64"/>
      <use x="537.939453" xlink:href="#DejaVuSans-42"/>
      <use x="606.542969" xlink:href="#DejaVuSans-29"/>
     </g>
    </g>
   </g>
   <g id="line2d_25">
    <path clip-path="url(#p6ad6937fde)" d="M 59.24 33.351153 
L 78.749917 33.458584 
L 79.643501 33.762931 
L 80.388154 34.252678 
L 81.132808 35.024183 
L 81.877461 36.136191 
L 82.622114 37.643948 
L 83.515698 40.051826 
L 84.409282 43.206027 
L 85.302866 47.221943 
L 86.19645 52.249507 
L 87.090034 58.503104 
L 87.983618 66.321304 
L 88.877202 76.31212 
L 89.621855 87.217479 
L 90.217578 99.000826 
L 90.66437 111.859468 
L 90.962231 126.998234 
L 91.111162 157.837968 
L 91.260093 134.276228 
L 91.409023 131.306225 
L 91.557954 131.99954 
L 91.706885 135.283357 
L 92.004746 152.92909 
L 92.302607 134.417242 
L 92.600469 131.55581 
L 92.749399 131.731304 
L 92.89833 132.798376 
L 93.196191 138.566448 
L 93.345122 145.879512 
L 93.494053 159.97346 
L 93.791914 137.354197 
L 94.089775 132.733393 
L 94.387637 131.440038 
L 94.536567 131.624946 
L 94.685498 132.340687 
L 94.983359 135.744904 
L 95.13229 139.045264 
L 95.281221 144.922841 
L 95.430151 167.30136 
L 95.728013 140.124165 
L 96.025874 134.304784 
L 96.323735 131.981516 
L 96.472666 131.561104 
L 96.621597 131.549504 
L 96.770527 131.937142 
L 97.068389 134.064362 
L 97.36625 139.014962 
L 97.515181 143.976207 
L 97.664111 156.296782 
L 98.408765 133.81053 
L 98.706626 131.907535 
L 98.855557 131.554607 
L 99.004487 131.545745 
L 99.153418 131.876333 
L 99.451279 133.674068 
L 99.749141 137.679982 
L 99.898071 141.317654 
L 100.047002 147.931124 
L 100.195933 175.738194 
L 100.344863 147.04472 
L 100.642725 137.480578 
L 100.940586 133.646075 
L 101.238447 131.907067 
L 101.387378 131.570661 
L 101.536309 131.545272 
L 101.685239 131.827086 
L 101.983101 133.407406 
L 102.280962 136.876027 
L 102.578823 144.810225 
L 102.727754 156.753462 
L 102.876685 152.388554 
L 103.174546 139.107745 
L 103.472407 134.500476 
L 103.770269 132.288703 
L 104.06813 131.489505 
L 104.217061 131.529114 
L 104.365991 131.857027 
L 104.663853 133.481564 
L 104.961714 136.921409 
L 105.259575 144.604589 
L 105.408506 155.464003 
L 105.557437 153.736731 
L 105.855298 139.567276 
L 106.153159 134.801701 
L 106.451021 132.473807 
L 106.748882 131.546929 
L 106.897812 131.509896 
L 107.046743 131.747267 
L 107.344604 133.119794 
L 107.642466 136.089311 
L 107.940327 142.317108 
L 108.089258 149.199316 
L 108.238188 170.166345 
L 108.53605 141.453992 
L 108.833911 135.725519 
L 109.131772 132.946805 
L 109.429634 131.680854 
L 109.578564 131.479456 
L 109.727495 131.543078 
L 109.876426 131.874782 
L 110.174287 133.440759 
L 110.472148 136.676716 
L 110.77001 143.580396 
L 111.067871 159.081327 
L 111.365732 140.683859 
L 111.663594 135.436673 
L 111.961455 132.843217 
L 112.259316 131.680799 
L 112.408247 131.517021 
L 112.557178 131.612757 
L 112.855039 132.618663 
L 113.1529 134.969997 
L 113.450762 139.650841 
L 113.599692 143.963598 
L 113.897554 157.822934 
L 114.195415 140.586635 
L 114.493276 135.42293 
L 114.791138 132.847981 
L 115.088999 131.679262 
L 115.23793 131.505362 
L 115.38686 131.586176 
L 115.535791 131.925878 
L 115.833652 133.479525 
L 116.131514 136.646904 
L 116.429375 143.289107 
L 116.727236 162.279291 
L 117.025098 141.191466 
L 117.322959 135.734624 
L 117.62082 133.025163 
L 117.918682 131.757275 
L 118.067612 131.536117 
L 118.216543 131.56769 
L 118.365474 131.853515 
L 118.663335 133.270151 
L 118.961196 136.20365 
L 119.259058 142.199283 
L 119.407988 148.56749 
L 119.556919 199.411861 
L 119.70585 148.650607 
L 120.003711 138.630471 
L 120.301572 134.506127 
L 120.599434 132.404952 
L 120.897295 131.545469 
L 121.046226 131.501751 
L 121.195156 131.707305 
L 121.493018 132.927072 
L 121.790879 135.541001 
L 122.08874 140.737001 
L 122.237671 145.749457 
L 122.386602 158.075866 
L 123.131255 135.09057 
L 123.429116 132.705079 
L 123.726978 131.638291 
L 123.875908 131.498525 
L 124.024839 131.60587 
L 124.3227 132.599107 
L 124.620562 134.875148 
L 124.918423 139.329748 
L 125.067354 143.325367 
L 125.365215 163.039144 
L 125.663076 141.363304 
L 125.960938 135.857916 
L 126.258799 133.109909 
L 126.55666 131.796658 
L 126.705591 131.547767 
L 126.854521 131.546712 
L 127.003452 131.793334 
L 127.301313 133.100063 
L 127.599175 135.834162 
L 127.897036 141.29698 
L 128.045967 146.71899 
L 128.194897 162.149071 
L 128.492759 143.471155 
L 128.79062 136.799518 
L 129.088481 133.603183 
L 129.386343 132.006618 
L 129.684204 131.519943 
L 129.833135 131.647692 
L 130.130996 132.680901 
L 130.428857 135.00624 
L 130.726719 139.554672 
L 130.875649 143.666272 
L 131.173511 160.8702 
L 131.471372 141.17002 
L 131.769233 135.781113 
L 132.067095 133.075673 
L 132.364956 131.783922 
L 132.513887 131.541899 
L 132.662817 131.546004 
L 132.811748 131.796428 
L 133.109609 133.107426 
L 133.407471 135.841445 
L 133.705332 141.296167 
L 133.854263 146.702185 
L 134.003193 161.982885 
L 134.301055 143.513394 
L 134.598916 136.825255 
L 134.896777 133.620421 
L 135.194639 132.01594 
L 135.343569 131.642465 
L 135.343569 131.642465 
" style="fill:none;stroke:#008000;stroke-linecap:square;stroke-width:1.5;"/>
   </g>
   <g id="line2d_26">
    <path clip-path="url(#p6ad6937fde)" d="M 78.303125 174.04 
L 78.303125 27.96 
" style="fill:none;stroke:#1f77b4;stroke-dasharray:3.7,1.6;stroke-dashoffset:0;"/>
   </g>
   <g id="line2d_27">
    <path clip-path="url(#p6ad6937fde)" d="M 91.011875 174.04 
L 91.011875 27.96 
" style="fill:none;stroke:#ff7f0e;stroke-dasharray:3.7,1.6;stroke-dashoffset:0;"/>
   </g>
   <g id="line2d_28">
    <path clip-path="url(#p6ad6937fde)" d="M 135.4925 174.04 
L 135.4925 27.96 
" style="fill:none;stroke:#ff0000;stroke-dasharray:3.7,1.6;stroke-dashoffset:0;"/>
   </g>
   <g id="patch_3">
    <path d="M 59.24 174.04 
L 59.24 27.96 
" style="fill:none;stroke:#000000;stroke-linecap:square;stroke-linejoin:miter;stroke-width:0.8;"/>
   </g>
   <g id="patch_4">
    <path d="M 364.25 174.04 
L 364.25 27.96 
" style="fill:none;stroke:#000000;stroke-linecap:square;stroke-linejoin:miter;stroke-width:0.8;"/>
   </g>
   <g id="patch_5">
    <path d="M 59.24 174.04 
L 364.25 174.04 
" style="fill:none;stroke:#000000;stroke-linecap:square;stroke-linejoin:miter;stroke-width:0.8;"/>
   </g>
   <g id="patch_6">
    <path d="M 59.24 27.96 
L 364.25 27.96 
" style="fill:none;stroke:#000000;stroke-linecap:square;stroke-linejoin:miter;stroke-width:0.8;"/>
   </g>
   <g id="text_15">
    <!-- Bộ lọc FIR - Đáp ứng tần số -->
    <g transform="translate(130.239688 21.96)scale(0.12 -0.12)">
     <defs>
      <path d="M 1666 -441 
L 2241 -441 
L 2241 -1172 
L 1666 -1172 
L 1666 -441 
z
M 1959 3097 
Q 1497 3097 1228 2736 
Q 959 2375 959 1747 
Q 959 1119 1226 758 
Q 1494 397 1959 397 
Q 2419 397 2687 759 
Q 2956 1122 2956 1747 
Q 2956 2369 2687 2733 
Q 2419 3097 1959 3097 
z
M 1959 3584 
Q 2709 3584 3137 3096 
Q 3566 2609 3566 1747 
Q 3566 888 3137 398 
Q 2709 -91 1959 -91 
Q 1206 -91 779 398 
Q 353 888 353 1747 
Q 353 2609 779 3096 
Q 1206 3584 1959 3584 
z
M 1666 -441 
L 2241 -441 
L 2241 -1172 
L 1666 -1172 
L 1666 -441 
z
M 1729 5119 
L 2191 5119 
L 2957 3944 
L 2523 3944 
L 1960 4709 
L 1398 3944 
L 963 3944 
L 1729 5119 
z
" id="DejaVuSans-1ed9" transform="scale(0.015625)"/>
      <path d="M 603 4863 
L 1178 4863 
L 1178 0 
L 603 0 
L 603 4863 
z
" id="DejaVuSans-6c" transform="scale(0.015625)"/>
      <path d="M 1959 3097 
Q 1497 3097 1228 2736 
Q 959 2375 959 1747 
Q 959 1119 1226 758 
Q 1494 397 1959 397 
Q 2419 397 2687 759 
Q 2956 1122 2956 1747 
Q 2956 2369 2687 2733 
Q 2419 3097 1959 3097 
z
M 1959 3584 
Q 2709 3584 3137 3096 
Q 3566 2609 3566 1747 
Q 3566 888 3137 398 
Q 2709 -91 1959 -91 
Q 1206 -91 779 398 
Q 353 888 353 1747 
Q 353 2609 779 3096 
Q 1206 3584 1959 3584 
z
M 1666 -441 
L 2241 -441 
L 2241 -1172 
L 1666 -1172 
L 1666 -441 
z
" id="DejaVuSans-1ecd" transform="scale(0.015625)"/>
      <path d="M 3122 3366 
L 3122 2828 
Q 2878 2963 2633 3030 
Q 2388 3097 2138 3097 
Q 1578 3097 1268 2742 
Q 959 2388 959 1747 
Q 959 1106 1268 751 
Q 1578 397 2138 397 
Q 2388 397 2633 464 
Q 2878 531 3122 666 
L 3122 134 
Q 2881 22 2623 -34 
Q 2366 -91 2075 -91 
Q 1284 -91 818 406 
Q 353 903 353 1747 
Q 353 2603 823 3093 
Q 1294 3584 2113 3584 
Q 2378 3584 2631 3529 
Q 2884 3475 3122 3366 
z
" id="DejaVuSans-63" transform="scale(0.015625)"/>
      <path d="M 628 4666 
L 3309 4666 
L 3309 4134 
L 1259 4134 
L 1259 2759 
L 3109 2759 
L 3109 2228 
L 1259 2228 
L 1259 0 
L 628 0 
L 628 4666 
z
" id="DejaVuSans-46" transform="scale(0.015625)"/>
      <path d="M 628 4666 
L 1259 4666 
L 1259 0 
L 628 0 
L 628 4666 
z
" id="DejaVuSans-49" transform="scale(0.015625)"/>
      <path d="M 2841 2188 
Q 3044 2119 3236 1894 
Q 3428 1669 3622 1275 
L 4263 0 
L 3584 0 
L 2988 1197 
Q 2756 1666 2539 1819 
Q 2322 1972 1947 1972 
L 1259 1972 
L 1259 0 
L 628 0 
L 628 4666 
L 2053 4666 
Q 2853 4666 3247 4331 
Q 3641 3997 3641 3322 
Q 3641 2881 3436 2590 
Q 3231 2300 2841 2188 
z
M 1259 4147 
L 1259 2491 
L 2053 2491 
Q 2509 2491 2742 2702 
Q 2975 2913 2975 3322 
Q 2975 3731 2742 3939 
Q 2509 4147 2053 4147 
L 1259 4147 
z
" id="DejaVuSans-52" transform="scale(0.015625)"/>
      <path d="M 313 2009 
L 1997 2009 
L 1997 1497 
L 313 1497 
L 313 2009 
z
" id="DejaVuSans-2d" transform="scale(0.015625)"/>
      <path d="M 659 4666 
L 1959 4666 
Q 3313 4666 3947 4102 
Q 4581 3538 4581 2338 
Q 4581 1131 3945 565 
Q 3309 0 1959 0 
L 659 0 
L 659 2188 
L 31 2188 
L 31 2638 
L 659 2638 
L 659 4666 
z
M 1294 4147 
L 1294 2638 
L 2344 2638 
L 2344 2188 
L 1294 2188 
L 1294 519 
L 2053 519 
Q 3019 519 3467 956 
Q 3916 1394 3916 2338 
Q 3916 3275 3467 3711 
Q 3019 4147 2053 4147 
L 1294 4147 
z
" id="DejaVuSans-110" transform="scale(0.015625)"/>
      <path d="M 2194 1759 
Q 1497 1759 1228 1600 
Q 959 1441 959 1056 
Q 959 750 1161 570 
Q 1363 391 1709 391 
Q 2188 391 2477 730 
Q 2766 1069 2766 1631 
L 2766 1759 
L 2194 1759 
z
M 3341 1997 
L 3341 0 
L 2766 0 
L 2766 531 
Q 2569 213 2275 61 
Q 1981 -91 1556 -91 
Q 1019 -91 701 211 
Q 384 513 384 1019 
Q 384 1609 779 1909 
Q 1175 2209 1959 2209 
L 2766 2209 
L 2766 2266 
Q 2766 2663 2505 2880 
Q 2244 3097 1772 3097 
Q 1472 3097 1187 3025 
Q 903 2953 641 2809 
L 641 3341 
Q 956 3463 1253 3523 
Q 1550 3584 1831 3584 
Q 2591 3584 2966 3190 
Q 3341 2797 3341 1997 
z
M 2290 5119 
L 2912 5119 
L 1894 3944 
L 1415 3944 
L 2290 5119 
z
" id="DejaVuSans-e1" transform="scale(0.015625)"/>
      <path d="M 1159 525 
L 1159 -1331 
L 581 -1331 
L 581 3500 
L 1159 3500 
L 1159 2969 
Q 1341 3281 1617 3432 
Q 1894 3584 2278 3584 
Q 2916 3584 3314 3078 
Q 3713 2572 3713 1747 
Q 3713 922 3314 415 
Q 2916 -91 2278 -91 
Q 1894 -91 1617 61 
Q 1341 213 1159 525 
z
M 3116 1747 
Q 3116 2381 2855 2742 
Q 2594 3103 2138 3103 
Q 1681 3103 1420 2742 
Q 1159 2381 1159 1747 
Q 1159 1113 1420 752 
Q 1681 391 2138 391 
Q 2594 391 2855 752 
Q 3116 1113 3116 1747 
z
" id="DejaVuSans-70" transform="scale(0.015625)"/>
      <path d="M 2418 5119 
L 3040 5119 
L 2022 3944 
L 1543 3944 
L 2418 5119 
z
M 3094 3136 
L 3094 3508 
Q 3285 3367 3422 3300 
Q 3560 3233 3657 3233 
Q 3800 3233 3872 3319 
Q 3944 3405 3944 3573 
Q 3944 3673 3920 3770 
Q 3897 3867 3850 3964 
L 4266 3964 
Q 4297 3845 4312 3739 
Q 4328 3633 4328 3539 
Q 4328 3158 4192 2978 
Q 4057 2798 3766 2798 
Q 3616 2798 3452 2881 
Q 3288 2964 3094 3136 
z
M 552 1381 
L 552 3500 
L 1127 3500 
L 1127 1403 
Q 1127 906 1320 657 
Q 1514 409 1902 409 
Q 2367 409 2637 706 
Q 2908 1003 2908 1516 
L 2908 3500 
L 3483 3500 
L 3483 0 
L 2908 0 
L 2908 538 
Q 2699 219 2422 64 
Q 2146 -91 1780 -91 
Q 1177 -91 864 284 
Q 552 659 552 1381 
z
M 1999 3584 
L 1999 3584 
z
" id="DejaVuSans-1ee9" transform="scale(0.015625)"/>
      <path d="M 2906 1791 
Q 2906 2416 2648 2759 
Q 2391 3103 1925 3103 
Q 1463 3103 1205 2759 
Q 947 2416 947 1791 
Q 947 1169 1205 825 
Q 1463 481 1925 481 
Q 2391 481 2648 825 
Q 2906 1169 2906 1791 
z
M 3481 434 
Q 3481 -459 3084 -895 
Q 2688 -1331 1869 -1331 
Q 1566 -1331 1297 -1286 
Q 1028 -1241 775 -1147 
L 775 -588 
Q 1028 -725 1275 -790 
Q 1522 -856 1778 -856 
Q 2344 -856 2625 -561 
Q 2906 -266 2906 331 
L 2906 616 
Q 2728 306 2450 153 
Q 2172 0 1784 0 
Q 1141 0 747 490 
Q 353 981 353 1791 
Q 353 2603 747 3093 
Q 1141 3584 1784 3584 
Q 2172 3584 2450 3431 
Q 2728 3278 2906 2969 
L 2906 3500 
L 3481 3500 
L 3481 434 
z
" id="DejaVuSans-67" transform="scale(0.015625)"/>
      <path d="M 1172 4494 
L 1172 3500 
L 2356 3500 
L 2356 3053 
L 1172 3053 
L 1172 1153 
Q 1172 725 1289 603 
Q 1406 481 1766 481 
L 2356 481 
L 2356 0 
L 1766 0 
Q 1100 0 847 248 
Q 594 497 594 1153 
L 594 3053 
L 172 3053 
L 172 3500 
L 594 3500 
L 594 4494 
L 1172 4494 
z
" id="DejaVuSans-74" transform="scale(0.015625)"/>
     </defs>
     <use xlink:href="#DejaVuSans-42"/>
     <use x="68.603516" xlink:href="#DejaVuSans-1ed9"/>
     <use x="129.785156" xlink:href="#DejaVuSans-20"/>
     <use x="161.572266" xlink:href="#DejaVuSans-6c"/>
     <use x="189.355469" xlink:href="#DejaVuSans-1ecd"/>
     <use x="250.537109" xlink:href="#DejaVuSans-63"/>
     <use x="305.517578" xlink:href="#DejaVuSans-20"/>
     <use x="337.304688" xlink:href="#DejaVuSans-46"/>
     <use x="394.824219" xlink:href="#DejaVuSans-49"/>
     <use x="424.316406" xlink:href="#DejaVuSans-52"/>
     <use x="493.798828" xlink:href="#DejaVuSans-20"/>
     <use x="525.585938" xlink:href="#DejaVuSans-2d"/>
     <use x="561.669922" xlink:href="#DejaVuSans-20"/>
     <use x="593.457031" xlink:href="#DejaVuSans-110"/>
     <use x="670.947266" xlink:href="#DejaVuSans-e1"/>
     <use x="732.226562" xlink:href="#DejaVuSans-70"/>
     <use x="795.703125" xlink:href="#DejaVuSans-20"/>
     <use x="827.490234" xlink:href="#DejaVuSans-1ee9"/>
     <use x="890.869141" xlink:href="#DejaVuSans-6e"/>
     <use x="954.248047" xlink:href="#DejaVuSans-67"/>
     <use x="1017.724609" xlink:href="#DejaVuSans-20"/>
     <use x="1049.511719" xlink:href="#DejaVuSans-74"/>
     <use x="1088.720703" xlink:href="#DejaVuSans-1ea7"/>
     <use x="1150" xlink:href="#DejaVuSans-6e"/>
     <use x="1213.378906" xlink:href="#DejaVuSans-20"/>
     <use x="1245.166016" xlink:href="#DejaVuSans-73"/>
     <use x="1297.265625" xlink:href="#DejaVuSans-1ed1"/>
    </g>
   </g>
   <g id="legend_1">
    <g id="patch_7">
     <path d="M 276.403125 80.9975 
L 357.25 80.9975 
Q 359.25 80.9975 359.25 78.9975 
L 359.25 34.96 
Q 359.25 32.96 357.25 32.96 
L 276.403125 32.96 
Q 274.403125 32.96 274.403125 34.96 
L 274.403125 78.9975 
Q 274.403125 80.9975 276.403125 80.9975 
z
" style="fill:#ffffff;opacity:0.8;stroke:#cccccc;stroke-linejoin:miter;"/>
    </g>
    <g id="line2d_29">
     <path d="M 278.403125 41.56 
L 298.403125 41.56 
" style="fill:none;stroke:#1f77b4;stroke-dasharray:3.7,1.6;stroke-dashoffset:0;"/>
    </g>
    <g id="line2d_30"/>
    <g id="text_16">
     <!-- Dải thông -->
     <g transform="translate(306.403125 45.06)scale(0.1 -0.1)">
      <defs>
       <path d="M 1259 4147 
L 1259 519 
L 2022 519 
Q 2988 519 3436 956 
Q 3884 1394 3884 2338 
Q 3884 3275 3436 3711 
Q 2988 4147 2022 4147 
L 1259 4147 
z
M 628 4666 
L 1925 4666 
Q 3281 4666 3915 4102 
Q 4550 3538 4550 2338 
Q 4550 1131 3912 565 
Q 3275 0 1925 0 
L 628 0 
L 628 4666 
z
" id="DejaVuSans-44" transform="scale(0.015625)"/>
       <path d="M 2194 1759 
Q 1497 1759 1228 1600 
Q 959 1441 959 1056 
Q 959 750 1161 570 
Q 1363 391 1709 391 
Q 2188 391 2477 730 
Q 2766 1069 2766 1631 
L 2766 1759 
L 2194 1759 
z
M 3341 1997 
L 3341 0 
L 2766 0 
L 2766 531 
Q 2569 213 2275 61 
Q 1981 -91 1556 -91 
Q 1019 -91 701 211 
Q 384 513 384 1019 
Q 384 1609 779 1909 
Q 1175 2209 1959 2209 
L 2766 2209 
L 2766 2266 
Q 2766 2663 2505 2880 
Q 2244 3097 1772 3097 
Q 1472 3097 1187 3025 
Q 903 2953 641 2809 
L 641 3341 
Q 956 3463 1253 3523 
Q 1550 3584 1831 3584 
Q 2591 3584 2966 3190 
Q 3341 2797 3341 1997 
z
M 1236 5025 
Q 1586 5184 1914 5184 
Q 2239 5184 2437 5051 
Q 2636 4919 2636 4709 
Q 2636 4519 2361 4316 
L 2223 4216 
Q 2114 4134 2102 4106 
Q 2080 4056 2080 3956 
L 1708 3956 
L 1708 3994 
Q 1708 4119 1755 4203 
Q 1802 4288 1961 4403 
L 2102 4509 
Q 2245 4616 2245 4741 
Q 2245 4806 2148 4862 
Q 2052 4919 1830 4919 
Q 1548 4919 1236 4756 
L 1236 5025 
z
" id="DejaVuSans-1ea3" transform="scale(0.015625)"/>
       <path d="M 603 3500 
L 1178 3500 
L 1178 0 
L 603 0 
L 603 3500 
z
M 603 4863 
L 1178 4863 
L 1178 4134 
L 603 4134 
L 603 4863 
z
" id="DejaVuSans-69" transform="scale(0.015625)"/>
       <path d="M 1959 3097 
Q 1497 3097 1228 2736 
Q 959 2375 959 1747 
Q 959 1119 1226 758 
Q 1494 397 1959 397 
Q 2419 397 2687 759 
Q 2956 1122 2956 1747 
Q 2956 2369 2687 2733 
Q 2419 3097 1959 3097 
z
M 1959 3584 
Q 2709 3584 3137 3096 
Q 3566 2609 3566 1747 
Q 3566 888 3137 398 
Q 2709 -91 1959 -91 
Q 1206 -91 779 398 
Q 353 888 353 1747 
Q 353 2609 779 3096 
Q 1206 3584 1959 3584 
z
M 1729 5119 
L 2191 5119 
L 2957 3944 
L 2523 3944 
L 1960 4709 
L 1398 3944 
L 963 3944 
L 1729 5119 
z
" id="DejaVuSans-f4" transform="scale(0.015625)"/>
      </defs>
      <use xlink:href="#DejaVuSans-44"/>
      <use x="77.001953" xlink:href="#DejaVuSans-1ea3"/>
      <use x="138.28125" xlink:href="#DejaVuSans-69"/>
      <use x="166.064453" xlink:href="#DejaVuSans-20"/>
      <use x="197.851562" xlink:href="#DejaVuSans-74"/>
      <use x="237.060547" xlink:href="#DejaVuSans-68"/>
      <use x="300.439453" xlink:href="#DejaVuSans-f4"/>
      <use x="361.621094" xlink:href="#DejaVuSans-6e"/>
      <use x="425" xlink:href="#DejaVuSans-67"/>
     </g>
    </g>
    <g id="line2d_31">
     <path d="M 278.403125 56.739688 
L 298.403125 56.739688 
" style="fill:none;stroke:#ff7f0e;stroke-dasharray:3.7,1.6;stroke-dashoffset:0;"/>
    </g>
    <g id="line2d_32"/>
    <g id="text_17">
     <!-- Dải dừng -->
     <g transform="translate(306.403125 60.239688)scale(0.1 -0.1)">
      <defs>
       <path d="M 1531 5119 
L 2412 3950 
L 1934 3950 
L 915 5119 
L 1531 5119 
z
M 3094 3136 
L 3094 3508 
Q 3285 3367 3422 3300 
Q 3560 3233 3657 3233 
Q 3800 3233 3872 3319 
Q 3944 3405 3944 3573 
Q 3944 3673 3920 3770 
Q 3897 3867 3850 3964 
L 4266 3964 
Q 4297 3845 4312 3739 
Q 4328 3633 4328 3539 
Q 4328 3158 4192 2978 
Q 4057 2798 3766 2798 
Q 3616 2798 3452 2881 
Q 3288 2964 3094 3136 
z
M 552 1381 
L 552 3500 
L 1127 3500 
L 1127 1403 
Q 1127 906 1320 657 
Q 1514 409 1902 409 
Q 2367 409 2637 706 
Q 2908 1003 2908 1516 
L 2908 3500 
L 3483 3500 
L 3483 0 
L 2908 0 
L 2908 538 
Q 2699 219 2422 64 
Q 2146 -91 1780 -91 
Q 1177 -91 864 284 
Q 552 659 552 1381 
z
M 1999 3584 
L 1999 3584 
z
" id="DejaVuSans-1eeb" transform="scale(0.015625)"/>
      </defs>
      <use xlink:href="#DejaVuSans-44"/>
      <use x="77.001953" xlink:href="#DejaVuSans-1ea3"/>
      <use x="138.28125" xlink:href="#DejaVuSans-69"/>
      <use x="166.064453" xlink:href="#DejaVuSans-20"/>
      <use x="197.851562" xlink:href="#DejaVuSans-64"/>
      <use x="261.328125" xlink:href="#DejaVuSans-1eeb"/>
      <use x="324.707031" xlink:href="#DejaVuSans-6e"/>
      <use x="388.085938" xlink:href="#DejaVuSans-67"/>
     </g>
    </g>
    <g id="line2d_33">
     <path d="M 278.403125 71.417812 
L 298.403125 71.417812 
" style="fill:none;stroke:#ff0000;stroke-dasharray:3.7,1.6;stroke-dashoffset:0;"/>
    </g>
    <g id="line2d_34"/>
    <g id="text_18">
     <!-- 24Khz -->
     <g transform="translate(306.403125 74.917812)scale(0.1 -0.1)">
      <defs>
       <path d="M 628 4666 
L 1259 4666 
L 1259 2694 
L 3353 4666 
L 4166 4666 
L 1850 2491 
L 4331 0 
L 3500 0 
L 1259 2247 
L 1259 0 
L 628 0 
L 628 4666 
z
" id="DejaVuSans-4b" transform="scale(0.015625)"/>
      </defs>
      <use xlink:href="#DejaVuSans-32"/>
      <use x="63.623047" xlink:href="#DejaVuSans-34"/>
      <use x="127.246094" xlink:href="#DejaVuSans-4b"/>
      <use x="192.822266" xlink:href="#DejaVuSans-68"/>
      <use x="256.201172" xlink:href="#DejaVuSans-7a"/>
     </g>
    </g>
   </g>
  </g>
  <g id="axes_2">
   <g id="patch_8">
    <path d="M 397.89 174.04 
L 702.9 174.04 
L 702.9 27.96 
L 397.89 27.96 
z
" style="fill:#ffffff;"/>
   </g>
   <g id="matplotlib.axis_3">
    <g id="xtick_6">
     <g id="line2d_35">
      <path clip-path="url(#pf802ebbe64)" d="M 397.89 174.04 
L 397.89 27.96 
" style="fill:none;stroke:#b0b0b0;stroke-linecap:square;stroke-width:0.8;"/>
     </g>
     <g id="line2d_36">
      <g>
       <use style="stroke:#000000;stroke-width:0.8;" x="397.89" xlink:href="#mdf54b62bee" y="174.04"/>
      </g>
     </g>
     <g id="text_19">
      <!-- 0 -->
      <g transform="translate(394.70875 188.638438)scale(0.1 -0.1)">
       <use xlink:href="#DejaVuSans-30"/>
      </g>
     </g>
    </g>
    <g id="xtick_7">
     <g id="line2d_37">
      <path clip-path="url(#pf802ebbe64)" d="M 458.892 174.04 
L 458.892 27.96 
" style="fill:none;stroke:#b0b0b0;stroke-linecap:square;stroke-width:0.8;"/>
     </g>
     <g id="line2d_38">
      <g>
       <use style="stroke:#000000;stroke-width:0.8;" x="458.892" xlink:href="#mdf54b62bee" y="174.04"/>
      </g>
     </g>
     <g id="text_20">
      <!-- 10 -->
      <g transform="translate(452.5295 188.638438)scale(0.1 -0.1)">
       <use xlink:href="#DejaVuSans-31"/>
       <use x="63.623047" xlink:href="#DejaVuSans-30"/>
      </g>
     </g>
    </g>
    <g id="xtick_8">
     <g id="line2d_39">
      <path clip-path="url(#pf802ebbe64)" d="M 519.894 174.04 
L 519.894 27.96 
" style="fill:none;stroke:#b0b0b0;stroke-linecap:square;stroke-width:0.8;"/>
     </g>
     <g id="line2d_40">
      <g>
       <use style="stroke:#000000;stroke-width:0.8;" x="519.894" xlink:href="#mdf54b62bee" y="174.04"/>
      </g>
     </g>
     <g id="text_21">
      <!-- 20 -->
      <g transform="translate(513.5315 188.638438)scale(0.1 -0.1)">
       <use xlink:href="#DejaVuSans-32"/>
       <use x="63.623047" xlink:href="#DejaVuSans-30"/>
      </g>
     </g>
    </g>
    <g id="xtick_9">
     <g id="line2d_41">
      <path clip-path="url(#pf802ebbe64)" d="M 580.896 174.04 
L 580.896 27.96 
" style="fill:none;stroke:#b0b0b0;stroke-linecap:square;stroke-width:0.8;"/>
     </g>
     <g id="line2d_42">
      <g>
       <use style="stroke:#000000;stroke-width:0.8;" x="580.896" xlink:href="#mdf54b62bee" y="174.04"/>
      </g>
     </g>
     <g id="text_22">
      <!-- 30 -->
      <g transform="translate(574.5335 188.638438)scale(0.1 -0.1)">
       <defs>
        <path d="M 2597 2516 
Q 3050 2419 3304 2112 
Q 3559 1806 3559 1356 
Q 3559 666 3084 287 
Q 2609 -91 1734 -91 
Q 1441 -91 1130 -33 
Q 819 25 488 141 
L 488 750 
Q 750 597 1062 519 
Q 1375 441 1716 441 
Q 2309 441 2620 675 
Q 2931 909 2931 1356 
Q 2931 1769 2642 2001 
Q 2353 2234 1838 2234 
L 1294 2234 
L 1294 2753 
L 1863 2753 
Q 2328 2753 2575 2939 
Q 2822 3125 2822 3475 
Q 2822 3834 2567 4026 
Q 2313 4219 1838 4219 
Q 1578 4219 1281 4162 
Q 984 4106 628 3988 
L 628 4550 
Q 988 4650 1302 4700 
Q 1616 4750 1894 4750 
Q 2613 4750 3031 4423 
Q 3450 4097 3450 3541 
Q 3450 3153 3228 2886 
Q 3006 2619 2597 2516 
z
" id="DejaVuSans-33" transform="scale(0.015625)"/>
       </defs>
       <use xlink:href="#DejaVuSans-33"/>
       <use x="63.623047" xlink:href="#DejaVuSans-30"/>
      </g>
     </g>
    </g>
    <g id="xtick_10">
     <g id="line2d_43">
      <path clip-path="url(#pf802ebbe64)" d="M 641.898 174.04 
L 641.898 27.96 
" style="fill:none;stroke:#b0b0b0;stroke-linecap:square;stroke-width:0.8;"/>
     </g>
     <g id="line2d_44">
      <g>
       <use style="stroke:#000000;stroke-width:0.8;" x="641.898" xlink:href="#mdf54b62bee" y="174.04"/>
      </g>
     </g>
     <g id="text_23">
      <!-- 40 -->
      <g transform="translate(635.5355 188.638438)scale(0.1 -0.1)">
       <use xlink:href="#DejaVuSans-34"/>
       <use x="63.623047" xlink:href="#DejaVuSans-30"/>
      </g>
     </g>
    </g>
    <g id="xtick_11">
     <g id="line2d_45">
      <path clip-path="url(#pf802ebbe64)" d="M 702.9 174.04 
L 702.9 27.96 
" style="fill:none;stroke:#b0b0b0;stroke-linecap:square;stroke-width:0.8;"/>
     </g>
     <g id="line2d_46">
      <g>
       <use style="stroke:#000000;stroke-width:0.8;" x="702.9" xlink:href="#mdf54b62bee" y="174.04"/>
      </g>
     </g>
     <g id="text_24">
      <!-- 50 -->
      <g transform="translate(696.5375 188.638438)scale(0.1 -0.1)">
       <defs>
        <path d="M 691 4666 
L 3169 4666 
L 3169 4134 
L 1269 4134 
L 1269 2991 
Q 1406 3038 1543 3061 
Q 1681 3084 1819 3084 
Q 2600 3084 3056 2656 
Q 3513 2228 3513 1497 
Q 3513 744 3044 326 
Q 2575 -91 1722 -91 
Q 1428 -91 1123 -41 
Q 819 9 494 109 
L 494 744 
Q 775 591 1075 516 
Q 1375 441 1709 441 
Q 2250 441 2565 725 
Q 2881 1009 2881 1497 
Q 2881 1984 2565 2268 
Q 2250 2553 1709 2553 
Q 1456 2553 1204 2497 
Q 953 2441 691 2322 
L 691 4666 
z
" id="DejaVuSans-35" transform="scale(0.015625)"/>
       </defs>
       <use xlink:href="#DejaVuSans-35"/>
       <use x="63.623047" xlink:href="#DejaVuSans-30"/>
      </g>
     </g>
    </g>
    <g id="text_25">
     <!-- n -->
     <g transform="translate(547.22625 202.316563)scale(0.1 -0.1)">
      <use xlink:href="#DejaVuSans-6e"/>
     </g>
    </g>
   </g>
   <g id="matplotlib.axis_4">
    <g id="ytick_8">
     <g id="line2d_47">
      <path clip-path="url(#pf802ebbe64)" d="M 397.89 147.530611 
L 702.9 147.530611 
" style="fill:none;stroke:#b0b0b0;stroke-linecap:square;stroke-width:0.8;"/>
     </g>
     <g id="line2d_48">
      <g>
       <use style="stroke:#000000;stroke-width:0.8;" x="397.89" xlink:href="#mb1f36f924d" y="147.530611"/>
      </g>
     </g>
     <g id="text_26">
      <!-- 0.0 -->
      <g transform="translate(374.986875 151.329829)scale(0.1 -0.1)">
       <defs>
        <path d="M 684 794 
L 1344 794 
L 1344 0 
L 684 0 
L 684 794 
z
" id="DejaVuSans-2e" transform="scale(0.015625)"/>
       </defs>
       <use xlink:href="#DejaVuSans-30"/>
       <use x="63.623047" xlink:href="#DejaVuSans-2e"/>
       <use x="95.410156" xlink:href="#DejaVuSans-30"/>
      </g>
     </g>
    </g>
    <g id="ytick_9">
     <g id="line2d_49">
      <path clip-path="url(#pf802ebbe64)" d="M 397.89 112.074671 
L 702.9 112.074671 
" style="fill:none;stroke:#b0b0b0;stroke-linecap:square;stroke-width:0.8;"/>
     </g>
     <g id="line2d_50">
      <g>
       <use style="stroke:#000000;stroke-width:0.8;" x="397.89" xlink:href="#mb1f36f924d" y="112.074671"/>
      </g>
     </g>
     <g id="text_27">
      <!-- 0.1 -->
      <g transform="translate(374.986875 115.87389)scale(0.1 -0.1)">
       <use xlink:href="#DejaVuSans-30"/>
       <use x="63.623047" xlink:href="#DejaVuSans-2e"/>
       <use x="95.410156" xlink:href="#DejaVuSans-31"/>
      </g>
     </g>
    </g>
    <g id="ytick_10">
     <g id="line2d_51">
      <path clip-path="url(#pf802ebbe64)" d="M 397.89 76.618731 
L 702.9 76.618731 
" style="fill:none;stroke:#b0b0b0;stroke-linecap:square;stroke-width:0.8;"/>
     </g>
     <g id="line2d_52">
      <g>
       <use style="stroke:#000000;stroke-width:0.8;" x="397.89" xlink:href="#mb1f36f924d" y="76.618731"/>
      </g>
     </g>
     <g id="text_28">
      <!-- 0.2 -->
      <g transform="translate(374.986875 80.41795)scale(0.1 -0.1)">
       <use xlink:href="#DejaVuSans-30"/>
       <use x="63.623047" xlink:href="#DejaVuSans-2e"/>
       <use x="95.410156" xlink:href="#DejaVuSans-32"/>
      </g>
     </g>
    </g>
    <g id="ytick_11">
     <g id="line2d_53">
      <path clip-path="url(#pf802ebbe64)" d="M 397.89 41.162791 
L 702.9 41.162791 
" style="fill:none;stroke:#b0b0b0;stroke-linecap:square;stroke-width:0.8;"/>
     </g>
     <g id="line2d_54">
      <g>
       <use style="stroke:#000000;stroke-width:0.8;" x="397.89" xlink:href="#mb1f36f924d" y="41.162791"/>
      </g>
     </g>
     <g id="text_29">
      <!-- 0.3 -->
      <g transform="translate(374.986875 44.96201)scale(0.1 -0.1)">
       <use xlink:href="#DejaVuSans-30"/>
       <use x="63.623047" xlink:href="#DejaVuSans-2e"/>
       <use x="95.410156" xlink:href="#DejaVuSans-33"/>
      </g>
     </g>
    </g>
   </g>
   <g id="LineCollection_1">
    <path clip-path="url(#pf802ebbe64)" d="M 397.89 147.530611 
L 397.89 147.565001 
" style="fill:none;stroke:#1f77b4;stroke-width:1.5;"/>
    <path clip-path="url(#pf802ebbe64)" d="M 403.9902 147.530611 
L 403.9902 147.601045 
" style="fill:none;stroke:#1f77b4;stroke-width:1.5;"/>
    <path clip-path="url(#pf802ebbe64)" d="M 410.0904 147.530611 
L 410.0904 147.545615 
" style="fill:none;stroke:#1f77b4;stroke-width:1.5;"/>
    <path clip-path="url(#pf802ebbe64)" d="M 416.1906 147.530611 
L 416.1906 147.311465 
" style="fill:none;stroke:#1f77b4;stroke-width:1.5;"/>
    <path clip-path="url(#pf802ebbe64)" d="M 422.2908 147.530611 
L 422.2908 147.00672 
" style="fill:none;stroke:#1f77b4;stroke-width:1.5;"/>
    <path clip-path="url(#pf802ebbe64)" d="M 428.391 147.530611 
L 428.391 146.992723 
" style="fill:none;stroke:#1f77b4;stroke-width:1.5;"/>
    <path clip-path="url(#pf802ebbe64)" d="M 434.4912 147.530611 
L 434.4912 147.585121 
" style="fill:none;stroke:#1f77b4;stroke-width:1.5;"/>
    <path clip-path="url(#pf802ebbe64)" d="M 440.5914 147.530611 
L 440.5914 148.541138 
" style="fill:none;stroke:#1f77b4;stroke-width:1.5;"/>
    <path clip-path="url(#pf802ebbe64)" d="M 446.6916 147.530611 
L 446.6916 148.931124 
" style="fill:none;stroke:#1f77b4;stroke-width:1.5;"/>
    <path clip-path="url(#pf802ebbe64)" d="M 452.7918 147.530611 
L 452.7918 147.878833 
" style="fill:none;stroke:#1f77b4;stroke-width:1.5;"/>
    <path clip-path="url(#pf802ebbe64)" d="M 458.892 147.530611 
L 458.892 145.751928 
" style="fill:none;stroke:#1f77b4;stroke-width:1.5;"/>
    <path clip-path="url(#pf802ebbe64)" d="M 464.9922 147.530611 
L 464.9922 144.487 
" style="fill:none;stroke:#1f77b4;stroke-width:1.5;"/>
    <path clip-path="url(#pf802ebbe64)" d="M 471.0924 147.530611 
L 471.0924 146.094355 
" style="fill:none;stroke:#1f77b4;stroke-width:1.5;"/>
    <path clip-path="url(#pf802ebbe64)" d="M 477.1926 147.530611 
L 477.1926 150.221405 
" style="fill:none;stroke:#1f77b4;stroke-width:1.5;"/>
    <path clip-path="url(#pf802ebbe64)" d="M 483.2928 147.530611 
L 483.2928 153.321277 
" style="fill:none;stroke:#1f77b4;stroke-width:1.5;"/>
    <path clip-path="url(#pf802ebbe64)" d="M 489.393 147.530611 
L 489.393 151.259359 
" style="fill:none;stroke:#1f77b4;stroke-width:1.5;"/>
    <path clip-path="url(#pf802ebbe64)" d="M 495.4932 147.530611 
L 495.4932 143.890212 
" style="fill:none;stroke:#1f77b4;stroke-width:1.5;"/>
    <path clip-path="url(#pf802ebbe64)" d="M 501.5934 147.530611 
L 501.5934 137.141869 
" style="fill:none;stroke:#1f77b4;stroke-width:1.5;"/>
    <path clip-path="url(#pf802ebbe64)" d="M 507.6936 147.530611 
L 507.6936 139.115667 
" style="fill:none;stroke:#1f77b4;stroke-width:1.5;"/>
    <path clip-path="url(#pf802ebbe64)" d="M 513.7938 147.530611 
L 513.7938 152.007039 
" style="fill:none;stroke:#1f77b4;stroke-width:1.5;"/>
    <path clip-path="url(#pf802ebbe64)" d="M 519.894 147.530611 
L 519.894 166.837384 
" style="fill:none;stroke:#1f77b4;stroke-width:1.5;"/>
    <path clip-path="url(#pf802ebbe64)" d="M 525.9942 147.530611 
L 525.9942 167.4 
" style="fill:none;stroke:#1f77b4;stroke-width:1.5;"/>
    <path clip-path="url(#pf802ebbe64)" d="M 532.0944 147.530611 
L 532.0944 142.479538 
" style="fill:none;stroke:#1f77b4;stroke-width:1.5;"/>
    <path clip-path="url(#pf802ebbe64)" d="M 538.1946 147.530611 
L 538.1946 97.166897 
" style="fill:none;stroke:#1f77b4;stroke-width:1.5;"/>
    <path clip-path="url(#pf802ebbe64)" d="M 544.2948 147.530611 
L 544.2948 52.955309 
" style="fill:none;stroke:#1f77b4;stroke-width:1.5;"/>
    <path clip-path="url(#pf802ebbe64)" d="M 550.395 147.530611 
L 550.395 34.6 
" style="fill:none;stroke:#1f77b4;stroke-width:1.5;"/>
    <path clip-path="url(#pf802ebbe64)" d="M 556.4952 147.530611 
L 556.4952 52.955309 
" style="fill:none;stroke:#1f77b4;stroke-width:1.5;"/>
    <path clip-path="url(#pf802ebbe64)" d="M 562.5954 147.530611 
L 562.5954 97.166897 
" style="fill:none;stroke:#1f77b4;stroke-width:1.5;"/>
    <path clip-path="url(#pf802ebbe64)" d="M 568.6956 147.530611 
L 568.6956 142.479538 
" style="fill:none;stroke:#1f77b4;stroke-width:1.5;"/>
    <path clip-path="url(#pf802ebbe64)" d="M 574.7958 147.530611 
L 574.7958 167.4 
" style="fill:none;stroke:#1f77b4;stroke-width:1.5;"/>
    <path clip-path="url(#pf802ebbe64)" d="M 580.896 147.530611 
L 580.896 166.837384 
" style="fill:none;stroke:#1f77b4;stroke-width:1.5;"/>
    <path clip-path="url(#pf802ebbe64)" d="M 586.9962 147.530611 
L 586.9962 152.007039 
" style="fill:none;stroke:#1f77b4;stroke-width:1.5;"/>
    <path clip-path="url(#pf802ebbe64)" d="M 593.0964 147.530611 
L 593.0964 139.115667 
" style="fill:none;stroke:#1f77b4;stroke-width:1.5;"/>
    <path clip-path="url(#pf802ebbe64)" d="M 599.1966 147.530611 
L 599.1966 137.141869 
" style="fill:none;stroke:#1f77b4;stroke-width:1.5;"/>
    <path clip-path="url(#pf802ebbe64)" d="M 605.2968 147.530611 
L 605.2968 143.890212 
" style="fill:none;stroke:#1f77b4;stroke-width:1.5;"/>
    <path clip-path="url(#pf802ebbe64)" d="M 611.397 147.530611 
L 611.397 151.259359 
" style="fill:none;stroke:#1f77b4;stroke-width:1.5;"/>
    <path clip-path="url(#pf802ebbe64)" d="M 617.4972 147.530611 
L 617.4972 153.321277 
" style="fill:none;stroke:#1f77b4;stroke-width:1.5;"/>
    <path clip-path="url(#pf802ebbe64)" d="M 623.5974 147.530611 
L 623.5974 150.221405 
" style="fill:none;stroke:#1f77b4;stroke-width:1.5;"/>
    <path clip-path="url(#pf802ebbe64)" d="M 629.6976 147.530611 
L 629.6976 146.094355 
" style="fill:none;stroke:#1f77b4;stroke-width:1.5;"/>
    <path clip-path="url(#pf802ebbe64)" d="M 635.7978 147.530611 
L 635.7978 144.487 
" style="fill:none;stroke:#1f77b4;stroke-width:1.5;"/>
    <path clip-path="url(#pf802ebbe64)" d="M 641.898 147.530611 
L 641.898 145.751928 
" style="fill:none;stroke:#1f77b4;stroke-width:1.5;"/>
    <path clip-path="url(#pf802ebbe64)" d="M 647.9982 147.530611 
L 647.9982 147.878833 
" style="fill:none;stroke:#1f77b4;stroke-width:1.5;"/>
    <path clip-path="url(#pf802ebbe64)" d="M 654.0984 147.530611 
L 654.0984 148.931124 
" style="fill:none;stroke:#1f77b4;stroke-width:1.5;"/>
    <path clip-path="url(#pf802ebbe64)" d="M 660.1986 147.530611 
L 660.1986 148.541138 
" style="fill:none;stroke:#1f77b4;stroke-width:1.5;"/>
    <path clip-path="url(#pf802ebbe64)" d="M 666.2988 147.530611 
L 666.2988 147.585121 
" style="fill:none;stroke:#1f77b4;stroke-width:1.5;"/>
    <path clip-path="url(#pf802ebbe64)" d="M 672.399 147.530611 
L 672.399 146.992723 
" style="fill:none;stroke:#1f77b4;stroke-width:1.5;"/>
    <path clip-path="url(#pf802ebbe64)" d="M 678.4992 147.530611 
L 678.4992 147.00672 
" style="fill:none;stroke:#1f77b4;stroke-width:1.5;"/>
    <path clip-path="url(#pf802ebbe64)" d="M 684.5994 147.530611 
L 684.5994 147.311465 
" style="fill:none;stroke:#1f77b4;stroke-width:1.5;"/>
    <path clip-path="url(#pf802ebbe64)" d="M 690.6996 147.530611 
L 690.6996 147.545615 
" style="fill:none;stroke:#1f77b4;stroke-width:1.5;"/>
    <path clip-path="url(#pf802ebbe64)" d="M 696.7998 147.530611 
L 696.7998 147.601045 
" style="fill:none;stroke:#1f77b4;stroke-width:1.5;"/>
    <path clip-path="url(#pf802ebbe64)" d="M 702.9 147.530611 
L 702.9 147.565001 
" style="fill:none;stroke:#1f77b4;stroke-width:1.5;"/>
   </g>
   <g id="line2d_55">
    <defs>
     <path d="M 0 3 
C 0.795609 3 1.55874 2.683901 2.12132 2.12132 
C 2.683901 1.55874 3 0.795609 3 0 
C 3 -0.795609 2.683901 -1.55874 2.12132 -2.12132 
C 1.55874 -2.683901 0.795609 -3 0 -3 
C -0.795609 -3 -1.55874 -2.683901 -2.12132 -2.12132 
C -2.683901 -1.55874 -3 -0.795609 -3 0 
C -3 0.795609 -2.683901 1.55874 -2.12132 2.12132 
C -1.55874 2.683901 -0.795609 3 0 3 
z
" id="m188aa59e08" style="stroke:#1f77b4;"/>
    </defs>
    <g clip-path="url(#pf802ebbe64)">
     <use style="fill:#1f77b4;stroke:#1f77b4;" x="397.89" xlink:href="#m188aa59e08" y="147.565001"/>
     <use style="fill:#1f77b4;stroke:#1f77b4;" x="403.9902" xlink:href="#m188aa59e08" y="147.601045"/>
     <use style="fill:#1f77b4;stroke:#1f77b4;" x="410.0904" xlink:href="#m188aa59e08" y="147.545615"/>
     <use style="fill:#1f77b4;stroke:#1f77b4;" x="416.1906" xlink:href="#m188aa59e08" y="147.311465"/>
     <use style="fill:#1f77b4;stroke:#1f77b4;" x="422.2908" xlink:href="#m188aa59e08" y="147.00672"/>
     <use style="fill:#1f77b4;stroke:#1f77b4;" x="428.391" xlink:href="#m188aa59e08" y="146.992723"/>
     <use style="fill:#1f77b4;stroke:#1f77b4;" x="434.4912" xlink:href="#m188aa59e08" y="147.585121"/>
     <use style="fill:#1f77b4;stroke:#1f77b4;" x="440.5914" xlink:href="#m188aa59e08" y="148.541138"/>
     <use style="fill:#1f77b4;stroke:#1f77b4;" x="446.6916" xlink:href="#m188aa59e08" y="148.931124"/>
     <use style="fill:#1f77b4;stroke:#1f77b4;" x="452.7918" xlink:href="#m188aa59e08" y="147.878833"/>
     <use style="fill:#1f77b4;stroke:#1f77b4;" x="458.892" xlink:href="#m188aa59e08" y="145.751928"/>
     <use style="fill:#1f77b4;stroke:#1f77b4;" x="464.9922" xlink:href="#m188aa59e08" y="144.487"/>
     <use style="fill:#1f77b4;stroke:#1f77b4;" x="471.0924" xlink:href="#m188aa59e08" y="146.094355"/>
     <use style="fill:#1f77b4;stroke:#1f77b4;" x="477.1926" xlink:href="#m188aa59e08" y="150.221405"/>
     <use style="fill:#1f77b4;stroke:#1f77b4;" x="483.2928" xlink:href="#m188aa59e08" y="153.321277"/>
     <use style="fill:#1f77b4;stroke:#1f77b4;" x="489.393" xlink:href="#m188aa59e08" y="151.259359"/>
     <use style="fill:#1f77b4;stroke:#1f77b4;" x="495.4932" xlink:href="#m188aa59e08" y="143.890212"/>
     <use style="fill:#1f77b4;stroke:#1f77b4;" x="501.5934" xlink:href="#m188aa59e08" y="137.141869"/>
     <use style="fill:#1f77b4;stroke:#1f77b4;" x="507.6936" xlink:href="#m188aa59e08" y="139.115667"/>
     <use style="fill:#1f77b4;stroke:#1f77b4;" x="513.7938" xlink:href="#m188aa59e08" y="152.007039"/>
     <use style="fill:#1f77b4;stroke:#1f77b4;" x="519.894" xlink:href="#m188aa59e08" y="166.837384"/>
     <use style="fill:#1f77b4;stroke:#1f77b4;" x="525.9942" xlink:href="#m188aa59e08" y="167.4"/>
     <use style="fill:#1f77b4;stroke:#1f77b4;" x="532.0944" xlink:href="#m188aa59e08" y="142.479538"/>
     <use style="fill:#1f77b4;stroke:#1f77b4;" x="538.1946" xlink:href="#m188aa59e08" y="97.166897"/>
     <use style="fill:#1f77b4;stroke:#1f77b4;" x="544.2948" xlink:href="#m188aa59e08" y="52.955309"/>
     <use style="fill:#1f77b4;stroke:#1f77b4;" x="550.395" xlink:href="#m188aa59e08" y="34.6"/>
     <use style="fill:#1f77b4;stroke:#1f77b4;" x="556.4952" xlink:href="#m188aa59e08" y="52.955309"/>
     <use style="fill:#1f77b4;stroke:#1f77b4;" x="562.5954" xlink:href="#m188aa59e08" y="97.166897"/>
     <use style="fill:#1f77b4;stroke:#1f77b4;" x="568.6956" xlink:href="#m188aa59e08" y="142.479538"/>
     <use style="fill:#1f77b4;stroke:#1f77b4;" x="574.7958" xlink:href="#m188aa59e08" y="167.4"/>
     <use style="fill:#1f77b4;stroke:#1f77b4;" x="580.896" xlink:href="#m188aa59e08" y="166.837384"/>
     <use style="fill:#1f77b4;stroke:#1f77b4;" x="586.9962" xlink:href="#m188aa59e08" y="152.007039"/>
     <use style="fill:#1f77b4;stroke:#1f77b4;" x="593.0964" xlink:href="#m188aa59e08" y="139.115667"/>
     <use style="fill:#1f77b4;stroke:#1f77b4;" x="599.1966" xlink:href="#m188aa59e08" y="137.141869"/>
     <use style="fill:#1f77b4;stroke:#1f77b4;" x="605.2968" xlink:href="#m188aa59e08" y="143.890212"/>
     <use style="fill:#1f77b4;stroke:#1f77b4;" x="611.397" xlink:href="#m188aa59e08" y="151.259359"/>
     <use style="fill:#1f77b4;stroke:#1f77b4;" x="617.4972" xlink:href="#m188aa59e08" y="153.321277"/>
     <use style="fill:#1f77b4;stroke:#1f77b4;" x="623.5974" xlink:href="#m188aa59e08" y="150.221405"/>
     <use style="fill:#1f77b4;stroke:#1f77b4;" x="629.6976" xlink:href="#m188aa59e08" y="146.094355"/>
     <use style="fill:#1f77b4;stroke:#1f77b4;" x="635.7978" xlink:href="#m188aa59e08" y="144.487"/>
     <use style="fill:#1f77b4;stroke:#1f77b4;" x="641.898" xlink:href="#m188aa59e08" y="145.751928"/>
     <use style="fill:#1f77b4;stroke:#1f77b4;" x="647.9982" xlink:href="#m188aa59e08" y="147.878833"/>
     <use style="fill:#1f77b4;stroke:#1f77b4;" x="654.0984" xlink:href="#m188aa59e08" y="148.931124"/>
     <use style="fill:#1f77b4;stroke:#1f77b4;" x="660.1986" xlink:href="#m188aa59e08" y="148.541138"/>
     <use style="fill:#1f77b4;stroke:#1f77b4;" x="666.2988" xlink:href="#m188aa59e08" y="147.585121"/>
     <use style="fill:#1f77b4;stroke:#1f77b4;" x="672.399" xlink:href="#m188aa59e08" y="146.992723"/>
     <use style="fill:#1f77b4;stroke:#1f77b4;" x="678.4992" xlink:href="#m188aa59e08" y="147.00672"/>
     <use style="fill:#1f77b4;stroke:#1f77b4;" x="684.5994" xlink:href="#m188aa59e08" y="147.311465"/>
     <use style="fill:#1f77b4;stroke:#1f77b4;" x="690.6996" xlink:href="#m188aa59e08" y="147.545615"/>
     <use style="fill:#1f77b4;stroke:#1f77b4;" x="696.7998" xlink:href="#m188aa59e08" y="147.601045"/>
     <use style="fill:#1f77b4;stroke:#1f77b4;" x="702.9" xlink:href="#m188aa59e08" y="147.565001"/>
    </g>
   </g>
   <g id="line2d_56">
    <path clip-path="url(#pf802ebbe64)" d="M 397.89 147.530611 
L 702.9 147.530611 
" style="fill:none;stroke:#d62728;stroke-linecap:square;stroke-width:1.5;"/>
   </g>
   <g id="patch_9">
    <path d="M 397.89 174.04 
L 397.89 27.96 
" style="fill:none;stroke:#000000;stroke-linecap:square;stroke-linejoin:miter;stroke-width:0.8;"/>
   </g>
   <g id="patch_10">
    <path d="M 702.9 174.04 
L 702.9 27.96 
" style="fill:none;stroke:#000000;stroke-linecap:square;stroke-linejoin:miter;stroke-width:0.8;"/>
   </g>
   <g id="patch_11">
    <path d="M 397.89 174.04 
L 702.9 174.04 
" style="fill:none;stroke:#000000;stroke-linecap:square;stroke-linejoin:miter;stroke-width:0.8;"/>
   </g>
   <g id="patch_12">
    <path d="M 397.89 27.96 
L 702.9 27.96 
" style="fill:none;stroke:#000000;stroke-linecap:square;stroke-linejoin:miter;stroke-width:0.8;"/>
   </g>
   <g id="text_30">
    <!-- Đáp ứng xung - 51 Taps -->
    <g transform="translate(479.260312 21.96)scale(0.12 -0.12)">
     <defs>
      <path d="M 3513 3500 
L 2247 1797 
L 3578 0 
L 2900 0 
L 1881 1375 
L 863 0 
L 184 0 
L 1544 1831 
L 300 3500 
L 978 3500 
L 1906 2253 
L 2834 3500 
L 3513 3500 
z
" id="DejaVuSans-78" transform="scale(0.015625)"/>
     </defs>
     <use xlink:href="#DejaVuSans-110"/>
     <use x="77.490234" xlink:href="#DejaVuSans-e1"/>
     <use x="138.769531" xlink:href="#DejaVuSans-70"/>
     <use x="202.246094" xlink:href="#DejaVuSans-20"/>
     <use x="234.033203" xlink:href="#DejaVuSans-1ee9"/>
     <use x="297.412109" xlink:href="#DejaVuSans-6e"/>
     <use x="360.791016" xlink:href="#DejaVuSans-67"/>
     <use x="424.267578" xlink:href="#DejaVuSans-20"/>
     <use x="456.054688" xlink:href="#DejaVuSans-78"/>
     <use x="515.234375" xlink:href="#DejaVuSans-75"/>
     <use x="578.613281" xlink:href="#DejaVuSans-6e"/>
     <use x="641.992188" xlink:href="#DejaVuSans-67"/>
     <use x="705.46875" xlink:href="#DejaVuSans-20"/>
     <use x="737.255859" xlink:href="#DejaVuSans-2d"/>
     <use x="773.339844" xlink:href="#DejaVuSans-20"/>
     <use x="805.126953" xlink:href="#DejaVuSans-35"/>
     <use x="868.75" xlink:href="#DejaVuSans-31"/>
     <use x="932.373047" xlink:href="#DejaVuSans-20"/>
     <use x="964.160156" xlink:href="#DejaVuSans-54"/>
     <use x="1008.744141" xlink:href="#DejaVuSans-61"/>
     <use x="1070.023438" xlink:href="#DejaVuSans-70"/>
     <use x="1133.5" xlink:href="#DejaVuSans-73"/>
    </g>
   </g>
  </g>
 </g>
 <defs>
  <clipPath id="p6ad6937fde">
   <rect height="146.08" width="305.01" x="59.24" y="27.96"/>
  </clipPath>
  <clipPath id="pf802ebbe64">
   <rect height="146.08" width="305.01" x="397.89" y="27.96"/>
  </clipPath>
 </defs>
</svg>
